%TF.GenerationSoftware,KiCad,Pcbnew,7.0.9*%
%TF.CreationDate,2024-01-30T16:44:37+01:00*%
%TF.ProjectId,tm-gamepad,746d2d67-616d-4657-9061-642e6b696361,rev?*%
%TF.SameCoordinates,Original*%
%TF.FileFunction,Copper,L1,Top*%
%TF.FilePolarity,Positive*%
%FSLAX46Y46*%
G04 Gerber Fmt 4.6, Leading zero omitted, Abs format (unit mm)*
G04 Created by KiCad (PCBNEW 7.0.9) date 2024-01-30 16:44:37*
%MOMM*%
%LPD*%
G01*
G04 APERTURE LIST*
G04 Aperture macros list*
%AMRoundRect*
0 Rectangle with rounded corners*
0 $1 Rounding radius*
0 $2 $3 $4 $5 $6 $7 $8 $9 X,Y pos of 4 corners*
0 Add a 4 corners polygon primitive as box body*
4,1,4,$2,$3,$4,$5,$6,$7,$8,$9,$2,$3,0*
0 Add four circle primitives for the rounded corners*
1,1,$1+$1,$2,$3*
1,1,$1+$1,$4,$5*
1,1,$1+$1,$6,$7*
1,1,$1+$1,$8,$9*
0 Add four rect primitives between the rounded corners*
20,1,$1+$1,$2,$3,$4,$5,0*
20,1,$1+$1,$4,$5,$6,$7,0*
20,1,$1+$1,$6,$7,$8,$9,0*
20,1,$1+$1,$8,$9,$2,$3,0*%
G04 Aperture macros list end*
%TA.AperFunction,ComponentPad*%
%ADD10O,2.500000X1.500000*%
%TD*%
%TA.AperFunction,ComponentPad*%
%ADD11O,1.500000X2.500000*%
%TD*%
%TA.AperFunction,SMDPad,CuDef*%
%ADD12RoundRect,0.150000X-0.587500X-0.150000X0.587500X-0.150000X0.587500X0.150000X-0.587500X0.150000X0*%
%TD*%
%TA.AperFunction,ComponentPad*%
%ADD13C,2.286000*%
%TD*%
%TA.AperFunction,ViaPad*%
%ADD14C,0.800000*%
%TD*%
%TA.AperFunction,Conductor*%
%ADD15C,0.250000*%
%TD*%
G04 APERTURE END LIST*
D10*
%TO.P,U5,23,5V*%
%TO.N,5V*%
X124334000Y-37063000D03*
%TO.P,U5,22,GND*%
%TO.N,GND*%
X124334000Y-39603000D03*
%TO.P,U5,21,3V3*%
%TO.N,unconnected-(U5-3V3-Pad21)*%
X124334000Y-42143000D03*
%TO.P,U5,20,29*%
%TO.N,Net-(Back_A0-OUT)*%
X124334000Y-44683000D03*
%TO.P,U5,19,28*%
%TO.N,Net-(Back_A1-OUT)*%
X124334000Y-47223000D03*
%TO.P,U5,18,27*%
%TO.N,Net-(Back_A2-OUT)*%
X124334000Y-49763000D03*
%TO.P,U5,17,26*%
%TO.N,Net-(Back_A3-OUT)*%
X124334000Y-52303000D03*
%TO.P,U5,16,15*%
%TO.N,unconnected-(U5-15-Pad16)*%
X124334000Y-54843000D03*
%TO.P,U5,15,14*%
%TO.N,unconnected-(U5-14-Pad15)*%
X124334000Y-57383000D03*
D11*
%TO.P,U5,14,13*%
%TO.N,unconnected-(U5-13-Pad14)*%
X127374000Y-57883000D03*
%TO.P,U5,13,12*%
%TO.N,unconnected-(U5-12-Pad13)*%
X129914000Y-57883000D03*
%TO.P,U5,12,11*%
%TO.N,unconnected-(U5-11-Pad12)*%
X132454000Y-57883000D03*
%TO.P,U5,11,10*%
%TO.N,unconnected-(U5-10-Pad11)*%
X134994000Y-57883000D03*
%TO.P,U5,10,9*%
%TO.N,unconnected-(U5-9-Pad10)*%
X137534000Y-57883000D03*
D10*
%TO.P,U5,9,8*%
%TO.N,Digital8*%
X140574000Y-57383000D03*
%TO.P,U5,8,7*%
%TO.N,Digital7*%
X140574000Y-54843000D03*
%TO.P,U5,7,6*%
%TO.N,Digital6*%
X140574000Y-52303000D03*
%TO.P,U5,6,5*%
%TO.N,Digital5*%
X140574000Y-49763000D03*
%TO.P,U5,5,4*%
%TO.N,Digital4*%
X140574000Y-47223000D03*
%TO.P,U5,4,3*%
%TO.N,Digital3*%
X140574000Y-44683000D03*
%TO.P,U5,3,2*%
%TO.N,Digital2*%
X140574000Y-42143000D03*
%TO.P,U5,2,1*%
%TO.N,Digital1*%
X140574000Y-39603000D03*
%TO.P,U5,1,0*%
%TO.N,Digital0*%
X140574000Y-37063000D03*
%TD*%
D12*
%TO.P,Back_A3,3,GND*%
%TO.N,GND*%
X199812500Y-83545000D03*
%TO.P,Back_A3,2,OUT*%
%TO.N,Net-(Back_A3-OUT)*%
X197937500Y-84495000D03*
%TO.P,Back_A3,1,VCC*%
%TO.N,5V*%
X197937500Y-82595000D03*
%TD*%
D13*
%TO.P,SW4,2,2*%
%TO.N,GND*%
X193160000Y-61955000D03*
%TO.P,SW4,1,1*%
%TO.N,Digital4*%
X186810000Y-59415000D03*
%TO.P,SW4,2,2*%
%TO.N,GND*%
X191890000Y-59415000D03*
%TO.P,SW4,1,1*%
%TO.N,Digital4*%
X185540000Y-61955000D03*
%TD*%
%TO.P,SW8,1,1*%
%TO.N,Digital8*%
X90290000Y-42905000D03*
%TO.P,SW8,2,2*%
%TO.N,GND*%
X96640000Y-40365000D03*
%TO.P,SW8,1,1*%
%TO.N,Digital8*%
X91560000Y-40365000D03*
%TO.P,SW8,2,2*%
%TO.N,GND*%
X97910000Y-42905000D03*
%TD*%
%TO.P,SW7,1,1*%
%TO.N,Digital7*%
X71240000Y-42905000D03*
%TO.P,SW7,2,2*%
%TO.N,GND*%
X77590000Y-40365000D03*
%TO.P,SW7,1,1*%
%TO.N,Digital7*%
X72510000Y-40365000D03*
%TO.P,SW7,2,2*%
%TO.N,GND*%
X78860000Y-42905000D03*
%TD*%
%TO.P,SW6,1,1*%
%TO.N,Digital6*%
X52190000Y-42905000D03*
%TO.P,SW6,2,2*%
%TO.N,GND*%
X58540000Y-40365000D03*
%TO.P,SW6,1,1*%
%TO.N,Digital6*%
X53460000Y-40365000D03*
%TO.P,SW6,2,2*%
%TO.N,GND*%
X59810000Y-42905000D03*
%TD*%
%TO.P,SW5,2,2*%
%TO.N,GND*%
X174110000Y-61955000D03*
%TO.P,SW5,1,1*%
%TO.N,Digital5*%
X167760000Y-59415000D03*
%TO.P,SW5,2,2*%
%TO.N,GND*%
X172840000Y-59415000D03*
%TO.P,SW5,1,1*%
%TO.N,Digital5*%
X166490000Y-61955000D03*
%TD*%
%TO.P,SW3,2,2*%
%TO.N,GND*%
X212210000Y-61955000D03*
%TO.P,SW3,1,1*%
%TO.N,Digital3*%
X205860000Y-59415000D03*
%TO.P,SW3,2,2*%
%TO.N,GND*%
X210940000Y-59415000D03*
%TO.P,SW3,1,1*%
%TO.N,Digital3*%
X204590000Y-61955000D03*
%TD*%
%TO.P,SW2,2,2*%
%TO.N,GND*%
X174110000Y-42905000D03*
%TO.P,SW2,1,1*%
%TO.N,Digital2*%
X167760000Y-40365000D03*
%TO.P,SW2,2,2*%
%TO.N,GND*%
X172840000Y-40365000D03*
%TO.P,SW2,1,1*%
%TO.N,Digital2*%
X166490000Y-42905000D03*
%TD*%
%TO.P,SW1,1,1*%
%TO.N,Digital1*%
X185540000Y-42905000D03*
%TO.P,SW1,2,2*%
%TO.N,GND*%
X191890000Y-40365000D03*
%TO.P,SW1,1,1*%
%TO.N,Digital1*%
X186810000Y-40365000D03*
%TO.P,SW1,2,2*%
%TO.N,GND*%
X193160000Y-42905000D03*
%TD*%
%TO.P,SW0,2,2*%
%TO.N,GND*%
X212210000Y-42905000D03*
%TO.P,SW0,1,1*%
%TO.N,Digital0*%
X205860000Y-40365000D03*
%TO.P,SW0,2,2*%
%TO.N,GND*%
X210940000Y-40365000D03*
%TO.P,SW0,1,1*%
%TO.N,Digital0*%
X204590000Y-42905000D03*
%TD*%
D12*
%TO.P,Back_A0,3,GND*%
%TO.N,GND*%
X75987500Y-64495000D03*
%TO.P,Back_A0,2,OUT*%
%TO.N,Net-(Back_A0-OUT)*%
X74112500Y-65445000D03*
%TO.P,Back_A0,1,VCC*%
%TO.N,5V*%
X74112500Y-63545000D03*
%TD*%
%TO.P,Back_A1,3,GND*%
%TO.N,GND*%
X56937500Y-83545000D03*
%TO.P,Back_A1,2,OUT*%
%TO.N,Net-(Back_A1-OUT)*%
X55062500Y-84495000D03*
%TO.P,Back_A1,1,VCC*%
%TO.N,5V*%
X55062500Y-82595000D03*
%TD*%
%TO.P,Back_A2,1,VCC*%
%TO.N,5V*%
X93162500Y-82595000D03*
%TO.P,Back_A2,2,OUT*%
%TO.N,Net-(Back_A2-OUT)*%
X93162500Y-84495000D03*
%TO.P,Back_A2,3,GND*%
%TO.N,GND*%
X95037500Y-83545000D03*
%TD*%
D14*
%TO.N,5V*%
X59310758Y-82594692D03*
%TO.N,Net-(Back_A1-OUT)*%
X56889000Y-85704000D03*
%TO.N,GND*%
X59302000Y-83594156D03*
%TO.N,5V*%
X77971000Y-63495497D03*
%TO.N,Net-(Back_A0-OUT)*%
X77209000Y-66781000D03*
%TO.N,GND*%
X77971000Y-64495000D03*
X97034261Y-83593448D03*
%TO.N,5V*%
X97020124Y-82594045D03*
%TO.N,Net-(Back_A2-OUT)*%
X94227000Y-86212000D03*
%TO.N,Net-(Back_A3-OUT)*%
X197351000Y-85958000D03*
%TO.N,GND*%
X201542000Y-83545000D03*
%TO.N,5V*%
X201542000Y-82529000D03*
X201542000Y-82529000D03*
X201542000Y-82529000D03*
X201542000Y-82529000D03*
X201542000Y-82529000D03*
%TD*%
D15*
%TO.N,Net-(Back_A3-OUT)*%
X124834000Y-52303000D02*
X118738000Y-58399000D01*
X136772000Y-81005000D02*
X187572000Y-81005000D01*
X118738000Y-58399000D02*
X118738000Y-62971000D01*
X118738000Y-62971000D02*
X136772000Y-81005000D01*
X187572000Y-81005000D02*
X192525000Y-85958000D01*
X192525000Y-85958000D02*
X197351000Y-85958000D01*
%TO.N,Net-(Back_A2-OUT)*%
X94227000Y-86212000D02*
X87623000Y-86212000D01*
X87623000Y-86212000D02*
X86988000Y-85577000D01*
X86988000Y-85577000D02*
X86988000Y-82529000D01*
X119754000Y-49763000D02*
X124834000Y-49763000D01*
X86988000Y-82529000D02*
X119754000Y-49763000D01*
%TO.N,Net-(Back_A1-OUT)*%
X56889000Y-85704000D02*
X79749000Y-85704000D01*
X79749000Y-85704000D02*
X118230000Y-47223000D01*
X118230000Y-47223000D02*
X124834000Y-47223000D01*
%TO.N,Net-(Back_A0-OUT)*%
X77209000Y-66781000D02*
X95135720Y-66781000D01*
X95135720Y-66781000D02*
X117233720Y-44683000D01*
X117233720Y-44683000D02*
X124834000Y-44683000D01*
%TO.N,Net-(Back_A3-OUT)*%
X197937500Y-85371500D02*
X197937500Y-84495000D01*
X197351000Y-85958000D02*
X197937500Y-85371500D01*
%TO.N,GND*%
X201542000Y-83545000D02*
X199812500Y-83545000D01*
%TO.N,Net-(Back_A1-OUT)*%
X56271500Y-85704000D02*
X55062500Y-84495000D01*
X56889000Y-85704000D02*
X56271500Y-85704000D01*
%TO.N,Net-(Back_A0-OUT)*%
X77209000Y-66781000D02*
X75448500Y-66781000D01*
X75448500Y-66781000D02*
X74112500Y-65445000D01*
%TO.N,Net-(Back_A2-OUT)*%
X93162500Y-84495000D02*
X93162500Y-85147500D01*
X93162500Y-85147500D02*
X94227000Y-86212000D01*
%TO.N,GND*%
X75987500Y-64495000D02*
X77971000Y-64495000D01*
X59302000Y-83594156D02*
X59252844Y-83545000D01*
X59252844Y-83545000D02*
X56937500Y-83545000D01*
X97034261Y-83593448D02*
X96985813Y-83545000D01*
X96985813Y-83545000D02*
X95037500Y-83545000D01*
X124580000Y-39388223D02*
X124580000Y-39535000D01*
%TO.N,unconnected-(U5-15-Pad16)*%
X123886000Y-54775000D02*
X124580000Y-54775000D01*
%TD*%
%TA.AperFunction,Conductor*%
%TO.N,5V*%
G36*
X151193039Y-35304685D02*
G01*
X151238794Y-35357489D01*
X151250000Y-35409000D01*
X151250000Y-78465000D01*
X208276000Y-78465000D01*
X208343039Y-78484685D01*
X208388794Y-78537489D01*
X208400000Y-78589000D01*
X208400000Y-87231000D01*
X208380315Y-87298039D01*
X208327511Y-87343794D01*
X208276000Y-87355000D01*
X159003059Y-87355000D01*
X158936020Y-87335315D01*
X158920312Y-87323352D01*
X158734002Y-87156418D01*
X158508092Y-87006957D01*
X158485034Y-86996148D01*
X158262824Y-86891980D01*
X158262819Y-86891978D01*
X158262814Y-86891976D01*
X158003442Y-86813942D01*
X158003428Y-86813939D01*
X157887791Y-86796921D01*
X157735439Y-86774500D01*
X157532369Y-86774500D01*
X157532364Y-86774500D01*
X157329844Y-86789323D01*
X157329831Y-86789325D01*
X157065453Y-86848217D01*
X157065446Y-86848220D01*
X156812439Y-86944987D01*
X156576226Y-87077557D01*
X156361822Y-87243112D01*
X156361815Y-87243119D01*
X156290523Y-87317065D01*
X156229822Y-87351664D01*
X156201255Y-87355000D01*
X110235059Y-87355000D01*
X110168020Y-87335315D01*
X110152312Y-87323352D01*
X109966002Y-87156418D01*
X109740092Y-87006957D01*
X109717034Y-86996148D01*
X109494824Y-86891980D01*
X109494819Y-86891978D01*
X109494814Y-86891976D01*
X109235442Y-86813942D01*
X109235428Y-86813939D01*
X109119791Y-86796921D01*
X108967439Y-86774500D01*
X108764369Y-86774500D01*
X108764364Y-86774500D01*
X108561844Y-86789323D01*
X108561831Y-86789325D01*
X108297453Y-86848217D01*
X108297446Y-86848220D01*
X108044439Y-86944987D01*
X107808226Y-87077557D01*
X107593822Y-87243112D01*
X107593815Y-87243119D01*
X107522523Y-87317065D01*
X107461822Y-87351664D01*
X107433255Y-87355000D01*
X94360552Y-87355000D01*
X94293513Y-87335315D01*
X94247758Y-87282511D01*
X94237814Y-87213353D01*
X94266839Y-87149797D01*
X94325617Y-87112023D01*
X94334765Y-87109711D01*
X94506803Y-87073144D01*
X94679730Y-86996151D01*
X94832871Y-86884888D01*
X94959533Y-86744216D01*
X95054179Y-86580284D01*
X95112674Y-86400256D01*
X95132460Y-86212000D01*
X95112674Y-86023744D01*
X95054179Y-85843716D01*
X94959533Y-85679784D01*
X94832871Y-85539112D01*
X94825725Y-85533920D01*
X94679734Y-85427851D01*
X94679729Y-85427848D01*
X94506807Y-85350857D01*
X94506802Y-85350855D01*
X94351798Y-85317909D01*
X94321646Y-85311500D01*
X94321645Y-85311500D01*
X94302809Y-85311500D01*
X94235770Y-85291815D01*
X94190015Y-85239011D01*
X94180071Y-85169853D01*
X94209096Y-85106297D01*
X94215128Y-85099819D01*
X94268076Y-85046870D01*
X94268081Y-85046865D01*
X94351744Y-84905398D01*
X94397598Y-84747569D01*
X94400500Y-84710694D01*
X94400500Y-84469500D01*
X94420185Y-84402461D01*
X94472989Y-84356706D01*
X94524500Y-84345500D01*
X95690696Y-84345500D01*
X95709131Y-84344049D01*
X95727569Y-84342598D01*
X95727571Y-84342597D01*
X95727573Y-84342597D01*
X95773864Y-84329148D01*
X95885398Y-84296744D01*
X96026865Y-84213081D01*
X96028418Y-84211528D01*
X96033128Y-84206819D01*
X96094451Y-84173334D01*
X96120809Y-84170500D01*
X96286890Y-84170500D01*
X96353929Y-84190185D01*
X96379040Y-84211528D01*
X96428384Y-84266331D01*
X96428391Y-84266337D01*
X96581526Y-84377596D01*
X96581531Y-84377599D01*
X96754453Y-84454590D01*
X96754458Y-84454592D01*
X96939615Y-84493948D01*
X96939616Y-84493948D01*
X97128905Y-84493948D01*
X97128907Y-84493948D01*
X97314064Y-84454592D01*
X97486991Y-84377599D01*
X97640132Y-84266336D01*
X97766794Y-84125664D01*
X97861440Y-83961732D01*
X97919935Y-83781704D01*
X97939721Y-83593448D01*
X97919935Y-83405192D01*
X97861440Y-83225164D01*
X97766794Y-83061232D01*
X97640132Y-82920560D01*
X97611579Y-82899815D01*
X97486995Y-82809299D01*
X97486990Y-82809296D01*
X97314068Y-82732305D01*
X97314063Y-82732303D01*
X97168262Y-82701313D01*
X97128907Y-82692948D01*
X96939615Y-82692948D01*
X96907158Y-82699846D01*
X96754458Y-82732303D01*
X96754453Y-82732305D01*
X96581531Y-82809296D01*
X96581526Y-82809299D01*
X96462444Y-82895818D01*
X96396638Y-82919298D01*
X96389559Y-82919500D01*
X96120809Y-82919500D01*
X96053770Y-82899815D01*
X96033128Y-82883181D01*
X96026870Y-82876923D01*
X96026862Y-82876917D01*
X95943694Y-82827732D01*
X95885398Y-82793256D01*
X95885397Y-82793255D01*
X95885396Y-82793255D01*
X95885393Y-82793254D01*
X95727573Y-82747402D01*
X95727567Y-82747401D01*
X95690696Y-82744500D01*
X95690694Y-82744500D01*
X94384306Y-82744500D01*
X94384304Y-82744500D01*
X94347432Y-82747401D01*
X94347426Y-82747402D01*
X94189606Y-82793254D01*
X94189603Y-82793255D01*
X94131306Y-82827732D01*
X94068185Y-82845000D01*
X93412500Y-82845000D01*
X93412500Y-83395000D01*
X93675500Y-83395000D01*
X93742539Y-83414685D01*
X93788294Y-83467489D01*
X93799500Y-83519000D01*
X93799500Y-83570500D01*
X93779815Y-83637539D01*
X93727011Y-83683294D01*
X93675500Y-83694500D01*
X92509304Y-83694500D01*
X92472432Y-83697401D01*
X92472426Y-83697402D01*
X92314606Y-83743254D01*
X92314603Y-83743255D01*
X92173137Y-83826917D01*
X92173129Y-83826923D01*
X92056923Y-83943129D01*
X92056917Y-83943137D01*
X91973255Y-84084603D01*
X91973254Y-84084606D01*
X91927402Y-84242426D01*
X91927401Y-84242432D01*
X91924500Y-84279304D01*
X91924500Y-84710696D01*
X91927401Y-84747567D01*
X91927402Y-84747573D01*
X91973254Y-84905393D01*
X91973255Y-84905396D01*
X91973256Y-84905398D01*
X91997811Y-84946919D01*
X92056917Y-85046862D01*
X92056923Y-85046870D01*
X92173129Y-85163076D01*
X92173133Y-85163079D01*
X92173135Y-85163081D01*
X92314602Y-85246744D01*
X92356224Y-85258836D01*
X92472426Y-85292597D01*
X92478667Y-85293737D01*
X92478316Y-85295658D01*
X92535014Y-85317254D01*
X92576496Y-85373477D01*
X92579093Y-85381408D01*
X92583882Y-85397891D01*
X92584764Y-85399383D01*
X92585099Y-85400703D01*
X92586979Y-85405048D01*
X92586278Y-85405351D01*
X92601944Y-85467108D01*
X92579782Y-85533369D01*
X92525315Y-85577131D01*
X92478030Y-85586500D01*
X87933452Y-85586500D01*
X87866413Y-85566815D01*
X87845771Y-85550181D01*
X87649819Y-85354228D01*
X87616334Y-85292905D01*
X87613500Y-85266547D01*
X87613500Y-82845001D01*
X91927704Y-82845001D01*
X91927899Y-82847486D01*
X91973718Y-83005198D01*
X92057314Y-83146552D01*
X92057321Y-83146561D01*
X92173438Y-83262678D01*
X92173447Y-83262685D01*
X92314803Y-83346282D01*
X92314806Y-83346283D01*
X92472504Y-83392099D01*
X92472510Y-83392100D01*
X92509356Y-83395000D01*
X92912500Y-83395000D01*
X92912500Y-82845000D01*
X91927705Y-82845000D01*
X91927704Y-82845001D01*
X87613500Y-82845001D01*
X87613500Y-82839452D01*
X87633185Y-82772413D01*
X87649819Y-82751771D01*
X88056592Y-82344998D01*
X91927704Y-82344998D01*
X91927705Y-82345000D01*
X92912500Y-82345000D01*
X92912500Y-81795000D01*
X93412500Y-81795000D01*
X93412500Y-82345000D01*
X94397295Y-82345000D01*
X94397295Y-82344998D01*
X94397100Y-82342513D01*
X94351281Y-82184801D01*
X94267685Y-82043447D01*
X94267678Y-82043438D01*
X94151561Y-81927321D01*
X94151552Y-81927314D01*
X94010196Y-81843717D01*
X94010193Y-81843716D01*
X93852495Y-81797900D01*
X93852489Y-81797899D01*
X93815644Y-81795000D01*
X93412500Y-81795000D01*
X92912500Y-81795000D01*
X92509356Y-81795000D01*
X92472510Y-81797899D01*
X92472504Y-81797900D01*
X92314806Y-81843716D01*
X92314803Y-81843717D01*
X92173447Y-81927314D01*
X92173438Y-81927321D01*
X92057321Y-82043438D01*
X92057314Y-82043447D01*
X91973718Y-82184801D01*
X91927899Y-82342513D01*
X91927704Y-82344998D01*
X88056592Y-82344998D01*
X119976771Y-50424819D01*
X120038094Y-50391334D01*
X120064452Y-50388500D01*
X122676448Y-50388500D01*
X122743487Y-50408185D01*
X122782542Y-50450390D01*
X122783081Y-50450035D01*
X122785237Y-50453301D01*
X122785640Y-50453737D01*
X122786147Y-50454680D01*
X122926489Y-50630663D01*
X122926491Y-50630664D01*
X122926492Y-50630666D01*
X123096004Y-50778765D01*
X123289236Y-50894215D01*
X123348102Y-50916307D01*
X123403949Y-50958292D01*
X123428232Y-51023806D01*
X123413241Y-51092049D01*
X123363735Y-51141353D01*
X123358331Y-51144120D01*
X123190033Y-51225167D01*
X123190025Y-51225171D01*
X123007927Y-51357473D01*
X123007925Y-51357474D01*
X122852366Y-51520176D01*
X122728363Y-51708033D01*
X122639899Y-51915004D01*
X122639895Y-51915017D01*
X122589810Y-52134457D01*
X122589808Y-52134468D01*
X122584769Y-52246674D01*
X122579710Y-52359330D01*
X122609925Y-52582387D01*
X122609926Y-52582390D01*
X122679483Y-52796465D01*
X122786146Y-52994678D01*
X122786148Y-52994681D01*
X122926280Y-53170400D01*
X122952688Y-53235087D01*
X122939933Y-53303782D01*
X122917014Y-53335394D01*
X118354208Y-57898199D01*
X118341951Y-57908020D01*
X118342134Y-57908241D01*
X118336123Y-57913213D01*
X118288772Y-57963636D01*
X118267889Y-57984519D01*
X118267877Y-57984532D01*
X118263621Y-57990017D01*
X118259837Y-57994447D01*
X118227937Y-58028418D01*
X118227936Y-58028420D01*
X118218284Y-58045976D01*
X118207610Y-58062226D01*
X118195329Y-58078061D01*
X118195324Y-58078068D01*
X118176815Y-58120838D01*
X118174245Y-58126084D01*
X118151803Y-58166906D01*
X118146822Y-58186307D01*
X118140521Y-58204710D01*
X118132562Y-58223102D01*
X118132561Y-58223105D01*
X118125271Y-58269127D01*
X118124087Y-58274846D01*
X118112501Y-58319972D01*
X118112500Y-58319982D01*
X118112500Y-58340016D01*
X118110973Y-58359415D01*
X118107840Y-58379194D01*
X118107840Y-58379195D01*
X118112225Y-58425583D01*
X118112500Y-58431421D01*
X118112500Y-62888255D01*
X118110775Y-62903872D01*
X118111061Y-62903899D01*
X118110326Y-62911665D01*
X118112500Y-62980814D01*
X118112500Y-63010343D01*
X118112501Y-63010360D01*
X118113368Y-63017231D01*
X118113826Y-63023050D01*
X118115290Y-63069624D01*
X118115291Y-63069627D01*
X118120880Y-63088867D01*
X118124824Y-63107911D01*
X118126443Y-63120724D01*
X118127336Y-63127791D01*
X118144490Y-63171119D01*
X118146382Y-63176647D01*
X118159381Y-63221388D01*
X118169580Y-63238634D01*
X118178136Y-63256100D01*
X118185514Y-63274732D01*
X118200239Y-63295000D01*
X118212898Y-63312423D01*
X118216106Y-63317307D01*
X118239827Y-63357416D01*
X118239833Y-63357424D01*
X118253990Y-63371580D01*
X118266628Y-63386376D01*
X118271876Y-63393600D01*
X118278406Y-63402587D01*
X118292163Y-63413968D01*
X118314309Y-63432288D01*
X118318620Y-63436210D01*
X122850392Y-67967982D01*
X136271197Y-81388788D01*
X136281022Y-81401051D01*
X136281243Y-81400869D01*
X136286214Y-81406878D01*
X136312217Y-81431295D01*
X136336635Y-81454226D01*
X136357529Y-81475120D01*
X136363011Y-81479373D01*
X136367443Y-81483157D01*
X136401418Y-81515062D01*
X136418976Y-81524714D01*
X136435235Y-81535395D01*
X136451064Y-81547673D01*
X136493838Y-81566182D01*
X136499056Y-81568738D01*
X136539908Y-81591197D01*
X136559316Y-81596180D01*
X136577717Y-81602480D01*
X136596104Y-81610437D01*
X136639488Y-81617308D01*
X136642119Y-81617725D01*
X136647839Y-81618909D01*
X136692981Y-81630500D01*
X136713016Y-81630500D01*
X136732414Y-81632026D01*
X136752194Y-81635159D01*
X136752195Y-81635160D01*
X136752195Y-81635159D01*
X136752196Y-81635160D01*
X136798584Y-81630775D01*
X136804422Y-81630500D01*
X187261548Y-81630500D01*
X187328587Y-81650185D01*
X187349229Y-81666819D01*
X192024194Y-86341784D01*
X192034019Y-86354048D01*
X192034240Y-86353866D01*
X192039210Y-86359873D01*
X192039213Y-86359876D01*
X192039214Y-86359877D01*
X192089651Y-86407241D01*
X192110530Y-86428120D01*
X192116004Y-86432366D01*
X192120442Y-86436156D01*
X192154418Y-86468062D01*
X192154422Y-86468064D01*
X192171973Y-86477713D01*
X192188231Y-86488392D01*
X192204064Y-86500674D01*
X192226015Y-86510172D01*
X192246837Y-86519183D01*
X192252081Y-86521752D01*
X192292908Y-86544197D01*
X192312312Y-86549179D01*
X192330710Y-86555478D01*
X192349105Y-86563438D01*
X192395129Y-86570726D01*
X192400832Y-86571907D01*
X192445981Y-86583500D01*
X192466016Y-86583500D01*
X192485413Y-86585026D01*
X192505196Y-86588160D01*
X192551584Y-86583775D01*
X192557422Y-86583500D01*
X196647252Y-86583500D01*
X196714291Y-86603185D01*
X196739400Y-86624526D01*
X196745126Y-86630885D01*
X196745130Y-86630889D01*
X196898265Y-86742148D01*
X196898270Y-86742151D01*
X197071192Y-86819142D01*
X197071197Y-86819144D01*
X197256354Y-86858500D01*
X197256355Y-86858500D01*
X197445644Y-86858500D01*
X197445646Y-86858500D01*
X197630803Y-86819144D01*
X197803730Y-86742151D01*
X197956871Y-86630888D01*
X198083533Y-86490216D01*
X198178179Y-86326284D01*
X198236674Y-86146256D01*
X198254321Y-85978344D01*
X198280904Y-85913734D01*
X198289951Y-85903638D01*
X198321288Y-85872301D01*
X198333542Y-85862486D01*
X198333359Y-85862264D01*
X198339366Y-85857292D01*
X198339377Y-85857286D01*
X198370275Y-85824382D01*
X198386727Y-85806864D01*
X198397171Y-85796418D01*
X198407620Y-85785971D01*
X198411879Y-85780478D01*
X198415652Y-85776061D01*
X198447562Y-85742082D01*
X198457213Y-85724524D01*
X198467896Y-85708261D01*
X198480173Y-85692436D01*
X198498685Y-85649653D01*
X198501238Y-85644441D01*
X198523697Y-85603592D01*
X198528680Y-85584180D01*
X198534981Y-85565780D01*
X198542937Y-85547396D01*
X198550229Y-85501352D01*
X198551406Y-85495671D01*
X198563000Y-85450519D01*
X198563000Y-85430483D01*
X198564527Y-85411084D01*
X198568848Y-85383804D01*
X198598778Y-85320669D01*
X198656726Y-85284127D01*
X198785398Y-85246744D01*
X198926865Y-85163081D01*
X199043081Y-85046865D01*
X199126744Y-84905398D01*
X199172598Y-84747569D01*
X199175500Y-84710694D01*
X199175500Y-84469500D01*
X199195185Y-84402461D01*
X199247989Y-84356706D01*
X199299500Y-84345500D01*
X200465696Y-84345500D01*
X200484131Y-84344049D01*
X200502569Y-84342598D01*
X200502571Y-84342597D01*
X200502573Y-84342597D01*
X200548864Y-84329148D01*
X200660398Y-84296744D01*
X200793737Y-84217888D01*
X200802124Y-84212928D01*
X200869848Y-84195745D01*
X200936111Y-84217905D01*
X200938130Y-84219342D01*
X201089265Y-84329148D01*
X201089270Y-84329151D01*
X201262192Y-84406142D01*
X201262197Y-84406144D01*
X201447354Y-84445500D01*
X201447355Y-84445500D01*
X201636644Y-84445500D01*
X201636646Y-84445500D01*
X201821803Y-84406144D01*
X201994730Y-84329151D01*
X202147871Y-84217888D01*
X202274533Y-84077216D01*
X202369179Y-83913284D01*
X202427674Y-83733256D01*
X202447460Y-83545000D01*
X202427674Y-83356744D01*
X202369179Y-83176716D01*
X202274533Y-83012784D01*
X202147871Y-82872112D01*
X202147870Y-82872111D01*
X201994734Y-82760851D01*
X201994729Y-82760848D01*
X201821807Y-82683857D01*
X201821802Y-82683855D01*
X201676001Y-82652865D01*
X201636646Y-82644500D01*
X201447354Y-82644500D01*
X201414897Y-82651398D01*
X201262197Y-82683855D01*
X201262192Y-82683857D01*
X201089270Y-82760848D01*
X201089265Y-82760851D01*
X200938130Y-82870657D01*
X200872323Y-82894137D01*
X200804270Y-82878311D01*
X200802125Y-82877072D01*
X200718694Y-82827732D01*
X200660398Y-82793256D01*
X200660394Y-82793255D01*
X200660393Y-82793254D01*
X200502573Y-82747402D01*
X200502567Y-82747401D01*
X200465696Y-82744500D01*
X200465694Y-82744500D01*
X199159306Y-82744500D01*
X199159304Y-82744500D01*
X199122432Y-82747401D01*
X199122426Y-82747402D01*
X198964606Y-82793254D01*
X198964603Y-82793255D01*
X198906306Y-82827732D01*
X198843185Y-82845000D01*
X198187500Y-82845000D01*
X198187500Y-83395000D01*
X198450500Y-83395000D01*
X198517539Y-83414685D01*
X198563294Y-83467489D01*
X198574500Y-83519000D01*
X198574500Y-83570500D01*
X198554815Y-83637539D01*
X198502011Y-83683294D01*
X198450500Y-83694500D01*
X197284304Y-83694500D01*
X197247432Y-83697401D01*
X197247426Y-83697402D01*
X197089606Y-83743254D01*
X197089603Y-83743255D01*
X196948137Y-83826917D01*
X196948129Y-83826923D01*
X196831923Y-83943129D01*
X196831917Y-83943137D01*
X196748255Y-84084603D01*
X196748254Y-84084606D01*
X196702402Y-84242426D01*
X196702401Y-84242432D01*
X196699500Y-84279304D01*
X196699500Y-84710696D01*
X196702401Y-84747567D01*
X196702402Y-84747573D01*
X196748254Y-84905393D01*
X196748255Y-84905396D01*
X196748256Y-84905398D01*
X196772811Y-84946919D01*
X196831917Y-85046862D01*
X196836702Y-85053031D01*
X196835326Y-85054097D01*
X196864211Y-85106996D01*
X196859227Y-85176688D01*
X196817355Y-85232621D01*
X196815930Y-85233672D01*
X196745130Y-85285110D01*
X196745126Y-85285114D01*
X196739400Y-85291474D01*
X196679913Y-85328121D01*
X196647252Y-85332500D01*
X192835452Y-85332500D01*
X192768413Y-85312815D01*
X192747771Y-85296181D01*
X190296592Y-82845001D01*
X196702704Y-82845001D01*
X196702899Y-82847486D01*
X196748718Y-83005198D01*
X196832314Y-83146552D01*
X196832321Y-83146561D01*
X196948438Y-83262678D01*
X196948447Y-83262685D01*
X197089803Y-83346282D01*
X197089806Y-83346283D01*
X197247504Y-83392099D01*
X197247510Y-83392100D01*
X197284356Y-83395000D01*
X197687500Y-83395000D01*
X197687500Y-82845000D01*
X196702705Y-82845000D01*
X196702704Y-82845001D01*
X190296592Y-82845001D01*
X189796589Y-82344998D01*
X196702704Y-82344998D01*
X196702705Y-82345000D01*
X197687500Y-82345000D01*
X197687500Y-81795000D01*
X198187500Y-81795000D01*
X198187500Y-82345000D01*
X199172295Y-82345000D01*
X199172295Y-82344998D01*
X199172100Y-82342513D01*
X199126281Y-82184801D01*
X199042685Y-82043447D01*
X199042678Y-82043438D01*
X198926561Y-81927321D01*
X198926552Y-81927314D01*
X198785196Y-81843717D01*
X198785193Y-81843716D01*
X198627495Y-81797900D01*
X198627489Y-81797899D01*
X198590644Y-81795000D01*
X198187500Y-81795000D01*
X197687500Y-81795000D01*
X197284356Y-81795000D01*
X197247510Y-81797899D01*
X197247504Y-81797900D01*
X197089806Y-81843716D01*
X197089803Y-81843717D01*
X196948447Y-81927314D01*
X196948438Y-81927321D01*
X196832321Y-82043438D01*
X196832314Y-82043447D01*
X196748718Y-82184801D01*
X196702899Y-82342513D01*
X196702704Y-82344998D01*
X189796589Y-82344998D01*
X188072803Y-80621212D01*
X188062980Y-80608950D01*
X188062759Y-80609134D01*
X188057786Y-80603123D01*
X188007364Y-80555773D01*
X187996919Y-80545328D01*
X187986475Y-80534883D01*
X187980986Y-80530625D01*
X187976561Y-80526847D01*
X187942582Y-80494938D01*
X187942580Y-80494936D01*
X187942577Y-80494935D01*
X187925029Y-80485288D01*
X187908763Y-80474604D01*
X187892933Y-80462325D01*
X187850168Y-80443818D01*
X187844922Y-80441248D01*
X187804093Y-80418803D01*
X187804092Y-80418802D01*
X187784693Y-80413822D01*
X187766281Y-80407518D01*
X187747898Y-80399562D01*
X187747892Y-80399560D01*
X187701874Y-80392272D01*
X187696152Y-80391087D01*
X187651021Y-80379500D01*
X187651019Y-80379500D01*
X187630984Y-80379500D01*
X187611586Y-80377973D01*
X187604162Y-80376797D01*
X187591805Y-80374840D01*
X187591804Y-80374840D01*
X187545416Y-80379225D01*
X187539578Y-80379500D01*
X137082453Y-80379500D01*
X137015414Y-80359815D01*
X136994772Y-80343181D01*
X119399819Y-62748228D01*
X119366334Y-62686905D01*
X119363500Y-62660547D01*
X119363500Y-58709452D01*
X119383185Y-58642413D01*
X119399819Y-58621771D01*
X120972614Y-57048976D01*
X122563580Y-55458009D01*
X122624901Y-55424526D01*
X122694593Y-55429510D01*
X122750526Y-55471382D01*
X122760453Y-55486932D01*
X122786146Y-55534678D01*
X122786148Y-55534681D01*
X122926489Y-55710663D01*
X122926491Y-55710664D01*
X122926492Y-55710666D01*
X123096004Y-55858765D01*
X123289236Y-55974215D01*
X123348102Y-55996307D01*
X123403949Y-56038292D01*
X123428232Y-56103806D01*
X123413241Y-56172049D01*
X123363735Y-56221353D01*
X123358331Y-56224120D01*
X123190033Y-56305167D01*
X123190025Y-56305171D01*
X123007927Y-56437473D01*
X123007925Y-56437474D01*
X122852366Y-56600176D01*
X122728363Y-56788033D01*
X122639899Y-56995004D01*
X122639895Y-56995017D01*
X122589810Y-57214457D01*
X122589808Y-57214468D01*
X122579710Y-57439325D01*
X122579710Y-57439330D01*
X122609925Y-57662387D01*
X122609926Y-57662390D01*
X122679483Y-57876465D01*
X122786146Y-58074678D01*
X122786148Y-58074681D01*
X122926489Y-58250663D01*
X122926491Y-58250664D01*
X122926492Y-58250666D01*
X123096004Y-58398765D01*
X123289236Y-58514215D01*
X123499976Y-58593307D01*
X123721450Y-58633500D01*
X123721453Y-58633500D01*
X124890148Y-58633500D01*
X124890155Y-58633500D01*
X125058188Y-58618377D01*
X125058192Y-58618376D01*
X125275160Y-58558496D01*
X125275162Y-58558495D01*
X125275170Y-58558493D01*
X125477973Y-58460829D01*
X125660078Y-58328522D01*
X125815632Y-58165825D01*
X125871447Y-58081269D01*
X125896013Y-58044053D01*
X125949373Y-57998948D01*
X126018648Y-57989851D01*
X126081844Y-58019652D01*
X126118896Y-58078888D01*
X126123500Y-58112364D01*
X126123500Y-58439151D01*
X126138622Y-58607186D01*
X126138623Y-58607192D01*
X126198503Y-58824160D01*
X126198508Y-58824173D01*
X126296167Y-59026966D01*
X126296171Y-59026974D01*
X126428473Y-59209072D01*
X126428474Y-59209074D01*
X126591176Y-59364633D01*
X126779033Y-59488636D01*
X126986004Y-59577100D01*
X126986007Y-59577101D01*
X126986012Y-59577103D01*
X127205463Y-59627191D01*
X127430330Y-59637290D01*
X127653387Y-59607075D01*
X127867464Y-59537517D01*
X128065681Y-59430852D01*
X128241666Y-59290508D01*
X128389765Y-59120996D01*
X128505215Y-58927764D01*
X128527307Y-58868897D01*
X128569292Y-58813051D01*
X128634806Y-58788767D01*
X128703048Y-58803758D01*
X128752353Y-58853264D01*
X128755120Y-58858668D01*
X128836167Y-59026966D01*
X128836171Y-59026974D01*
X128968473Y-59209072D01*
X128968474Y-59209074D01*
X129131176Y-59364633D01*
X129319033Y-59488636D01*
X129526004Y-59577100D01*
X129526007Y-59577101D01*
X129526012Y-59577103D01*
X129745463Y-59627191D01*
X129970330Y-59637290D01*
X130193387Y-59607075D01*
X130407464Y-59537517D01*
X130605681Y-59430852D01*
X130781666Y-59290508D01*
X130929765Y-59120996D01*
X131045215Y-58927764D01*
X131067307Y-58868897D01*
X131109292Y-58813051D01*
X131174806Y-58788767D01*
X131243048Y-58803758D01*
X131292353Y-58853264D01*
X131295120Y-58858668D01*
X131376167Y-59026966D01*
X131376171Y-59026974D01*
X131508473Y-59209072D01*
X131508474Y-59209074D01*
X131671176Y-59364633D01*
X131859033Y-59488636D01*
X132066004Y-59577100D01*
X132066007Y-59577101D01*
X132066012Y-59577103D01*
X132285463Y-59627191D01*
X132510330Y-59637290D01*
X132733387Y-59607075D01*
X132947464Y-59537517D01*
X133145681Y-59430852D01*
X133321666Y-59290508D01*
X133469765Y-59120996D01*
X133585215Y-58927764D01*
X133607307Y-58868897D01*
X133649292Y-58813051D01*
X133714806Y-58788767D01*
X133783048Y-58803758D01*
X133832353Y-58853264D01*
X133835120Y-58858668D01*
X133916167Y-59026966D01*
X133916171Y-59026974D01*
X134048473Y-59209072D01*
X134048474Y-59209074D01*
X134211176Y-59364633D01*
X134399033Y-59488636D01*
X134606004Y-59577100D01*
X134606007Y-59577101D01*
X134606012Y-59577103D01*
X134825463Y-59627191D01*
X135050330Y-59637290D01*
X135273387Y-59607075D01*
X135487464Y-59537517D01*
X135685681Y-59430852D01*
X135861666Y-59290508D01*
X136009765Y-59120996D01*
X136125215Y-58927764D01*
X136147307Y-58868897D01*
X136189292Y-58813051D01*
X136254806Y-58788767D01*
X136323048Y-58803758D01*
X136372353Y-58853264D01*
X136375120Y-58858668D01*
X136456167Y-59026966D01*
X136456171Y-59026974D01*
X136588473Y-59209072D01*
X136588474Y-59209074D01*
X136751176Y-59364633D01*
X136939033Y-59488636D01*
X137146004Y-59577100D01*
X137146007Y-59577101D01*
X137146012Y-59577103D01*
X137365463Y-59627191D01*
X137590330Y-59637290D01*
X137813387Y-59607075D01*
X138027464Y-59537517D01*
X138225681Y-59430852D01*
X138401666Y-59290508D01*
X138549765Y-59120996D01*
X138665215Y-58927764D01*
X138744307Y-58717024D01*
X138773077Y-58558491D01*
X138784500Y-58495549D01*
X138784500Y-58117730D01*
X138804185Y-58050691D01*
X138856989Y-58004936D01*
X138926147Y-57994992D01*
X138989703Y-58024017D01*
X139017695Y-58058972D01*
X139026146Y-58074678D01*
X139026148Y-58074681D01*
X139166489Y-58250663D01*
X139166491Y-58250664D01*
X139166492Y-58250666D01*
X139336004Y-58398765D01*
X139529236Y-58514215D01*
X139739976Y-58593307D01*
X139961450Y-58633500D01*
X139961453Y-58633500D01*
X141130148Y-58633500D01*
X141130155Y-58633500D01*
X141298188Y-58618377D01*
X141298192Y-58618376D01*
X141515160Y-58558496D01*
X141515162Y-58558495D01*
X141515170Y-58558493D01*
X141717973Y-58460829D01*
X141900078Y-58328522D01*
X142055632Y-58165825D01*
X142179635Y-57977968D01*
X142268103Y-57770988D01*
X142318191Y-57551537D01*
X142328290Y-57326670D01*
X142298075Y-57103613D01*
X142228517Y-56889536D01*
X142121852Y-56691319D01*
X142049167Y-56600175D01*
X141981510Y-56515336D01*
X141935905Y-56475492D01*
X141811996Y-56367235D01*
X141618767Y-56251787D01*
X141618768Y-56251787D01*
X141618766Y-56251786D01*
X141618764Y-56251785D01*
X141559896Y-56229691D01*
X141504050Y-56187706D01*
X141479767Y-56122191D01*
X141494759Y-56053949D01*
X141544265Y-56004645D01*
X141549610Y-56001907D01*
X141717973Y-55920829D01*
X141900078Y-55788522D01*
X142055632Y-55625825D01*
X142179635Y-55437968D01*
X142185381Y-55424526D01*
X142268100Y-55230995D01*
X142268099Y-55230995D01*
X142268103Y-55230988D01*
X142318191Y-55011537D01*
X142328290Y-54786670D01*
X142298075Y-54563613D01*
X142228517Y-54349536D01*
X142121852Y-54151319D01*
X141981508Y-53975334D01*
X141811996Y-53827235D01*
X141618767Y-53711787D01*
X141618768Y-53711787D01*
X141618766Y-53711786D01*
X141618764Y-53711785D01*
X141559896Y-53689691D01*
X141504050Y-53647706D01*
X141479767Y-53582191D01*
X141494759Y-53513949D01*
X141544265Y-53464645D01*
X141549610Y-53461907D01*
X141717973Y-53380829D01*
X141900078Y-53248522D01*
X142055632Y-53085825D01*
X142179635Y-52897968D01*
X142268103Y-52690988D01*
X142318191Y-52471537D01*
X142328290Y-52246670D01*
X142298075Y-52023613D01*
X142228517Y-51809536D01*
X142121852Y-51611319D01*
X141981508Y-51435334D01*
X141811996Y-51287235D01*
X141618767Y-51171787D01*
X141618768Y-51171787D01*
X141618766Y-51171786D01*
X141618764Y-51171785D01*
X141559896Y-51149691D01*
X141504050Y-51107706D01*
X141479767Y-51042191D01*
X141494759Y-50973949D01*
X141544265Y-50924645D01*
X141549610Y-50921907D01*
X141717973Y-50840829D01*
X141900078Y-50708522D01*
X142055632Y-50545825D01*
X142179635Y-50357968D01*
X142268103Y-50150988D01*
X142318191Y-49931537D01*
X142328290Y-49706670D01*
X142298075Y-49483613D01*
X142228517Y-49269536D01*
X142121852Y-49071319D01*
X141981508Y-48895334D01*
X141811996Y-48747235D01*
X141618767Y-48631787D01*
X141618768Y-48631787D01*
X141618766Y-48631786D01*
X141618764Y-48631785D01*
X141559896Y-48609691D01*
X141504050Y-48567706D01*
X141479767Y-48502191D01*
X141494759Y-48433949D01*
X141544265Y-48384645D01*
X141549610Y-48381907D01*
X141717973Y-48300829D01*
X141900078Y-48168522D01*
X142055632Y-48005825D01*
X142179635Y-47817968D01*
X142268103Y-47610988D01*
X142318191Y-47391537D01*
X142328290Y-47166670D01*
X142298075Y-46943613D01*
X142228517Y-46729536D01*
X142121852Y-46531319D01*
X141997806Y-46375771D01*
X141981510Y-46355336D01*
X141923880Y-46304986D01*
X141811996Y-46207235D01*
X141618767Y-46091787D01*
X141618768Y-46091787D01*
X141618766Y-46091786D01*
X141618764Y-46091785D01*
X141559896Y-46069691D01*
X141504050Y-46027706D01*
X141479767Y-45962191D01*
X141494759Y-45893949D01*
X141544265Y-45844645D01*
X141549610Y-45841907D01*
X141717973Y-45760829D01*
X141900078Y-45628522D01*
X142055632Y-45465825D01*
X142179635Y-45277968D01*
X142268103Y-45070988D01*
X142318191Y-44851537D01*
X142328290Y-44626670D01*
X142298075Y-44403613D01*
X142228517Y-44189536D01*
X142121852Y-43991319D01*
X142034049Y-43881218D01*
X141981510Y-43815336D01*
X141981508Y-43815334D01*
X141811996Y-43667235D01*
X141618767Y-43551787D01*
X141618768Y-43551787D01*
X141618766Y-43551786D01*
X141618764Y-43551785D01*
X141559896Y-43529691D01*
X141504050Y-43487706D01*
X141479767Y-43422191D01*
X141494759Y-43353949D01*
X141544265Y-43304645D01*
X141549610Y-43301907D01*
X141717973Y-43220829D01*
X141900078Y-43088522D01*
X142055632Y-42925825D01*
X142179635Y-42737968D01*
X142268103Y-42530988D01*
X142318191Y-42311537D01*
X142328290Y-42086670D01*
X142298075Y-41863613D01*
X142228517Y-41649536D01*
X142121852Y-41451319D01*
X142030769Y-41337105D01*
X141981510Y-41275336D01*
X141969420Y-41264773D01*
X141811996Y-41127235D01*
X141618767Y-41011787D01*
X141618768Y-41011787D01*
X141618766Y-41011786D01*
X141618764Y-41011785D01*
X141559896Y-40989691D01*
X141504050Y-40947706D01*
X141479767Y-40882191D01*
X141494759Y-40813949D01*
X141544265Y-40764645D01*
X141549610Y-40761907D01*
X141717973Y-40680829D01*
X141900078Y-40548522D01*
X142055632Y-40385825D01*
X142179635Y-40197968D01*
X142237933Y-40061575D01*
X142268100Y-39990995D01*
X142268099Y-39990995D01*
X142268103Y-39990988D01*
X142318191Y-39771537D01*
X142328290Y-39546670D01*
X142298075Y-39323613D01*
X142228517Y-39109536D01*
X142121852Y-38911319D01*
X142030769Y-38797105D01*
X141981510Y-38735336D01*
X141959857Y-38716418D01*
X141811996Y-38587235D01*
X141618767Y-38471787D01*
X141618768Y-38471787D01*
X141618766Y-38471786D01*
X141618764Y-38471785D01*
X141559896Y-38449691D01*
X141504050Y-38407706D01*
X141479767Y-38342191D01*
X141494759Y-38273949D01*
X141544265Y-38224645D01*
X141549610Y-38221907D01*
X141717973Y-38140829D01*
X141900078Y-38008522D01*
X142055632Y-37845825D01*
X142179635Y-37657968D01*
X142179736Y-37657733D01*
X142268100Y-37450995D01*
X142268099Y-37450995D01*
X142268103Y-37450988D01*
X142318191Y-37231537D01*
X142328290Y-37006670D01*
X142298075Y-36783613D01*
X142228517Y-36569536D01*
X142121852Y-36371319D01*
X142049167Y-36280175D01*
X141981510Y-36195336D01*
X141981508Y-36195334D01*
X141811996Y-36047235D01*
X141618764Y-35931785D01*
X141500775Y-35887503D01*
X141408023Y-35852692D01*
X141186550Y-35812500D01*
X141186547Y-35812500D01*
X140017845Y-35812500D01*
X139979399Y-35815960D01*
X139849813Y-35827622D01*
X139849807Y-35827623D01*
X139632839Y-35887503D01*
X139632826Y-35887508D01*
X139430033Y-35985167D01*
X139430025Y-35985171D01*
X139247927Y-36117473D01*
X139247925Y-36117474D01*
X139092366Y-36280176D01*
X138968363Y-36468033D01*
X138879899Y-36675004D01*
X138879895Y-36675017D01*
X138829810Y-36894457D01*
X138829808Y-36894468D01*
X138824769Y-37006674D01*
X138819710Y-37119330D01*
X138849925Y-37342387D01*
X138849926Y-37342390D01*
X138919483Y-37556465D01*
X139026146Y-37754678D01*
X139026148Y-37754681D01*
X139166489Y-37930663D01*
X139166491Y-37930664D01*
X139166492Y-37930666D01*
X139336004Y-38078765D01*
X139529236Y-38194215D01*
X139588102Y-38216307D01*
X139643949Y-38258292D01*
X139668232Y-38323806D01*
X139653241Y-38392049D01*
X139603735Y-38441353D01*
X139598331Y-38444120D01*
X139430033Y-38525167D01*
X139430025Y-38525171D01*
X139247927Y-38657473D01*
X139247925Y-38657474D01*
X139092366Y-38820176D01*
X138968363Y-39008033D01*
X138879899Y-39215004D01*
X138879895Y-39215017D01*
X138829810Y-39434457D01*
X138829808Y-39434468D01*
X138823977Y-39564314D01*
X138819710Y-39659330D01*
X138849925Y-39882387D01*
X138849926Y-39882390D01*
X138919483Y-40096465D01*
X139026146Y-40294678D01*
X139026148Y-40294681D01*
X139166489Y-40470663D01*
X139166491Y-40470664D01*
X139166492Y-40470666D01*
X139336004Y-40618765D01*
X139529236Y-40734215D01*
X139588102Y-40756307D01*
X139643949Y-40798292D01*
X139668232Y-40863806D01*
X139653241Y-40932049D01*
X139603735Y-40981353D01*
X139598331Y-40984120D01*
X139430033Y-41065167D01*
X139430025Y-41065171D01*
X139247927Y-41197473D01*
X139247925Y-41197474D01*
X139092366Y-41360176D01*
X138968363Y-41548033D01*
X138879899Y-41755004D01*
X138879895Y-41755017D01*
X138829810Y-41974457D01*
X138829808Y-41974468D01*
X138824769Y-42086674D01*
X138819710Y-42199330D01*
X138849925Y-42422387D01*
X138849926Y-42422390D01*
X138919483Y-42636465D01*
X139026146Y-42834678D01*
X139026148Y-42834681D01*
X139166489Y-43010663D01*
X139166491Y-43010664D01*
X139166492Y-43010666D01*
X139336004Y-43158765D01*
X139529236Y-43274215D01*
X139588102Y-43296307D01*
X139643949Y-43338292D01*
X139668232Y-43403806D01*
X139653241Y-43472049D01*
X139603735Y-43521353D01*
X139598331Y-43524120D01*
X139430033Y-43605167D01*
X139430025Y-43605171D01*
X139247927Y-43737473D01*
X139247925Y-43737474D01*
X139092366Y-43900176D01*
X138968363Y-44088033D01*
X138879899Y-44295004D01*
X138879895Y-44295017D01*
X138829810Y-44514457D01*
X138829808Y-44514468D01*
X138819710Y-44739325D01*
X138819710Y-44739330D01*
X138849925Y-44962387D01*
X138849926Y-44962390D01*
X138919483Y-45176465D01*
X139026146Y-45374678D01*
X139026148Y-45374681D01*
X139166489Y-45550663D01*
X139166491Y-45550664D01*
X139166492Y-45550666D01*
X139336004Y-45698765D01*
X139529236Y-45814215D01*
X139588102Y-45836307D01*
X139643949Y-45878292D01*
X139668232Y-45943806D01*
X139653241Y-46012049D01*
X139603735Y-46061353D01*
X139598331Y-46064120D01*
X139430033Y-46145167D01*
X139430025Y-46145171D01*
X139247927Y-46277473D01*
X139247925Y-46277474D01*
X139092366Y-46440176D01*
X138968363Y-46628033D01*
X138879899Y-46835004D01*
X138879895Y-46835017D01*
X138829810Y-47054457D01*
X138829808Y-47054468D01*
X138824769Y-47166674D01*
X138819710Y-47279330D01*
X138849925Y-47502387D01*
X138849926Y-47502390D01*
X138919483Y-47716465D01*
X139026146Y-47914678D01*
X139026148Y-47914681D01*
X139166489Y-48090663D01*
X139166491Y-48090664D01*
X139166492Y-48090666D01*
X139336004Y-48238765D01*
X139529236Y-48354215D01*
X139588102Y-48376307D01*
X139643949Y-48418292D01*
X139668232Y-48483806D01*
X139653241Y-48552049D01*
X139603735Y-48601353D01*
X139598331Y-48604120D01*
X139430033Y-48685167D01*
X139430025Y-48685171D01*
X139247927Y-48817473D01*
X139247925Y-48817474D01*
X139092366Y-48980176D01*
X138968363Y-49168033D01*
X138879899Y-49375004D01*
X138879895Y-49375017D01*
X138829810Y-49594457D01*
X138829808Y-49594468D01*
X138820755Y-49796060D01*
X138819710Y-49819330D01*
X138849925Y-50042387D01*
X138849926Y-50042390D01*
X138919483Y-50256465D01*
X139026146Y-50454678D01*
X139026148Y-50454681D01*
X139166489Y-50630663D01*
X139166491Y-50630664D01*
X139166492Y-50630666D01*
X139336004Y-50778765D01*
X139529236Y-50894215D01*
X139588102Y-50916307D01*
X139643949Y-50958292D01*
X139668232Y-51023806D01*
X139653241Y-51092049D01*
X139603735Y-51141353D01*
X139598331Y-51144120D01*
X139430033Y-51225167D01*
X139430025Y-51225171D01*
X139247927Y-51357473D01*
X139247925Y-51357474D01*
X139092366Y-51520176D01*
X138968363Y-51708033D01*
X138879899Y-51915004D01*
X138879895Y-51915017D01*
X138829810Y-52134457D01*
X138829808Y-52134468D01*
X138824769Y-52246674D01*
X138819710Y-52359330D01*
X138849925Y-52582387D01*
X138849926Y-52582390D01*
X138919483Y-52796465D01*
X139026146Y-52994678D01*
X139026148Y-52994681D01*
X139166489Y-53170663D01*
X139166491Y-53170664D01*
X139166492Y-53170666D01*
X139336004Y-53318765D01*
X139529236Y-53434215D01*
X139588102Y-53456307D01*
X139643949Y-53498292D01*
X139668232Y-53563806D01*
X139653241Y-53632049D01*
X139603735Y-53681353D01*
X139598331Y-53684120D01*
X139430033Y-53765167D01*
X139430025Y-53765171D01*
X139247927Y-53897473D01*
X139247925Y-53897474D01*
X139092366Y-54060176D01*
X138968363Y-54248033D01*
X138879899Y-54455004D01*
X138879895Y-54455017D01*
X138829810Y-54674457D01*
X138829808Y-54674468D01*
X138824769Y-54786674D01*
X138819710Y-54899330D01*
X138849925Y-55122387D01*
X138849926Y-55122390D01*
X138919483Y-55336465D01*
X139026146Y-55534678D01*
X139026148Y-55534681D01*
X139166489Y-55710663D01*
X139166491Y-55710664D01*
X139166492Y-55710666D01*
X139336004Y-55858765D01*
X139529236Y-55974215D01*
X139588102Y-55996307D01*
X139643949Y-56038292D01*
X139668232Y-56103806D01*
X139653241Y-56172049D01*
X139603735Y-56221353D01*
X139598331Y-56224120D01*
X139430033Y-56305167D01*
X139430025Y-56305171D01*
X139247927Y-56437473D01*
X139247925Y-56437474D01*
X139092366Y-56600176D01*
X138968364Y-56788031D01*
X138919106Y-56903276D01*
X138874657Y-56957184D01*
X138808119Y-56978503D01*
X138740618Y-56960465D01*
X138693585Y-56908796D01*
X138693560Y-56908745D01*
X138611829Y-56739027D01*
X138479526Y-56556927D01*
X138479525Y-56556925D01*
X138316823Y-56401366D01*
X138128966Y-56277363D01*
X137921995Y-56188899D01*
X137921982Y-56188895D01*
X137702542Y-56138810D01*
X137702538Y-56138809D01*
X137702537Y-56138809D01*
X137702536Y-56138808D01*
X137702531Y-56138808D01*
X137477674Y-56128710D01*
X137477673Y-56128710D01*
X137477670Y-56128710D01*
X137254613Y-56158925D01*
X137254610Y-56158925D01*
X137254609Y-56158926D01*
X137040534Y-56228483D01*
X136842321Y-56335146D01*
X136842318Y-56335148D01*
X136666336Y-56475489D01*
X136518236Y-56645003D01*
X136402787Y-56838232D01*
X136402782Y-56838241D01*
X136380691Y-56897102D01*
X136338705Y-56952950D01*
X136273191Y-56977232D01*
X136204949Y-56962240D01*
X136155645Y-56912733D01*
X136152899Y-56907373D01*
X136071829Y-56739027D01*
X135939526Y-56556927D01*
X135939525Y-56556925D01*
X135776823Y-56401366D01*
X135588966Y-56277363D01*
X135381995Y-56188899D01*
X135381982Y-56188895D01*
X135162542Y-56138810D01*
X135162538Y-56138809D01*
X135162537Y-56138809D01*
X135162536Y-56138808D01*
X135162531Y-56138808D01*
X134937674Y-56128710D01*
X134937673Y-56128710D01*
X134937670Y-56128710D01*
X134714613Y-56158925D01*
X134714610Y-56158925D01*
X134714609Y-56158926D01*
X134500534Y-56228483D01*
X134302321Y-56335146D01*
X134302318Y-56335148D01*
X134126336Y-56475489D01*
X133978236Y-56645003D01*
X133862787Y-56838232D01*
X133862782Y-56838241D01*
X133840691Y-56897102D01*
X133798705Y-56952950D01*
X133733191Y-56977232D01*
X133664949Y-56962240D01*
X133615645Y-56912733D01*
X133612899Y-56907373D01*
X133531829Y-56739027D01*
X133399526Y-56556927D01*
X133399525Y-56556925D01*
X133236823Y-56401366D01*
X133048966Y-56277363D01*
X132841995Y-56188899D01*
X132841982Y-56188895D01*
X132622542Y-56138810D01*
X132622538Y-56138809D01*
X132622537Y-56138809D01*
X132622536Y-56138808D01*
X132622531Y-56138808D01*
X132397674Y-56128710D01*
X132397673Y-56128710D01*
X132397670Y-56128710D01*
X132174613Y-56158925D01*
X132174610Y-56158925D01*
X132174609Y-56158926D01*
X131960534Y-56228483D01*
X131762321Y-56335146D01*
X131762318Y-56335148D01*
X131586336Y-56475489D01*
X131438236Y-56645003D01*
X131322787Y-56838232D01*
X131322782Y-56838241D01*
X131300691Y-56897102D01*
X131258705Y-56952950D01*
X131193191Y-56977232D01*
X131124949Y-56962240D01*
X131075645Y-56912733D01*
X131072899Y-56907373D01*
X130991829Y-56739027D01*
X130859526Y-56556927D01*
X130859525Y-56556925D01*
X130696823Y-56401366D01*
X130508966Y-56277363D01*
X130301995Y-56188899D01*
X130301982Y-56188895D01*
X130082542Y-56138810D01*
X130082538Y-56138809D01*
X130082537Y-56138809D01*
X130082536Y-56138808D01*
X130082531Y-56138808D01*
X129857674Y-56128710D01*
X129857673Y-56128710D01*
X129857670Y-56128710D01*
X129634613Y-56158925D01*
X129634610Y-56158925D01*
X129634609Y-56158926D01*
X129420534Y-56228483D01*
X129222321Y-56335146D01*
X129222318Y-56335148D01*
X129046336Y-56475489D01*
X128898236Y-56645003D01*
X128782787Y-56838232D01*
X128782782Y-56838241D01*
X128760691Y-56897102D01*
X128718705Y-56952950D01*
X128653191Y-56977232D01*
X128584949Y-56962240D01*
X128535645Y-56912733D01*
X128532899Y-56907373D01*
X128451829Y-56739027D01*
X128319526Y-56556927D01*
X128319525Y-56556925D01*
X128156823Y-56401366D01*
X127968966Y-56277363D01*
X127761995Y-56188899D01*
X127761982Y-56188895D01*
X127542542Y-56138810D01*
X127542538Y-56138809D01*
X127542537Y-56138809D01*
X127542536Y-56138808D01*
X127542531Y-56138808D01*
X127317674Y-56128710D01*
X127317673Y-56128710D01*
X127317670Y-56128710D01*
X127094613Y-56158925D01*
X127094610Y-56158925D01*
X127094609Y-56158926D01*
X126880534Y-56228483D01*
X126682321Y-56335146D01*
X126682318Y-56335148D01*
X126506336Y-56475489D01*
X126358236Y-56645003D01*
X126242787Y-56838232D01*
X126242784Y-56838237D01*
X126222084Y-56893391D01*
X126180098Y-56949238D01*
X126114583Y-56973520D01*
X126046341Y-56958528D01*
X125997038Y-56909021D01*
X125990838Y-56894593D01*
X125990703Y-56894651D01*
X125988517Y-56889536D01*
X125881853Y-56691321D01*
X125881851Y-56691318D01*
X125741510Y-56515336D01*
X125695905Y-56475492D01*
X125571996Y-56367235D01*
X125378767Y-56251787D01*
X125378768Y-56251787D01*
X125378766Y-56251786D01*
X125378764Y-56251785D01*
X125319896Y-56229691D01*
X125264050Y-56187706D01*
X125239767Y-56122191D01*
X125254759Y-56053949D01*
X125304265Y-56004645D01*
X125309610Y-56001907D01*
X125477973Y-55920829D01*
X125660078Y-55788522D01*
X125815632Y-55625825D01*
X125939635Y-55437968D01*
X125945381Y-55424526D01*
X126028100Y-55230995D01*
X126028099Y-55230995D01*
X126028103Y-55230988D01*
X126078191Y-55011537D01*
X126088290Y-54786670D01*
X126058075Y-54563613D01*
X125988517Y-54349536D01*
X125881852Y-54151319D01*
X125741508Y-53975334D01*
X125571996Y-53827235D01*
X125378767Y-53711787D01*
X125378768Y-53711787D01*
X125378766Y-53711786D01*
X125378764Y-53711785D01*
X125319896Y-53689691D01*
X125264050Y-53647706D01*
X125239767Y-53582191D01*
X125254759Y-53513949D01*
X125304265Y-53464645D01*
X125309610Y-53461907D01*
X125477973Y-53380829D01*
X125660078Y-53248522D01*
X125815632Y-53085825D01*
X125939635Y-52897968D01*
X126028103Y-52690988D01*
X126078191Y-52471537D01*
X126088290Y-52246670D01*
X126058075Y-52023613D01*
X125988517Y-51809536D01*
X125881852Y-51611319D01*
X125741508Y-51435334D01*
X125571996Y-51287235D01*
X125378767Y-51171787D01*
X125378768Y-51171787D01*
X125378766Y-51171786D01*
X125378764Y-51171785D01*
X125319896Y-51149691D01*
X125264050Y-51107706D01*
X125239767Y-51042191D01*
X125254759Y-50973949D01*
X125304265Y-50924645D01*
X125309610Y-50921907D01*
X125477973Y-50840829D01*
X125660078Y-50708522D01*
X125815632Y-50545825D01*
X125939635Y-50357968D01*
X126028103Y-50150988D01*
X126078191Y-49931537D01*
X126088290Y-49706670D01*
X126058075Y-49483613D01*
X125988517Y-49269536D01*
X125881852Y-49071319D01*
X125741508Y-48895334D01*
X125571996Y-48747235D01*
X125378767Y-48631787D01*
X125378768Y-48631787D01*
X125378766Y-48631786D01*
X125378764Y-48631785D01*
X125319896Y-48609691D01*
X125264050Y-48567706D01*
X125239767Y-48502191D01*
X125254759Y-48433949D01*
X125304265Y-48384645D01*
X125309610Y-48381907D01*
X125477973Y-48300829D01*
X125660078Y-48168522D01*
X125815632Y-48005825D01*
X125939635Y-47817968D01*
X126028103Y-47610988D01*
X126078191Y-47391537D01*
X126088290Y-47166670D01*
X126058075Y-46943613D01*
X125988517Y-46729536D01*
X125881852Y-46531319D01*
X125757806Y-46375771D01*
X125741510Y-46355336D01*
X125683880Y-46304986D01*
X125571996Y-46207235D01*
X125378767Y-46091787D01*
X125378768Y-46091787D01*
X125378766Y-46091786D01*
X125378764Y-46091785D01*
X125319896Y-46069691D01*
X125264050Y-46027706D01*
X125239767Y-45962191D01*
X125254759Y-45893949D01*
X125304265Y-45844645D01*
X125309610Y-45841907D01*
X125477973Y-45760829D01*
X125660078Y-45628522D01*
X125815632Y-45465825D01*
X125939635Y-45277968D01*
X126028103Y-45070988D01*
X126078191Y-44851537D01*
X126088290Y-44626670D01*
X126058075Y-44403613D01*
X125988517Y-44189536D01*
X125881852Y-43991319D01*
X125794049Y-43881218D01*
X125741510Y-43815336D01*
X125741508Y-43815334D01*
X125571996Y-43667235D01*
X125378767Y-43551787D01*
X125378768Y-43551787D01*
X125378766Y-43551786D01*
X125378764Y-43551785D01*
X125319896Y-43529691D01*
X125264050Y-43487706D01*
X125239767Y-43422191D01*
X125254759Y-43353949D01*
X125304265Y-43304645D01*
X125309610Y-43301907D01*
X125477973Y-43220829D01*
X125660078Y-43088522D01*
X125815632Y-42925825D01*
X125939635Y-42737968D01*
X126028103Y-42530988D01*
X126078191Y-42311537D01*
X126088290Y-42086670D01*
X126058075Y-41863613D01*
X125988517Y-41649536D01*
X125881852Y-41451319D01*
X125790769Y-41337105D01*
X125741510Y-41275336D01*
X125729420Y-41264773D01*
X125571996Y-41127235D01*
X125378767Y-41011787D01*
X125378768Y-41011787D01*
X125378766Y-41011786D01*
X125378764Y-41011785D01*
X125319896Y-40989691D01*
X125264050Y-40947706D01*
X125239767Y-40882191D01*
X125254759Y-40813949D01*
X125304265Y-40764645D01*
X125309610Y-40761907D01*
X125477973Y-40680829D01*
X125660078Y-40548522D01*
X125815632Y-40385825D01*
X125939635Y-40197968D01*
X125997933Y-40061575D01*
X126028100Y-39990995D01*
X126028099Y-39990995D01*
X126028103Y-39990988D01*
X126078191Y-39771537D01*
X126088290Y-39546670D01*
X126058075Y-39323613D01*
X125988517Y-39109536D01*
X125881852Y-38911319D01*
X125790769Y-38797105D01*
X125741510Y-38735336D01*
X125719857Y-38716418D01*
X125571996Y-38587235D01*
X125378766Y-38471786D01*
X125378765Y-38471785D01*
X125319250Y-38449449D01*
X125263402Y-38407463D01*
X125239119Y-38341949D01*
X125254111Y-38273706D01*
X125303617Y-38224402D01*
X125309020Y-38221635D01*
X125477716Y-38140396D01*
X125659741Y-38008148D01*
X125659749Y-38008142D01*
X125815237Y-37845513D01*
X125939191Y-37657733D01*
X126027624Y-37450830D01*
X126027627Y-37450821D01*
X126059084Y-37313000D01*
X125267686Y-37313000D01*
X125293493Y-37272844D01*
X125334000Y-37134889D01*
X125334000Y-36991111D01*
X125293493Y-36853156D01*
X125267686Y-36813000D01*
X126061550Y-36813000D01*
X126061550Y-36812999D01*
X126057584Y-36783721D01*
X125988054Y-36569731D01*
X125881434Y-36371598D01*
X125881432Y-36371595D01*
X125741145Y-36195679D01*
X125571707Y-36047647D01*
X125571699Y-36047640D01*
X125378553Y-35932240D01*
X125378548Y-35932238D01*
X125167889Y-35853175D01*
X124946506Y-35813000D01*
X124584000Y-35813000D01*
X124584000Y-36627498D01*
X124560900Y-36638048D01*
X124452239Y-36732202D01*
X124374507Y-36853156D01*
X124334000Y-36991111D01*
X124334000Y-37134889D01*
X124374507Y-37272844D01*
X124400314Y-37313000D01*
X122606449Y-37313000D01*
X122610415Y-37342278D01*
X122679945Y-37556268D01*
X122786565Y-37754401D01*
X122786567Y-37754404D01*
X122926854Y-37930320D01*
X123096292Y-38078352D01*
X123096300Y-38078359D01*
X123289446Y-38193759D01*
X123289454Y-38193763D01*
X123348723Y-38216007D01*
X123404571Y-38257992D01*
X123428855Y-38323506D01*
X123413864Y-38391748D01*
X123364358Y-38441053D01*
X123358954Y-38443820D01*
X123190033Y-38525167D01*
X123190025Y-38525171D01*
X123007927Y-38657473D01*
X123007925Y-38657474D01*
X122852366Y-38820176D01*
X122728363Y-39008033D01*
X122639899Y-39215004D01*
X122639895Y-39215017D01*
X122589810Y-39434457D01*
X122589808Y-39434468D01*
X122583977Y-39564314D01*
X122579710Y-39659330D01*
X122609925Y-39882387D01*
X122609926Y-39882390D01*
X122679483Y-40096465D01*
X122786146Y-40294678D01*
X122786148Y-40294681D01*
X122926489Y-40470663D01*
X122926491Y-40470664D01*
X122926492Y-40470666D01*
X123096004Y-40618765D01*
X123289236Y-40734215D01*
X123348102Y-40756307D01*
X123403949Y-40798292D01*
X123428232Y-40863806D01*
X123413241Y-40932049D01*
X123363735Y-40981353D01*
X123358331Y-40984120D01*
X123190033Y-41065167D01*
X123190025Y-41065171D01*
X123007927Y-41197473D01*
X123007925Y-41197474D01*
X122852366Y-41360176D01*
X122728363Y-41548033D01*
X122639899Y-41755004D01*
X122639895Y-41755017D01*
X122589810Y-41974457D01*
X122589808Y-41974468D01*
X122584769Y-42086674D01*
X122579710Y-42199330D01*
X122609925Y-42422387D01*
X122609926Y-42422390D01*
X122679483Y-42636465D01*
X122786146Y-42834678D01*
X122786148Y-42834681D01*
X122926489Y-43010663D01*
X122926491Y-43010664D01*
X122926492Y-43010666D01*
X123096004Y-43158765D01*
X123289236Y-43274215D01*
X123348102Y-43296307D01*
X123403949Y-43338292D01*
X123428232Y-43403806D01*
X123413241Y-43472049D01*
X123363735Y-43521353D01*
X123358331Y-43524120D01*
X123190033Y-43605167D01*
X123190025Y-43605171D01*
X123007927Y-43737473D01*
X123007925Y-43737474D01*
X122852367Y-43900176D01*
X122785279Y-44001811D01*
X122731919Y-44046916D01*
X122681792Y-44057500D01*
X117316457Y-44057500D01*
X117300840Y-44055776D01*
X117300813Y-44056062D01*
X117293051Y-44055327D01*
X117223923Y-44057500D01*
X117194370Y-44057500D01*
X117193649Y-44057590D01*
X117187477Y-44058369D01*
X117181665Y-44058826D01*
X117135098Y-44060290D01*
X117135087Y-44060292D01*
X117115854Y-44065879D01*
X117096814Y-44069822D01*
X117076937Y-44072334D01*
X117076930Y-44072335D01*
X117076928Y-44072336D01*
X117076926Y-44072336D01*
X117076925Y-44072337D01*
X117033588Y-44089494D01*
X117028062Y-44091386D01*
X116983331Y-44104382D01*
X116983328Y-44104383D01*
X116966083Y-44114581D01*
X116948621Y-44123135D01*
X116929992Y-44130511D01*
X116929987Y-44130513D01*
X116892284Y-44157906D01*
X116887402Y-44161112D01*
X116847300Y-44184828D01*
X116833128Y-44199000D01*
X116818343Y-44211628D01*
X116802132Y-44223407D01*
X116772429Y-44259310D01*
X116768497Y-44263631D01*
X94912948Y-66119181D01*
X94851625Y-66152666D01*
X94825267Y-66155500D01*
X77912748Y-66155500D01*
X77845709Y-66135815D01*
X77820600Y-66114474D01*
X77814873Y-66108114D01*
X77814869Y-66108110D01*
X77661734Y-65996851D01*
X77661729Y-65996848D01*
X77488807Y-65919857D01*
X77488802Y-65919855D01*
X77343001Y-65888865D01*
X77303646Y-65880500D01*
X77114354Y-65880500D01*
X77081897Y-65887398D01*
X76929197Y-65919855D01*
X76929192Y-65919857D01*
X76756270Y-65996848D01*
X76756265Y-65996851D01*
X76603130Y-66108110D01*
X76603126Y-66108114D01*
X76597400Y-66114474D01*
X76537913Y-66151121D01*
X76505252Y-66155500D01*
X75758953Y-66155500D01*
X75691914Y-66135815D01*
X75671272Y-66119181D01*
X75377404Y-65825313D01*
X75343919Y-65763990D01*
X75346011Y-65703027D01*
X75347598Y-65697569D01*
X75350500Y-65660694D01*
X75350500Y-65419500D01*
X75370185Y-65352461D01*
X75422989Y-65306706D01*
X75474500Y-65295500D01*
X76640696Y-65295500D01*
X76659131Y-65294049D01*
X76677569Y-65292598D01*
X76677571Y-65292597D01*
X76677573Y-65292597D01*
X76723864Y-65279148D01*
X76835398Y-65246744D01*
X76976865Y-65163081D01*
X76978497Y-65161449D01*
X76983128Y-65156819D01*
X77044451Y-65123334D01*
X77070809Y-65120500D01*
X77267252Y-65120500D01*
X77334291Y-65140185D01*
X77359400Y-65161526D01*
X77365126Y-65167885D01*
X77365130Y-65167889D01*
X77518265Y-65279148D01*
X77518270Y-65279151D01*
X77691192Y-65356142D01*
X77691197Y-65356144D01*
X77876354Y-65395500D01*
X77876355Y-65395500D01*
X78065644Y-65395500D01*
X78065646Y-65395500D01*
X78250803Y-65356144D01*
X78423730Y-65279151D01*
X78576871Y-65167888D01*
X78703533Y-65027216D01*
X78798179Y-64863284D01*
X78856674Y-64683256D01*
X78876460Y-64495000D01*
X78856674Y-64306744D01*
X78798179Y-64126716D01*
X78703533Y-63962784D01*
X78576871Y-63822112D01*
X78576870Y-63822111D01*
X78423734Y-63710851D01*
X78423729Y-63710848D01*
X78250807Y-63633857D01*
X78250802Y-63633855D01*
X78105001Y-63602865D01*
X78065646Y-63594500D01*
X77876354Y-63594500D01*
X77843897Y-63601398D01*
X77691197Y-63633855D01*
X77691192Y-63633857D01*
X77518270Y-63710848D01*
X77518265Y-63710851D01*
X77365130Y-63822110D01*
X77365126Y-63822114D01*
X77359400Y-63828474D01*
X77299913Y-63865121D01*
X77267252Y-63869500D01*
X77070809Y-63869500D01*
X77003770Y-63849815D01*
X76983128Y-63833181D01*
X76976870Y-63826923D01*
X76976862Y-63826917D01*
X76835396Y-63743255D01*
X76835393Y-63743254D01*
X76677573Y-63697402D01*
X76677567Y-63697401D01*
X76640696Y-63694500D01*
X76640694Y-63694500D01*
X75334306Y-63694500D01*
X75334304Y-63694500D01*
X75297432Y-63697401D01*
X75297426Y-63697402D01*
X75139606Y-63743254D01*
X75139603Y-63743255D01*
X75081306Y-63777732D01*
X75018185Y-63795000D01*
X74362500Y-63795000D01*
X74362500Y-64345000D01*
X74625500Y-64345000D01*
X74692539Y-64364685D01*
X74738294Y-64417489D01*
X74749500Y-64469000D01*
X74749500Y-64520500D01*
X74729815Y-64587539D01*
X74677011Y-64633294D01*
X74625500Y-64644500D01*
X73459304Y-64644500D01*
X73422432Y-64647401D01*
X73422426Y-64647402D01*
X73264606Y-64693254D01*
X73264603Y-64693255D01*
X73123137Y-64776917D01*
X73123129Y-64776923D01*
X73006923Y-64893129D01*
X73006917Y-64893137D01*
X72923255Y-65034603D01*
X72923254Y-65034606D01*
X72877402Y-65192426D01*
X72877401Y-65192432D01*
X72874500Y-65229304D01*
X72874500Y-65660696D01*
X72877401Y-65697567D01*
X72877402Y-65697573D01*
X72923254Y-65855393D01*
X72923255Y-65855396D01*
X73006917Y-65996862D01*
X73006923Y-65996870D01*
X73123129Y-66113076D01*
X73123133Y-66113079D01*
X73123135Y-66113081D01*
X73264602Y-66196744D01*
X73306224Y-66208836D01*
X73422426Y-66242597D01*
X73422429Y-66242597D01*
X73422431Y-66242598D01*
X73434722Y-66243565D01*
X73459304Y-66245500D01*
X73459306Y-66245500D01*
X73977048Y-66245500D01*
X74044087Y-66265185D01*
X74064729Y-66281819D01*
X74947697Y-67164788D01*
X74957522Y-67177051D01*
X74957743Y-67176869D01*
X74962714Y-67182878D01*
X74983543Y-67202437D01*
X75013135Y-67230226D01*
X75034029Y-67251120D01*
X75039511Y-67255373D01*
X75043943Y-67259157D01*
X75077918Y-67291062D01*
X75095476Y-67300714D01*
X75111735Y-67311395D01*
X75127564Y-67323673D01*
X75170338Y-67342182D01*
X75175556Y-67344738D01*
X75216408Y-67367197D01*
X75235816Y-67372180D01*
X75254217Y-67378480D01*
X75272604Y-67386437D01*
X75315988Y-67393308D01*
X75318619Y-67393725D01*
X75324339Y-67394909D01*
X75369481Y-67406500D01*
X75389516Y-67406500D01*
X75408914Y-67408026D01*
X75428694Y-67411159D01*
X75428695Y-67411160D01*
X75428695Y-67411159D01*
X75428696Y-67411160D01*
X75475084Y-67406775D01*
X75480922Y-67406500D01*
X76505252Y-67406500D01*
X76572291Y-67426185D01*
X76597400Y-67447526D01*
X76603126Y-67453885D01*
X76603130Y-67453889D01*
X76756265Y-67565148D01*
X76756270Y-67565151D01*
X76929192Y-67642142D01*
X76929197Y-67642144D01*
X77114354Y-67681500D01*
X77114355Y-67681500D01*
X77303644Y-67681500D01*
X77303646Y-67681500D01*
X77488803Y-67642144D01*
X77661730Y-67565151D01*
X77814871Y-67453888D01*
X77817788Y-67450647D01*
X77820600Y-67447526D01*
X77880087Y-67410879D01*
X77912748Y-67406500D01*
X95052977Y-67406500D01*
X95068597Y-67408224D01*
X95068624Y-67407939D01*
X95076380Y-67408671D01*
X95076387Y-67408673D01*
X95145534Y-67406500D01*
X95175070Y-67406500D01*
X95181948Y-67405630D01*
X95187761Y-67405172D01*
X95234347Y-67403709D01*
X95253589Y-67398117D01*
X95272632Y-67394174D01*
X95292512Y-67391664D01*
X95335842Y-67374507D01*
X95341366Y-67372617D01*
X95345116Y-67371527D01*
X95386110Y-67359618D01*
X95403349Y-67349422D01*
X95420823Y-67340862D01*
X95439447Y-67333488D01*
X95439447Y-67333487D01*
X95439452Y-67333486D01*
X95477169Y-67306082D01*
X95482025Y-67302892D01*
X95522140Y-67279170D01*
X95536309Y-67264999D01*
X95551099Y-67252368D01*
X95567307Y-67240594D01*
X95597019Y-67204676D01*
X95600932Y-67200376D01*
X117456492Y-45344819D01*
X117517815Y-45311334D01*
X117544173Y-45308500D01*
X122676448Y-45308500D01*
X122743487Y-45328185D01*
X122782542Y-45370390D01*
X122783081Y-45370035D01*
X122785237Y-45373301D01*
X122785640Y-45373737D01*
X122786147Y-45374680D01*
X122926489Y-45550663D01*
X122926491Y-45550664D01*
X122926492Y-45550666D01*
X123096004Y-45698765D01*
X123289236Y-45814215D01*
X123348102Y-45836307D01*
X123403949Y-45878292D01*
X123428232Y-45943806D01*
X123413241Y-46012049D01*
X123363735Y-46061353D01*
X123358331Y-46064120D01*
X123190033Y-46145167D01*
X123190025Y-46145171D01*
X123007927Y-46277473D01*
X123007925Y-46277474D01*
X122852367Y-46440176D01*
X122808526Y-46506593D01*
X122795695Y-46526032D01*
X122785279Y-46541811D01*
X122731919Y-46586916D01*
X122681792Y-46597500D01*
X118312738Y-46597500D01*
X118297121Y-46595776D01*
X118297094Y-46596062D01*
X118289332Y-46595327D01*
X118220204Y-46597500D01*
X118190650Y-46597500D01*
X118189929Y-46597590D01*
X118183757Y-46598369D01*
X118177945Y-46598826D01*
X118131373Y-46600290D01*
X118131372Y-46600290D01*
X118112129Y-46605881D01*
X118093079Y-46609825D01*
X118073211Y-46612334D01*
X118029884Y-46629488D01*
X118024358Y-46631379D01*
X117979614Y-46644379D01*
X117979610Y-46644381D01*
X117962366Y-46654579D01*
X117944905Y-46663133D01*
X117926274Y-46670510D01*
X117926262Y-46670517D01*
X117888570Y-46697902D01*
X117883687Y-46701109D01*
X117843580Y-46724829D01*
X117829414Y-46738995D01*
X117814624Y-46751627D01*
X117798414Y-46763404D01*
X117798411Y-46763407D01*
X117768710Y-46799309D01*
X117764777Y-46803631D01*
X79526228Y-85042181D01*
X79464905Y-85075666D01*
X79438547Y-85078500D01*
X57592748Y-85078500D01*
X57525709Y-85058815D01*
X57500600Y-85037474D01*
X57494873Y-85031114D01*
X57494869Y-85031110D01*
X57341734Y-84919851D01*
X57341729Y-84919848D01*
X57168807Y-84842857D01*
X57168802Y-84842855D01*
X57023001Y-84811865D01*
X56983646Y-84803500D01*
X56794354Y-84803500D01*
X56761897Y-84810398D01*
X56609197Y-84842855D01*
X56609192Y-84842857D01*
X56469613Y-84905003D01*
X56400363Y-84914288D01*
X56337086Y-84884660D01*
X56331496Y-84879405D01*
X56327404Y-84875313D01*
X56293919Y-84813990D01*
X56296011Y-84753027D01*
X56297598Y-84747569D01*
X56300500Y-84710694D01*
X56300500Y-84469500D01*
X56320185Y-84402461D01*
X56372989Y-84356706D01*
X56424500Y-84345500D01*
X57590696Y-84345500D01*
X57609131Y-84344049D01*
X57627569Y-84342598D01*
X57627571Y-84342597D01*
X57627573Y-84342597D01*
X57673864Y-84329148D01*
X57785398Y-84296744D01*
X57926865Y-84213081D01*
X57928418Y-84211528D01*
X57933128Y-84206819D01*
X57994451Y-84173334D01*
X58020809Y-84170500D01*
X58553992Y-84170500D01*
X58621031Y-84190185D01*
X58646142Y-84211528D01*
X58696129Y-84267044D01*
X58696135Y-84267049D01*
X58849265Y-84378304D01*
X58849270Y-84378307D01*
X59022192Y-84455298D01*
X59022197Y-84455300D01*
X59207354Y-84494656D01*
X59207355Y-84494656D01*
X59396644Y-84494656D01*
X59396646Y-84494656D01*
X59581803Y-84455300D01*
X59754730Y-84378307D01*
X59907871Y-84267044D01*
X60034533Y-84126372D01*
X60129179Y-83962440D01*
X60187674Y-83782412D01*
X60207460Y-83594156D01*
X60187674Y-83405900D01*
X60129179Y-83225872D01*
X60034533Y-83061940D01*
X59907871Y-82921268D01*
X59906897Y-82920560D01*
X59754734Y-82810007D01*
X59754729Y-82810004D01*
X59581807Y-82733013D01*
X59581802Y-82733011D01*
X59436001Y-82702021D01*
X59396646Y-82693656D01*
X59207354Y-82693656D01*
X59174897Y-82700554D01*
X59022197Y-82733011D01*
X59022192Y-82733013D01*
X58849270Y-82810004D01*
X58849265Y-82810007D01*
X58755254Y-82878311D01*
X58733472Y-82894137D01*
X58731158Y-82895818D01*
X58665352Y-82919298D01*
X58658273Y-82919500D01*
X58020809Y-82919500D01*
X57953770Y-82899815D01*
X57933128Y-82883181D01*
X57926870Y-82876923D01*
X57926862Y-82876917D01*
X57843694Y-82827732D01*
X57785398Y-82793256D01*
X57785397Y-82793255D01*
X57785396Y-82793255D01*
X57785393Y-82793254D01*
X57627573Y-82747402D01*
X57627567Y-82747401D01*
X57590696Y-82744500D01*
X57590694Y-82744500D01*
X56284306Y-82744500D01*
X56284304Y-82744500D01*
X56247432Y-82747401D01*
X56247426Y-82747402D01*
X56089606Y-82793254D01*
X56089603Y-82793255D01*
X56031306Y-82827732D01*
X55968185Y-82845000D01*
X55312500Y-82845000D01*
X55312500Y-83395000D01*
X55575500Y-83395000D01*
X55642539Y-83414685D01*
X55688294Y-83467489D01*
X55699500Y-83519000D01*
X55699500Y-83570500D01*
X55679815Y-83637539D01*
X55627011Y-83683294D01*
X55575500Y-83694500D01*
X54409304Y-83694500D01*
X54372432Y-83697401D01*
X54372426Y-83697402D01*
X54214606Y-83743254D01*
X54214603Y-83743255D01*
X54073137Y-83826917D01*
X54073129Y-83826923D01*
X53956923Y-83943129D01*
X53956917Y-83943137D01*
X53873255Y-84084603D01*
X53873254Y-84084606D01*
X53827402Y-84242426D01*
X53827401Y-84242432D01*
X53824500Y-84279304D01*
X53824500Y-84710696D01*
X53827401Y-84747567D01*
X53827402Y-84747573D01*
X53873254Y-84905393D01*
X53873255Y-84905396D01*
X53873256Y-84905398D01*
X53897811Y-84946919D01*
X53956917Y-85046862D01*
X53956923Y-85046870D01*
X54073129Y-85163076D01*
X54073133Y-85163079D01*
X54073135Y-85163081D01*
X54214602Y-85246744D01*
X54256224Y-85258836D01*
X54372426Y-85292597D01*
X54372429Y-85292597D01*
X54372431Y-85292598D01*
X54384722Y-85293565D01*
X54409304Y-85295500D01*
X54409306Y-85295500D01*
X54927048Y-85295500D01*
X54994087Y-85315185D01*
X55014728Y-85331818D01*
X55396827Y-85713918D01*
X55770697Y-86087788D01*
X55780522Y-86100051D01*
X55780743Y-86099869D01*
X55785714Y-86105878D01*
X55806543Y-86125437D01*
X55836135Y-86153226D01*
X55857029Y-86174120D01*
X55862511Y-86178373D01*
X55866943Y-86182157D01*
X55900918Y-86214062D01*
X55918476Y-86223714D01*
X55934735Y-86234395D01*
X55950564Y-86246673D01*
X55993338Y-86265182D01*
X55998556Y-86267738D01*
X56039408Y-86290197D01*
X56058816Y-86295180D01*
X56077217Y-86301480D01*
X56095604Y-86309437D01*
X56138988Y-86316308D01*
X56141619Y-86316725D01*
X56147339Y-86317909D01*
X56192481Y-86329500D01*
X56192487Y-86329500D01*
X56200224Y-86330478D01*
X56199807Y-86333774D01*
X56252291Y-86349185D01*
X56277400Y-86370526D01*
X56283127Y-86376886D01*
X56283129Y-86376888D01*
X56436265Y-86488148D01*
X56436270Y-86488151D01*
X56609192Y-86565142D01*
X56609197Y-86565144D01*
X56794354Y-86604500D01*
X56794355Y-86604500D01*
X56983644Y-86604500D01*
X56983646Y-86604500D01*
X57168803Y-86565144D01*
X57341730Y-86488151D01*
X57494871Y-86376888D01*
X57497788Y-86373647D01*
X57500600Y-86370526D01*
X57560087Y-86333879D01*
X57592748Y-86329500D01*
X79666257Y-86329500D01*
X79681877Y-86331224D01*
X79681904Y-86330939D01*
X79689660Y-86331671D01*
X79689667Y-86331673D01*
X79758814Y-86329500D01*
X79788350Y-86329500D01*
X79795228Y-86328630D01*
X79801041Y-86328172D01*
X79847627Y-86326709D01*
X79866869Y-86321117D01*
X79885912Y-86317174D01*
X79905792Y-86314664D01*
X79949122Y-86297507D01*
X79954646Y-86295617D01*
X79958396Y-86294527D01*
X79999390Y-86282618D01*
X80016629Y-86272422D01*
X80034103Y-86263862D01*
X80052727Y-86256488D01*
X80052727Y-86256487D01*
X80052732Y-86256486D01*
X80090449Y-86229082D01*
X80095305Y-86225892D01*
X80135420Y-86202170D01*
X80149589Y-86187999D01*
X80164379Y-86175368D01*
X80180587Y-86163594D01*
X80210299Y-86127676D01*
X80214212Y-86123376D01*
X118452772Y-47884819D01*
X118514095Y-47851334D01*
X118540453Y-47848500D01*
X122676448Y-47848500D01*
X122743487Y-47868185D01*
X122782542Y-47910390D01*
X122783081Y-47910035D01*
X122785237Y-47913301D01*
X122785640Y-47913737D01*
X122786147Y-47914680D01*
X122926489Y-48090663D01*
X122926491Y-48090664D01*
X122926492Y-48090666D01*
X123096004Y-48238765D01*
X123289236Y-48354215D01*
X123348102Y-48376307D01*
X123403949Y-48418292D01*
X123428232Y-48483806D01*
X123413241Y-48552049D01*
X123363735Y-48601353D01*
X123358331Y-48604120D01*
X123190033Y-48685167D01*
X123190025Y-48685171D01*
X123007927Y-48817473D01*
X123007925Y-48817474D01*
X122852367Y-48980176D01*
X122785279Y-49081811D01*
X122731919Y-49126916D01*
X122681792Y-49137500D01*
X119836743Y-49137500D01*
X119821122Y-49135775D01*
X119821095Y-49136061D01*
X119813333Y-49135326D01*
X119744172Y-49137500D01*
X119714649Y-49137500D01*
X119707778Y-49138367D01*
X119701959Y-49138825D01*
X119655374Y-49140289D01*
X119655368Y-49140290D01*
X119636126Y-49145880D01*
X119617087Y-49149823D01*
X119597217Y-49152334D01*
X119597203Y-49152337D01*
X119553883Y-49169488D01*
X119548358Y-49171380D01*
X119503613Y-49184380D01*
X119503610Y-49184381D01*
X119486366Y-49194579D01*
X119468905Y-49203133D01*
X119450274Y-49210510D01*
X119450262Y-49210517D01*
X119412570Y-49237902D01*
X119407687Y-49241109D01*
X119367580Y-49264829D01*
X119353414Y-49278995D01*
X119338624Y-49291627D01*
X119322414Y-49303404D01*
X119322411Y-49303407D01*
X119292710Y-49339309D01*
X119288777Y-49343631D01*
X86604208Y-82028199D01*
X86591951Y-82038020D01*
X86592134Y-82038241D01*
X86586123Y-82043213D01*
X86538772Y-82093636D01*
X86517889Y-82114519D01*
X86517877Y-82114532D01*
X86513621Y-82120017D01*
X86509837Y-82124447D01*
X86477937Y-82158418D01*
X86477936Y-82158420D01*
X86468284Y-82175976D01*
X86457610Y-82192226D01*
X86445329Y-82208061D01*
X86445324Y-82208068D01*
X86426815Y-82250838D01*
X86424245Y-82256084D01*
X86401803Y-82296906D01*
X86396822Y-82316307D01*
X86390521Y-82334710D01*
X86382562Y-82353102D01*
X86382561Y-82353105D01*
X86375271Y-82399127D01*
X86374087Y-82404846D01*
X86362501Y-82449972D01*
X86362500Y-82449982D01*
X86362500Y-82470016D01*
X86360973Y-82489415D01*
X86357840Y-82509194D01*
X86357840Y-82509195D01*
X86362225Y-82555583D01*
X86362500Y-82561421D01*
X86362500Y-85494255D01*
X86360775Y-85509872D01*
X86361061Y-85509899D01*
X86360326Y-85517665D01*
X86362500Y-85586814D01*
X86362500Y-85616343D01*
X86362501Y-85616360D01*
X86363368Y-85623231D01*
X86363826Y-85629050D01*
X86365290Y-85675624D01*
X86365291Y-85675627D01*
X86370880Y-85694867D01*
X86374824Y-85713911D01*
X86376166Y-85724530D01*
X86377336Y-85733791D01*
X86394490Y-85777119D01*
X86396382Y-85782647D01*
X86397349Y-85785976D01*
X86409382Y-85827390D01*
X86419040Y-85843722D01*
X86419580Y-85844634D01*
X86428136Y-85862100D01*
X86428343Y-85862621D01*
X86435514Y-85880732D01*
X86462898Y-85918423D01*
X86466106Y-85923307D01*
X86489827Y-85963416D01*
X86489833Y-85963424D01*
X86503990Y-85977580D01*
X86516628Y-85992376D01*
X86528405Y-86008586D01*
X86528406Y-86008587D01*
X86564309Y-86038288D01*
X86568620Y-86042210D01*
X86847532Y-86321122D01*
X87122194Y-86595784D01*
X87132019Y-86608048D01*
X87132240Y-86607866D01*
X87137210Y-86613873D01*
X87137213Y-86613876D01*
X87137214Y-86613877D01*
X87187651Y-86661241D01*
X87208530Y-86682120D01*
X87214004Y-86686366D01*
X87218442Y-86690156D01*
X87252418Y-86722062D01*
X87252422Y-86722064D01*
X87269973Y-86731713D01*
X87286231Y-86742392D01*
X87302064Y-86754674D01*
X87324015Y-86764172D01*
X87344837Y-86773183D01*
X87350081Y-86775752D01*
X87390908Y-86798197D01*
X87410312Y-86803179D01*
X87428710Y-86809478D01*
X87447105Y-86817438D01*
X87493129Y-86824726D01*
X87498832Y-86825907D01*
X87543981Y-86837500D01*
X87564016Y-86837500D01*
X87583413Y-86839026D01*
X87603196Y-86842160D01*
X87649584Y-86837775D01*
X87655422Y-86837500D01*
X93523252Y-86837500D01*
X93590291Y-86857185D01*
X93615400Y-86878526D01*
X93621126Y-86884885D01*
X93621130Y-86884889D01*
X93774265Y-86996148D01*
X93774270Y-86996151D01*
X93947192Y-87073142D01*
X93947197Y-87073144D01*
X94119229Y-87109710D01*
X94180711Y-87142902D01*
X94214487Y-87204065D01*
X94209835Y-87273780D01*
X94168230Y-87329912D01*
X94102883Y-87354641D01*
X94093448Y-87355000D01*
X52314000Y-87355000D01*
X52246961Y-87335315D01*
X52201206Y-87282511D01*
X52190000Y-87231000D01*
X52190000Y-82845001D01*
X53827704Y-82845001D01*
X53827899Y-82847486D01*
X53873718Y-83005198D01*
X53957314Y-83146552D01*
X53957321Y-83146561D01*
X54073438Y-83262678D01*
X54073447Y-83262685D01*
X54214803Y-83346282D01*
X54214806Y-83346283D01*
X54372504Y-83392099D01*
X54372510Y-83392100D01*
X54409356Y-83395000D01*
X54812500Y-83395000D01*
X54812500Y-82845000D01*
X53827705Y-82845000D01*
X53827704Y-82845001D01*
X52190000Y-82845001D01*
X52190000Y-82344998D01*
X53827704Y-82344998D01*
X53827705Y-82345000D01*
X54812500Y-82345000D01*
X54812500Y-81795000D01*
X55312500Y-81795000D01*
X55312500Y-82345000D01*
X56297295Y-82345000D01*
X56297295Y-82344998D01*
X56297100Y-82342513D01*
X56251281Y-82184801D01*
X56167685Y-82043447D01*
X56167678Y-82043438D01*
X56051561Y-81927321D01*
X56051552Y-81927314D01*
X55910196Y-81843717D01*
X55910193Y-81843716D01*
X55752495Y-81797900D01*
X55752489Y-81797899D01*
X55715644Y-81795000D01*
X55312500Y-81795000D01*
X54812500Y-81795000D01*
X54409356Y-81795000D01*
X54372510Y-81797899D01*
X54372504Y-81797900D01*
X54214806Y-81843716D01*
X54214803Y-81843717D01*
X54073447Y-81927314D01*
X54073438Y-81927321D01*
X53957321Y-82043438D01*
X53957314Y-82043447D01*
X53873718Y-82184801D01*
X53827899Y-82342513D01*
X53827704Y-82344998D01*
X52190000Y-82344998D01*
X52190000Y-63795001D01*
X72877704Y-63795001D01*
X72877899Y-63797486D01*
X72923718Y-63955198D01*
X73007314Y-64096552D01*
X73007321Y-64096561D01*
X73123438Y-64212678D01*
X73123447Y-64212685D01*
X73264803Y-64296282D01*
X73264806Y-64296283D01*
X73422504Y-64342099D01*
X73422510Y-64342100D01*
X73459356Y-64345000D01*
X73862500Y-64345000D01*
X73862500Y-63795000D01*
X72877705Y-63795000D01*
X72877704Y-63795001D01*
X52190000Y-63795001D01*
X52190000Y-63294998D01*
X72877704Y-63294998D01*
X72877705Y-63295000D01*
X73862500Y-63295000D01*
X73862500Y-62745000D01*
X74362500Y-62745000D01*
X74362500Y-63295000D01*
X75347295Y-63295000D01*
X75347295Y-63294998D01*
X75347100Y-63292513D01*
X75301281Y-63134801D01*
X75217685Y-62993447D01*
X75217678Y-62993438D01*
X75101561Y-62877321D01*
X75101552Y-62877314D01*
X74960196Y-62793717D01*
X74960193Y-62793716D01*
X74802495Y-62747900D01*
X74802489Y-62747899D01*
X74765644Y-62745000D01*
X74362500Y-62745000D01*
X73862500Y-62745000D01*
X73459356Y-62745000D01*
X73422510Y-62747899D01*
X73422504Y-62747900D01*
X73264806Y-62793716D01*
X73264803Y-62793717D01*
X73123447Y-62877314D01*
X73123438Y-62877321D01*
X73007321Y-62993438D01*
X73007314Y-62993447D01*
X72923718Y-63134801D01*
X72877899Y-63292513D01*
X72877704Y-63294998D01*
X52190000Y-63294998D01*
X52190000Y-59539000D01*
X52209685Y-59471961D01*
X52262489Y-59426206D01*
X52314000Y-59415000D01*
X96640000Y-59415000D01*
X106800000Y-49255000D01*
X106800000Y-39162763D01*
X111295787Y-39162763D01*
X111325413Y-39432013D01*
X111325415Y-39432024D01*
X111384841Y-39659330D01*
X111393928Y-39694088D01*
X111499870Y-39943390D01*
X111571998Y-40061575D01*
X111640979Y-40174605D01*
X111640986Y-40174615D01*
X111814253Y-40382819D01*
X111814259Y-40382824D01*
X111912294Y-40470663D01*
X112015998Y-40563582D01*
X112241910Y-40713044D01*
X112487176Y-40828020D01*
X112487183Y-40828022D01*
X112487185Y-40828023D01*
X112746557Y-40906057D01*
X112746564Y-40906058D01*
X112746569Y-40906060D01*
X113014561Y-40945500D01*
X113014566Y-40945500D01*
X113217636Y-40945500D01*
X113269133Y-40941730D01*
X113420156Y-40930677D01*
X113532758Y-40905593D01*
X113684546Y-40871782D01*
X113684548Y-40871781D01*
X113684553Y-40871780D01*
X113937558Y-40775014D01*
X114173777Y-40642441D01*
X114388177Y-40476888D01*
X114576186Y-40281881D01*
X114733799Y-40061579D01*
X114825928Y-39882387D01*
X114857649Y-39820690D01*
X114857651Y-39820684D01*
X114857656Y-39820675D01*
X114945118Y-39564305D01*
X114994319Y-39297933D01*
X115004212Y-39027235D01*
X114974586Y-38757982D01*
X114906072Y-38495912D01*
X114800130Y-38246610D01*
X114659018Y-38015390D01*
X114652986Y-38008142D01*
X114485746Y-37807180D01*
X114485740Y-37807175D01*
X114284002Y-37626418D01*
X114058092Y-37476957D01*
X114002339Y-37450821D01*
X113812824Y-37361980D01*
X113812819Y-37361978D01*
X113812814Y-37361976D01*
X113553442Y-37283942D01*
X113553428Y-37283939D01*
X113437791Y-37266921D01*
X113285439Y-37244500D01*
X113082369Y-37244500D01*
X113082364Y-37244500D01*
X112879844Y-37259323D01*
X112879831Y-37259325D01*
X112615453Y-37318217D01*
X112615446Y-37318220D01*
X112362439Y-37414987D01*
X112126226Y-37547557D01*
X112126224Y-37547558D01*
X112126223Y-37547559D01*
X112106226Y-37563000D01*
X111911822Y-37713112D01*
X111723822Y-37908109D01*
X111723816Y-37908116D01*
X111566202Y-38128419D01*
X111566199Y-38128424D01*
X111442350Y-38369309D01*
X111442343Y-38369327D01*
X111354884Y-38625685D01*
X111354881Y-38625699D01*
X111305681Y-38892068D01*
X111305680Y-38892075D01*
X111295787Y-39162763D01*
X106800000Y-39162763D01*
X106800000Y-36812999D01*
X122608915Y-36812999D01*
X122608916Y-36813000D01*
X124084000Y-36813000D01*
X124084000Y-35813000D01*
X123777870Y-35813000D01*
X123609903Y-35828116D01*
X123609897Y-35828117D01*
X123393015Y-35887973D01*
X123393002Y-35887978D01*
X123190291Y-35985598D01*
X123190283Y-35985602D01*
X123008258Y-36117851D01*
X123008250Y-36117857D01*
X122852762Y-36280486D01*
X122728808Y-36468266D01*
X122640375Y-36675169D01*
X122640372Y-36675178D01*
X122608915Y-36812999D01*
X106800000Y-36812999D01*
X106800000Y-35409000D01*
X106819685Y-35341961D01*
X106872489Y-35296206D01*
X106924000Y-35285000D01*
X151126000Y-35285000D01*
X151193039Y-35304685D01*
G37*
%TD.AperFunction*%
%TD*%
M02*
