%TF.GenerationSoftware,KiCad,Pcbnew,7.0.9*%
%TF.CreationDate,2024-01-30T16:44:38+01:00*%
%TF.ProjectId,tm-gamepad,746d2d67-616d-4657-9061-642e6b696361,rev?*%
%TF.SameCoordinates,Original*%
%TF.FileFunction,Copper,L2,Bot*%
%TF.FilePolarity,Positive*%
%FSLAX46Y46*%
G04 Gerber Fmt 4.6, Leading zero omitted, Abs format (unit mm)*
G04 Created by KiCad (PCBNEW 7.0.9) date 2024-01-30 16:44:38*
%MOMM*%
%LPD*%
G01*
G04 APERTURE LIST*
G04 Aperture macros list*
%AMRoundRect*
0 Rectangle with rounded corners*
0 $1 Rounding radius*
0 $2 $3 $4 $5 $6 $7 $8 $9 X,Y pos of 4 corners*
0 Add a 4 corners polygon primitive as box body*
4,1,4,$2,$3,$4,$5,$6,$7,$8,$9,$2,$3,0*
0 Add four circle primitives for the rounded corners*
1,1,$1+$1,$2,$3*
1,1,$1+$1,$4,$5*
1,1,$1+$1,$6,$7*
1,1,$1+$1,$8,$9*
0 Add four rect primitives between the rounded corners*
20,1,$1+$1,$2,$3,$4,$5,0*
20,1,$1+$1,$4,$5,$6,$7,0*
20,1,$1+$1,$6,$7,$8,$9,0*
20,1,$1+$1,$8,$9,$2,$3,0*%
G04 Aperture macros list end*
%TA.AperFunction,ComponentPad*%
%ADD10O,2.500000X1.500000*%
%TD*%
%TA.AperFunction,ComponentPad*%
%ADD11O,1.500000X2.500000*%
%TD*%
%TA.AperFunction,ComponentPad*%
%ADD12C,2.286000*%
%TD*%
%TA.AperFunction,SMDPad,CuDef*%
%ADD13RoundRect,0.150000X0.587500X0.150000X-0.587500X0.150000X-0.587500X-0.150000X0.587500X-0.150000X0*%
%TD*%
%TA.AperFunction,ViaPad*%
%ADD14C,0.800000*%
%TD*%
%TA.AperFunction,Conductor*%
%ADD15C,0.250000*%
%TD*%
G04 APERTURE END LIST*
D10*
%TO.P,U5,23,5V*%
%TO.N,5V*%
X124334000Y-37063000D03*
%TO.P,U5,22,GND*%
%TO.N,GND*%
X124334000Y-39603000D03*
%TO.P,U5,21,3V3*%
%TO.N,unconnected-(U5-3V3-Pad21)*%
X124334000Y-42143000D03*
%TO.P,U5,20,29*%
%TO.N,Net-(Back_A0-OUT)*%
X124334000Y-44683000D03*
%TO.P,U5,19,28*%
%TO.N,Net-(Back_A1-OUT)*%
X124334000Y-47223000D03*
%TO.P,U5,18,27*%
%TO.N,Net-(Back_A2-OUT)*%
X124334000Y-49763000D03*
%TO.P,U5,17,26*%
%TO.N,Net-(Back_A3-OUT)*%
X124334000Y-52303000D03*
%TO.P,U5,16,15*%
%TO.N,unconnected-(U5-15-Pad16)*%
X124334000Y-54843000D03*
%TO.P,U5,15,14*%
%TO.N,unconnected-(U5-14-Pad15)*%
X124334000Y-57383000D03*
D11*
%TO.P,U5,14,13*%
%TO.N,unconnected-(U5-13-Pad14)*%
X127374000Y-57883000D03*
%TO.P,U5,13,12*%
%TO.N,unconnected-(U5-12-Pad13)*%
X129914000Y-57883000D03*
%TO.P,U5,12,11*%
%TO.N,unconnected-(U5-11-Pad12)*%
X132454000Y-57883000D03*
%TO.P,U5,11,10*%
%TO.N,unconnected-(U5-10-Pad11)*%
X134994000Y-57883000D03*
%TO.P,U5,10,9*%
%TO.N,unconnected-(U5-9-Pad10)*%
X137534000Y-57883000D03*
D10*
%TO.P,U5,9,8*%
%TO.N,Digital8*%
X140574000Y-57383000D03*
%TO.P,U5,8,7*%
%TO.N,Digital7*%
X140574000Y-54843000D03*
%TO.P,U5,7,6*%
%TO.N,Digital6*%
X140574000Y-52303000D03*
%TO.P,U5,6,5*%
%TO.N,Digital5*%
X140574000Y-49763000D03*
%TO.P,U5,5,4*%
%TO.N,Digital4*%
X140574000Y-47223000D03*
%TO.P,U5,4,3*%
%TO.N,Digital3*%
X140574000Y-44683000D03*
%TO.P,U5,3,2*%
%TO.N,Digital2*%
X140574000Y-42143000D03*
%TO.P,U5,2,1*%
%TO.N,Digital1*%
X140574000Y-39603000D03*
%TO.P,U5,1,0*%
%TO.N,Digital0*%
X140574000Y-37063000D03*
%TD*%
D12*
%TO.P,SW4,2,2*%
%TO.N,GND*%
X193160000Y-61955000D03*
%TO.P,SW4,1,1*%
%TO.N,Digital4*%
X186810000Y-59415000D03*
%TO.P,SW4,2,2*%
%TO.N,GND*%
X191890000Y-59415000D03*
%TO.P,SW4,1,1*%
%TO.N,Digital4*%
X185540000Y-61955000D03*
%TD*%
%TO.P,SW8,1,1*%
%TO.N,Digital8*%
X90290000Y-42905000D03*
%TO.P,SW8,2,2*%
%TO.N,GND*%
X96640000Y-40365000D03*
%TO.P,SW8,1,1*%
%TO.N,Digital8*%
X91560000Y-40365000D03*
%TO.P,SW8,2,2*%
%TO.N,GND*%
X97910000Y-42905000D03*
%TD*%
%TO.P,SW7,1,1*%
%TO.N,Digital7*%
X71240000Y-42905000D03*
%TO.P,SW7,2,2*%
%TO.N,GND*%
X77590000Y-40365000D03*
%TO.P,SW7,1,1*%
%TO.N,Digital7*%
X72510000Y-40365000D03*
%TO.P,SW7,2,2*%
%TO.N,GND*%
X78860000Y-42905000D03*
%TD*%
%TO.P,SW6,1,1*%
%TO.N,Digital6*%
X52190000Y-42905000D03*
%TO.P,SW6,2,2*%
%TO.N,GND*%
X58540000Y-40365000D03*
%TO.P,SW6,1,1*%
%TO.N,Digital6*%
X53460000Y-40365000D03*
%TO.P,SW6,2,2*%
%TO.N,GND*%
X59810000Y-42905000D03*
%TD*%
%TO.P,SW5,2,2*%
%TO.N,GND*%
X174110000Y-61955000D03*
%TO.P,SW5,1,1*%
%TO.N,Digital5*%
X167760000Y-59415000D03*
%TO.P,SW5,2,2*%
%TO.N,GND*%
X172840000Y-59415000D03*
%TO.P,SW5,1,1*%
%TO.N,Digital5*%
X166490000Y-61955000D03*
%TD*%
%TO.P,SW3,2,2*%
%TO.N,GND*%
X212210000Y-61955000D03*
%TO.P,SW3,1,1*%
%TO.N,Digital3*%
X205860000Y-59415000D03*
%TO.P,SW3,2,2*%
%TO.N,GND*%
X210940000Y-59415000D03*
%TO.P,SW3,1,1*%
%TO.N,Digital3*%
X204590000Y-61955000D03*
%TD*%
%TO.P,SW2,2,2*%
%TO.N,GND*%
X174110000Y-42905000D03*
%TO.P,SW2,1,1*%
%TO.N,Digital2*%
X167760000Y-40365000D03*
%TO.P,SW2,2,2*%
%TO.N,GND*%
X172840000Y-40365000D03*
%TO.P,SW2,1,1*%
%TO.N,Digital2*%
X166490000Y-42905000D03*
%TD*%
%TO.P,SW1,1,1*%
%TO.N,Digital1*%
X185540000Y-42905000D03*
%TO.P,SW1,2,2*%
%TO.N,GND*%
X191890000Y-40365000D03*
%TO.P,SW1,1,1*%
%TO.N,Digital1*%
X186810000Y-40365000D03*
%TO.P,SW1,2,2*%
%TO.N,GND*%
X193160000Y-42905000D03*
%TD*%
%TO.P,SW0,2,2*%
%TO.N,GND*%
X212210000Y-42905000D03*
%TO.P,SW0,1,1*%
%TO.N,Digital0*%
X205860000Y-40365000D03*
%TO.P,SW0,2,2*%
%TO.N,GND*%
X210940000Y-40365000D03*
%TO.P,SW0,1,1*%
%TO.N,Digital0*%
X204590000Y-42905000D03*
%TD*%
D13*
%TO.P,Front_A3,1,VCC*%
%TO.N,5V*%
X199812500Y-82595000D03*
%TO.P,Front_A3,2,OUT*%
%TO.N,Net-(Back_A3-OUT)*%
X199812500Y-84495000D03*
%TO.P,Front_A3,3,GND*%
%TO.N,GND*%
X197937500Y-83545000D03*
%TD*%
%TO.P,Front_A0,1,VCC*%
%TO.N,5V*%
X75987500Y-63545000D03*
%TO.P,Front_A0,2,OUT*%
%TO.N,Net-(Back_A0-OUT)*%
X75987500Y-65445000D03*
%TO.P,Front_A0,3,GND*%
%TO.N,GND*%
X74112500Y-64495000D03*
%TD*%
%TO.P,Front_A2,3,GND*%
%TO.N,GND*%
X93162500Y-83545000D03*
%TO.P,Front_A2,2,OUT*%
%TO.N,Net-(Back_A2-OUT)*%
X95037500Y-84495000D03*
%TO.P,Front_A2,1,VCC*%
%TO.N,5V*%
X95037500Y-82595000D03*
%TD*%
%TO.P,Front_A1,3,GND*%
%TO.N,GND*%
X55062500Y-83545000D03*
%TO.P,Front_A1,2,OUT*%
%TO.N,Net-(Back_A1-OUT)*%
X56937500Y-84495000D03*
%TO.P,Front_A1,1,VCC*%
%TO.N,5V*%
X56937500Y-82595000D03*
%TD*%
D14*
%TO.N,5V*%
X59310758Y-82594692D03*
%TO.N,Net-(Back_A1-OUT)*%
X56889000Y-85704000D03*
%TO.N,GND*%
X59302000Y-83594156D03*
%TO.N,5V*%
X77971000Y-63495497D03*
%TO.N,Net-(Back_A0-OUT)*%
X77209000Y-66781000D03*
%TO.N,GND*%
X77971000Y-64495000D03*
X97034261Y-83593448D03*
%TO.N,5V*%
X97020124Y-82594045D03*
%TO.N,Net-(Back_A2-OUT)*%
X94227000Y-86212000D03*
%TO.N,Net-(Back_A3-OUT)*%
X197351000Y-85958000D03*
%TO.N,GND*%
X201542000Y-83545000D03*
%TO.N,5V*%
X201542000Y-82529000D03*
X201542000Y-82529000D03*
X201542000Y-82529000D03*
X201542000Y-82529000D03*
X201542000Y-82529000D03*
%TD*%
D15*
%TO.N,Digital2*%
X167760000Y-40365000D02*
X166490000Y-39095000D01*
X166490000Y-39095000D02*
X152139000Y-39095000D01*
X152139000Y-39095000D02*
X149091000Y-42143000D01*
X149091000Y-42143000D02*
X140074000Y-42143000D01*
%TO.N,Digital1*%
X186810000Y-40365000D02*
X184270000Y-37825000D01*
X184270000Y-37825000D02*
X151123000Y-37825000D01*
X151123000Y-37825000D02*
X149345000Y-39603000D01*
X149345000Y-39603000D02*
X140074000Y-39603000D01*
%TO.N,Digital0*%
X205860000Y-40365000D02*
X202050000Y-36555000D01*
X202050000Y-36555000D02*
X140582000Y-36555000D01*
X140582000Y-36555000D02*
X140074000Y-37063000D01*
%TO.N,Digital6*%
X140074000Y-52303000D02*
X144784000Y-57013000D01*
X144784000Y-62581792D02*
X141600792Y-65765000D01*
X144784000Y-57013000D02*
X144784000Y-62581792D01*
X141600792Y-65765000D02*
X120770000Y-65765000D01*
%TO.N,Digital7*%
X140074000Y-54843000D02*
X141218396Y-54843000D01*
X141218396Y-54843000D02*
X144334000Y-57958604D01*
X144334000Y-57958604D02*
X144334000Y-62395396D01*
X144334000Y-62395396D02*
X142234396Y-64495000D01*
X142234396Y-64495000D02*
X121405000Y-64495000D01*
%TO.N,Digital8*%
X140074000Y-57383000D02*
X143122000Y-57383000D01*
X143122000Y-57383000D02*
X143884000Y-58145000D01*
X143884000Y-58145000D02*
X143884000Y-62209000D01*
X143884000Y-62209000D02*
X142868000Y-63225000D01*
X142868000Y-63225000D02*
X122040000Y-63225000D01*
X122040000Y-63225000D02*
X114420000Y-55605000D01*
X114420000Y-55605000D02*
X94100000Y-55605000D01*
X94100000Y-55605000D02*
X90290000Y-51795000D01*
X90290000Y-51795000D02*
X90290000Y-42905000D01*
%TO.N,Digital5*%
X166490000Y-61955000D02*
X161664000Y-57129000D01*
X161664000Y-57129000D02*
X155568000Y-57129000D01*
X155568000Y-57129000D02*
X148202000Y-49763000D01*
X148202000Y-49763000D02*
X140074000Y-49763000D01*
%TO.N,Digital4*%
X185540000Y-61955000D02*
X179698000Y-56113000D01*
X156076000Y-56113000D02*
X147186000Y-47223000D01*
X179698000Y-56113000D02*
X156076000Y-56113000D01*
X147186000Y-47223000D02*
X140074000Y-47223000D01*
%TO.N,Digital3*%
X204590000Y-61955000D02*
X197732000Y-55097000D01*
X197732000Y-55097000D02*
X156457000Y-55097000D01*
X156457000Y-55097000D02*
X146043000Y-44683000D01*
X146043000Y-44683000D02*
X140074000Y-44683000D01*
%TO.N,Digital1*%
X140780000Y-38897000D02*
X140074000Y-39603000D01*
X140142000Y-39535000D02*
X139820000Y-39535000D01*
%TO.N,Net-(Back_A3-OUT)*%
X197351000Y-85958000D02*
X198349500Y-85958000D01*
X198349500Y-85958000D02*
X199812500Y-84495000D01*
%TO.N,GND*%
X201542000Y-83545000D02*
X201551305Y-83545000D01*
%TO.N,5V*%
X199878500Y-82529000D02*
X199812500Y-82595000D01*
X201542000Y-82529000D02*
X199878500Y-82529000D01*
%TO.N,Net-(Back_A1-OUT)*%
X56889000Y-85704000D02*
X56937500Y-85655500D01*
X56937500Y-85655500D02*
X56937500Y-84495000D01*
%TO.N,Net-(Back_A0-OUT)*%
X77209000Y-66781000D02*
X75987500Y-65559500D01*
X75987500Y-65559500D02*
X75987500Y-65445000D01*
%TO.N,Net-(Back_A2-OUT)*%
X95037500Y-84495000D02*
X95037500Y-85401500D01*
X95037500Y-85401500D02*
X94227000Y-86212000D01*
%TO.N,5V*%
X75987500Y-63545000D02*
X77921497Y-63545000D01*
X77921497Y-63545000D02*
X77971000Y-63495497D01*
X59310758Y-82594692D02*
X59310450Y-82595000D01*
X59310450Y-82595000D02*
X56937500Y-82595000D01*
X97020124Y-82594045D02*
X97019169Y-82595000D01*
X97019169Y-82595000D02*
X95037500Y-82595000D01*
%TO.N,Digital6*%
X52190000Y-42905000D02*
X52190000Y-49255000D01*
X52190000Y-49255000D02*
X61080000Y-58145000D01*
X61080000Y-58145000D02*
X113150000Y-58145000D01*
X113150000Y-58145000D02*
X120770000Y-65765000D01*
%TO.N,Digital7*%
X140260000Y-54775000D02*
X139820000Y-54775000D01*
X71240000Y-42905000D02*
X71240000Y-53065000D01*
X71240000Y-53065000D02*
X75050000Y-56875000D01*
X75050000Y-56875000D02*
X113785000Y-56875000D01*
X113785000Y-56875000D02*
X121405000Y-64495000D01*
%TO.N,Digital8*%
X139820000Y-57334720D02*
X139820000Y-57315000D01*
%TO.N,Digital2*%
X140142000Y-42397000D02*
X139820000Y-42075000D01*
%TO.N,Digital3*%
X140006000Y-44429000D02*
X139820000Y-44615000D01*
%TO.N,Digital5*%
X166490000Y-61955000D02*
X167760000Y-60685000D01*
X167760000Y-60685000D02*
X167760000Y-59415000D01*
%TO.N,Digital4*%
X185540000Y-61955000D02*
X186810000Y-60685000D01*
X186810000Y-60685000D02*
X186810000Y-59415000D01*
%TO.N,Digital3*%
X204590000Y-61955000D02*
X205860000Y-60685000D01*
X205860000Y-60685000D02*
X205860000Y-59415000D01*
%TO.N,Digital0*%
X204590000Y-42905000D02*
X205860000Y-41635000D01*
X205860000Y-41635000D02*
X205860000Y-40365000D01*
%TO.N,Digital1*%
X185540000Y-42905000D02*
X186810000Y-41635000D01*
X186810000Y-41635000D02*
X186810000Y-40365000D01*
%TO.N,Digital2*%
X166490000Y-42905000D02*
X167760000Y-41635000D01*
X167760000Y-41635000D02*
X167760000Y-40365000D01*
%TO.N,Digital8*%
X90290000Y-42905000D02*
X91560000Y-41635000D01*
X91560000Y-41635000D02*
X91560000Y-40365000D01*
%TO.N,Digital7*%
X71240000Y-42905000D02*
X72510000Y-41635000D01*
X72510000Y-41635000D02*
X72510000Y-40365000D01*
%TO.N,Digital6*%
X52190000Y-42905000D02*
X53460000Y-41635000D01*
X53460000Y-41635000D02*
X53460000Y-40365000D01*
X52190000Y-42905000D02*
X53333000Y-41762000D01*
%TO.N,Digital2*%
X139820000Y-42075000D02*
X139820000Y-42094720D01*
%TO.N,Digital8*%
X140260000Y-57315000D02*
X139820000Y-57315000D01*
%TO.N,unconnected-(U5-3V3-Pad21)*%
X124580000Y-42075000D02*
X123926396Y-42075000D01*
%TD*%
%TA.AperFunction,Conductor*%
%TO.N,GND*%
G36*
X213495677Y-35304685D02*
G01*
X213516319Y-35321319D01*
X218523681Y-40328681D01*
X218557166Y-40390004D01*
X218560000Y-40416362D01*
X218560000Y-88573638D01*
X218540315Y-88640677D01*
X218523681Y-88661319D01*
X213516319Y-93668681D01*
X213454996Y-93702166D01*
X213428638Y-93705000D01*
X50971362Y-93705000D01*
X50904323Y-93685315D01*
X50883681Y-93668681D01*
X47177763Y-89962763D01*
X73195787Y-89962763D01*
X73225413Y-90232013D01*
X73225415Y-90232024D01*
X73285192Y-90460674D01*
X73293928Y-90494088D01*
X73399870Y-90743390D01*
X73471998Y-90861575D01*
X73540979Y-90974605D01*
X73540986Y-90974615D01*
X73714253Y-91182819D01*
X73714259Y-91182824D01*
X73915998Y-91363582D01*
X74141910Y-91513044D01*
X74387176Y-91628020D01*
X74387183Y-91628022D01*
X74387185Y-91628023D01*
X74646557Y-91706057D01*
X74646564Y-91706058D01*
X74646569Y-91706060D01*
X74914561Y-91745500D01*
X74914566Y-91745500D01*
X75117636Y-91745500D01*
X75169133Y-91741730D01*
X75320156Y-91730677D01*
X75432758Y-91705593D01*
X75584546Y-91671782D01*
X75584548Y-91671781D01*
X75584553Y-91671780D01*
X75837558Y-91575014D01*
X76073777Y-91442441D01*
X76288177Y-91276888D01*
X76476186Y-91081881D01*
X76633799Y-90861579D01*
X76707787Y-90717669D01*
X76757649Y-90620690D01*
X76757651Y-90620684D01*
X76757656Y-90620675D01*
X76845118Y-90364305D01*
X76894319Y-90097933D01*
X76904212Y-89827235D01*
X76874586Y-89557982D01*
X76806072Y-89295912D01*
X76700130Y-89046610D01*
X76559018Y-88815390D01*
X76469747Y-88708119D01*
X76456968Y-88692763D01*
X106977787Y-88692763D01*
X107007413Y-88962013D01*
X107007415Y-88962024D01*
X107075926Y-89224082D01*
X107075928Y-89224088D01*
X107181870Y-89473390D01*
X107253998Y-89591575D01*
X107322979Y-89704605D01*
X107322986Y-89704615D01*
X107496253Y-89912819D01*
X107496259Y-89912824D01*
X107697998Y-90093582D01*
X107923910Y-90243044D01*
X108169176Y-90358020D01*
X108169183Y-90358022D01*
X108169185Y-90358023D01*
X108428557Y-90436057D01*
X108428564Y-90436058D01*
X108428569Y-90436060D01*
X108696561Y-90475500D01*
X108696566Y-90475500D01*
X108899636Y-90475500D01*
X108951133Y-90471730D01*
X109102156Y-90460677D01*
X109214758Y-90435593D01*
X109366546Y-90401782D01*
X109366548Y-90401781D01*
X109366553Y-90401780D01*
X109619558Y-90305014D01*
X109855777Y-90172441D01*
X110070177Y-90006888D01*
X110258186Y-89811881D01*
X110415799Y-89591579D01*
X110501091Y-89425685D01*
X110539649Y-89350690D01*
X110539651Y-89350684D01*
X110539656Y-89350675D01*
X110627118Y-89094305D01*
X110676319Y-88827933D01*
X110681259Y-88692763D01*
X155745787Y-88692763D01*
X155775413Y-88962013D01*
X155775415Y-88962024D01*
X155843926Y-89224082D01*
X155843928Y-89224088D01*
X155949870Y-89473390D01*
X156021998Y-89591575D01*
X156090979Y-89704605D01*
X156090986Y-89704615D01*
X156264253Y-89912819D01*
X156264259Y-89912824D01*
X156465998Y-90093582D01*
X156691910Y-90243044D01*
X156937176Y-90358020D01*
X156937183Y-90358022D01*
X156937185Y-90358023D01*
X157196557Y-90436057D01*
X157196564Y-90436058D01*
X157196569Y-90436060D01*
X157464561Y-90475500D01*
X157464566Y-90475500D01*
X157667636Y-90475500D01*
X157719133Y-90471730D01*
X157870156Y-90460677D01*
X157982758Y-90435593D01*
X158134546Y-90401782D01*
X158134548Y-90401781D01*
X158134553Y-90401780D01*
X158387558Y-90305014D01*
X158623777Y-90172441D01*
X158838177Y-90006888D01*
X159026186Y-89811881D01*
X159183799Y-89591579D01*
X159269091Y-89425685D01*
X159307649Y-89350690D01*
X159307651Y-89350684D01*
X159307656Y-89350675D01*
X159395118Y-89094305D01*
X159444319Y-88827933D01*
X159454212Y-88557235D01*
X159424586Y-88287982D01*
X159356072Y-88025912D01*
X159250130Y-87776610D01*
X159109018Y-87545390D01*
X159019747Y-87438119D01*
X158935746Y-87337180D01*
X158935740Y-87337175D01*
X158734002Y-87156418D01*
X158508092Y-87006957D01*
X158485034Y-86996148D01*
X158262824Y-86891980D01*
X158262819Y-86891978D01*
X158262814Y-86891976D01*
X158003442Y-86813942D01*
X158003428Y-86813939D01*
X157887791Y-86796921D01*
X157735439Y-86774500D01*
X157532369Y-86774500D01*
X157532364Y-86774500D01*
X157329844Y-86789323D01*
X157329831Y-86789325D01*
X157065453Y-86848217D01*
X157065446Y-86848220D01*
X156812439Y-86944987D01*
X156576226Y-87077557D01*
X156361822Y-87243112D01*
X156173822Y-87438109D01*
X156173816Y-87438116D01*
X156016202Y-87658419D01*
X156016199Y-87658424D01*
X155892350Y-87899309D01*
X155892343Y-87899327D01*
X155804884Y-88155685D01*
X155804881Y-88155699D01*
X155755681Y-88422068D01*
X155755680Y-88422075D01*
X155745787Y-88692763D01*
X110681259Y-88692763D01*
X110686212Y-88557235D01*
X110656586Y-88287982D01*
X110588072Y-88025912D01*
X110482130Y-87776610D01*
X110341018Y-87545390D01*
X110251747Y-87438119D01*
X110167746Y-87337180D01*
X110167740Y-87337175D01*
X109966002Y-87156418D01*
X109740092Y-87006957D01*
X109717034Y-86996148D01*
X109494824Y-86891980D01*
X109494819Y-86891978D01*
X109494814Y-86891976D01*
X109235442Y-86813942D01*
X109235428Y-86813939D01*
X109119791Y-86796921D01*
X108967439Y-86774500D01*
X108764369Y-86774500D01*
X108764364Y-86774500D01*
X108561844Y-86789323D01*
X108561831Y-86789325D01*
X108297453Y-86848217D01*
X108297446Y-86848220D01*
X108044439Y-86944987D01*
X107808226Y-87077557D01*
X107593822Y-87243112D01*
X107405822Y-87438109D01*
X107405816Y-87438116D01*
X107248202Y-87658419D01*
X107248199Y-87658424D01*
X107124350Y-87899309D01*
X107124343Y-87899327D01*
X107036884Y-88155685D01*
X107036881Y-88155699D01*
X106987681Y-88422068D01*
X106987680Y-88422075D01*
X106977787Y-88692763D01*
X76456968Y-88692763D01*
X76385746Y-88607180D01*
X76385740Y-88607175D01*
X76184002Y-88426418D01*
X75958092Y-88276957D01*
X75958090Y-88276956D01*
X75712824Y-88161980D01*
X75712819Y-88161978D01*
X75712814Y-88161976D01*
X75453442Y-88083942D01*
X75453428Y-88083939D01*
X75337791Y-88066921D01*
X75185439Y-88044500D01*
X74982369Y-88044500D01*
X74982364Y-88044500D01*
X74779844Y-88059323D01*
X74779831Y-88059325D01*
X74515453Y-88118217D01*
X74515446Y-88118220D01*
X74262439Y-88214987D01*
X74026226Y-88347557D01*
X73811822Y-88513112D01*
X73623822Y-88708109D01*
X73623816Y-88708116D01*
X73466202Y-88928419D01*
X73466199Y-88928424D01*
X73342350Y-89169309D01*
X73342343Y-89169327D01*
X73254884Y-89425685D01*
X73254881Y-89425699D01*
X73205681Y-89692068D01*
X73205680Y-89692075D01*
X73195787Y-89962763D01*
X47177763Y-89962763D01*
X45876319Y-88661319D01*
X45842834Y-88599996D01*
X45840000Y-88573638D01*
X45840000Y-83795001D01*
X53827704Y-83795001D01*
X53827899Y-83797486D01*
X53873718Y-83955198D01*
X53957314Y-84096552D01*
X53957321Y-84096561D01*
X54073438Y-84212678D01*
X54073447Y-84212685D01*
X54214803Y-84296282D01*
X54214806Y-84296283D01*
X54372504Y-84342099D01*
X54372510Y-84342100D01*
X54409356Y-84345000D01*
X54812500Y-84345000D01*
X55312500Y-84345000D01*
X55575500Y-84345000D01*
X55642539Y-84364685D01*
X55688294Y-84417489D01*
X55699500Y-84469000D01*
X55699500Y-84710696D01*
X55702401Y-84747567D01*
X55702402Y-84747573D01*
X55748254Y-84905393D01*
X55748255Y-84905396D01*
X55831917Y-85046862D01*
X55831923Y-85046870D01*
X55948129Y-85163076D01*
X55948138Y-85163083D01*
X56005039Y-85196734D01*
X56052722Y-85247803D01*
X56065226Y-85316545D01*
X56059849Y-85341784D01*
X56014771Y-85480519D01*
X56003326Y-85515744D01*
X55983540Y-85704000D01*
X56003326Y-85892256D01*
X56003327Y-85892259D01*
X56061818Y-86072277D01*
X56061821Y-86072284D01*
X56156467Y-86236216D01*
X56237559Y-86326277D01*
X56283129Y-86376888D01*
X56436265Y-86488148D01*
X56436270Y-86488151D01*
X56609192Y-86565142D01*
X56609197Y-86565144D01*
X56794354Y-86604500D01*
X56794355Y-86604500D01*
X56983644Y-86604500D01*
X56983646Y-86604500D01*
X57168803Y-86565144D01*
X57341730Y-86488151D01*
X57494871Y-86376888D01*
X57621533Y-86236216D01*
X57635514Y-86212000D01*
X93321540Y-86212000D01*
X93341326Y-86400256D01*
X93341327Y-86400259D01*
X93399818Y-86580277D01*
X93399821Y-86580284D01*
X93494467Y-86744216D01*
X93557246Y-86813939D01*
X93621129Y-86884888D01*
X93774265Y-86996148D01*
X93774270Y-86996151D01*
X93947192Y-87073142D01*
X93947197Y-87073144D01*
X94132354Y-87112500D01*
X94132355Y-87112500D01*
X94321644Y-87112500D01*
X94321646Y-87112500D01*
X94506803Y-87073144D01*
X94679730Y-86996151D01*
X94832871Y-86884888D01*
X94959533Y-86744216D01*
X95054179Y-86580284D01*
X95112674Y-86400256D01*
X95130321Y-86232344D01*
X95156904Y-86167734D01*
X95165951Y-86157638D01*
X95365589Y-85958000D01*
X196445540Y-85958000D01*
X196465326Y-86146256D01*
X196465327Y-86146259D01*
X196523818Y-86326277D01*
X196523821Y-86326284D01*
X196618467Y-86490216D01*
X196721369Y-86604500D01*
X196745129Y-86630888D01*
X196898265Y-86742148D01*
X196898270Y-86742151D01*
X197071192Y-86819142D01*
X197071197Y-86819144D01*
X197256354Y-86858500D01*
X197256355Y-86858500D01*
X197445644Y-86858500D01*
X197445646Y-86858500D01*
X197630803Y-86819144D01*
X197803730Y-86742151D01*
X197956871Y-86630888D01*
X197959788Y-86627647D01*
X197962600Y-86624526D01*
X198022087Y-86587879D01*
X198054748Y-86583500D01*
X198266757Y-86583500D01*
X198282377Y-86585224D01*
X198282404Y-86584939D01*
X198290160Y-86585671D01*
X198290167Y-86585673D01*
X198359314Y-86583500D01*
X198388850Y-86583500D01*
X198395728Y-86582630D01*
X198401541Y-86582172D01*
X198448127Y-86580709D01*
X198467369Y-86575117D01*
X198486412Y-86571174D01*
X198506292Y-86568664D01*
X198549622Y-86551507D01*
X198555146Y-86549617D01*
X198558896Y-86548527D01*
X198599890Y-86536618D01*
X198617129Y-86526422D01*
X198634603Y-86517862D01*
X198653227Y-86510488D01*
X198653227Y-86510487D01*
X198653232Y-86510486D01*
X198690949Y-86483082D01*
X198695805Y-86479892D01*
X198735920Y-86456170D01*
X198750089Y-86441999D01*
X198764879Y-86429368D01*
X198781087Y-86417594D01*
X198810799Y-86381676D01*
X198814712Y-86377376D01*
X199860272Y-85331819D01*
X199921595Y-85298334D01*
X199947953Y-85295500D01*
X200465696Y-85295500D01*
X200484131Y-85294049D01*
X200502569Y-85292598D01*
X200502571Y-85292597D01*
X200502573Y-85292597D01*
X200557135Y-85276745D01*
X200660398Y-85246744D01*
X200801865Y-85163081D01*
X200918081Y-85046865D01*
X201001744Y-84905398D01*
X201047598Y-84747569D01*
X201050500Y-84710694D01*
X201050500Y-84279306D01*
X201047598Y-84242431D01*
X201001744Y-84084602D01*
X200918081Y-83943135D01*
X200918079Y-83943133D01*
X200918076Y-83943129D01*
X200801870Y-83826923D01*
X200801862Y-83826917D01*
X200660396Y-83743255D01*
X200660393Y-83743254D01*
X200502573Y-83697402D01*
X200502567Y-83697401D01*
X200465696Y-83694500D01*
X200465694Y-83694500D01*
X199159306Y-83694500D01*
X199159304Y-83694500D01*
X199122432Y-83697401D01*
X199122426Y-83697402D01*
X198964606Y-83743254D01*
X198964603Y-83743255D01*
X198906306Y-83777732D01*
X198843185Y-83795000D01*
X198187500Y-83795000D01*
X198187500Y-84345000D01*
X198450500Y-84345000D01*
X198517539Y-84364685D01*
X198563294Y-84417489D01*
X198574500Y-84469000D01*
X198574500Y-84710696D01*
X198577401Y-84747567D01*
X198577402Y-84747570D01*
X198578990Y-84753035D01*
X198578791Y-84822904D01*
X198547595Y-84875312D01*
X198134989Y-85287919D01*
X198073666Y-85321404D01*
X198003975Y-85316420D01*
X197962707Y-85288343D01*
X197961701Y-85289461D01*
X197956869Y-85285110D01*
X197803734Y-85173851D01*
X197803729Y-85173848D01*
X197630807Y-85096857D01*
X197630802Y-85096855D01*
X197485001Y-85065865D01*
X197445646Y-85057500D01*
X197256354Y-85057500D01*
X197223897Y-85064398D01*
X197071197Y-85096855D01*
X197071192Y-85096857D01*
X196898270Y-85173848D01*
X196898265Y-85173851D01*
X196745129Y-85285111D01*
X196618466Y-85425785D01*
X196523821Y-85589715D01*
X196523818Y-85589722D01*
X196480697Y-85722436D01*
X196465326Y-85769744D01*
X196445540Y-85958000D01*
X95365589Y-85958000D01*
X95421288Y-85902301D01*
X95433542Y-85892486D01*
X95433359Y-85892264D01*
X95439366Y-85887292D01*
X95439377Y-85887286D01*
X95470275Y-85854382D01*
X95486727Y-85836864D01*
X95497171Y-85826418D01*
X95507620Y-85815971D01*
X95511879Y-85810478D01*
X95515652Y-85806061D01*
X95547562Y-85772082D01*
X95557213Y-85754524D01*
X95567896Y-85738261D01*
X95580173Y-85722436D01*
X95598685Y-85679653D01*
X95601238Y-85674441D01*
X95623697Y-85633592D01*
X95628680Y-85614180D01*
X95634981Y-85595780D01*
X95642937Y-85577396D01*
X95650229Y-85531352D01*
X95651406Y-85525671D01*
X95663000Y-85480519D01*
X95663000Y-85460483D01*
X95664527Y-85441082D01*
X95667660Y-85421304D01*
X95667074Y-85415109D01*
X95680358Y-85346516D01*
X95728619Y-85295992D01*
X95755928Y-85284359D01*
X95806136Y-85269772D01*
X95885398Y-85246744D01*
X96026865Y-85163081D01*
X96143081Y-85046865D01*
X96226744Y-84905398D01*
X96272598Y-84747569D01*
X96275500Y-84710694D01*
X96275500Y-84279306D01*
X96272598Y-84242431D01*
X96226744Y-84084602D01*
X96143081Y-83943135D01*
X96143079Y-83943133D01*
X96143076Y-83943129D01*
X96026870Y-83826923D01*
X96026862Y-83826917D01*
X95972895Y-83795001D01*
X196702704Y-83795001D01*
X196702899Y-83797486D01*
X196748718Y-83955198D01*
X196832314Y-84096552D01*
X196832321Y-84096561D01*
X196948438Y-84212678D01*
X196948447Y-84212685D01*
X197089803Y-84296282D01*
X197089806Y-84296283D01*
X197247504Y-84342099D01*
X197247510Y-84342100D01*
X197284356Y-84345000D01*
X197687500Y-84345000D01*
X197687500Y-83795000D01*
X196702705Y-83795000D01*
X196702704Y-83795001D01*
X95972895Y-83795001D01*
X95885396Y-83743255D01*
X95885393Y-83743254D01*
X95727573Y-83697402D01*
X95727567Y-83697401D01*
X95690696Y-83694500D01*
X95690694Y-83694500D01*
X94384306Y-83694500D01*
X94384304Y-83694500D01*
X94347432Y-83697401D01*
X94347426Y-83697402D01*
X94189606Y-83743254D01*
X94189603Y-83743255D01*
X94131306Y-83777732D01*
X94068185Y-83795000D01*
X93412500Y-83795000D01*
X93412500Y-84345000D01*
X93675500Y-84345000D01*
X93742539Y-84364685D01*
X93788294Y-84417489D01*
X93799500Y-84469000D01*
X93799500Y-84710696D01*
X93802401Y-84747567D01*
X93802402Y-84747573D01*
X93848254Y-84905393D01*
X93848255Y-84905396D01*
X93931917Y-85046862D01*
X93931923Y-85046870D01*
X94023810Y-85138757D01*
X94057295Y-85200080D01*
X94052311Y-85269772D01*
X94010439Y-85325705D01*
X93961912Y-85347728D01*
X93947195Y-85350856D01*
X93947192Y-85350857D01*
X93774270Y-85427848D01*
X93774265Y-85427851D01*
X93621129Y-85539111D01*
X93494466Y-85679785D01*
X93399821Y-85843715D01*
X93399818Y-85843722D01*
X93341327Y-86023740D01*
X93341326Y-86023744D01*
X93321540Y-86212000D01*
X57635514Y-86212000D01*
X57716179Y-86072284D01*
X57774674Y-85892256D01*
X57794460Y-85704000D01*
X57774674Y-85515744D01*
X57733784Y-85389901D01*
X57731790Y-85320061D01*
X57767870Y-85260228D01*
X57788584Y-85244859D01*
X57926865Y-85163081D01*
X58043081Y-85046865D01*
X58126744Y-84905398D01*
X58172598Y-84747569D01*
X58175500Y-84710694D01*
X58175500Y-84279306D01*
X58172598Y-84242431D01*
X58126744Y-84084602D01*
X58043081Y-83943135D01*
X58043079Y-83943133D01*
X58043076Y-83943129D01*
X57926870Y-83826923D01*
X57926862Y-83826917D01*
X57872895Y-83795001D01*
X91927704Y-83795001D01*
X91927899Y-83797486D01*
X91973718Y-83955198D01*
X92057314Y-84096552D01*
X92057321Y-84096561D01*
X92173438Y-84212678D01*
X92173447Y-84212685D01*
X92314803Y-84296282D01*
X92314806Y-84296283D01*
X92472504Y-84342099D01*
X92472510Y-84342100D01*
X92509356Y-84345000D01*
X92912500Y-84345000D01*
X92912500Y-83795000D01*
X91927705Y-83795000D01*
X91927704Y-83795001D01*
X57872895Y-83795001D01*
X57785396Y-83743255D01*
X57785393Y-83743254D01*
X57627573Y-83697402D01*
X57627567Y-83697401D01*
X57590696Y-83694500D01*
X57590694Y-83694500D01*
X56284306Y-83694500D01*
X56284304Y-83694500D01*
X56247432Y-83697401D01*
X56247426Y-83697402D01*
X56089606Y-83743254D01*
X56089603Y-83743255D01*
X56031306Y-83777732D01*
X55968185Y-83795000D01*
X55312500Y-83795000D01*
X55312500Y-84345000D01*
X54812500Y-84345000D01*
X54812500Y-83795000D01*
X53827705Y-83795000D01*
X53827704Y-83795001D01*
X45840000Y-83795001D01*
X45840000Y-83294998D01*
X53827704Y-83294998D01*
X53827705Y-83295000D01*
X54812500Y-83295000D01*
X55312500Y-83295000D01*
X55968185Y-83295000D01*
X56031306Y-83312268D01*
X56089602Y-83346744D01*
X56131224Y-83358836D01*
X56247426Y-83392597D01*
X56247429Y-83392597D01*
X56247431Y-83392598D01*
X56259722Y-83393565D01*
X56284304Y-83395500D01*
X56284306Y-83395500D01*
X57590696Y-83395500D01*
X57609131Y-83394049D01*
X57627569Y-83392598D01*
X57627571Y-83392597D01*
X57627573Y-83392597D01*
X57669191Y-83380505D01*
X57785398Y-83346744D01*
X57926865Y-83263081D01*
X57928420Y-83261526D01*
X57933128Y-83256819D01*
X57994451Y-83223334D01*
X58020809Y-83220500D01*
X58607287Y-83220500D01*
X58674326Y-83240185D01*
X58699438Y-83261529D01*
X58704882Y-83267576D01*
X58704888Y-83267581D01*
X58858023Y-83378840D01*
X58858028Y-83378843D01*
X59030950Y-83455834D01*
X59030955Y-83455836D01*
X59216112Y-83495192D01*
X59216113Y-83495192D01*
X59405402Y-83495192D01*
X59405404Y-83495192D01*
X59590561Y-83455836D01*
X59763488Y-83378843D01*
X59878891Y-83294998D01*
X91927704Y-83294998D01*
X91927705Y-83295000D01*
X92912500Y-83295000D01*
X93412500Y-83295000D01*
X94068185Y-83295000D01*
X94131306Y-83312268D01*
X94189602Y-83346744D01*
X94231224Y-83358836D01*
X94347426Y-83392597D01*
X94347429Y-83392597D01*
X94347431Y-83392598D01*
X94359722Y-83393565D01*
X94384304Y-83395500D01*
X94384306Y-83395500D01*
X95690696Y-83395500D01*
X95709131Y-83394049D01*
X95727569Y-83392598D01*
X95727571Y-83392597D01*
X95727573Y-83392597D01*
X95769191Y-83380505D01*
X95885398Y-83346744D01*
X96026865Y-83263081D01*
X96028420Y-83261526D01*
X96033128Y-83256819D01*
X96094451Y-83223334D01*
X96120809Y-83220500D01*
X96317236Y-83220500D01*
X96384275Y-83240185D01*
X96409384Y-83261526D01*
X96414251Y-83266931D01*
X96414259Y-83266938D01*
X96567389Y-83378193D01*
X96567394Y-83378196D01*
X96740316Y-83455187D01*
X96740321Y-83455189D01*
X96925478Y-83494545D01*
X96925479Y-83494545D01*
X97114768Y-83494545D01*
X97114770Y-83494545D01*
X97299927Y-83455189D01*
X97472854Y-83378196D01*
X97587367Y-83294998D01*
X196702704Y-83294998D01*
X196702705Y-83295000D01*
X197687500Y-83295000D01*
X198187500Y-83295000D01*
X198843185Y-83295000D01*
X198906306Y-83312268D01*
X198964602Y-83346744D01*
X199006224Y-83358836D01*
X199122426Y-83392597D01*
X199122429Y-83392597D01*
X199122431Y-83392598D01*
X199134722Y-83393565D01*
X199159304Y-83395500D01*
X199159306Y-83395500D01*
X200465696Y-83395500D01*
X200484131Y-83394049D01*
X200502569Y-83392598D01*
X200502571Y-83392597D01*
X200502573Y-83392597D01*
X200544191Y-83380505D01*
X200660398Y-83346744D01*
X200801865Y-83263081D01*
X200818919Y-83246026D01*
X200880240Y-83212540D01*
X200949932Y-83217523D01*
X200979480Y-83233384D01*
X201088055Y-83312268D01*
X201089270Y-83313151D01*
X201262192Y-83390142D01*
X201262197Y-83390144D01*
X201447354Y-83429500D01*
X201447355Y-83429500D01*
X201636644Y-83429500D01*
X201636646Y-83429500D01*
X201821803Y-83390144D01*
X201994730Y-83313151D01*
X202147871Y-83201888D01*
X202274533Y-83061216D01*
X202369179Y-82897284D01*
X202427674Y-82717256D01*
X202447460Y-82529000D01*
X202427674Y-82340744D01*
X202369179Y-82160716D01*
X202274533Y-81996784D01*
X202147871Y-81856112D01*
X202147870Y-81856111D01*
X201994734Y-81744851D01*
X201994729Y-81744848D01*
X201821807Y-81667857D01*
X201821802Y-81667855D01*
X201676001Y-81636865D01*
X201636646Y-81628500D01*
X201447354Y-81628500D01*
X201414897Y-81635398D01*
X201262197Y-81667855D01*
X201262192Y-81667857D01*
X201089270Y-81744848D01*
X201089265Y-81744851D01*
X200936130Y-81856110D01*
X200936126Y-81856114D01*
X200930400Y-81862474D01*
X200870913Y-81899121D01*
X200838252Y-81903500D01*
X200796187Y-81903500D01*
X200733066Y-81886232D01*
X200692893Y-81862474D01*
X200660398Y-81843256D01*
X200660397Y-81843255D01*
X200660396Y-81843255D01*
X200660393Y-81843254D01*
X200502573Y-81797402D01*
X200502567Y-81797401D01*
X200465696Y-81794500D01*
X200465694Y-81794500D01*
X199159306Y-81794500D01*
X199159304Y-81794500D01*
X199122432Y-81797401D01*
X199122426Y-81797402D01*
X198964606Y-81843254D01*
X198964603Y-81843255D01*
X198823137Y-81926917D01*
X198823129Y-81926923D01*
X198706923Y-82043129D01*
X198706917Y-82043137D01*
X198623255Y-82184603D01*
X198623254Y-82184606D01*
X198577402Y-82342426D01*
X198577401Y-82342432D01*
X198574500Y-82379304D01*
X198574500Y-82621000D01*
X198554815Y-82688039D01*
X198502011Y-82733794D01*
X198450500Y-82745000D01*
X198187500Y-82745000D01*
X198187500Y-83295000D01*
X197687500Y-83295000D01*
X197687500Y-82745000D01*
X197284356Y-82745000D01*
X197247510Y-82747899D01*
X197247504Y-82747900D01*
X197089806Y-82793716D01*
X197089803Y-82793717D01*
X196948447Y-82877314D01*
X196948438Y-82877321D01*
X196832321Y-82993438D01*
X196832314Y-82993447D01*
X196748718Y-83134801D01*
X196702899Y-83292513D01*
X196702704Y-83294998D01*
X97587367Y-83294998D01*
X97625995Y-83266933D01*
X97752657Y-83126261D01*
X97847303Y-82962329D01*
X97905798Y-82782301D01*
X97925584Y-82594045D01*
X97905798Y-82405789D01*
X97847303Y-82225761D01*
X97752657Y-82061829D01*
X97625995Y-81921157D01*
X97625994Y-81921156D01*
X97472858Y-81809896D01*
X97472853Y-81809893D01*
X97299931Y-81732902D01*
X97299926Y-81732900D01*
X97154125Y-81701910D01*
X97114770Y-81693545D01*
X96925478Y-81693545D01*
X96893021Y-81700443D01*
X96740321Y-81732900D01*
X96740316Y-81732902D01*
X96567394Y-81809893D01*
X96567389Y-81809896D01*
X96414254Y-81921155D01*
X96413671Y-81921803D01*
X96407667Y-81928470D01*
X96348183Y-81965120D01*
X96315517Y-81969500D01*
X96120809Y-81969500D01*
X96053770Y-81949815D01*
X96033128Y-81933181D01*
X96026870Y-81926923D01*
X96026862Y-81926917D01*
X95885396Y-81843255D01*
X95885393Y-81843254D01*
X95727573Y-81797402D01*
X95727567Y-81797401D01*
X95690696Y-81794500D01*
X95690694Y-81794500D01*
X94384306Y-81794500D01*
X94384304Y-81794500D01*
X94347432Y-81797401D01*
X94347426Y-81797402D01*
X94189606Y-81843254D01*
X94189603Y-81843255D01*
X94048137Y-81926917D01*
X94048129Y-81926923D01*
X93931923Y-82043129D01*
X93931917Y-82043137D01*
X93848255Y-82184603D01*
X93848254Y-82184606D01*
X93802402Y-82342426D01*
X93802401Y-82342432D01*
X93799500Y-82379304D01*
X93799500Y-82621000D01*
X93779815Y-82688039D01*
X93727011Y-82733794D01*
X93675500Y-82745000D01*
X93412500Y-82745000D01*
X93412500Y-83295000D01*
X92912500Y-83295000D01*
X92912500Y-82745000D01*
X92509356Y-82745000D01*
X92472510Y-82747899D01*
X92472504Y-82747900D01*
X92314806Y-82793716D01*
X92314803Y-82793717D01*
X92173447Y-82877314D01*
X92173438Y-82877321D01*
X92057321Y-82993438D01*
X92057314Y-82993447D01*
X91973718Y-83134801D01*
X91927899Y-83292513D01*
X91927704Y-83294998D01*
X59878891Y-83294998D01*
X59916629Y-83267580D01*
X60043291Y-83126908D01*
X60137937Y-82962976D01*
X60196432Y-82782948D01*
X60216218Y-82594692D01*
X60196432Y-82406436D01*
X60137937Y-82226408D01*
X60043291Y-82062476D01*
X59916629Y-81921804D01*
X59916621Y-81921798D01*
X59763492Y-81810543D01*
X59763487Y-81810540D01*
X59590565Y-81733549D01*
X59590560Y-81733547D01*
X59444759Y-81702557D01*
X59405404Y-81694192D01*
X59216112Y-81694192D01*
X59183655Y-81701090D01*
X59030955Y-81733547D01*
X59030950Y-81733549D01*
X58858028Y-81810540D01*
X58858023Y-81810543D01*
X58704893Y-81921798D01*
X58704886Y-81921804D01*
X58698882Y-81928473D01*
X58639395Y-81965121D01*
X58606733Y-81969500D01*
X58020809Y-81969500D01*
X57953770Y-81949815D01*
X57933128Y-81933181D01*
X57926870Y-81926923D01*
X57926862Y-81926917D01*
X57785396Y-81843255D01*
X57785393Y-81843254D01*
X57627573Y-81797402D01*
X57627567Y-81797401D01*
X57590696Y-81794500D01*
X57590694Y-81794500D01*
X56284306Y-81794500D01*
X56284304Y-81794500D01*
X56247432Y-81797401D01*
X56247426Y-81797402D01*
X56089606Y-81843254D01*
X56089603Y-81843255D01*
X55948137Y-81926917D01*
X55948129Y-81926923D01*
X55831923Y-82043129D01*
X55831917Y-82043137D01*
X55748255Y-82184603D01*
X55748254Y-82184606D01*
X55702402Y-82342426D01*
X55702401Y-82342432D01*
X55699500Y-82379304D01*
X55699500Y-82621000D01*
X55679815Y-82688039D01*
X55627011Y-82733794D01*
X55575500Y-82745000D01*
X55312500Y-82745000D01*
X55312500Y-83295000D01*
X54812500Y-83295000D01*
X54812500Y-82745000D01*
X54409356Y-82745000D01*
X54372510Y-82747899D01*
X54372504Y-82747900D01*
X54214806Y-82793716D01*
X54214803Y-82793717D01*
X54073447Y-82877314D01*
X54073438Y-82877321D01*
X53957321Y-82993438D01*
X53957314Y-82993447D01*
X53873718Y-83134801D01*
X53827899Y-83292513D01*
X53827704Y-83294998D01*
X45840000Y-83294998D01*
X45840000Y-68372763D01*
X155745787Y-68372763D01*
X155775413Y-68642013D01*
X155775415Y-68642024D01*
X155843926Y-68904082D01*
X155843928Y-68904088D01*
X155949870Y-69153390D01*
X156021998Y-69271575D01*
X156090979Y-69384605D01*
X156090986Y-69384615D01*
X156264253Y-69592819D01*
X156264259Y-69592824D01*
X156465998Y-69773582D01*
X156691910Y-69923044D01*
X156937176Y-70038020D01*
X156937183Y-70038022D01*
X156937185Y-70038023D01*
X157196557Y-70116057D01*
X157196564Y-70116058D01*
X157196569Y-70116060D01*
X157464561Y-70155500D01*
X157464566Y-70155500D01*
X157667636Y-70155500D01*
X157719133Y-70151730D01*
X157870156Y-70140677D01*
X157982758Y-70115593D01*
X158134546Y-70081782D01*
X158134548Y-70081781D01*
X158134553Y-70081780D01*
X158387558Y-69985014D01*
X158623777Y-69852441D01*
X158838177Y-69686888D01*
X159026186Y-69491881D01*
X159183799Y-69271579D01*
X159257787Y-69127669D01*
X159307649Y-69030690D01*
X159307651Y-69030684D01*
X159307656Y-69030675D01*
X159395118Y-68774305D01*
X159444319Y-68507933D01*
X159454212Y-68237235D01*
X159424586Y-67967982D01*
X159356072Y-67705912D01*
X159250130Y-67456610D01*
X159109018Y-67225390D01*
X159107845Y-67223981D01*
X158935746Y-67017180D01*
X158935740Y-67017175D01*
X158734002Y-66836418D01*
X158508092Y-66686957D01*
X158508090Y-66686956D01*
X158262824Y-66571980D01*
X158262819Y-66571978D01*
X158262814Y-66571976D01*
X158003442Y-66493942D01*
X158003428Y-66493939D01*
X157887791Y-66476921D01*
X157735439Y-66454500D01*
X157532369Y-66454500D01*
X157532364Y-66454500D01*
X157329844Y-66469323D01*
X157329831Y-66469325D01*
X157065453Y-66528217D01*
X157065446Y-66528220D01*
X156812439Y-66624987D01*
X156576226Y-66757557D01*
X156576224Y-66757558D01*
X156576223Y-66757559D01*
X156519514Y-66801348D01*
X156361822Y-66923112D01*
X156173822Y-67118109D01*
X156173816Y-67118116D01*
X156016202Y-67338419D01*
X156016199Y-67338424D01*
X155892350Y-67579309D01*
X155892343Y-67579327D01*
X155804884Y-67835685D01*
X155804881Y-67835699D01*
X155755681Y-68102068D01*
X155755680Y-68102075D01*
X155745787Y-68372763D01*
X45840000Y-68372763D01*
X45840000Y-64745001D01*
X72877704Y-64745001D01*
X72877899Y-64747486D01*
X72923718Y-64905198D01*
X73007314Y-65046552D01*
X73007321Y-65046561D01*
X73123438Y-65162678D01*
X73123447Y-65162685D01*
X73264803Y-65246282D01*
X73264806Y-65246283D01*
X73422504Y-65292099D01*
X73422510Y-65292100D01*
X73459356Y-65295000D01*
X73862500Y-65295000D01*
X74362500Y-65295000D01*
X74625500Y-65295000D01*
X74692539Y-65314685D01*
X74738294Y-65367489D01*
X74749500Y-65419000D01*
X74749500Y-65660696D01*
X74752401Y-65697567D01*
X74752402Y-65697573D01*
X74798254Y-65855393D01*
X74798255Y-65855396D01*
X74798256Y-65855398D01*
X74835681Y-65918681D01*
X74881917Y-65996862D01*
X74881923Y-65996870D01*
X74998129Y-66113076D01*
X74998133Y-66113079D01*
X74998135Y-66113081D01*
X75139602Y-66196744D01*
X75181224Y-66208836D01*
X75297426Y-66242597D01*
X75297429Y-66242597D01*
X75297431Y-66242598D01*
X75304585Y-66243161D01*
X75334304Y-66245500D01*
X75334306Y-66245500D01*
X75737548Y-66245500D01*
X75804587Y-66265185D01*
X75825229Y-66281819D01*
X76270038Y-66726629D01*
X76303523Y-66787952D01*
X76305678Y-66801348D01*
X76313968Y-66880227D01*
X76323326Y-66969256D01*
X76323327Y-66969259D01*
X76381818Y-67149277D01*
X76381821Y-67149284D01*
X76476467Y-67313216D01*
X76603129Y-67453888D01*
X76756265Y-67565148D01*
X76756270Y-67565151D01*
X76929192Y-67642142D01*
X76929197Y-67642144D01*
X77114354Y-67681500D01*
X77114355Y-67681500D01*
X77303644Y-67681500D01*
X77303646Y-67681500D01*
X77488803Y-67642144D01*
X77661730Y-67565151D01*
X77814871Y-67453888D01*
X77941533Y-67313216D01*
X78036179Y-67149284D01*
X78094674Y-66969256D01*
X78114460Y-66781000D01*
X78094674Y-66592744D01*
X78036179Y-66412716D01*
X77941533Y-66248784D01*
X77814871Y-66108112D01*
X77814870Y-66108111D01*
X77661734Y-65996851D01*
X77661729Y-65996848D01*
X77488807Y-65919857D01*
X77488802Y-65919855D01*
X77307780Y-65881378D01*
X77246298Y-65848186D01*
X77212522Y-65787022D01*
X77214484Y-65725494D01*
X77222598Y-65697569D01*
X77225500Y-65660694D01*
X77225500Y-65229306D01*
X77222598Y-65192431D01*
X77213594Y-65161441D01*
X77183350Y-65057339D01*
X77176744Y-65034602D01*
X77093081Y-64893135D01*
X77093079Y-64893133D01*
X77093076Y-64893129D01*
X76976870Y-64776923D01*
X76976862Y-64776917D01*
X76835396Y-64693255D01*
X76835393Y-64693254D01*
X76677573Y-64647402D01*
X76677567Y-64647401D01*
X76640696Y-64644500D01*
X76640694Y-64644500D01*
X75334306Y-64644500D01*
X75334304Y-64644500D01*
X75297432Y-64647401D01*
X75297426Y-64647402D01*
X75139606Y-64693254D01*
X75139603Y-64693255D01*
X75081306Y-64727732D01*
X75018185Y-64745000D01*
X74362500Y-64745000D01*
X74362500Y-65295000D01*
X73862500Y-65295000D01*
X73862500Y-64745000D01*
X72877705Y-64745000D01*
X72877704Y-64745001D01*
X45840000Y-64745001D01*
X45840000Y-64244998D01*
X72877704Y-64244998D01*
X72877705Y-64245000D01*
X73862500Y-64245000D01*
X74362500Y-64245000D01*
X75018185Y-64245000D01*
X75081306Y-64262268D01*
X75139602Y-64296744D01*
X75181224Y-64308836D01*
X75297426Y-64342597D01*
X75297429Y-64342597D01*
X75297431Y-64342598D01*
X75309722Y-64343565D01*
X75334304Y-64345500D01*
X75334306Y-64345500D01*
X76640696Y-64345500D01*
X76659131Y-64344049D01*
X76677569Y-64342598D01*
X76677571Y-64342597D01*
X76677573Y-64342597D01*
X76719191Y-64330505D01*
X76835398Y-64296744D01*
X76976865Y-64213081D01*
X76976870Y-64213076D01*
X76983128Y-64206819D01*
X77044451Y-64173334D01*
X77070809Y-64170500D01*
X77327750Y-64170500D01*
X77394789Y-64190185D01*
X77400635Y-64194182D01*
X77518265Y-64279645D01*
X77518270Y-64279648D01*
X77691192Y-64356639D01*
X77691197Y-64356641D01*
X77876354Y-64395997D01*
X77876355Y-64395997D01*
X78065644Y-64395997D01*
X78065646Y-64395997D01*
X78250803Y-64356641D01*
X78423730Y-64279648D01*
X78576871Y-64168385D01*
X78703533Y-64027713D01*
X78798179Y-63863781D01*
X78856674Y-63683753D01*
X78876460Y-63495497D01*
X78856674Y-63307241D01*
X78798179Y-63127213D01*
X78703533Y-62963281D01*
X78576871Y-62822609D01*
X78576870Y-62822608D01*
X78423734Y-62711348D01*
X78423729Y-62711345D01*
X78250807Y-62634354D01*
X78250802Y-62634352D01*
X78086831Y-62599500D01*
X78065646Y-62594997D01*
X77876354Y-62594997D01*
X77855169Y-62599500D01*
X77691197Y-62634352D01*
X77691192Y-62634354D01*
X77518270Y-62711345D01*
X77518265Y-62711348D01*
X77365130Y-62822607D01*
X77365123Y-62822613D01*
X77314829Y-62878472D01*
X77255343Y-62915121D01*
X77222679Y-62919500D01*
X77070809Y-62919500D01*
X77003770Y-62899815D01*
X76983128Y-62883181D01*
X76976870Y-62876923D01*
X76976862Y-62876917D01*
X76835396Y-62793255D01*
X76835393Y-62793254D01*
X76677573Y-62747402D01*
X76677567Y-62747401D01*
X76640696Y-62744500D01*
X76640694Y-62744500D01*
X75334306Y-62744500D01*
X75334304Y-62744500D01*
X75297432Y-62747401D01*
X75297426Y-62747402D01*
X75139606Y-62793254D01*
X75139603Y-62793255D01*
X74998137Y-62876917D01*
X74998129Y-62876923D01*
X74881923Y-62993129D01*
X74881917Y-62993137D01*
X74798255Y-63134603D01*
X74798254Y-63134606D01*
X74752402Y-63292426D01*
X74752401Y-63292432D01*
X74749500Y-63329304D01*
X74749500Y-63571000D01*
X74729815Y-63638039D01*
X74677011Y-63683794D01*
X74625500Y-63695000D01*
X74362500Y-63695000D01*
X74362500Y-64245000D01*
X73862500Y-64245000D01*
X73862500Y-63695000D01*
X73459356Y-63695000D01*
X73422510Y-63697899D01*
X73422504Y-63697900D01*
X73264806Y-63743716D01*
X73264803Y-63743717D01*
X73123447Y-63827314D01*
X73123438Y-63827321D01*
X73007321Y-63943438D01*
X73007314Y-63943447D01*
X72923718Y-64084801D01*
X72877899Y-64242513D01*
X72877704Y-64244998D01*
X45840000Y-64244998D01*
X45840000Y-58212763D01*
X47795787Y-58212763D01*
X47825413Y-58482013D01*
X47825415Y-58482024D01*
X47893507Y-58742479D01*
X47893928Y-58744088D01*
X47999870Y-58993390D01*
X48131503Y-59209078D01*
X48140979Y-59224605D01*
X48140986Y-59224615D01*
X48314253Y-59432819D01*
X48314259Y-59432824D01*
X48419240Y-59526887D01*
X48515998Y-59613582D01*
X48741910Y-59763044D01*
X48987176Y-59878020D01*
X48987183Y-59878022D01*
X48987185Y-59878023D01*
X49246557Y-59956057D01*
X49246564Y-59956058D01*
X49246569Y-59956060D01*
X49514561Y-59995500D01*
X49514566Y-59995500D01*
X49717636Y-59995500D01*
X49769133Y-59991730D01*
X49920156Y-59980677D01*
X50032758Y-59955593D01*
X50184546Y-59921782D01*
X50184548Y-59921781D01*
X50184553Y-59921780D01*
X50437558Y-59825014D01*
X50673777Y-59692441D01*
X50888177Y-59526888D01*
X51076186Y-59331881D01*
X51233799Y-59111579D01*
X51328306Y-58927762D01*
X51357649Y-58870690D01*
X51357651Y-58870684D01*
X51357656Y-58870675D01*
X51445118Y-58614305D01*
X51494319Y-58347933D01*
X51504212Y-58077235D01*
X51474586Y-57807982D01*
X51406072Y-57545912D01*
X51300130Y-57296610D01*
X51159018Y-57065390D01*
X51107251Y-57003185D01*
X50985746Y-56857180D01*
X50985740Y-56857175D01*
X50784002Y-56676418D01*
X50558092Y-56526957D01*
X50533298Y-56515334D01*
X50312824Y-56411980D01*
X50312819Y-56411978D01*
X50312814Y-56411976D01*
X50053442Y-56333942D01*
X50053428Y-56333939D01*
X49937791Y-56316921D01*
X49785439Y-56294500D01*
X49582369Y-56294500D01*
X49582364Y-56294500D01*
X49379844Y-56309323D01*
X49379831Y-56309325D01*
X49115453Y-56368217D01*
X49115446Y-56368220D01*
X48862439Y-56464987D01*
X48626226Y-56597557D01*
X48626224Y-56597558D01*
X48626223Y-56597559D01*
X48565508Y-56644441D01*
X48411822Y-56763112D01*
X48223822Y-56958109D01*
X48223816Y-56958116D01*
X48066202Y-57178419D01*
X48066199Y-57178424D01*
X47942350Y-57419309D01*
X47942343Y-57419327D01*
X47854884Y-57675685D01*
X47854881Y-57675699D01*
X47805681Y-57942068D01*
X47805680Y-57942075D01*
X47795787Y-58212763D01*
X45840000Y-58212763D01*
X45840000Y-45392355D01*
X49814843Y-45392355D01*
X49824852Y-45602459D01*
X49874442Y-45806871D01*
X49891693Y-45844645D01*
X49961820Y-45998204D01*
X49961824Y-45998210D01*
X50083826Y-46169539D01*
X50083831Y-46169544D01*
X50236063Y-46314697D01*
X50413014Y-46428416D01*
X50608288Y-46506593D01*
X50758839Y-46535609D01*
X50814828Y-46546400D01*
X50814829Y-46546400D01*
X50972461Y-46546400D01*
X50972468Y-46546400D01*
X51129389Y-46531416D01*
X51331211Y-46472156D01*
X51383680Y-46445105D01*
X51452286Y-46431882D01*
X51517151Y-46457850D01*
X51557680Y-46514763D01*
X51564500Y-46555321D01*
X51564500Y-49172255D01*
X51562775Y-49187872D01*
X51563061Y-49187899D01*
X51562326Y-49195665D01*
X51564500Y-49264814D01*
X51564500Y-49294343D01*
X51564501Y-49294360D01*
X51565368Y-49301231D01*
X51565826Y-49307050D01*
X51567290Y-49353624D01*
X51567291Y-49353627D01*
X51572880Y-49372867D01*
X51576824Y-49391911D01*
X51579336Y-49411791D01*
X51596490Y-49455119D01*
X51598382Y-49460647D01*
X51611381Y-49505388D01*
X51621580Y-49522634D01*
X51630138Y-49540103D01*
X51637514Y-49558732D01*
X51664898Y-49596423D01*
X51668106Y-49601307D01*
X51691827Y-49641416D01*
X51691833Y-49641424D01*
X51705990Y-49655580D01*
X51718627Y-49670375D01*
X51730406Y-49686587D01*
X51754682Y-49706670D01*
X51766309Y-49716288D01*
X51770620Y-49720210D01*
X56180829Y-54130419D01*
X60579194Y-58528784D01*
X60589019Y-58541048D01*
X60589240Y-58540866D01*
X60594210Y-58546873D01*
X60594213Y-58546876D01*
X60594214Y-58546877D01*
X60644651Y-58594241D01*
X60665530Y-58615120D01*
X60671004Y-58619366D01*
X60675442Y-58623156D01*
X60709418Y-58655062D01*
X60709422Y-58655064D01*
X60726973Y-58664713D01*
X60743231Y-58675392D01*
X60759064Y-58687674D01*
X60781015Y-58697172D01*
X60801837Y-58706183D01*
X60807081Y-58708752D01*
X60847908Y-58731197D01*
X60867312Y-58736179D01*
X60885710Y-58742478D01*
X60904105Y-58750438D01*
X60950129Y-58757726D01*
X60955832Y-58758907D01*
X61000981Y-58770500D01*
X61021016Y-58770500D01*
X61040413Y-58772026D01*
X61060196Y-58775160D01*
X61106584Y-58770775D01*
X61112422Y-58770500D01*
X112839548Y-58770500D01*
X112906587Y-58790185D01*
X112927228Y-58806818D01*
X116607757Y-62487348D01*
X120269197Y-66148788D01*
X120279022Y-66161051D01*
X120279243Y-66160869D01*
X120284214Y-66166878D01*
X120305043Y-66186437D01*
X120334635Y-66214226D01*
X120355529Y-66235120D01*
X120361011Y-66239373D01*
X120365443Y-66243157D01*
X120399418Y-66275062D01*
X120416976Y-66284714D01*
X120433235Y-66295395D01*
X120449064Y-66307673D01*
X120491838Y-66326182D01*
X120497056Y-66328738D01*
X120537908Y-66351197D01*
X120557316Y-66356180D01*
X120575717Y-66362480D01*
X120594104Y-66370437D01*
X120637488Y-66377308D01*
X120640119Y-66377725D01*
X120645839Y-66378909D01*
X120690981Y-66390500D01*
X120711016Y-66390500D01*
X120730414Y-66392026D01*
X120750194Y-66395159D01*
X120750195Y-66395160D01*
X120750195Y-66395159D01*
X120750196Y-66395160D01*
X120796584Y-66390775D01*
X120802422Y-66390500D01*
X141518049Y-66390500D01*
X141533669Y-66392224D01*
X141533696Y-66391939D01*
X141541452Y-66392671D01*
X141541459Y-66392673D01*
X141610606Y-66390500D01*
X141640142Y-66390500D01*
X141647020Y-66389630D01*
X141652833Y-66389172D01*
X141699419Y-66387709D01*
X141718661Y-66382117D01*
X141737704Y-66378174D01*
X141757584Y-66375664D01*
X141800914Y-66358507D01*
X141806438Y-66356617D01*
X141810188Y-66355527D01*
X141851182Y-66343618D01*
X141868421Y-66333422D01*
X141885895Y-66324862D01*
X141904519Y-66317488D01*
X141904519Y-66317487D01*
X141904524Y-66317486D01*
X141942241Y-66290082D01*
X141947097Y-66286892D01*
X141987212Y-66263170D01*
X142001381Y-66248999D01*
X142016171Y-66236368D01*
X142032379Y-66224594D01*
X142062091Y-66188676D01*
X142066004Y-66184376D01*
X145167788Y-63082593D01*
X145180042Y-63072778D01*
X145179859Y-63072556D01*
X145185866Y-63067584D01*
X145185877Y-63067578D01*
X145216775Y-63034674D01*
X145233227Y-63017156D01*
X145243671Y-63006710D01*
X145254120Y-62996263D01*
X145258379Y-62990770D01*
X145262152Y-62986353D01*
X145294062Y-62952374D01*
X145303715Y-62934812D01*
X145314389Y-62918562D01*
X145326673Y-62902728D01*
X145345180Y-62859959D01*
X145347749Y-62854716D01*
X145365400Y-62822609D01*
X145370197Y-62813884D01*
X145375177Y-62794483D01*
X145381478Y-62776080D01*
X145389438Y-62757688D01*
X145396730Y-62711641D01*
X145397911Y-62705944D01*
X145409500Y-62660811D01*
X145409500Y-62640775D01*
X145411027Y-62621374D01*
X145414160Y-62601596D01*
X145409775Y-62555207D01*
X145409500Y-62549369D01*
X145409500Y-57095742D01*
X145411224Y-57080122D01*
X145410939Y-57080096D01*
X145411671Y-57072340D01*
X145411673Y-57072333D01*
X145409500Y-57003185D01*
X145409500Y-56973650D01*
X145408631Y-56966772D01*
X145408172Y-56960943D01*
X145406709Y-56914372D01*
X145401122Y-56895144D01*
X145397174Y-56876084D01*
X145396883Y-56873779D01*
X145394664Y-56856208D01*
X145394663Y-56856206D01*
X145394663Y-56856204D01*
X145377512Y-56812887D01*
X145375619Y-56807358D01*
X145362618Y-56762609D01*
X145362616Y-56762606D01*
X145352423Y-56745371D01*
X145343861Y-56727894D01*
X145336487Y-56709270D01*
X145336486Y-56709268D01*
X145309079Y-56671545D01*
X145305888Y-56666686D01*
X145282172Y-56626583D01*
X145282165Y-56626574D01*
X145268006Y-56612415D01*
X145255368Y-56597619D01*
X145243594Y-56581413D01*
X145224457Y-56565582D01*
X145207688Y-56551709D01*
X145203376Y-56547786D01*
X141987785Y-53332194D01*
X141954300Y-53270871D01*
X141959284Y-53201179D01*
X141985837Y-53158824D01*
X142055632Y-53085825D01*
X142179635Y-52897968D01*
X142268103Y-52690988D01*
X142318191Y-52471537D01*
X142328290Y-52246670D01*
X142298075Y-52023613D01*
X142228517Y-51809536D01*
X142121852Y-51611319D01*
X141981508Y-51435334D01*
X141811996Y-51287235D01*
X141618767Y-51171787D01*
X141618768Y-51171787D01*
X141618766Y-51171786D01*
X141618764Y-51171785D01*
X141559896Y-51149691D01*
X141504050Y-51107706D01*
X141479767Y-51042191D01*
X141494759Y-50973949D01*
X141544265Y-50924645D01*
X141549610Y-50921907D01*
X141717973Y-50840829D01*
X141900078Y-50708522D01*
X142055632Y-50545825D01*
X142122721Y-50444188D01*
X142176081Y-50399084D01*
X142226208Y-50388500D01*
X147891548Y-50388500D01*
X147958587Y-50408185D01*
X147979229Y-50424819D01*
X155067197Y-57512788D01*
X155077022Y-57525051D01*
X155077243Y-57524869D01*
X155082214Y-57530878D01*
X155104063Y-57551395D01*
X155132635Y-57578226D01*
X155153529Y-57599120D01*
X155159011Y-57603373D01*
X155163443Y-57607157D01*
X155197418Y-57639062D01*
X155214976Y-57648714D01*
X155231235Y-57659395D01*
X155247064Y-57671673D01*
X155289838Y-57690182D01*
X155295056Y-57692738D01*
X155335908Y-57715197D01*
X155355316Y-57720180D01*
X155373717Y-57726480D01*
X155392104Y-57734437D01*
X155435488Y-57741308D01*
X155438119Y-57741725D01*
X155443839Y-57742909D01*
X155488981Y-57754500D01*
X155509016Y-57754500D01*
X155528414Y-57756026D01*
X155548194Y-57759159D01*
X155548195Y-57759160D01*
X155548195Y-57759159D01*
X155548196Y-57759160D01*
X155594584Y-57754775D01*
X155600422Y-57754500D01*
X161353548Y-57754500D01*
X161420587Y-57774185D01*
X161441229Y-57790819D01*
X164914442Y-61264032D01*
X164947927Y-61325355D01*
X164942943Y-61395047D01*
X164941322Y-61399165D01*
X164922108Y-61445552D01*
X164922102Y-61445569D01*
X164861715Y-61697101D01*
X164841418Y-61955000D01*
X164861715Y-62212898D01*
X164922102Y-62464430D01*
X164922106Y-62464442D01*
X165021102Y-62703441D01*
X165156267Y-62924009D01*
X165156270Y-62924014D01*
X165209502Y-62986340D01*
X165324276Y-63120724D01*
X165371066Y-63160686D01*
X165388188Y-63175310D01*
X165426381Y-63233817D01*
X165426879Y-63303685D01*
X165389525Y-63362731D01*
X165326178Y-63392209D01*
X165307656Y-63393600D01*
X165167532Y-63393600D01*
X165010611Y-63408584D01*
X165010607Y-63408585D01*
X164808791Y-63467843D01*
X164621831Y-63564228D01*
X164456490Y-63694252D01*
X164456489Y-63694253D01*
X164318749Y-63853214D01*
X164318740Y-63853225D01*
X164213574Y-64035379D01*
X164144779Y-64234148D01*
X164144778Y-64234153D01*
X164144778Y-64234154D01*
X164114843Y-64442355D01*
X164124852Y-64652459D01*
X164174442Y-64856871D01*
X164226637Y-64971163D01*
X164261820Y-65048204D01*
X164261824Y-65048210D01*
X164383826Y-65219539D01*
X164383831Y-65219544D01*
X164536063Y-65364697D01*
X164713014Y-65478416D01*
X164908288Y-65556593D01*
X165037084Y-65581416D01*
X165114828Y-65596400D01*
X165114829Y-65596400D01*
X165272461Y-65596400D01*
X165272468Y-65596400D01*
X165429389Y-65581416D01*
X165631211Y-65522156D01*
X165818170Y-65425771D01*
X165983510Y-65295747D01*
X166121255Y-65136781D01*
X166226426Y-64954619D01*
X166295222Y-64755846D01*
X166321919Y-64570167D01*
X168051833Y-64570167D01*
X168081910Y-64869142D01*
X168081911Y-64869149D01*
X168151568Y-65161441D01*
X168151571Y-65161453D01*
X168259566Y-65441853D01*
X168259573Y-65441868D01*
X168403979Y-65705375D01*
X168403983Y-65705381D01*
X168495296Y-65829312D01*
X168582223Y-65947290D01*
X168690050Y-66058782D01*
X168791120Y-66163288D01*
X168791127Y-66163294D01*
X168833487Y-66196745D01*
X169026946Y-66349518D01*
X169285487Y-66502652D01*
X169562133Y-66619960D01*
X169562136Y-66619960D01*
X169562139Y-66619962D01*
X169707039Y-66659654D01*
X169851946Y-66699348D01*
X170149755Y-66739400D01*
X170149760Y-66739400D01*
X170375041Y-66739400D01*
X170538513Y-66728456D01*
X170599819Y-66724352D01*
X170894287Y-66664499D01*
X171178151Y-66565931D01*
X171446343Y-66430407D01*
X171694080Y-66260346D01*
X171916939Y-66058782D01*
X172110943Y-65829312D01*
X172272631Y-65576032D01*
X172399118Y-65303460D01*
X172488146Y-65016462D01*
X172538126Y-64720158D01*
X172548167Y-64419836D01*
X172518089Y-64120855D01*
X172448430Y-63828551D01*
X172340431Y-63548140D01*
X172196021Y-63284625D01*
X172017777Y-63042710D01*
X171808879Y-62826711D01*
X171808872Y-62826705D01*
X171573055Y-62640483D01*
X171573056Y-62640483D01*
X171573054Y-62640482D01*
X171314513Y-62487348D01*
X171037867Y-62370040D01*
X171037860Y-62370037D01*
X170748059Y-62290653D01*
X170748056Y-62290652D01*
X170748054Y-62290652D01*
X170450245Y-62250600D01*
X170224967Y-62250600D01*
X170224959Y-62250600D01*
X170000183Y-62265647D01*
X170000174Y-62265649D01*
X169705710Y-62325501D01*
X169421847Y-62424069D01*
X169421844Y-62424071D01*
X169153662Y-62559589D01*
X168905918Y-62729655D01*
X168683062Y-62931216D01*
X168489058Y-63160686D01*
X168489056Y-63160688D01*
X168327366Y-63413972D01*
X168202175Y-63683753D01*
X168200882Y-63686540D01*
X168182447Y-63745968D01*
X168111854Y-63973535D01*
X168061874Y-64269842D01*
X168051833Y-64570167D01*
X166321919Y-64570167D01*
X166325157Y-64547645D01*
X166315148Y-64337541D01*
X166265558Y-64133129D01*
X166178179Y-63941795D01*
X166126698Y-63869500D01*
X166052743Y-63765644D01*
X166054378Y-63764479D01*
X166029130Y-63709190D01*
X166039074Y-63640032D01*
X166084830Y-63587229D01*
X166151870Y-63567545D01*
X166180811Y-63570970D01*
X166232105Y-63583285D01*
X166490000Y-63603582D01*
X166747895Y-63583285D01*
X166999440Y-63522895D01*
X167238441Y-63423897D01*
X167459012Y-63288731D01*
X167655724Y-63120724D01*
X167823731Y-62924012D01*
X167958897Y-62703441D01*
X168057895Y-62464440D01*
X168118285Y-62212895D01*
X168138582Y-61955000D01*
X168118285Y-61697105D01*
X168057895Y-61445560D01*
X168038676Y-61399162D01*
X168031208Y-61329698D01*
X168062482Y-61267218D01*
X168065529Y-61264060D01*
X168143788Y-61185801D01*
X168156042Y-61175986D01*
X168155859Y-61175764D01*
X168161866Y-61170792D01*
X168161877Y-61170786D01*
X168196883Y-61133508D01*
X168209227Y-61120364D01*
X168219671Y-61109918D01*
X168230120Y-61099471D01*
X168234379Y-61093978D01*
X168238152Y-61089561D01*
X168270062Y-61055582D01*
X168279713Y-61038024D01*
X168290396Y-61021761D01*
X168302673Y-61005936D01*
X168302676Y-61005927D01*
X168306644Y-60999221D01*
X168308063Y-61000060D01*
X168346815Y-60953481D01*
X168368482Y-60941870D01*
X168508437Y-60883899D01*
X168508438Y-60883898D01*
X168508441Y-60883897D01*
X168729012Y-60748731D01*
X168925724Y-60580724D01*
X169093731Y-60384012D01*
X169228897Y-60163441D01*
X169327895Y-59924440D01*
X169388285Y-59672895D01*
X169408582Y-59415000D01*
X171191920Y-59415000D01*
X171212211Y-59672820D01*
X171272582Y-59924285D01*
X171371549Y-60163213D01*
X171506673Y-60383714D01*
X171506676Y-60383719D01*
X171511767Y-60389679D01*
X172163337Y-59738109D01*
X172186670Y-59792200D01*
X172291269Y-59932701D01*
X172425450Y-60045293D01*
X172517187Y-60091365D01*
X171865319Y-60743232D01*
X171871283Y-60748325D01*
X172091786Y-60883450D01*
X172330715Y-60982417D01*
X172556790Y-61036692D01*
X172617383Y-61071482D01*
X172649547Y-61133508D01*
X172643071Y-61203077D01*
X172642405Y-61204718D01*
X172542583Y-61445710D01*
X172542583Y-61445712D01*
X172482211Y-61697179D01*
X172461920Y-61955000D01*
X172482211Y-62212820D01*
X172542582Y-62464285D01*
X172641549Y-62703213D01*
X172776673Y-62923714D01*
X172776676Y-62923719D01*
X172781767Y-62929679D01*
X173433337Y-62278108D01*
X173456670Y-62332200D01*
X173561269Y-62472701D01*
X173695450Y-62585293D01*
X173787187Y-62631365D01*
X173135319Y-63283232D01*
X173141283Y-63288325D01*
X173361786Y-63423450D01*
X173600714Y-63522417D01*
X173852179Y-63582788D01*
X174110000Y-63603079D01*
X174367819Y-63582788D01*
X174428117Y-63568312D01*
X174497899Y-63571803D01*
X174554717Y-63612466D01*
X174580530Y-63677393D01*
X174567144Y-63745968D01*
X174550777Y-63770088D01*
X174478753Y-63853208D01*
X174478740Y-63853225D01*
X174373574Y-64035379D01*
X174304779Y-64234148D01*
X174304778Y-64234153D01*
X174304778Y-64234154D01*
X174274843Y-64442355D01*
X174284852Y-64652459D01*
X174334442Y-64856871D01*
X174386637Y-64971163D01*
X174421820Y-65048204D01*
X174421824Y-65048210D01*
X174543826Y-65219539D01*
X174543831Y-65219544D01*
X174696063Y-65364697D01*
X174873014Y-65478416D01*
X175068288Y-65556593D01*
X175197084Y-65581416D01*
X175274828Y-65596400D01*
X175274829Y-65596400D01*
X175432461Y-65596400D01*
X175432468Y-65596400D01*
X175589389Y-65581416D01*
X175791211Y-65522156D01*
X175978170Y-65425771D01*
X176143510Y-65295747D01*
X176281255Y-65136781D01*
X176386426Y-64954619D01*
X176455222Y-64755846D01*
X176485157Y-64547645D01*
X176475148Y-64337541D01*
X176425558Y-64133129D01*
X176338179Y-63941795D01*
X176338175Y-63941789D01*
X176216173Y-63770460D01*
X176216167Y-63770454D01*
X176063939Y-63625305D01*
X176063937Y-63625303D01*
X175886986Y-63511584D01*
X175886984Y-63511583D01*
X175691721Y-63433410D01*
X175691714Y-63433407D01*
X175691712Y-63433407D01*
X175691709Y-63433406D01*
X175691708Y-63433406D01*
X175485172Y-63393600D01*
X175485171Y-63393600D01*
X175327532Y-63393600D01*
X175220671Y-63403803D01*
X175152065Y-63390580D01*
X175101499Y-63342365D01*
X175087616Y-63286169D01*
X174435399Y-62633952D01*
X174448575Y-62629157D01*
X174594920Y-62532905D01*
X174715123Y-62405497D01*
X174787935Y-62279382D01*
X175438231Y-62929678D01*
X175438232Y-62929678D01*
X175443319Y-62923723D01*
X175443326Y-62923713D01*
X175578450Y-62703213D01*
X175677417Y-62464285D01*
X175737788Y-62212820D01*
X175758079Y-61955000D01*
X175737788Y-61697179D01*
X175677417Y-61445714D01*
X175578450Y-61206786D01*
X175443325Y-60986283D01*
X175438232Y-60980319D01*
X174786662Y-61631889D01*
X174763330Y-61577800D01*
X174658731Y-61437299D01*
X174524550Y-61324707D01*
X174432811Y-61278634D01*
X175084679Y-60626767D01*
X175084679Y-60626766D01*
X175078719Y-60621676D01*
X175078714Y-60621673D01*
X174858213Y-60486549D01*
X174619285Y-60387582D01*
X174393208Y-60333307D01*
X174332616Y-60298516D01*
X174300452Y-60236490D01*
X174306928Y-60166921D01*
X174307594Y-60165280D01*
X174407417Y-59924285D01*
X174467788Y-59672820D01*
X174488079Y-59415000D01*
X174467788Y-59157179D01*
X174407417Y-58905714D01*
X174308450Y-58666786D01*
X174173325Y-58446283D01*
X174168232Y-58440319D01*
X173516662Y-59091889D01*
X173493330Y-59037800D01*
X173388731Y-58897299D01*
X173254550Y-58784707D01*
X173162812Y-58738634D01*
X173814679Y-58086767D01*
X173814679Y-58086766D01*
X173808719Y-58081676D01*
X173808714Y-58081673D01*
X173588213Y-57946549D01*
X173349285Y-57847582D01*
X173097820Y-57787211D01*
X172840000Y-57766920D01*
X172582179Y-57787211D01*
X172330714Y-57847582D01*
X172091786Y-57946549D01*
X171871289Y-58081670D01*
X171871273Y-58081682D01*
X171865320Y-58086766D01*
X171865320Y-58086767D01*
X172514600Y-58736047D01*
X172501425Y-58740843D01*
X172355080Y-58837095D01*
X172234877Y-58964503D01*
X172162064Y-59090617D01*
X171511767Y-58440320D01*
X171511766Y-58440320D01*
X171506682Y-58446273D01*
X171506670Y-58446289D01*
X171371549Y-58666786D01*
X171272582Y-58905714D01*
X171212211Y-59157179D01*
X171191920Y-59415000D01*
X169408582Y-59415000D01*
X169388285Y-59157105D01*
X169327895Y-58905560D01*
X169258740Y-58738605D01*
X169228897Y-58666558D01*
X169102827Y-58460832D01*
X169093731Y-58445988D01*
X169093730Y-58445987D01*
X169093729Y-58445985D01*
X169026928Y-58367771D01*
X168925724Y-58249276D01*
X168765420Y-58112364D01*
X168729014Y-58081270D01*
X168729009Y-58081267D01*
X168508441Y-57946102D01*
X168304441Y-57861603D01*
X168269440Y-57847105D01*
X168269436Y-57847104D01*
X168269430Y-57847102D01*
X168017898Y-57786715D01*
X167760000Y-57766418D01*
X167502101Y-57786715D01*
X167250569Y-57847102D01*
X167250557Y-57847106D01*
X167011558Y-57946102D01*
X166790990Y-58081267D01*
X166790985Y-58081270D01*
X166594276Y-58249276D01*
X166426270Y-58445985D01*
X166426267Y-58445990D01*
X166291102Y-58666558D01*
X166192106Y-58905557D01*
X166192102Y-58905569D01*
X166131715Y-59157101D01*
X166111418Y-59415000D01*
X166131715Y-59672898D01*
X166192102Y-59924430D01*
X166192106Y-59924442D01*
X166291719Y-60164930D01*
X166299188Y-60234400D01*
X166267913Y-60296879D01*
X166207824Y-60332531D01*
X166206105Y-60332957D01*
X165980569Y-60387102D01*
X165980552Y-60387108D01*
X165934165Y-60406322D01*
X165864696Y-60413791D01*
X165802217Y-60382515D01*
X165799032Y-60379442D01*
X162369772Y-56950181D01*
X162336287Y-56888858D01*
X162341271Y-56819166D01*
X162383143Y-56763233D01*
X162448607Y-56738816D01*
X162457453Y-56738500D01*
X179387548Y-56738500D01*
X179454587Y-56758185D01*
X179475229Y-56774819D01*
X183964442Y-61264032D01*
X183997927Y-61325355D01*
X183992943Y-61395047D01*
X183991322Y-61399165D01*
X183972108Y-61445552D01*
X183972102Y-61445569D01*
X183911715Y-61697101D01*
X183891418Y-61955000D01*
X183911715Y-62212898D01*
X183972102Y-62464430D01*
X183972106Y-62464442D01*
X184071102Y-62703441D01*
X184206267Y-62924009D01*
X184206270Y-62924014D01*
X184259502Y-62986340D01*
X184374276Y-63120724D01*
X184421066Y-63160686D01*
X184438188Y-63175310D01*
X184476381Y-63233817D01*
X184476879Y-63303685D01*
X184439525Y-63362731D01*
X184376178Y-63392209D01*
X184357656Y-63393600D01*
X184217532Y-63393600D01*
X184060611Y-63408584D01*
X184060607Y-63408585D01*
X183858791Y-63467843D01*
X183671831Y-63564228D01*
X183506490Y-63694252D01*
X183506489Y-63694253D01*
X183368749Y-63853214D01*
X183368740Y-63853225D01*
X183263574Y-64035379D01*
X183194779Y-64234148D01*
X183194778Y-64234153D01*
X183194778Y-64234154D01*
X183164843Y-64442355D01*
X183174852Y-64652459D01*
X183224442Y-64856871D01*
X183276637Y-64971163D01*
X183311820Y-65048204D01*
X183311824Y-65048210D01*
X183433826Y-65219539D01*
X183433831Y-65219544D01*
X183586063Y-65364697D01*
X183763014Y-65478416D01*
X183958288Y-65556593D01*
X184087084Y-65581416D01*
X184164828Y-65596400D01*
X184164829Y-65596400D01*
X184322461Y-65596400D01*
X184322468Y-65596400D01*
X184479389Y-65581416D01*
X184681211Y-65522156D01*
X184868170Y-65425771D01*
X185033510Y-65295747D01*
X185171255Y-65136781D01*
X185276426Y-64954619D01*
X185345222Y-64755846D01*
X185371919Y-64570167D01*
X187101833Y-64570167D01*
X187131910Y-64869142D01*
X187131911Y-64869149D01*
X187201568Y-65161441D01*
X187201571Y-65161453D01*
X187309566Y-65441853D01*
X187309573Y-65441868D01*
X187453979Y-65705375D01*
X187453983Y-65705381D01*
X187545296Y-65829312D01*
X187632223Y-65947290D01*
X187740050Y-66058782D01*
X187841120Y-66163288D01*
X187841127Y-66163294D01*
X187883487Y-66196745D01*
X188076946Y-66349518D01*
X188335487Y-66502652D01*
X188612133Y-66619960D01*
X188612136Y-66619960D01*
X188612139Y-66619962D01*
X188757039Y-66659654D01*
X188901946Y-66699348D01*
X189199755Y-66739400D01*
X189199760Y-66739400D01*
X189425041Y-66739400D01*
X189588513Y-66728456D01*
X189649819Y-66724352D01*
X189944287Y-66664499D01*
X190228151Y-66565931D01*
X190496343Y-66430407D01*
X190744080Y-66260346D01*
X190966939Y-66058782D01*
X191160943Y-65829312D01*
X191322631Y-65576032D01*
X191449118Y-65303460D01*
X191538146Y-65016462D01*
X191588126Y-64720158D01*
X191598167Y-64419836D01*
X191568089Y-64120855D01*
X191498430Y-63828551D01*
X191390431Y-63548140D01*
X191246021Y-63284625D01*
X191067777Y-63042710D01*
X190858879Y-62826711D01*
X190858872Y-62826705D01*
X190623055Y-62640483D01*
X190623056Y-62640483D01*
X190623054Y-62640482D01*
X190364513Y-62487348D01*
X190087867Y-62370040D01*
X190087860Y-62370037D01*
X189798059Y-62290653D01*
X189798056Y-62290652D01*
X189798054Y-62290652D01*
X189500245Y-62250600D01*
X189274967Y-62250600D01*
X189274959Y-62250600D01*
X189050183Y-62265647D01*
X189050174Y-62265649D01*
X188755710Y-62325501D01*
X188471847Y-62424069D01*
X188471844Y-62424071D01*
X188203662Y-62559589D01*
X187955918Y-62729655D01*
X187733062Y-62931216D01*
X187539058Y-63160686D01*
X187539056Y-63160688D01*
X187377366Y-63413972D01*
X187252175Y-63683753D01*
X187250882Y-63686540D01*
X187232447Y-63745968D01*
X187161854Y-63973535D01*
X187111874Y-64269842D01*
X187101833Y-64570167D01*
X185371919Y-64570167D01*
X185375157Y-64547645D01*
X185365148Y-64337541D01*
X185315558Y-64133129D01*
X185228179Y-63941795D01*
X185176698Y-63869500D01*
X185102743Y-63765644D01*
X185104378Y-63764479D01*
X185079130Y-63709190D01*
X185089074Y-63640032D01*
X185134830Y-63587229D01*
X185201870Y-63567545D01*
X185230811Y-63570970D01*
X185282105Y-63583285D01*
X185540000Y-63603582D01*
X185797895Y-63583285D01*
X186049440Y-63522895D01*
X186288441Y-63423897D01*
X186509012Y-63288731D01*
X186705724Y-63120724D01*
X186873731Y-62924012D01*
X187008897Y-62703441D01*
X187107895Y-62464440D01*
X187168285Y-62212895D01*
X187188582Y-61955000D01*
X187168285Y-61697105D01*
X187107895Y-61445560D01*
X187088676Y-61399162D01*
X187081208Y-61329698D01*
X187112482Y-61267218D01*
X187115529Y-61264060D01*
X187193788Y-61185801D01*
X187206042Y-61175986D01*
X187205859Y-61175764D01*
X187211866Y-61170792D01*
X187211877Y-61170786D01*
X187246883Y-61133508D01*
X187259227Y-61120364D01*
X187269671Y-61109918D01*
X187280120Y-61099471D01*
X187284379Y-61093978D01*
X187288152Y-61089561D01*
X187320062Y-61055582D01*
X187329713Y-61038024D01*
X187340396Y-61021761D01*
X187352673Y-61005936D01*
X187352676Y-61005927D01*
X187356644Y-60999221D01*
X187358063Y-61000060D01*
X187396815Y-60953481D01*
X187418482Y-60941870D01*
X187558437Y-60883899D01*
X187558438Y-60883898D01*
X187558441Y-60883897D01*
X187779012Y-60748731D01*
X187975724Y-60580724D01*
X188143731Y-60384012D01*
X188278897Y-60163441D01*
X188377895Y-59924440D01*
X188438285Y-59672895D01*
X188458582Y-59415000D01*
X190241920Y-59415000D01*
X190262211Y-59672820D01*
X190322582Y-59924285D01*
X190421549Y-60163213D01*
X190556673Y-60383714D01*
X190556676Y-60383719D01*
X190561767Y-60389679D01*
X191213337Y-59738109D01*
X191236670Y-59792200D01*
X191341269Y-59932701D01*
X191475450Y-60045293D01*
X191567187Y-60091365D01*
X190915319Y-60743232D01*
X190921283Y-60748325D01*
X191141786Y-60883450D01*
X191380715Y-60982417D01*
X191606790Y-61036692D01*
X191667383Y-61071482D01*
X191699547Y-61133508D01*
X191693071Y-61203077D01*
X191692405Y-61204718D01*
X191592583Y-61445710D01*
X191592583Y-61445712D01*
X191532211Y-61697179D01*
X191511920Y-61955000D01*
X191532211Y-62212820D01*
X191592582Y-62464285D01*
X191691549Y-62703213D01*
X191826673Y-62923714D01*
X191826676Y-62923719D01*
X191831767Y-62929679D01*
X192483337Y-62278108D01*
X192506670Y-62332200D01*
X192611269Y-62472701D01*
X192745450Y-62585293D01*
X192837187Y-62631365D01*
X192185319Y-63283232D01*
X192191283Y-63288325D01*
X192411786Y-63423450D01*
X192650714Y-63522417D01*
X192902179Y-63582788D01*
X193160000Y-63603079D01*
X193417819Y-63582788D01*
X193478117Y-63568312D01*
X193547899Y-63571803D01*
X193604717Y-63612466D01*
X193630530Y-63677393D01*
X193617144Y-63745968D01*
X193600777Y-63770088D01*
X193528753Y-63853208D01*
X193528740Y-63853225D01*
X193423574Y-64035379D01*
X193354779Y-64234148D01*
X193354778Y-64234153D01*
X193354778Y-64234154D01*
X193324843Y-64442355D01*
X193334852Y-64652459D01*
X193384442Y-64856871D01*
X193436637Y-64971163D01*
X193471820Y-65048204D01*
X193471824Y-65048210D01*
X193593826Y-65219539D01*
X193593831Y-65219544D01*
X193746063Y-65364697D01*
X193923014Y-65478416D01*
X194118288Y-65556593D01*
X194247084Y-65581416D01*
X194324828Y-65596400D01*
X194324829Y-65596400D01*
X194482461Y-65596400D01*
X194482468Y-65596400D01*
X194639389Y-65581416D01*
X194841211Y-65522156D01*
X195028170Y-65425771D01*
X195193510Y-65295747D01*
X195331255Y-65136781D01*
X195436426Y-64954619D01*
X195505222Y-64755846D01*
X195535157Y-64547645D01*
X195525148Y-64337541D01*
X195475558Y-64133129D01*
X195388179Y-63941795D01*
X195388175Y-63941789D01*
X195266173Y-63770460D01*
X195266167Y-63770454D01*
X195113939Y-63625305D01*
X195113937Y-63625303D01*
X194936986Y-63511584D01*
X194936984Y-63511583D01*
X194741721Y-63433410D01*
X194741714Y-63433407D01*
X194741712Y-63433407D01*
X194741709Y-63433406D01*
X194741708Y-63433406D01*
X194535172Y-63393600D01*
X194535171Y-63393600D01*
X194377532Y-63393600D01*
X194270671Y-63403803D01*
X194202065Y-63390580D01*
X194151499Y-63342365D01*
X194137616Y-63286169D01*
X193485399Y-62633952D01*
X193498575Y-62629157D01*
X193644920Y-62532905D01*
X193765123Y-62405497D01*
X193837935Y-62279382D01*
X194488231Y-62929678D01*
X194488232Y-62929678D01*
X194493319Y-62923723D01*
X194493326Y-62923713D01*
X194628450Y-62703213D01*
X194727417Y-62464285D01*
X194787788Y-62212820D01*
X194808079Y-61955000D01*
X194787788Y-61697179D01*
X194727417Y-61445714D01*
X194628450Y-61206786D01*
X194493325Y-60986283D01*
X194488232Y-60980319D01*
X193836662Y-61631889D01*
X193813330Y-61577800D01*
X193708731Y-61437299D01*
X193574550Y-61324707D01*
X193482811Y-61278634D01*
X194134679Y-60626767D01*
X194134679Y-60626766D01*
X194128719Y-60621676D01*
X194128714Y-60621673D01*
X193908213Y-60486549D01*
X193669285Y-60387582D01*
X193443208Y-60333307D01*
X193382616Y-60298516D01*
X193350452Y-60236490D01*
X193356928Y-60166921D01*
X193357594Y-60165280D01*
X193457417Y-59924285D01*
X193517788Y-59672820D01*
X193538079Y-59415000D01*
X193517788Y-59157179D01*
X193457417Y-58905714D01*
X193358450Y-58666786D01*
X193223325Y-58446283D01*
X193218232Y-58440319D01*
X192566662Y-59091889D01*
X192543330Y-59037800D01*
X192438731Y-58897299D01*
X192304550Y-58784707D01*
X192212812Y-58738634D01*
X192864679Y-58086767D01*
X192864679Y-58086766D01*
X192858719Y-58081676D01*
X192858714Y-58081673D01*
X192638213Y-57946549D01*
X192399285Y-57847582D01*
X192147820Y-57787211D01*
X191890000Y-57766920D01*
X191632179Y-57787211D01*
X191380714Y-57847582D01*
X191141786Y-57946549D01*
X190921289Y-58081670D01*
X190921273Y-58081682D01*
X190915320Y-58086766D01*
X190915320Y-58086767D01*
X191564600Y-58736047D01*
X191551425Y-58740843D01*
X191405080Y-58837095D01*
X191284877Y-58964503D01*
X191212064Y-59090617D01*
X190561767Y-58440320D01*
X190561766Y-58440320D01*
X190556682Y-58446273D01*
X190556670Y-58446289D01*
X190421549Y-58666786D01*
X190322582Y-58905714D01*
X190262211Y-59157179D01*
X190241920Y-59415000D01*
X188458582Y-59415000D01*
X188438285Y-59157105D01*
X188377895Y-58905560D01*
X188308740Y-58738605D01*
X188278897Y-58666558D01*
X188152827Y-58460832D01*
X188143731Y-58445988D01*
X188143730Y-58445987D01*
X188143729Y-58445985D01*
X188076928Y-58367771D01*
X187975724Y-58249276D01*
X187815420Y-58112364D01*
X187779014Y-58081270D01*
X187779009Y-58081267D01*
X187558441Y-57946102D01*
X187354441Y-57861603D01*
X187319440Y-57847105D01*
X187319436Y-57847104D01*
X187319430Y-57847102D01*
X187067898Y-57786715D01*
X186810000Y-57766418D01*
X186552101Y-57786715D01*
X186300569Y-57847102D01*
X186300557Y-57847106D01*
X186061558Y-57946102D01*
X185840990Y-58081267D01*
X185840985Y-58081270D01*
X185644276Y-58249276D01*
X185476270Y-58445985D01*
X185476267Y-58445990D01*
X185341102Y-58666558D01*
X185242106Y-58905557D01*
X185242102Y-58905569D01*
X185181715Y-59157101D01*
X185161418Y-59415000D01*
X185181715Y-59672898D01*
X185242102Y-59924430D01*
X185242106Y-59924442D01*
X185341719Y-60164930D01*
X185349188Y-60234400D01*
X185317913Y-60296879D01*
X185257824Y-60332531D01*
X185256105Y-60332957D01*
X185030569Y-60387102D01*
X185030552Y-60387108D01*
X184984165Y-60406322D01*
X184914696Y-60413791D01*
X184852217Y-60382515D01*
X184849032Y-60379442D01*
X180403772Y-55934181D01*
X180370287Y-55872858D01*
X180375271Y-55803166D01*
X180417143Y-55747233D01*
X180482607Y-55722816D01*
X180491453Y-55722500D01*
X197421548Y-55722500D01*
X197488587Y-55742185D01*
X197509229Y-55758819D01*
X203014442Y-61264032D01*
X203047927Y-61325355D01*
X203042943Y-61395047D01*
X203041322Y-61399165D01*
X203022108Y-61445552D01*
X203022102Y-61445569D01*
X202961715Y-61697101D01*
X202941418Y-61955000D01*
X202961715Y-62212898D01*
X203022102Y-62464430D01*
X203022106Y-62464442D01*
X203121102Y-62703441D01*
X203256267Y-62924009D01*
X203256270Y-62924014D01*
X203309502Y-62986340D01*
X203424276Y-63120724D01*
X203471066Y-63160686D01*
X203488188Y-63175310D01*
X203526381Y-63233817D01*
X203526879Y-63303685D01*
X203489525Y-63362731D01*
X203426178Y-63392209D01*
X203407656Y-63393600D01*
X203267532Y-63393600D01*
X203110611Y-63408584D01*
X203110607Y-63408585D01*
X202908791Y-63467843D01*
X202721831Y-63564228D01*
X202556490Y-63694252D01*
X202556489Y-63694253D01*
X202418749Y-63853214D01*
X202418740Y-63853225D01*
X202313574Y-64035379D01*
X202244779Y-64234148D01*
X202244778Y-64234153D01*
X202244778Y-64234154D01*
X202214843Y-64442355D01*
X202224852Y-64652459D01*
X202274442Y-64856871D01*
X202326637Y-64971163D01*
X202361820Y-65048204D01*
X202361824Y-65048210D01*
X202483826Y-65219539D01*
X202483831Y-65219544D01*
X202636063Y-65364697D01*
X202813014Y-65478416D01*
X203008288Y-65556593D01*
X203137084Y-65581416D01*
X203214828Y-65596400D01*
X203214829Y-65596400D01*
X203372461Y-65596400D01*
X203372468Y-65596400D01*
X203529389Y-65581416D01*
X203731211Y-65522156D01*
X203918170Y-65425771D01*
X204083510Y-65295747D01*
X204221255Y-65136781D01*
X204326426Y-64954619D01*
X204395222Y-64755846D01*
X204421919Y-64570167D01*
X206151833Y-64570167D01*
X206181910Y-64869142D01*
X206181911Y-64869149D01*
X206251568Y-65161441D01*
X206251571Y-65161453D01*
X206359566Y-65441853D01*
X206359573Y-65441868D01*
X206503979Y-65705375D01*
X206503983Y-65705381D01*
X206595296Y-65829312D01*
X206682223Y-65947290D01*
X206790050Y-66058782D01*
X206891120Y-66163288D01*
X206891127Y-66163294D01*
X206933487Y-66196745D01*
X207126946Y-66349518D01*
X207385487Y-66502652D01*
X207662133Y-66619960D01*
X207662136Y-66619960D01*
X207662139Y-66619962D01*
X207807039Y-66659654D01*
X207951946Y-66699348D01*
X208249755Y-66739400D01*
X208249760Y-66739400D01*
X208475041Y-66739400D01*
X208638513Y-66728456D01*
X208699819Y-66724352D01*
X208994287Y-66664499D01*
X209278151Y-66565931D01*
X209546343Y-66430407D01*
X209794080Y-66260346D01*
X210016939Y-66058782D01*
X210210943Y-65829312D01*
X210372631Y-65576032D01*
X210499118Y-65303460D01*
X210588146Y-65016462D01*
X210638126Y-64720158D01*
X210648167Y-64419836D01*
X210618089Y-64120855D01*
X210548430Y-63828551D01*
X210440431Y-63548140D01*
X210296021Y-63284625D01*
X210117777Y-63042710D01*
X209908879Y-62826711D01*
X209908872Y-62826705D01*
X209673055Y-62640483D01*
X209673056Y-62640483D01*
X209673054Y-62640482D01*
X209414513Y-62487348D01*
X209137867Y-62370040D01*
X209137860Y-62370037D01*
X208848059Y-62290653D01*
X208848056Y-62290652D01*
X208848054Y-62290652D01*
X208550245Y-62250600D01*
X208324967Y-62250600D01*
X208324959Y-62250600D01*
X208100183Y-62265647D01*
X208100174Y-62265649D01*
X207805710Y-62325501D01*
X207521847Y-62424069D01*
X207521844Y-62424071D01*
X207253662Y-62559589D01*
X207005918Y-62729655D01*
X206783062Y-62931216D01*
X206589058Y-63160686D01*
X206589056Y-63160688D01*
X206427366Y-63413972D01*
X206302175Y-63683753D01*
X206300882Y-63686540D01*
X206282447Y-63745968D01*
X206211854Y-63973535D01*
X206161874Y-64269842D01*
X206151833Y-64570167D01*
X204421919Y-64570167D01*
X204425157Y-64547645D01*
X204415148Y-64337541D01*
X204365558Y-64133129D01*
X204278179Y-63941795D01*
X204226698Y-63869500D01*
X204152743Y-63765644D01*
X204154378Y-63764479D01*
X204129130Y-63709190D01*
X204139074Y-63640032D01*
X204184830Y-63587229D01*
X204251870Y-63567545D01*
X204280811Y-63570970D01*
X204332105Y-63583285D01*
X204590000Y-63603582D01*
X204847895Y-63583285D01*
X205099440Y-63522895D01*
X205338441Y-63423897D01*
X205559012Y-63288731D01*
X205755724Y-63120724D01*
X205923731Y-62924012D01*
X206058897Y-62703441D01*
X206157895Y-62464440D01*
X206218285Y-62212895D01*
X206238582Y-61955000D01*
X206218285Y-61697105D01*
X206157895Y-61445560D01*
X206138676Y-61399162D01*
X206131208Y-61329698D01*
X206162482Y-61267218D01*
X206165529Y-61264060D01*
X206243788Y-61185801D01*
X206256042Y-61175986D01*
X206255859Y-61175764D01*
X206261866Y-61170792D01*
X206261877Y-61170786D01*
X206296883Y-61133508D01*
X206309227Y-61120364D01*
X206319671Y-61109918D01*
X206330120Y-61099471D01*
X206334379Y-61093978D01*
X206338152Y-61089561D01*
X206370062Y-61055582D01*
X206379713Y-61038024D01*
X206390396Y-61021761D01*
X206402673Y-61005936D01*
X206402676Y-61005927D01*
X206406644Y-60999221D01*
X206408063Y-61000060D01*
X206446815Y-60953481D01*
X206468482Y-60941870D01*
X206608437Y-60883899D01*
X206608438Y-60883898D01*
X206608441Y-60883897D01*
X206829012Y-60748731D01*
X207025724Y-60580724D01*
X207193731Y-60384012D01*
X207328897Y-60163441D01*
X207427895Y-59924440D01*
X207488285Y-59672895D01*
X207508582Y-59415000D01*
X209291920Y-59415000D01*
X209312211Y-59672820D01*
X209372582Y-59924285D01*
X209471549Y-60163213D01*
X209606673Y-60383714D01*
X209606676Y-60383719D01*
X209611767Y-60389679D01*
X210263337Y-59738109D01*
X210286670Y-59792200D01*
X210391269Y-59932701D01*
X210525450Y-60045293D01*
X210617187Y-60091365D01*
X209965319Y-60743232D01*
X209971283Y-60748325D01*
X210191786Y-60883450D01*
X210430715Y-60982417D01*
X210656790Y-61036692D01*
X210717383Y-61071482D01*
X210749547Y-61133508D01*
X210743071Y-61203077D01*
X210742405Y-61204718D01*
X210642583Y-61445710D01*
X210642583Y-61445712D01*
X210582211Y-61697179D01*
X210561920Y-61955000D01*
X210582211Y-62212820D01*
X210642582Y-62464285D01*
X210741549Y-62703213D01*
X210876673Y-62923714D01*
X210876676Y-62923719D01*
X210881767Y-62929679D01*
X211533337Y-62278108D01*
X211556670Y-62332200D01*
X211661269Y-62472701D01*
X211795450Y-62585293D01*
X211887187Y-62631365D01*
X211235319Y-63283232D01*
X211241283Y-63288325D01*
X211461786Y-63423450D01*
X211700714Y-63522417D01*
X211952179Y-63582788D01*
X212210000Y-63603079D01*
X212467819Y-63582788D01*
X212528117Y-63568312D01*
X212597899Y-63571803D01*
X212654717Y-63612466D01*
X212680530Y-63677393D01*
X212667144Y-63745968D01*
X212650777Y-63770088D01*
X212578753Y-63853208D01*
X212578740Y-63853225D01*
X212473574Y-64035379D01*
X212404779Y-64234148D01*
X212404778Y-64234153D01*
X212404778Y-64234154D01*
X212374843Y-64442355D01*
X212384852Y-64652459D01*
X212434442Y-64856871D01*
X212486637Y-64971163D01*
X212521820Y-65048204D01*
X212521824Y-65048210D01*
X212643826Y-65219539D01*
X212643831Y-65219544D01*
X212796063Y-65364697D01*
X212973014Y-65478416D01*
X213168288Y-65556593D01*
X213297084Y-65581416D01*
X213374828Y-65596400D01*
X213374829Y-65596400D01*
X213532461Y-65596400D01*
X213532468Y-65596400D01*
X213689389Y-65581416D01*
X213891211Y-65522156D01*
X214078170Y-65425771D01*
X214243510Y-65295747D01*
X214381255Y-65136781D01*
X214486426Y-64954619D01*
X214555222Y-64755846D01*
X214585157Y-64547645D01*
X214575148Y-64337541D01*
X214525558Y-64133129D01*
X214438179Y-63941795D01*
X214438175Y-63941789D01*
X214316173Y-63770460D01*
X214316167Y-63770454D01*
X214163939Y-63625305D01*
X214163937Y-63625303D01*
X213986986Y-63511584D01*
X213986984Y-63511583D01*
X213791721Y-63433410D01*
X213791714Y-63433407D01*
X213791712Y-63433407D01*
X213791709Y-63433406D01*
X213791708Y-63433406D01*
X213585172Y-63393600D01*
X213585171Y-63393600D01*
X213427532Y-63393600D01*
X213320671Y-63403803D01*
X213252065Y-63390580D01*
X213201499Y-63342365D01*
X213187616Y-63286169D01*
X212535399Y-62633952D01*
X212548575Y-62629157D01*
X212694920Y-62532905D01*
X212815123Y-62405497D01*
X212887935Y-62279382D01*
X213538231Y-62929678D01*
X213538232Y-62929678D01*
X213543319Y-62923723D01*
X213543326Y-62923713D01*
X213678450Y-62703213D01*
X213777417Y-62464285D01*
X213837788Y-62212820D01*
X213858079Y-61955000D01*
X213837788Y-61697179D01*
X213777417Y-61445714D01*
X213678450Y-61206786D01*
X213543325Y-60986283D01*
X213538232Y-60980319D01*
X212886662Y-61631889D01*
X212863330Y-61577800D01*
X212758731Y-61437299D01*
X212624550Y-61324707D01*
X212532811Y-61278634D01*
X213184679Y-60626767D01*
X213184679Y-60626766D01*
X213178719Y-60621676D01*
X213178714Y-60621673D01*
X212958213Y-60486549D01*
X212719285Y-60387582D01*
X212493208Y-60333307D01*
X212432616Y-60298516D01*
X212400452Y-60236490D01*
X212406928Y-60166921D01*
X212407594Y-60165280D01*
X212507417Y-59924285D01*
X212567788Y-59672820D01*
X212588079Y-59415000D01*
X212567788Y-59157179D01*
X212507417Y-58905714D01*
X212408450Y-58666786D01*
X212273325Y-58446283D01*
X212268232Y-58440319D01*
X211616662Y-59091889D01*
X211593330Y-59037800D01*
X211488731Y-58897299D01*
X211354550Y-58784707D01*
X211262812Y-58738634D01*
X211914679Y-58086767D01*
X211914679Y-58086766D01*
X211908719Y-58081676D01*
X211908714Y-58081673D01*
X211688213Y-57946549D01*
X211449285Y-57847582D01*
X211197820Y-57787211D01*
X210940000Y-57766920D01*
X210682179Y-57787211D01*
X210430714Y-57847582D01*
X210191786Y-57946549D01*
X209971289Y-58081670D01*
X209971273Y-58081682D01*
X209965320Y-58086766D01*
X209965320Y-58086767D01*
X210614600Y-58736047D01*
X210601425Y-58740843D01*
X210455080Y-58837095D01*
X210334877Y-58964503D01*
X210262064Y-59090617D01*
X209611767Y-58440320D01*
X209611766Y-58440320D01*
X209606682Y-58446273D01*
X209606670Y-58446289D01*
X209471549Y-58666786D01*
X209372582Y-58905714D01*
X209312211Y-59157179D01*
X209291920Y-59415000D01*
X207508582Y-59415000D01*
X207488285Y-59157105D01*
X207427895Y-58905560D01*
X207358740Y-58738605D01*
X207328897Y-58666558D01*
X207202827Y-58460832D01*
X207193731Y-58445988D01*
X207193730Y-58445987D01*
X207193729Y-58445985D01*
X207126928Y-58367771D01*
X207025724Y-58249276D01*
X206865420Y-58112364D01*
X206829014Y-58081270D01*
X206829009Y-58081267D01*
X206608441Y-57946102D01*
X206404441Y-57861603D01*
X206369440Y-57847105D01*
X206369436Y-57847104D01*
X206369430Y-57847102D01*
X206117898Y-57786715D01*
X205860000Y-57766418D01*
X205602101Y-57786715D01*
X205350569Y-57847102D01*
X205350557Y-57847106D01*
X205111558Y-57946102D01*
X204890990Y-58081267D01*
X204890985Y-58081270D01*
X204694276Y-58249276D01*
X204526270Y-58445985D01*
X204526267Y-58445990D01*
X204391102Y-58666558D01*
X204292106Y-58905557D01*
X204292102Y-58905569D01*
X204231715Y-59157101D01*
X204211418Y-59415000D01*
X204231715Y-59672898D01*
X204292102Y-59924430D01*
X204292106Y-59924442D01*
X204391719Y-60164930D01*
X204399188Y-60234400D01*
X204367913Y-60296879D01*
X204307824Y-60332531D01*
X204306105Y-60332957D01*
X204080569Y-60387102D01*
X204080552Y-60387108D01*
X204034165Y-60406322D01*
X203964696Y-60413791D01*
X203902217Y-60382515D01*
X203899032Y-60379442D01*
X201078393Y-57558803D01*
X198684354Y-55164763D01*
X213403787Y-55164763D01*
X213433413Y-55434013D01*
X213433415Y-55434024D01*
X213501926Y-55696082D01*
X213501928Y-55696088D01*
X213607870Y-55945390D01*
X213748979Y-56176605D01*
X213748986Y-56176615D01*
X213922253Y-56384819D01*
X213922259Y-56384824D01*
X213981025Y-56437478D01*
X214123998Y-56565582D01*
X214349910Y-56715044D01*
X214595176Y-56830020D01*
X214595183Y-56830022D01*
X214595185Y-56830023D01*
X214854557Y-56908057D01*
X214854564Y-56908058D01*
X214854569Y-56908060D01*
X215122561Y-56947500D01*
X215122566Y-56947500D01*
X215325636Y-56947500D01*
X215377133Y-56943730D01*
X215528156Y-56932677D01*
X215641938Y-56907331D01*
X215792546Y-56873782D01*
X215792548Y-56873781D01*
X215792553Y-56873780D01*
X216045558Y-56777014D01*
X216281777Y-56644441D01*
X216496177Y-56478888D01*
X216684186Y-56283881D01*
X216841799Y-56063579D01*
X216915787Y-55919669D01*
X216965649Y-55822690D01*
X216965651Y-55822684D01*
X216965656Y-55822675D01*
X217053118Y-55566305D01*
X217102319Y-55299933D01*
X217112212Y-55029235D01*
X217082586Y-54759982D01*
X217014072Y-54497912D01*
X216908130Y-54248610D01*
X216767018Y-54017390D01*
X216677747Y-53910119D01*
X216593746Y-53809180D01*
X216593740Y-53809175D01*
X216392002Y-53628418D01*
X216166092Y-53478957D01*
X216117775Y-53456307D01*
X215920824Y-53363980D01*
X215920819Y-53363978D01*
X215920814Y-53363976D01*
X215661442Y-53285942D01*
X215661428Y-53285939D01*
X215538422Y-53267837D01*
X215393439Y-53246500D01*
X215190369Y-53246500D01*
X215190364Y-53246500D01*
X214987844Y-53261323D01*
X214987831Y-53261325D01*
X214723453Y-53320217D01*
X214723446Y-53320220D01*
X214470439Y-53416987D01*
X214234226Y-53549557D01*
X214234224Y-53549558D01*
X214234223Y-53549559D01*
X214191963Y-53582191D01*
X214019822Y-53715112D01*
X213831822Y-53910109D01*
X213831816Y-53910116D01*
X213674202Y-54130419D01*
X213674199Y-54130424D01*
X213550350Y-54371309D01*
X213550343Y-54371327D01*
X213462884Y-54627685D01*
X213462881Y-54627699D01*
X213413681Y-54894068D01*
X213413680Y-54894075D01*
X213403787Y-55164763D01*
X198684354Y-55164763D01*
X198232803Y-54713212D01*
X198222980Y-54700950D01*
X198222759Y-54701134D01*
X198217786Y-54695123D01*
X198167364Y-54647773D01*
X198156919Y-54637328D01*
X198146475Y-54626883D01*
X198140986Y-54622625D01*
X198136561Y-54618847D01*
X198102582Y-54586938D01*
X198102580Y-54586936D01*
X198102577Y-54586935D01*
X198085029Y-54577288D01*
X198068763Y-54566604D01*
X198052933Y-54554325D01*
X198010168Y-54535818D01*
X198004922Y-54533248D01*
X197964093Y-54510803D01*
X197964092Y-54510802D01*
X197944693Y-54505822D01*
X197926281Y-54499518D01*
X197907898Y-54491562D01*
X197907892Y-54491560D01*
X197861874Y-54484272D01*
X197856152Y-54483087D01*
X197811021Y-54471500D01*
X197811019Y-54471500D01*
X197790984Y-54471500D01*
X197771586Y-54469973D01*
X197764162Y-54468797D01*
X197751805Y-54466840D01*
X197751804Y-54466840D01*
X197705416Y-54471225D01*
X197699578Y-54471500D01*
X156767452Y-54471500D01*
X156700413Y-54451815D01*
X156679771Y-54435181D01*
X151619607Y-49375017D01*
X150297353Y-48052763D01*
X155745787Y-48052763D01*
X155775413Y-48322013D01*
X155775415Y-48322024D01*
X155835720Y-48552693D01*
X155843928Y-48584088D01*
X155949870Y-48833390D01*
X156086236Y-49056834D01*
X156090979Y-49064605D01*
X156090986Y-49064615D01*
X156264253Y-49272819D01*
X156264259Y-49272824D01*
X156397177Y-49391918D01*
X156465998Y-49453582D01*
X156691910Y-49603044D01*
X156937176Y-49718020D01*
X156937183Y-49718022D01*
X156937185Y-49718023D01*
X157196557Y-49796057D01*
X157196564Y-49796058D01*
X157196569Y-49796060D01*
X157464561Y-49835500D01*
X157464566Y-49835500D01*
X157667636Y-49835500D01*
X157719133Y-49831730D01*
X157870156Y-49820677D01*
X157982758Y-49795593D01*
X158134546Y-49761782D01*
X158134548Y-49761781D01*
X158134553Y-49761780D01*
X158387558Y-49665014D01*
X158623777Y-49532441D01*
X158838177Y-49366888D01*
X159026186Y-49171881D01*
X159183799Y-48951579D01*
X159288859Y-48747236D01*
X159307649Y-48710690D01*
X159307651Y-48710684D01*
X159307656Y-48710675D01*
X159395118Y-48454305D01*
X159444319Y-48187933D01*
X159454212Y-47917235D01*
X159424586Y-47647982D01*
X159356072Y-47385912D01*
X159250130Y-47136610D01*
X159109018Y-46905390D01*
X159102275Y-46897287D01*
X158935746Y-46697180D01*
X158935740Y-46697175D01*
X158734002Y-46516418D01*
X158508092Y-46366957D01*
X158396611Y-46314697D01*
X158262824Y-46251980D01*
X158262819Y-46251978D01*
X158262814Y-46251976D01*
X158003442Y-46173942D01*
X158003428Y-46173939D01*
X157887791Y-46156921D01*
X157735439Y-46134500D01*
X157532369Y-46134500D01*
X157532364Y-46134500D01*
X157329844Y-46149323D01*
X157329831Y-46149325D01*
X157065453Y-46208217D01*
X157065446Y-46208220D01*
X156812439Y-46304987D01*
X156576226Y-46437557D01*
X156576224Y-46437558D01*
X156576223Y-46437559D01*
X156563813Y-46447142D01*
X156361822Y-46603112D01*
X156173822Y-46798109D01*
X156173816Y-46798116D01*
X156016202Y-47018419D01*
X156016199Y-47018424D01*
X155892350Y-47259309D01*
X155892343Y-47259327D01*
X155804884Y-47515685D01*
X155804881Y-47515699D01*
X155755681Y-47782068D01*
X155755680Y-47782075D01*
X155745787Y-48052763D01*
X150297353Y-48052763D01*
X146543803Y-44299212D01*
X146533980Y-44286950D01*
X146533759Y-44287134D01*
X146528786Y-44281123D01*
X146478364Y-44233773D01*
X146467919Y-44223328D01*
X146457475Y-44212883D01*
X146451986Y-44208625D01*
X146447561Y-44204847D01*
X146413582Y-44172938D01*
X146413580Y-44172936D01*
X146413577Y-44172935D01*
X146396029Y-44163288D01*
X146379763Y-44152604D01*
X146363933Y-44140325D01*
X146321168Y-44121818D01*
X146315922Y-44119248D01*
X146275093Y-44096803D01*
X146275092Y-44096802D01*
X146255693Y-44091822D01*
X146237281Y-44085518D01*
X146218898Y-44077562D01*
X146218892Y-44077560D01*
X146172874Y-44070272D01*
X146167152Y-44069087D01*
X146122021Y-44057500D01*
X146122019Y-44057500D01*
X146101984Y-44057500D01*
X146082586Y-44055973D01*
X146075162Y-44054797D01*
X146062805Y-44052840D01*
X146062804Y-44052840D01*
X146016416Y-44057225D01*
X146010578Y-44057500D01*
X142231552Y-44057500D01*
X142164513Y-44037815D01*
X142125457Y-43995609D01*
X142124919Y-43995965D01*
X142122762Y-43992698D01*
X142122360Y-43992263D01*
X142121852Y-43991319D01*
X141981510Y-43815336D01*
X141981508Y-43815334D01*
X141811996Y-43667235D01*
X141618767Y-43551787D01*
X141618768Y-43551787D01*
X141618766Y-43551786D01*
X141618764Y-43551785D01*
X141559896Y-43529691D01*
X141504050Y-43487706D01*
X141479767Y-43422191D01*
X141494759Y-43353949D01*
X141544265Y-43304645D01*
X141549610Y-43301907D01*
X141717973Y-43220829D01*
X141900078Y-43088522D01*
X142055632Y-42925825D01*
X142122721Y-42824188D01*
X142176081Y-42779084D01*
X142226208Y-42768500D01*
X149008257Y-42768500D01*
X149023877Y-42770224D01*
X149023904Y-42769939D01*
X149031660Y-42770671D01*
X149031667Y-42770673D01*
X149100814Y-42768500D01*
X149130350Y-42768500D01*
X149137228Y-42767630D01*
X149143041Y-42767172D01*
X149189627Y-42765709D01*
X149208869Y-42760117D01*
X149227912Y-42756174D01*
X149247792Y-42753664D01*
X149291122Y-42736507D01*
X149296646Y-42734617D01*
X149300396Y-42733527D01*
X149341390Y-42721618D01*
X149358629Y-42711422D01*
X149376103Y-42702862D01*
X149394727Y-42695488D01*
X149394727Y-42695487D01*
X149394732Y-42695486D01*
X149432449Y-42668082D01*
X149437305Y-42664892D01*
X149477420Y-42641170D01*
X149491589Y-42626999D01*
X149506379Y-42614368D01*
X149522587Y-42602594D01*
X149552299Y-42566676D01*
X149556212Y-42562376D01*
X152361772Y-39756819D01*
X152423095Y-39723334D01*
X152449453Y-39720500D01*
X166067237Y-39720500D01*
X166134276Y-39740185D01*
X166180031Y-39792989D01*
X166189975Y-39862147D01*
X166187811Y-39873441D01*
X166185664Y-39882390D01*
X166131715Y-40107101D01*
X166111418Y-40365000D01*
X166131715Y-40622898D01*
X166192102Y-40874430D01*
X166192106Y-40874442D01*
X166291719Y-41114930D01*
X166299188Y-41184400D01*
X166267913Y-41246879D01*
X166207824Y-41282531D01*
X166206105Y-41282957D01*
X165980569Y-41337102D01*
X165980557Y-41337106D01*
X165741558Y-41436102D01*
X165520990Y-41571267D01*
X165520985Y-41571270D01*
X165324276Y-41739276D01*
X165156270Y-41935985D01*
X165156267Y-41935990D01*
X165021102Y-42156558D01*
X164922106Y-42395557D01*
X164922102Y-42395569D01*
X164861715Y-42647101D01*
X164841418Y-42905000D01*
X164861715Y-43162898D01*
X164922102Y-43414430D01*
X164922106Y-43414442D01*
X165021102Y-43653441D01*
X165156267Y-43874009D01*
X165156270Y-43874014D01*
X165162423Y-43881218D01*
X165324276Y-44070724D01*
X165348979Y-44091822D01*
X165388188Y-44125310D01*
X165426381Y-44183817D01*
X165426879Y-44253685D01*
X165389525Y-44312731D01*
X165326178Y-44342209D01*
X165307656Y-44343600D01*
X165167532Y-44343600D01*
X165010611Y-44358584D01*
X165010607Y-44358585D01*
X164808791Y-44417843D01*
X164621831Y-44514228D01*
X164456490Y-44644252D01*
X164456489Y-44644253D01*
X164318749Y-44803214D01*
X164318740Y-44803225D01*
X164213574Y-44985379D01*
X164144779Y-45184148D01*
X164144778Y-45184153D01*
X164144778Y-45184154D01*
X164114843Y-45392355D01*
X164124852Y-45602459D01*
X164174442Y-45806871D01*
X164191693Y-45844645D01*
X164261820Y-45998204D01*
X164261824Y-45998210D01*
X164383826Y-46169539D01*
X164383831Y-46169544D01*
X164536063Y-46314697D01*
X164713014Y-46428416D01*
X164908288Y-46506593D01*
X165058839Y-46535609D01*
X165114828Y-46546400D01*
X165114829Y-46546400D01*
X165272461Y-46546400D01*
X165272468Y-46546400D01*
X165429389Y-46531416D01*
X165631211Y-46472156D01*
X165818170Y-46375771D01*
X165983510Y-46245747D01*
X166121255Y-46086781D01*
X166226426Y-45904619D01*
X166295222Y-45705846D01*
X166321919Y-45520167D01*
X168051833Y-45520167D01*
X168081910Y-45819142D01*
X168081911Y-45819149D01*
X168151568Y-46111441D01*
X168151571Y-46111453D01*
X168259566Y-46391853D01*
X168259573Y-46391868D01*
X168403979Y-46655375D01*
X168403983Y-46655381D01*
X168495296Y-46779312D01*
X168582223Y-46897290D01*
X168791121Y-47113289D01*
X169026946Y-47299518D01*
X169285487Y-47452652D01*
X169562133Y-47569960D01*
X169562136Y-47569960D01*
X169562139Y-47569962D01*
X169707039Y-47609654D01*
X169851946Y-47649348D01*
X170149755Y-47689400D01*
X170149760Y-47689400D01*
X170375041Y-47689400D01*
X170538513Y-47678456D01*
X170599819Y-47674352D01*
X170894287Y-47614499D01*
X171178151Y-47515931D01*
X171446343Y-47380407D01*
X171694080Y-47210346D01*
X171916939Y-47008782D01*
X172110943Y-46779312D01*
X172272631Y-46526032D01*
X172399118Y-46253460D01*
X172488146Y-45966462D01*
X172538126Y-45670158D01*
X172548167Y-45369836D01*
X172518089Y-45070855D01*
X172448430Y-44778551D01*
X172340431Y-44498140D01*
X172196021Y-44234625D01*
X172180001Y-44212883D01*
X172112904Y-44121818D01*
X172017777Y-43992710D01*
X171808879Y-43776711D01*
X171808872Y-43776705D01*
X171573055Y-43590483D01*
X171573056Y-43590483D01*
X171573054Y-43590482D01*
X171314513Y-43437348D01*
X171037867Y-43320040D01*
X171037860Y-43320037D01*
X170748059Y-43240653D01*
X170748056Y-43240652D01*
X170748054Y-43240652D01*
X170450245Y-43200600D01*
X170224967Y-43200600D01*
X170224959Y-43200600D01*
X170000183Y-43215647D01*
X170000174Y-43215649D01*
X169705710Y-43275501D01*
X169421847Y-43374069D01*
X169421844Y-43374071D01*
X169153662Y-43509589D01*
X168905918Y-43679655D01*
X168683062Y-43881216D01*
X168489058Y-44110686D01*
X168489056Y-44110688D01*
X168327366Y-44363972D01*
X168200886Y-44636531D01*
X168200882Y-44636540D01*
X168193856Y-44659190D01*
X168111854Y-44923535D01*
X168061874Y-45219842D01*
X168051833Y-45520167D01*
X166321919Y-45520167D01*
X166325157Y-45497645D01*
X166315148Y-45287541D01*
X166265558Y-45083129D01*
X166178179Y-44891795D01*
X166149515Y-44851542D01*
X166052743Y-44715644D01*
X166054378Y-44714479D01*
X166029130Y-44659190D01*
X166039074Y-44590032D01*
X166084830Y-44537229D01*
X166151870Y-44517545D01*
X166180811Y-44520970D01*
X166232105Y-44533285D01*
X166490000Y-44553582D01*
X166747895Y-44533285D01*
X166999440Y-44472895D01*
X167238441Y-44373897D01*
X167459012Y-44238731D01*
X167655724Y-44070724D01*
X167823731Y-43874012D01*
X167958897Y-43653441D01*
X168057895Y-43414440D01*
X168118285Y-43162895D01*
X168138582Y-42905000D01*
X168118285Y-42647105D01*
X168057895Y-42395560D01*
X168038676Y-42349162D01*
X168031208Y-42279698D01*
X168062482Y-42217218D01*
X168065529Y-42214060D01*
X168143788Y-42135801D01*
X168156042Y-42125986D01*
X168155859Y-42125764D01*
X168161866Y-42120792D01*
X168161877Y-42120786D01*
X168196883Y-42083508D01*
X168209227Y-42070364D01*
X168219671Y-42059918D01*
X168230120Y-42049471D01*
X168234379Y-42043978D01*
X168238152Y-42039561D01*
X168270062Y-42005582D01*
X168279713Y-41988024D01*
X168290396Y-41971761D01*
X168302673Y-41955936D01*
X168302676Y-41955927D01*
X168306644Y-41949221D01*
X168308063Y-41950060D01*
X168346815Y-41903481D01*
X168368482Y-41891870D01*
X168508437Y-41833899D01*
X168508438Y-41833898D01*
X168508441Y-41833897D01*
X168729012Y-41698731D01*
X168925724Y-41530724D01*
X169093731Y-41334012D01*
X169228897Y-41113441D01*
X169327895Y-40874440D01*
X169388285Y-40622895D01*
X169408582Y-40365000D01*
X171191920Y-40365000D01*
X171212211Y-40622820D01*
X171272582Y-40874285D01*
X171371549Y-41113213D01*
X171506673Y-41333714D01*
X171506676Y-41333719D01*
X171511767Y-41339679D01*
X172163337Y-40688109D01*
X172186670Y-40742200D01*
X172291269Y-40882701D01*
X172425450Y-40995293D01*
X172517187Y-41041365D01*
X171865319Y-41693232D01*
X171871283Y-41698325D01*
X172091786Y-41833450D01*
X172330715Y-41932417D01*
X172556790Y-41986692D01*
X172617383Y-42021482D01*
X172649547Y-42083508D01*
X172643071Y-42153077D01*
X172642405Y-42154718D01*
X172542583Y-42395710D01*
X172542583Y-42395712D01*
X172482211Y-42647179D01*
X172461920Y-42905000D01*
X172482211Y-43162820D01*
X172542582Y-43414285D01*
X172641549Y-43653213D01*
X172776673Y-43873714D01*
X172776676Y-43873719D01*
X172781767Y-43879679D01*
X173433337Y-43228108D01*
X173456670Y-43282200D01*
X173561269Y-43422701D01*
X173695450Y-43535293D01*
X173787187Y-43581365D01*
X173135319Y-44233232D01*
X173141283Y-44238325D01*
X173361786Y-44373450D01*
X173600714Y-44472417D01*
X173852179Y-44532788D01*
X174110000Y-44553079D01*
X174367819Y-44532788D01*
X174428117Y-44518312D01*
X174497899Y-44521803D01*
X174554717Y-44562466D01*
X174580530Y-44627393D01*
X174567144Y-44695968D01*
X174550777Y-44720088D01*
X174478753Y-44803208D01*
X174478740Y-44803225D01*
X174373574Y-44985379D01*
X174304779Y-45184148D01*
X174304778Y-45184153D01*
X174304778Y-45184154D01*
X174274843Y-45392355D01*
X174284852Y-45602459D01*
X174334442Y-45806871D01*
X174351693Y-45844645D01*
X174421820Y-45998204D01*
X174421824Y-45998210D01*
X174543826Y-46169539D01*
X174543831Y-46169544D01*
X174696063Y-46314697D01*
X174873014Y-46428416D01*
X175068288Y-46506593D01*
X175218839Y-46535609D01*
X175274828Y-46546400D01*
X175274829Y-46546400D01*
X175432461Y-46546400D01*
X175432468Y-46546400D01*
X175589389Y-46531416D01*
X175791211Y-46472156D01*
X175978170Y-46375771D01*
X176143510Y-46245747D01*
X176281255Y-46086781D01*
X176386426Y-45904619D01*
X176455222Y-45705846D01*
X176485157Y-45497645D01*
X176475148Y-45287541D01*
X176425558Y-45083129D01*
X176338179Y-44891795D01*
X176309515Y-44851542D01*
X176216173Y-44720460D01*
X176216167Y-44720454D01*
X176063939Y-44575305D01*
X176063937Y-44575303D01*
X175886986Y-44461584D01*
X175886984Y-44461583D01*
X175691721Y-44383410D01*
X175691714Y-44383407D01*
X175691712Y-44383407D01*
X175691709Y-44383406D01*
X175691708Y-44383406D01*
X175485172Y-44343600D01*
X175485171Y-44343600D01*
X175327532Y-44343600D01*
X175220671Y-44353803D01*
X175152065Y-44340580D01*
X175101499Y-44292365D01*
X175087616Y-44236169D01*
X174435399Y-43583952D01*
X174448575Y-43579157D01*
X174594920Y-43482905D01*
X174715123Y-43355497D01*
X174787935Y-43229382D01*
X175438231Y-43879678D01*
X175438232Y-43879678D01*
X175443319Y-43873723D01*
X175443326Y-43873713D01*
X175578450Y-43653213D01*
X175677417Y-43414285D01*
X175737788Y-43162820D01*
X175758079Y-42905000D01*
X175737788Y-42647179D01*
X175677417Y-42395714D01*
X175578450Y-42156786D01*
X175443325Y-41936283D01*
X175438232Y-41930319D01*
X174786662Y-42581889D01*
X174763330Y-42527800D01*
X174658731Y-42387299D01*
X174524550Y-42274707D01*
X174432811Y-42228634D01*
X175084679Y-41576767D01*
X175084679Y-41576766D01*
X175078719Y-41571676D01*
X175078714Y-41571673D01*
X174858213Y-41436549D01*
X174619285Y-41337582D01*
X174393208Y-41283307D01*
X174332616Y-41248516D01*
X174300452Y-41186490D01*
X174306928Y-41116921D01*
X174307594Y-41115280D01*
X174407417Y-40874285D01*
X174467788Y-40622820D01*
X174488079Y-40365000D01*
X174467788Y-40107179D01*
X174407417Y-39855714D01*
X174308450Y-39616786D01*
X174173325Y-39396283D01*
X174168232Y-39390319D01*
X173516662Y-40041889D01*
X173493330Y-39987800D01*
X173388731Y-39847299D01*
X173254550Y-39734707D01*
X173162812Y-39688634D01*
X173814679Y-39036767D01*
X173814679Y-39036766D01*
X173808719Y-39031676D01*
X173808714Y-39031673D01*
X173588213Y-38896549D01*
X173349285Y-38797582D01*
X173097820Y-38737211D01*
X172840000Y-38716920D01*
X172582179Y-38737211D01*
X172330714Y-38797582D01*
X172091786Y-38896549D01*
X171871289Y-39031670D01*
X171871273Y-39031682D01*
X171865320Y-39036766D01*
X171865320Y-39036767D01*
X172514600Y-39686047D01*
X172501425Y-39690843D01*
X172355080Y-39787095D01*
X172234877Y-39914503D01*
X172162064Y-40040617D01*
X171511767Y-39390320D01*
X171511766Y-39390320D01*
X171506682Y-39396273D01*
X171506670Y-39396289D01*
X171371549Y-39616786D01*
X171272582Y-39855714D01*
X171212211Y-40107179D01*
X171191920Y-40365000D01*
X169408582Y-40365000D01*
X169388285Y-40107105D01*
X169327895Y-39855560D01*
X169252703Y-39674032D01*
X169228897Y-39616558D01*
X169130102Y-39455341D01*
X169093731Y-39395988D01*
X169093730Y-39395987D01*
X169093729Y-39395985D01*
X169032009Y-39323721D01*
X168925724Y-39199276D01*
X168812999Y-39103000D01*
X168729014Y-39031270D01*
X168729009Y-39031267D01*
X168508441Y-38896102D01*
X168304441Y-38811603D01*
X168269440Y-38797105D01*
X168269436Y-38797104D01*
X168269430Y-38797102D01*
X168017898Y-38736715D01*
X167760000Y-38716418D01*
X167502101Y-38736715D01*
X167250560Y-38797104D01*
X167204164Y-38816322D01*
X167134695Y-38823789D01*
X167072216Y-38792514D01*
X167069032Y-38789441D01*
X166990803Y-38711212D01*
X166980980Y-38698950D01*
X166980759Y-38699134D01*
X166975786Y-38693123D01*
X166954956Y-38673562D01*
X166945723Y-38664891D01*
X166910329Y-38604652D01*
X166913121Y-38534838D01*
X166953215Y-38477617D01*
X167017880Y-38451155D01*
X167030607Y-38450500D01*
X183959548Y-38450500D01*
X184026587Y-38470185D01*
X184047229Y-38486819D01*
X185234441Y-39674032D01*
X185267926Y-39735355D01*
X185262942Y-39805047D01*
X185261322Y-39809164D01*
X185242104Y-39855560D01*
X185181715Y-40107101D01*
X185161418Y-40365000D01*
X185181715Y-40622898D01*
X185242102Y-40874430D01*
X185242106Y-40874442D01*
X185341719Y-41114930D01*
X185349188Y-41184400D01*
X185317913Y-41246879D01*
X185257824Y-41282531D01*
X185256105Y-41282957D01*
X185030569Y-41337102D01*
X185030557Y-41337106D01*
X184791558Y-41436102D01*
X184570990Y-41571267D01*
X184570985Y-41571270D01*
X184374276Y-41739276D01*
X184206270Y-41935985D01*
X184206267Y-41935990D01*
X184071102Y-42156558D01*
X183972106Y-42395557D01*
X183972102Y-42395569D01*
X183911715Y-42647101D01*
X183891418Y-42905000D01*
X183911715Y-43162898D01*
X183972102Y-43414430D01*
X183972106Y-43414442D01*
X184071102Y-43653441D01*
X184206267Y-43874009D01*
X184206270Y-43874014D01*
X184212423Y-43881218D01*
X184374276Y-44070724D01*
X184398979Y-44091822D01*
X184438188Y-44125310D01*
X184476381Y-44183817D01*
X184476879Y-44253685D01*
X184439525Y-44312731D01*
X184376178Y-44342209D01*
X184357656Y-44343600D01*
X184217532Y-44343600D01*
X184060611Y-44358584D01*
X184060607Y-44358585D01*
X183858791Y-44417843D01*
X183671831Y-44514228D01*
X183506490Y-44644252D01*
X183506489Y-44644253D01*
X183368749Y-44803214D01*
X183368740Y-44803225D01*
X183263574Y-44985379D01*
X183194779Y-45184148D01*
X183194778Y-45184153D01*
X183194778Y-45184154D01*
X183164843Y-45392355D01*
X183174852Y-45602459D01*
X183224442Y-45806871D01*
X183241693Y-45844645D01*
X183311820Y-45998204D01*
X183311824Y-45998210D01*
X183433826Y-46169539D01*
X183433831Y-46169544D01*
X183586063Y-46314697D01*
X183763014Y-46428416D01*
X183958288Y-46506593D01*
X184108839Y-46535609D01*
X184164828Y-46546400D01*
X184164829Y-46546400D01*
X184322461Y-46546400D01*
X184322468Y-46546400D01*
X184479389Y-46531416D01*
X184681211Y-46472156D01*
X184868170Y-46375771D01*
X185033510Y-46245747D01*
X185171255Y-46086781D01*
X185276426Y-45904619D01*
X185345222Y-45705846D01*
X185371919Y-45520167D01*
X187101833Y-45520167D01*
X187131910Y-45819142D01*
X187131911Y-45819149D01*
X187201568Y-46111441D01*
X187201571Y-46111453D01*
X187309566Y-46391853D01*
X187309573Y-46391868D01*
X187453979Y-46655375D01*
X187453983Y-46655381D01*
X187545296Y-46779312D01*
X187632223Y-46897290D01*
X187841121Y-47113289D01*
X188076946Y-47299518D01*
X188335487Y-47452652D01*
X188612133Y-47569960D01*
X188612136Y-47569960D01*
X188612139Y-47569962D01*
X188757039Y-47609654D01*
X188901946Y-47649348D01*
X189199755Y-47689400D01*
X189199760Y-47689400D01*
X189425041Y-47689400D01*
X189588513Y-47678456D01*
X189649819Y-47674352D01*
X189944287Y-47614499D01*
X190228151Y-47515931D01*
X190496343Y-47380407D01*
X190744080Y-47210346D01*
X190966939Y-47008782D01*
X191160943Y-46779312D01*
X191322631Y-46526032D01*
X191449118Y-46253460D01*
X191538146Y-45966462D01*
X191588126Y-45670158D01*
X191598167Y-45369836D01*
X191568089Y-45070855D01*
X191498430Y-44778551D01*
X191390431Y-44498140D01*
X191246021Y-44234625D01*
X191230001Y-44212883D01*
X191162904Y-44121818D01*
X191067777Y-43992710D01*
X190858879Y-43776711D01*
X190858872Y-43776705D01*
X190623055Y-43590483D01*
X190623056Y-43590483D01*
X190623054Y-43590482D01*
X190364513Y-43437348D01*
X190087867Y-43320040D01*
X190087860Y-43320037D01*
X189798059Y-43240653D01*
X189798056Y-43240652D01*
X189798054Y-43240652D01*
X189500245Y-43200600D01*
X189274967Y-43200600D01*
X189274959Y-43200600D01*
X189050183Y-43215647D01*
X189050174Y-43215649D01*
X188755710Y-43275501D01*
X188471847Y-43374069D01*
X188471844Y-43374071D01*
X188203662Y-43509589D01*
X187955918Y-43679655D01*
X187733062Y-43881216D01*
X187539058Y-44110686D01*
X187539056Y-44110688D01*
X187377366Y-44363972D01*
X187250886Y-44636531D01*
X187250882Y-44636540D01*
X187243856Y-44659190D01*
X187161854Y-44923535D01*
X187111874Y-45219842D01*
X187101833Y-45520167D01*
X185371919Y-45520167D01*
X185375157Y-45497645D01*
X185365148Y-45287541D01*
X185315558Y-45083129D01*
X185228179Y-44891795D01*
X185199515Y-44851542D01*
X185102743Y-44715644D01*
X185104378Y-44714479D01*
X185079130Y-44659190D01*
X185089074Y-44590032D01*
X185134830Y-44537229D01*
X185201870Y-44517545D01*
X185230811Y-44520970D01*
X185282105Y-44533285D01*
X185540000Y-44553582D01*
X185797895Y-44533285D01*
X186049440Y-44472895D01*
X186288441Y-44373897D01*
X186509012Y-44238731D01*
X186705724Y-44070724D01*
X186873731Y-43874012D01*
X187008897Y-43653441D01*
X187107895Y-43414440D01*
X187168285Y-43162895D01*
X187188582Y-42905000D01*
X187168285Y-42647105D01*
X187107895Y-42395560D01*
X187088676Y-42349162D01*
X187081208Y-42279698D01*
X187112482Y-42217218D01*
X187115529Y-42214060D01*
X187193788Y-42135801D01*
X187206042Y-42125986D01*
X187205859Y-42125764D01*
X187211866Y-42120792D01*
X187211877Y-42120786D01*
X187246883Y-42083508D01*
X187259227Y-42070364D01*
X187269671Y-42059918D01*
X187280120Y-42049471D01*
X187284379Y-42043978D01*
X187288152Y-42039561D01*
X187320062Y-42005582D01*
X187329713Y-41988024D01*
X187340396Y-41971761D01*
X187352673Y-41955936D01*
X187352676Y-41955927D01*
X187356644Y-41949221D01*
X187358063Y-41950060D01*
X187396815Y-41903481D01*
X187418482Y-41891870D01*
X187558437Y-41833899D01*
X187558438Y-41833898D01*
X187558441Y-41833897D01*
X187779012Y-41698731D01*
X187975724Y-41530724D01*
X188143731Y-41334012D01*
X188278897Y-41113441D01*
X188377895Y-40874440D01*
X188438285Y-40622895D01*
X188458582Y-40365000D01*
X190241920Y-40365000D01*
X190262211Y-40622820D01*
X190322582Y-40874285D01*
X190421549Y-41113213D01*
X190556673Y-41333714D01*
X190556676Y-41333719D01*
X190561767Y-41339679D01*
X191213337Y-40688109D01*
X191236670Y-40742200D01*
X191341269Y-40882701D01*
X191475450Y-40995293D01*
X191567187Y-41041365D01*
X190915319Y-41693232D01*
X190921283Y-41698325D01*
X191141786Y-41833450D01*
X191380715Y-41932417D01*
X191606790Y-41986692D01*
X191667383Y-42021482D01*
X191699547Y-42083508D01*
X191693071Y-42153077D01*
X191692405Y-42154718D01*
X191592583Y-42395710D01*
X191592583Y-42395712D01*
X191532211Y-42647179D01*
X191511920Y-42905000D01*
X191532211Y-43162820D01*
X191592582Y-43414285D01*
X191691549Y-43653213D01*
X191826673Y-43873714D01*
X191826676Y-43873719D01*
X191831767Y-43879679D01*
X192483337Y-43228108D01*
X192506670Y-43282200D01*
X192611269Y-43422701D01*
X192745450Y-43535293D01*
X192837187Y-43581365D01*
X192185319Y-44233232D01*
X192191283Y-44238325D01*
X192411786Y-44373450D01*
X192650714Y-44472417D01*
X192902179Y-44532788D01*
X193160000Y-44553079D01*
X193417819Y-44532788D01*
X193478117Y-44518312D01*
X193547899Y-44521803D01*
X193604717Y-44562466D01*
X193630530Y-44627393D01*
X193617144Y-44695968D01*
X193600777Y-44720088D01*
X193528753Y-44803208D01*
X193528740Y-44803225D01*
X193423574Y-44985379D01*
X193354779Y-45184148D01*
X193354778Y-45184153D01*
X193354778Y-45184154D01*
X193324843Y-45392355D01*
X193334852Y-45602459D01*
X193384442Y-45806871D01*
X193401693Y-45844645D01*
X193471820Y-45998204D01*
X193471824Y-45998210D01*
X193593826Y-46169539D01*
X193593831Y-46169544D01*
X193746063Y-46314697D01*
X193923014Y-46428416D01*
X194118288Y-46506593D01*
X194268839Y-46535609D01*
X194324828Y-46546400D01*
X194324829Y-46546400D01*
X194482461Y-46546400D01*
X194482468Y-46546400D01*
X194639389Y-46531416D01*
X194841211Y-46472156D01*
X195028170Y-46375771D01*
X195193510Y-46245747D01*
X195331255Y-46086781D01*
X195436426Y-45904619D01*
X195505222Y-45705846D01*
X195535157Y-45497645D01*
X195525148Y-45287541D01*
X195475558Y-45083129D01*
X195388179Y-44891795D01*
X195359515Y-44851542D01*
X195266173Y-44720460D01*
X195266167Y-44720454D01*
X195113939Y-44575305D01*
X195113937Y-44575303D01*
X194936986Y-44461584D01*
X194936984Y-44461583D01*
X194741721Y-44383410D01*
X194741714Y-44383407D01*
X194741712Y-44383407D01*
X194741709Y-44383406D01*
X194741708Y-44383406D01*
X194535172Y-44343600D01*
X194535171Y-44343600D01*
X194377532Y-44343600D01*
X194270671Y-44353803D01*
X194202065Y-44340580D01*
X194151499Y-44292365D01*
X194137616Y-44236169D01*
X193485399Y-43583952D01*
X193498575Y-43579157D01*
X193644920Y-43482905D01*
X193765123Y-43355497D01*
X193837935Y-43229382D01*
X194488231Y-43879678D01*
X194488232Y-43879678D01*
X194493319Y-43873723D01*
X194493326Y-43873713D01*
X194628450Y-43653213D01*
X194727417Y-43414285D01*
X194787788Y-43162820D01*
X194808079Y-42905000D01*
X194787788Y-42647179D01*
X194727417Y-42395714D01*
X194628450Y-42156786D01*
X194493325Y-41936283D01*
X194488232Y-41930319D01*
X193836662Y-42581889D01*
X193813330Y-42527800D01*
X193708731Y-42387299D01*
X193574550Y-42274707D01*
X193482811Y-42228634D01*
X194134679Y-41576767D01*
X194134679Y-41576766D01*
X194128719Y-41571676D01*
X194128714Y-41571673D01*
X193908213Y-41436549D01*
X193669285Y-41337582D01*
X193443208Y-41283307D01*
X193382616Y-41248516D01*
X193350452Y-41186490D01*
X193356928Y-41116921D01*
X193357594Y-41115280D01*
X193457417Y-40874285D01*
X193517788Y-40622820D01*
X193538079Y-40365000D01*
X193517788Y-40107179D01*
X193457417Y-39855714D01*
X193358450Y-39616786D01*
X193223325Y-39396283D01*
X193218232Y-39390319D01*
X192566662Y-40041889D01*
X192543330Y-39987800D01*
X192438731Y-39847299D01*
X192304550Y-39734707D01*
X192212812Y-39688634D01*
X192864679Y-39036767D01*
X192864679Y-39036766D01*
X192858719Y-39031676D01*
X192858714Y-39031673D01*
X192638213Y-38896549D01*
X192399285Y-38797582D01*
X192147820Y-38737211D01*
X191890000Y-38716920D01*
X191632179Y-38737211D01*
X191380714Y-38797582D01*
X191141786Y-38896549D01*
X190921289Y-39031670D01*
X190921273Y-39031682D01*
X190915320Y-39036766D01*
X190915320Y-39036767D01*
X191564600Y-39686047D01*
X191551425Y-39690843D01*
X191405080Y-39787095D01*
X191284877Y-39914503D01*
X191212064Y-40040617D01*
X190561767Y-39390320D01*
X190561766Y-39390320D01*
X190556682Y-39396273D01*
X190556670Y-39396289D01*
X190421549Y-39616786D01*
X190322582Y-39855714D01*
X190262211Y-40107179D01*
X190241920Y-40365000D01*
X188458582Y-40365000D01*
X188438285Y-40107105D01*
X188377895Y-39855560D01*
X188302703Y-39674032D01*
X188278897Y-39616558D01*
X188180102Y-39455341D01*
X188143731Y-39395988D01*
X188143730Y-39395987D01*
X188143729Y-39395985D01*
X188082009Y-39323721D01*
X187975724Y-39199276D01*
X187862999Y-39103000D01*
X187779014Y-39031270D01*
X187779009Y-39031267D01*
X187558441Y-38896102D01*
X187354441Y-38811603D01*
X187319440Y-38797105D01*
X187319436Y-38797104D01*
X187319430Y-38797102D01*
X187067898Y-38736715D01*
X186810000Y-38716418D01*
X186552101Y-38736715D01*
X186300560Y-38797104D01*
X186254164Y-38816322D01*
X186184695Y-38823789D01*
X186122216Y-38792514D01*
X186119032Y-38789441D01*
X184770803Y-37441212D01*
X184760980Y-37428950D01*
X184760759Y-37429134D01*
X184755786Y-37423123D01*
X184734956Y-37403562D01*
X184725723Y-37394891D01*
X184690329Y-37334652D01*
X184693121Y-37264838D01*
X184733215Y-37207617D01*
X184797880Y-37181155D01*
X184810607Y-37180500D01*
X201739548Y-37180500D01*
X201806587Y-37200185D01*
X201827229Y-37216819D01*
X204284442Y-39674032D01*
X204317927Y-39735355D01*
X204312943Y-39805047D01*
X204311322Y-39809165D01*
X204292108Y-39855552D01*
X204292102Y-39855569D01*
X204231715Y-40107101D01*
X204211418Y-40365000D01*
X204231715Y-40622898D01*
X204292102Y-40874430D01*
X204292106Y-40874442D01*
X204391719Y-41114930D01*
X204399188Y-41184400D01*
X204367913Y-41246879D01*
X204307824Y-41282531D01*
X204306105Y-41282957D01*
X204080569Y-41337102D01*
X204080557Y-41337106D01*
X203841558Y-41436102D01*
X203620990Y-41571267D01*
X203620985Y-41571270D01*
X203424276Y-41739276D01*
X203256270Y-41935985D01*
X203256267Y-41935990D01*
X203121102Y-42156558D01*
X203022106Y-42395557D01*
X203022102Y-42395569D01*
X202961715Y-42647101D01*
X202941418Y-42905000D01*
X202961715Y-43162898D01*
X203022102Y-43414430D01*
X203022106Y-43414442D01*
X203121102Y-43653441D01*
X203256267Y-43874009D01*
X203256270Y-43874014D01*
X203262423Y-43881218D01*
X203424276Y-44070724D01*
X203448979Y-44091822D01*
X203488188Y-44125310D01*
X203526381Y-44183817D01*
X203526879Y-44253685D01*
X203489525Y-44312731D01*
X203426178Y-44342209D01*
X203407656Y-44343600D01*
X203267532Y-44343600D01*
X203110611Y-44358584D01*
X203110607Y-44358585D01*
X202908791Y-44417843D01*
X202721831Y-44514228D01*
X202556490Y-44644252D01*
X202556489Y-44644253D01*
X202418749Y-44803214D01*
X202418740Y-44803225D01*
X202313574Y-44985379D01*
X202244779Y-45184148D01*
X202244778Y-45184153D01*
X202244778Y-45184154D01*
X202214843Y-45392355D01*
X202224852Y-45602459D01*
X202274442Y-45806871D01*
X202291693Y-45844645D01*
X202361820Y-45998204D01*
X202361824Y-45998210D01*
X202483826Y-46169539D01*
X202483831Y-46169544D01*
X202636063Y-46314697D01*
X202813014Y-46428416D01*
X203008288Y-46506593D01*
X203158839Y-46535609D01*
X203214828Y-46546400D01*
X203214829Y-46546400D01*
X203372461Y-46546400D01*
X203372468Y-46546400D01*
X203529389Y-46531416D01*
X203731211Y-46472156D01*
X203918170Y-46375771D01*
X204083510Y-46245747D01*
X204221255Y-46086781D01*
X204326426Y-45904619D01*
X204395222Y-45705846D01*
X204421919Y-45520167D01*
X206151833Y-45520167D01*
X206181910Y-45819142D01*
X206181911Y-45819149D01*
X206251568Y-46111441D01*
X206251571Y-46111453D01*
X206359566Y-46391853D01*
X206359573Y-46391868D01*
X206503979Y-46655375D01*
X206503983Y-46655381D01*
X206595296Y-46779312D01*
X206682223Y-46897290D01*
X206891121Y-47113289D01*
X207126946Y-47299518D01*
X207385487Y-47452652D01*
X207662133Y-47569960D01*
X207662136Y-47569960D01*
X207662139Y-47569962D01*
X207807039Y-47609654D01*
X207951946Y-47649348D01*
X208249755Y-47689400D01*
X208249760Y-47689400D01*
X208475041Y-47689400D01*
X208638513Y-47678456D01*
X208699819Y-47674352D01*
X208994287Y-47614499D01*
X209278151Y-47515931D01*
X209546343Y-47380407D01*
X209794080Y-47210346D01*
X210016939Y-47008782D01*
X210210943Y-46779312D01*
X210372631Y-46526032D01*
X210499118Y-46253460D01*
X210588146Y-45966462D01*
X210638126Y-45670158D01*
X210648167Y-45369836D01*
X210618089Y-45070855D01*
X210548430Y-44778551D01*
X210440431Y-44498140D01*
X210296021Y-44234625D01*
X210280001Y-44212883D01*
X210212904Y-44121818D01*
X210117777Y-43992710D01*
X209908879Y-43776711D01*
X209908872Y-43776705D01*
X209673055Y-43590483D01*
X209673056Y-43590483D01*
X209673054Y-43590482D01*
X209414513Y-43437348D01*
X209137867Y-43320040D01*
X209137860Y-43320037D01*
X208848059Y-43240653D01*
X208848056Y-43240652D01*
X208848054Y-43240652D01*
X208550245Y-43200600D01*
X208324967Y-43200600D01*
X208324959Y-43200600D01*
X208100183Y-43215647D01*
X208100174Y-43215649D01*
X207805710Y-43275501D01*
X207521847Y-43374069D01*
X207521844Y-43374071D01*
X207253662Y-43509589D01*
X207005918Y-43679655D01*
X206783062Y-43881216D01*
X206589058Y-44110686D01*
X206589056Y-44110688D01*
X206427366Y-44363972D01*
X206300886Y-44636531D01*
X206300882Y-44636540D01*
X206293856Y-44659190D01*
X206211854Y-44923535D01*
X206161874Y-45219842D01*
X206151833Y-45520167D01*
X204421919Y-45520167D01*
X204425157Y-45497645D01*
X204415148Y-45287541D01*
X204365558Y-45083129D01*
X204278179Y-44891795D01*
X204249515Y-44851542D01*
X204152743Y-44715644D01*
X204154378Y-44714479D01*
X204129130Y-44659190D01*
X204139074Y-44590032D01*
X204184830Y-44537229D01*
X204251870Y-44517545D01*
X204280811Y-44520970D01*
X204332105Y-44533285D01*
X204590000Y-44553582D01*
X204847895Y-44533285D01*
X205099440Y-44472895D01*
X205338441Y-44373897D01*
X205559012Y-44238731D01*
X205755724Y-44070724D01*
X205923731Y-43874012D01*
X206058897Y-43653441D01*
X206157895Y-43414440D01*
X206218285Y-43162895D01*
X206238582Y-42905000D01*
X206218285Y-42647105D01*
X206157895Y-42395560D01*
X206138676Y-42349162D01*
X206131208Y-42279698D01*
X206162482Y-42217218D01*
X206165529Y-42214060D01*
X206243788Y-42135801D01*
X206256042Y-42125986D01*
X206255859Y-42125764D01*
X206261866Y-42120792D01*
X206261877Y-42120786D01*
X206296883Y-42083508D01*
X206309227Y-42070364D01*
X206319671Y-42059918D01*
X206330120Y-42049471D01*
X206334379Y-42043978D01*
X206338152Y-42039561D01*
X206370062Y-42005582D01*
X206379713Y-41988024D01*
X206390396Y-41971761D01*
X206402673Y-41955936D01*
X206402676Y-41955927D01*
X206406644Y-41949221D01*
X206408063Y-41950060D01*
X206446815Y-41903481D01*
X206468482Y-41891870D01*
X206608437Y-41833899D01*
X206608438Y-41833898D01*
X206608441Y-41833897D01*
X206829012Y-41698731D01*
X207025724Y-41530724D01*
X207193731Y-41334012D01*
X207328897Y-41113441D01*
X207427895Y-40874440D01*
X207488285Y-40622895D01*
X207508582Y-40365000D01*
X209291920Y-40365000D01*
X209312211Y-40622820D01*
X209372582Y-40874285D01*
X209471549Y-41113213D01*
X209606673Y-41333714D01*
X209606676Y-41333719D01*
X209611767Y-41339679D01*
X210263337Y-40688109D01*
X210286670Y-40742200D01*
X210391269Y-40882701D01*
X210525450Y-40995293D01*
X210617187Y-41041365D01*
X209965319Y-41693232D01*
X209971283Y-41698325D01*
X210191786Y-41833450D01*
X210430715Y-41932417D01*
X210656790Y-41986692D01*
X210717383Y-42021482D01*
X210749547Y-42083508D01*
X210743071Y-42153077D01*
X210742405Y-42154718D01*
X210642583Y-42395710D01*
X210642583Y-42395712D01*
X210582211Y-42647179D01*
X210561920Y-42905000D01*
X210582211Y-43162820D01*
X210642582Y-43414285D01*
X210741549Y-43653213D01*
X210876673Y-43873714D01*
X210876676Y-43873719D01*
X210881767Y-43879679D01*
X211533337Y-43228108D01*
X211556670Y-43282200D01*
X211661269Y-43422701D01*
X211795450Y-43535293D01*
X211887187Y-43581365D01*
X211235319Y-44233232D01*
X211241283Y-44238325D01*
X211461786Y-44373450D01*
X211700714Y-44472417D01*
X211952179Y-44532788D01*
X212210000Y-44553079D01*
X212467819Y-44532788D01*
X212528117Y-44518312D01*
X212597899Y-44521803D01*
X212654717Y-44562466D01*
X212680530Y-44627393D01*
X212667144Y-44695968D01*
X212650777Y-44720088D01*
X212578753Y-44803208D01*
X212578740Y-44803225D01*
X212473574Y-44985379D01*
X212404779Y-45184148D01*
X212404778Y-45184153D01*
X212404778Y-45184154D01*
X212374843Y-45392355D01*
X212384852Y-45602459D01*
X212434442Y-45806871D01*
X212451693Y-45844645D01*
X212521820Y-45998204D01*
X212521824Y-45998210D01*
X212643826Y-46169539D01*
X212643831Y-46169544D01*
X212796063Y-46314697D01*
X212973014Y-46428416D01*
X213168288Y-46506593D01*
X213318839Y-46535609D01*
X213374828Y-46546400D01*
X213374829Y-46546400D01*
X213532461Y-46546400D01*
X213532468Y-46546400D01*
X213689389Y-46531416D01*
X213891211Y-46472156D01*
X214078170Y-46375771D01*
X214243510Y-46245747D01*
X214381255Y-46086781D01*
X214486426Y-45904619D01*
X214555222Y-45705846D01*
X214585157Y-45497645D01*
X214575148Y-45287541D01*
X214525558Y-45083129D01*
X214438179Y-44891795D01*
X214409515Y-44851542D01*
X214316173Y-44720460D01*
X214316167Y-44720454D01*
X214163939Y-44575305D01*
X214163937Y-44575303D01*
X213986986Y-44461584D01*
X213986984Y-44461583D01*
X213791721Y-44383410D01*
X213791714Y-44383407D01*
X213791712Y-44383407D01*
X213791709Y-44383406D01*
X213791708Y-44383406D01*
X213585172Y-44343600D01*
X213585171Y-44343600D01*
X213427532Y-44343600D01*
X213320671Y-44353803D01*
X213252065Y-44340580D01*
X213201499Y-44292365D01*
X213187616Y-44236169D01*
X212535399Y-43583952D01*
X212548575Y-43579157D01*
X212694920Y-43482905D01*
X212815123Y-43355497D01*
X212887935Y-43229382D01*
X213538231Y-43879678D01*
X213538232Y-43879678D01*
X213543319Y-43873723D01*
X213543326Y-43873713D01*
X213678450Y-43653213D01*
X213777417Y-43414285D01*
X213837788Y-43162820D01*
X213858079Y-42905000D01*
X213837788Y-42647179D01*
X213777417Y-42395714D01*
X213678450Y-42156786D01*
X213543325Y-41936283D01*
X213538232Y-41930319D01*
X212886662Y-42581889D01*
X212863330Y-42527800D01*
X212758731Y-42387299D01*
X212624550Y-42274707D01*
X212532811Y-42228634D01*
X213184679Y-41576767D01*
X213184679Y-41576766D01*
X213178719Y-41571676D01*
X213178714Y-41571673D01*
X212958213Y-41436549D01*
X212719285Y-41337582D01*
X212493208Y-41283307D01*
X212432616Y-41248516D01*
X212400452Y-41186490D01*
X212406928Y-41116921D01*
X212407594Y-41115280D01*
X212507417Y-40874285D01*
X212567788Y-40622820D01*
X212588079Y-40365000D01*
X212567788Y-40107179D01*
X212507417Y-39855714D01*
X212408450Y-39616786D01*
X212273325Y-39396283D01*
X212268232Y-39390319D01*
X211616662Y-40041889D01*
X211593330Y-39987800D01*
X211488731Y-39847299D01*
X211354550Y-39734707D01*
X211262812Y-39688634D01*
X211914679Y-39036767D01*
X211914679Y-39036766D01*
X211908719Y-39031676D01*
X211908714Y-39031673D01*
X211688213Y-38896549D01*
X211449285Y-38797582D01*
X211197820Y-38737211D01*
X210940000Y-38716920D01*
X210682179Y-38737211D01*
X210430714Y-38797582D01*
X210191786Y-38896549D01*
X209971289Y-39031670D01*
X209971273Y-39031682D01*
X209965320Y-39036766D01*
X209965320Y-39036767D01*
X210614600Y-39686047D01*
X210601425Y-39690843D01*
X210455080Y-39787095D01*
X210334877Y-39914503D01*
X210262064Y-40040617D01*
X209611767Y-39390320D01*
X209611766Y-39390320D01*
X209606682Y-39396273D01*
X209606670Y-39396289D01*
X209471549Y-39616786D01*
X209372582Y-39855714D01*
X209312211Y-40107179D01*
X209291920Y-40365000D01*
X207508582Y-40365000D01*
X207488285Y-40107105D01*
X207427895Y-39855560D01*
X207352703Y-39674032D01*
X207328897Y-39616558D01*
X207230102Y-39455341D01*
X207193731Y-39395988D01*
X207193730Y-39395987D01*
X207193729Y-39395985D01*
X207132009Y-39323721D01*
X207025724Y-39199276D01*
X206912999Y-39103000D01*
X206829014Y-39031270D01*
X206829009Y-39031267D01*
X206608441Y-38896102D01*
X206404441Y-38811603D01*
X206369440Y-38797105D01*
X206369436Y-38797104D01*
X206369430Y-38797102D01*
X206117898Y-38736715D01*
X205860000Y-38716418D01*
X205602101Y-38736715D01*
X205350560Y-38797104D01*
X205304164Y-38816322D01*
X205234695Y-38823789D01*
X205172216Y-38792514D01*
X205169032Y-38789441D01*
X202550803Y-36171212D01*
X202540980Y-36158950D01*
X202540759Y-36159134D01*
X202535786Y-36153123D01*
X202497828Y-36117478D01*
X202485364Y-36105773D01*
X202474919Y-36095328D01*
X202464475Y-36084883D01*
X202458986Y-36080625D01*
X202454561Y-36076847D01*
X202420582Y-36044938D01*
X202420580Y-36044936D01*
X202420577Y-36044935D01*
X202403029Y-36035288D01*
X202386763Y-36024604D01*
X202370933Y-36012325D01*
X202328168Y-35993818D01*
X202322922Y-35991248D01*
X202282093Y-35968803D01*
X202282092Y-35968802D01*
X202262693Y-35963822D01*
X202244281Y-35957518D01*
X202225898Y-35949562D01*
X202225892Y-35949560D01*
X202179874Y-35942272D01*
X202174152Y-35941087D01*
X202129021Y-35929500D01*
X202129019Y-35929500D01*
X202108984Y-35929500D01*
X202089586Y-35927973D01*
X202082162Y-35926797D01*
X202069805Y-35924840D01*
X202069804Y-35924840D01*
X202023416Y-35929225D01*
X202017578Y-35929500D01*
X141635178Y-35929500D01*
X141591608Y-35921593D01*
X141530798Y-35898771D01*
X141408023Y-35852692D01*
X141186550Y-35812500D01*
X141186547Y-35812500D01*
X140017845Y-35812500D01*
X139979399Y-35815960D01*
X139849813Y-35827622D01*
X139849807Y-35827623D01*
X139632839Y-35887503D01*
X139632826Y-35887508D01*
X139430033Y-35985167D01*
X139430025Y-35985171D01*
X139247927Y-36117473D01*
X139247925Y-36117474D01*
X139092366Y-36280176D01*
X138968363Y-36468033D01*
X138879899Y-36675004D01*
X138879895Y-36675017D01*
X138829810Y-36894457D01*
X138829808Y-36894468D01*
X138824769Y-37006674D01*
X138819710Y-37119330D01*
X138849925Y-37342387D01*
X138849926Y-37342390D01*
X138919483Y-37556465D01*
X139026146Y-37754678D01*
X139026148Y-37754681D01*
X139166489Y-37930663D01*
X139166491Y-37930664D01*
X139166492Y-37930666D01*
X139336004Y-38078765D01*
X139529236Y-38194215D01*
X139588102Y-38216307D01*
X139643949Y-38258292D01*
X139668232Y-38323806D01*
X139653241Y-38392049D01*
X139603735Y-38441353D01*
X139598331Y-38444120D01*
X139430033Y-38525167D01*
X139430025Y-38525171D01*
X139247927Y-38657473D01*
X139247925Y-38657474D01*
X139092366Y-38820176D01*
X138968363Y-39008033D01*
X138879899Y-39215004D01*
X138879895Y-39215017D01*
X138829810Y-39434457D01*
X138829808Y-39434468D01*
X138820985Y-39630934D01*
X138819710Y-39659330D01*
X138849925Y-39882387D01*
X138849926Y-39882390D01*
X138919483Y-40096465D01*
X139026146Y-40294678D01*
X139026148Y-40294681D01*
X139166489Y-40470663D01*
X139166491Y-40470664D01*
X139166492Y-40470666D01*
X139336004Y-40618765D01*
X139529236Y-40734215D01*
X139588102Y-40756307D01*
X139643949Y-40798292D01*
X139668232Y-40863806D01*
X139653241Y-40932049D01*
X139603735Y-40981353D01*
X139598331Y-40984120D01*
X139430033Y-41065167D01*
X139430025Y-41065171D01*
X139247927Y-41197473D01*
X139247925Y-41197474D01*
X139092366Y-41360176D01*
X138968363Y-41548033D01*
X138879899Y-41755004D01*
X138879895Y-41755017D01*
X138829810Y-41974457D01*
X138829808Y-41974468D01*
X138819855Y-42196095D01*
X138819710Y-42199330D01*
X138849925Y-42422387D01*
X138849926Y-42422390D01*
X138919483Y-42636465D01*
X139026146Y-42834678D01*
X139026148Y-42834681D01*
X139166489Y-43010663D01*
X139166491Y-43010664D01*
X139166492Y-43010666D01*
X139336004Y-43158765D01*
X139529236Y-43274215D01*
X139588102Y-43296307D01*
X139643949Y-43338292D01*
X139668232Y-43403806D01*
X139653241Y-43472049D01*
X139603735Y-43521353D01*
X139598331Y-43524120D01*
X139430033Y-43605167D01*
X139430025Y-43605171D01*
X139247927Y-43737473D01*
X139247925Y-43737474D01*
X139092366Y-43900176D01*
X138968363Y-44088033D01*
X138879899Y-44295004D01*
X138879895Y-44295017D01*
X138829810Y-44514457D01*
X138829808Y-44514468D01*
X138820557Y-44720460D01*
X138819710Y-44739330D01*
X138849925Y-44962387D01*
X138849926Y-44962390D01*
X138919483Y-45176465D01*
X139026146Y-45374678D01*
X139026148Y-45374681D01*
X139166489Y-45550663D01*
X139166491Y-45550664D01*
X139166492Y-45550666D01*
X139336004Y-45698765D01*
X139529236Y-45814215D01*
X139588102Y-45836307D01*
X139643949Y-45878292D01*
X139668232Y-45943806D01*
X139653241Y-46012049D01*
X139603735Y-46061353D01*
X139598331Y-46064120D01*
X139430033Y-46145167D01*
X139430025Y-46145171D01*
X139247927Y-46277473D01*
X139247925Y-46277474D01*
X139092366Y-46440176D01*
X138968363Y-46628033D01*
X138879899Y-46835004D01*
X138879895Y-46835017D01*
X138829810Y-47054457D01*
X138829808Y-47054468D01*
X138824769Y-47166674D01*
X138819710Y-47279330D01*
X138849925Y-47502387D01*
X138849926Y-47502390D01*
X138919483Y-47716465D01*
X139026146Y-47914678D01*
X139026148Y-47914681D01*
X139166489Y-48090663D01*
X139166491Y-48090664D01*
X139166492Y-48090666D01*
X139336004Y-48238765D01*
X139529236Y-48354215D01*
X139588102Y-48376307D01*
X139643949Y-48418292D01*
X139668232Y-48483806D01*
X139653241Y-48552049D01*
X139603735Y-48601353D01*
X139598331Y-48604120D01*
X139430033Y-48685167D01*
X139430025Y-48685171D01*
X139247927Y-48817473D01*
X139247925Y-48817474D01*
X139092366Y-48980176D01*
X138968363Y-49168033D01*
X138879899Y-49375004D01*
X138879895Y-49375017D01*
X138829810Y-49594457D01*
X138829808Y-49594468D01*
X138820755Y-49796057D01*
X138819710Y-49819330D01*
X138849925Y-50042387D01*
X138849926Y-50042390D01*
X138919483Y-50256465D01*
X139026146Y-50454678D01*
X139026148Y-50454681D01*
X139166489Y-50630663D01*
X139166491Y-50630664D01*
X139166492Y-50630666D01*
X139336004Y-50778765D01*
X139529236Y-50894215D01*
X139588102Y-50916307D01*
X139643949Y-50958292D01*
X139668232Y-51023806D01*
X139653241Y-51092049D01*
X139603735Y-51141353D01*
X139598331Y-51144120D01*
X139430033Y-51225167D01*
X139430025Y-51225171D01*
X139247927Y-51357473D01*
X139247925Y-51357474D01*
X139092366Y-51520176D01*
X138968363Y-51708033D01*
X138879899Y-51915004D01*
X138879895Y-51915017D01*
X138829810Y-52134457D01*
X138829808Y-52134468D01*
X138824254Y-52258152D01*
X138819710Y-52359330D01*
X138849925Y-52582387D01*
X138849926Y-52582390D01*
X138919483Y-52796465D01*
X139026146Y-52994678D01*
X139026148Y-52994681D01*
X139166489Y-53170663D01*
X139166491Y-53170664D01*
X139166492Y-53170666D01*
X139336004Y-53318765D01*
X139529236Y-53434215D01*
X139588102Y-53456307D01*
X139643949Y-53498292D01*
X139668232Y-53563806D01*
X139653241Y-53632049D01*
X139603735Y-53681353D01*
X139598331Y-53684120D01*
X139430033Y-53765167D01*
X139430025Y-53765171D01*
X139247927Y-53897473D01*
X139247925Y-53897474D01*
X139092366Y-54060176D01*
X138968363Y-54248033D01*
X138879899Y-54455004D01*
X138879895Y-54455017D01*
X138829810Y-54674457D01*
X138829808Y-54674468D01*
X138824769Y-54786674D01*
X138819710Y-54899330D01*
X138849925Y-55122387D01*
X138849926Y-55122390D01*
X138919483Y-55336465D01*
X139026146Y-55534678D01*
X139026148Y-55534681D01*
X139166489Y-55710663D01*
X139166491Y-55710664D01*
X139166492Y-55710666D01*
X139336004Y-55858765D01*
X139529236Y-55974215D01*
X139588102Y-55996307D01*
X139643949Y-56038292D01*
X139668232Y-56103806D01*
X139653241Y-56172049D01*
X139603735Y-56221353D01*
X139598331Y-56224120D01*
X139430033Y-56305167D01*
X139430025Y-56305171D01*
X139247927Y-56437473D01*
X139247925Y-56437474D01*
X139092366Y-56600176D01*
X138968364Y-56788031D01*
X138919106Y-56903276D01*
X138874657Y-56957184D01*
X138808119Y-56978503D01*
X138740618Y-56960465D01*
X138693585Y-56908796D01*
X138693560Y-56908745D01*
X138611829Y-56739027D01*
X138530134Y-56626583D01*
X138479526Y-56556927D01*
X138479525Y-56556925D01*
X138474069Y-56551709D01*
X138316825Y-56401368D01*
X138316823Y-56401366D01*
X138128966Y-56277363D01*
X137921995Y-56188899D01*
X137921982Y-56188895D01*
X137702542Y-56138810D01*
X137702538Y-56138809D01*
X137702537Y-56138809D01*
X137702536Y-56138808D01*
X137702531Y-56138808D01*
X137477674Y-56128710D01*
X137477673Y-56128710D01*
X137477670Y-56128710D01*
X137254613Y-56158925D01*
X137254610Y-56158925D01*
X137254609Y-56158926D01*
X137040534Y-56228483D01*
X136842321Y-56335146D01*
X136842318Y-56335148D01*
X136666336Y-56475489D01*
X136518236Y-56645003D01*
X136402787Y-56838232D01*
X136402782Y-56838241D01*
X136380691Y-56897102D01*
X136338705Y-56952950D01*
X136273191Y-56977232D01*
X136204949Y-56962240D01*
X136155645Y-56912733D01*
X136152899Y-56907373D01*
X136071829Y-56739027D01*
X135990134Y-56626583D01*
X135939526Y-56556927D01*
X135939525Y-56556925D01*
X135934069Y-56551709D01*
X135776825Y-56401368D01*
X135776823Y-56401366D01*
X135588966Y-56277363D01*
X135381995Y-56188899D01*
X135381982Y-56188895D01*
X135162542Y-56138810D01*
X135162538Y-56138809D01*
X135162537Y-56138809D01*
X135162536Y-56138808D01*
X135162531Y-56138808D01*
X134937674Y-56128710D01*
X134937673Y-56128710D01*
X134937670Y-56128710D01*
X134714613Y-56158925D01*
X134714610Y-56158925D01*
X134714609Y-56158926D01*
X134500534Y-56228483D01*
X134302321Y-56335146D01*
X134302318Y-56335148D01*
X134126336Y-56475489D01*
X133978236Y-56645003D01*
X133862787Y-56838232D01*
X133862782Y-56838241D01*
X133840691Y-56897102D01*
X133798705Y-56952950D01*
X133733191Y-56977232D01*
X133664949Y-56962240D01*
X133615645Y-56912733D01*
X133612899Y-56907373D01*
X133531829Y-56739027D01*
X133450134Y-56626583D01*
X133399526Y-56556927D01*
X133399525Y-56556925D01*
X133394069Y-56551709D01*
X133236825Y-56401368D01*
X133236823Y-56401366D01*
X133048966Y-56277363D01*
X132841995Y-56188899D01*
X132841982Y-56188895D01*
X132622542Y-56138810D01*
X132622538Y-56138809D01*
X132622537Y-56138809D01*
X132622536Y-56138808D01*
X132622531Y-56138808D01*
X132397674Y-56128710D01*
X132397673Y-56128710D01*
X132397670Y-56128710D01*
X132174613Y-56158925D01*
X132174610Y-56158925D01*
X132174609Y-56158926D01*
X131960534Y-56228483D01*
X131762321Y-56335146D01*
X131762318Y-56335148D01*
X131586336Y-56475489D01*
X131438236Y-56645003D01*
X131322787Y-56838232D01*
X131322782Y-56838241D01*
X131300691Y-56897102D01*
X131258705Y-56952950D01*
X131193191Y-56977232D01*
X131124949Y-56962240D01*
X131075645Y-56912733D01*
X131072899Y-56907373D01*
X130991829Y-56739027D01*
X130910134Y-56626583D01*
X130859526Y-56556927D01*
X130859525Y-56556925D01*
X130854069Y-56551709D01*
X130696825Y-56401368D01*
X130696823Y-56401366D01*
X130508966Y-56277363D01*
X130301995Y-56188899D01*
X130301982Y-56188895D01*
X130082542Y-56138810D01*
X130082538Y-56138809D01*
X130082537Y-56138809D01*
X130082536Y-56138808D01*
X130082531Y-56138808D01*
X129857674Y-56128710D01*
X129857673Y-56128710D01*
X129857670Y-56128710D01*
X129634613Y-56158925D01*
X129634610Y-56158925D01*
X129634609Y-56158926D01*
X129420534Y-56228483D01*
X129222321Y-56335146D01*
X129222318Y-56335148D01*
X129046336Y-56475489D01*
X128898236Y-56645003D01*
X128782787Y-56838232D01*
X128782782Y-56838241D01*
X128760691Y-56897102D01*
X128718705Y-56952950D01*
X128653191Y-56977232D01*
X128584949Y-56962240D01*
X128535645Y-56912733D01*
X128532899Y-56907373D01*
X128451829Y-56739027D01*
X128370134Y-56626583D01*
X128319526Y-56556927D01*
X128319525Y-56556925D01*
X128314069Y-56551709D01*
X128156825Y-56401368D01*
X128156823Y-56401366D01*
X127968966Y-56277363D01*
X127761995Y-56188899D01*
X127761982Y-56188895D01*
X127542542Y-56138810D01*
X127542538Y-56138809D01*
X127542537Y-56138809D01*
X127542536Y-56138808D01*
X127542531Y-56138808D01*
X127317674Y-56128710D01*
X127317673Y-56128710D01*
X127317670Y-56128710D01*
X127094613Y-56158925D01*
X127094610Y-56158925D01*
X127094609Y-56158926D01*
X126880534Y-56228483D01*
X126682321Y-56335146D01*
X126682318Y-56335148D01*
X126506336Y-56475489D01*
X126358236Y-56645003D01*
X126242787Y-56838232D01*
X126242784Y-56838237D01*
X126222084Y-56893391D01*
X126180098Y-56949238D01*
X126114583Y-56973520D01*
X126046341Y-56958528D01*
X125997038Y-56909021D01*
X125990838Y-56894593D01*
X125990703Y-56894651D01*
X125988517Y-56889536D01*
X125926785Y-56774819D01*
X125881852Y-56691319D01*
X125809167Y-56600175D01*
X125741510Y-56515336D01*
X125695905Y-56475492D01*
X125571996Y-56367235D01*
X125378767Y-56251787D01*
X125378768Y-56251787D01*
X125378766Y-56251786D01*
X125378764Y-56251785D01*
X125319896Y-56229691D01*
X125264050Y-56187706D01*
X125239767Y-56122191D01*
X125254759Y-56053949D01*
X125304265Y-56004645D01*
X125309610Y-56001907D01*
X125477973Y-55920829D01*
X125660078Y-55788522D01*
X125815632Y-55625825D01*
X125939635Y-55437968D01*
X125941326Y-55434013D01*
X126028100Y-55230995D01*
X126028099Y-55230995D01*
X126028103Y-55230988D01*
X126078191Y-55011537D01*
X126088290Y-54786670D01*
X126058075Y-54563613D01*
X125988517Y-54349536D01*
X125881852Y-54151319D01*
X125741508Y-53975334D01*
X125571996Y-53827235D01*
X125378767Y-53711787D01*
X125378768Y-53711787D01*
X125378766Y-53711786D01*
X125378764Y-53711785D01*
X125319896Y-53689691D01*
X125264050Y-53647706D01*
X125239767Y-53582191D01*
X125254759Y-53513949D01*
X125304265Y-53464645D01*
X125309610Y-53461907D01*
X125477973Y-53380829D01*
X125660078Y-53248522D01*
X125815632Y-53085825D01*
X125939635Y-52897968D01*
X126028103Y-52690988D01*
X126078191Y-52471537D01*
X126088290Y-52246670D01*
X126058075Y-52023613D01*
X125988517Y-51809536D01*
X125881852Y-51611319D01*
X125741508Y-51435334D01*
X125571996Y-51287235D01*
X125378767Y-51171787D01*
X125378768Y-51171787D01*
X125378766Y-51171786D01*
X125378764Y-51171785D01*
X125319896Y-51149691D01*
X125264050Y-51107706D01*
X125239767Y-51042191D01*
X125254759Y-50973949D01*
X125304265Y-50924645D01*
X125309610Y-50921907D01*
X125477973Y-50840829D01*
X125660078Y-50708522D01*
X125815632Y-50545825D01*
X125939635Y-50357968D01*
X126028103Y-50150988D01*
X126078191Y-49931537D01*
X126088290Y-49706670D01*
X126058075Y-49483613D01*
X125988517Y-49269536D01*
X125881852Y-49071319D01*
X125741508Y-48895334D01*
X125571996Y-48747235D01*
X125378767Y-48631787D01*
X125378768Y-48631787D01*
X125378766Y-48631786D01*
X125378764Y-48631785D01*
X125319896Y-48609691D01*
X125264050Y-48567706D01*
X125239767Y-48502191D01*
X125254759Y-48433949D01*
X125304265Y-48384645D01*
X125309610Y-48381907D01*
X125477973Y-48300829D01*
X125660078Y-48168522D01*
X125815632Y-48005825D01*
X125939635Y-47817968D01*
X125954977Y-47782075D01*
X126028100Y-47610995D01*
X126028099Y-47610995D01*
X126028103Y-47610988D01*
X126078191Y-47391537D01*
X126088290Y-47166670D01*
X126058075Y-46943613D01*
X125988517Y-46729536D01*
X125881852Y-46531319D01*
X125750777Y-46366957D01*
X125741510Y-46355336D01*
X125694992Y-46314694D01*
X125571996Y-46207235D01*
X125378767Y-46091787D01*
X125378768Y-46091787D01*
X125378766Y-46091786D01*
X125378764Y-46091785D01*
X125319896Y-46069691D01*
X125264050Y-46027706D01*
X125239767Y-45962191D01*
X125254759Y-45893949D01*
X125304265Y-45844645D01*
X125309610Y-45841907D01*
X125477973Y-45760829D01*
X125660078Y-45628522D01*
X125815632Y-45465825D01*
X125939635Y-45277968D01*
X126028103Y-45070988D01*
X126078191Y-44851537D01*
X126088290Y-44626670D01*
X126058075Y-44403613D01*
X125988517Y-44189536D01*
X125985439Y-44183817D01*
X125914958Y-44052840D01*
X125881852Y-43991319D01*
X125794049Y-43881218D01*
X125741510Y-43815336D01*
X125741508Y-43815334D01*
X125571996Y-43667235D01*
X125378767Y-43551787D01*
X125378768Y-43551787D01*
X125378766Y-43551786D01*
X125378764Y-43551785D01*
X125319896Y-43529691D01*
X125264050Y-43487706D01*
X125239767Y-43422191D01*
X125254759Y-43353949D01*
X125304265Y-43304645D01*
X125309610Y-43301907D01*
X125477973Y-43220829D01*
X125660078Y-43088522D01*
X125815632Y-42925825D01*
X125939635Y-42737968D01*
X126028103Y-42530988D01*
X126078191Y-42311537D01*
X126088290Y-42086670D01*
X126058075Y-41863613D01*
X125988517Y-41649536D01*
X125881852Y-41451319D01*
X125792822Y-41339679D01*
X125741510Y-41275336D01*
X125729420Y-41264773D01*
X125571996Y-41127235D01*
X125378766Y-41011786D01*
X125378765Y-41011785D01*
X125319250Y-40989449D01*
X125263402Y-40947463D01*
X125239119Y-40881949D01*
X125254111Y-40813706D01*
X125303617Y-40764402D01*
X125309020Y-40761635D01*
X125477716Y-40680396D01*
X125659741Y-40548148D01*
X125659749Y-40548142D01*
X125815237Y-40385513D01*
X125939191Y-40197733D01*
X126027624Y-39990830D01*
X126027627Y-39990821D01*
X126059084Y-39853000D01*
X125267686Y-39853000D01*
X125293493Y-39812844D01*
X125334000Y-39674889D01*
X125334000Y-39531111D01*
X125293493Y-39393156D01*
X125267686Y-39353000D01*
X126061550Y-39353000D01*
X126061550Y-39352999D01*
X126057584Y-39323721D01*
X125988054Y-39109731D01*
X125881434Y-38911598D01*
X125881432Y-38911595D01*
X125741145Y-38735679D01*
X125571707Y-38587647D01*
X125571699Y-38587640D01*
X125378553Y-38472240D01*
X125378548Y-38472238D01*
X125319275Y-38449992D01*
X125263427Y-38408006D01*
X125239144Y-38342492D01*
X125254136Y-38274250D01*
X125303642Y-38224945D01*
X125308986Y-38222207D01*
X125477973Y-38140829D01*
X125660078Y-38008522D01*
X125815632Y-37845825D01*
X125939635Y-37657968D01*
X126028103Y-37450988D01*
X126078191Y-37231537D01*
X126088290Y-37006670D01*
X126058075Y-36783613D01*
X125988517Y-36569536D01*
X125881852Y-36371319D01*
X125741508Y-36195334D01*
X125571996Y-36047235D01*
X125378764Y-35931785D01*
X125260775Y-35887503D01*
X125168023Y-35852692D01*
X124946550Y-35812500D01*
X124946547Y-35812500D01*
X123777845Y-35812500D01*
X123739399Y-35815960D01*
X123609813Y-35827622D01*
X123609807Y-35827623D01*
X123392839Y-35887503D01*
X123392826Y-35887508D01*
X123190033Y-35985167D01*
X123190025Y-35985171D01*
X123007927Y-36117473D01*
X123007925Y-36117474D01*
X122852366Y-36280176D01*
X122728363Y-36468033D01*
X122639899Y-36675004D01*
X122639895Y-36675017D01*
X122589810Y-36894457D01*
X122589808Y-36894468D01*
X122584769Y-37006674D01*
X122579710Y-37119330D01*
X122609925Y-37342387D01*
X122609926Y-37342390D01*
X122679483Y-37556465D01*
X122786146Y-37754678D01*
X122786148Y-37754681D01*
X122926489Y-37930663D01*
X122926491Y-37930664D01*
X122926492Y-37930666D01*
X123096004Y-38078765D01*
X123289236Y-38194215D01*
X123348748Y-38216550D01*
X123404596Y-38258535D01*
X123428880Y-38324049D01*
X123413889Y-38392292D01*
X123364383Y-38441596D01*
X123358979Y-38444363D01*
X123190291Y-38525598D01*
X123190283Y-38525602D01*
X123008258Y-38657851D01*
X123008250Y-38657857D01*
X122852762Y-38820486D01*
X122728808Y-39008266D01*
X122640375Y-39215169D01*
X122640372Y-39215178D01*
X122608915Y-39352999D01*
X122608916Y-39353000D01*
X124400314Y-39353000D01*
X124374507Y-39393156D01*
X124334000Y-39531111D01*
X124334000Y-39674889D01*
X124374507Y-39812844D01*
X124400314Y-39853000D01*
X122606449Y-39853000D01*
X122610415Y-39882278D01*
X122679945Y-40096268D01*
X122786565Y-40294401D01*
X122786567Y-40294404D01*
X122926854Y-40470320D01*
X123096292Y-40618352D01*
X123096300Y-40618359D01*
X123289446Y-40733759D01*
X123289454Y-40733763D01*
X123348723Y-40756007D01*
X123404571Y-40797992D01*
X123428855Y-40863506D01*
X123413864Y-40931748D01*
X123364358Y-40981053D01*
X123358954Y-40983820D01*
X123190033Y-41065167D01*
X123190025Y-41065171D01*
X123007927Y-41197473D01*
X123007925Y-41197474D01*
X122852366Y-41360176D01*
X122728363Y-41548033D01*
X122639899Y-41755004D01*
X122639895Y-41755017D01*
X122589810Y-41974457D01*
X122589808Y-41974468D01*
X122579855Y-42196095D01*
X122579710Y-42199330D01*
X122609925Y-42422387D01*
X122609926Y-42422390D01*
X122679483Y-42636465D01*
X122786146Y-42834678D01*
X122786148Y-42834681D01*
X122926489Y-43010663D01*
X122926491Y-43010664D01*
X122926492Y-43010666D01*
X123096004Y-43158765D01*
X123289236Y-43274215D01*
X123348102Y-43296307D01*
X123403949Y-43338292D01*
X123428232Y-43403806D01*
X123413241Y-43472049D01*
X123363735Y-43521353D01*
X123358331Y-43524120D01*
X123190033Y-43605167D01*
X123190025Y-43605171D01*
X123007927Y-43737473D01*
X123007925Y-43737474D01*
X122852366Y-43900176D01*
X122728363Y-44088033D01*
X122639899Y-44295004D01*
X122639895Y-44295017D01*
X122589810Y-44514457D01*
X122589808Y-44514468D01*
X122580557Y-44720460D01*
X122579710Y-44739330D01*
X122609925Y-44962387D01*
X122609926Y-44962390D01*
X122679483Y-45176465D01*
X122786146Y-45374678D01*
X122786148Y-45374681D01*
X122926489Y-45550663D01*
X122926491Y-45550664D01*
X122926492Y-45550666D01*
X123096004Y-45698765D01*
X123289236Y-45814215D01*
X123348102Y-45836307D01*
X123403949Y-45878292D01*
X123428232Y-45943806D01*
X123413241Y-46012049D01*
X123363735Y-46061353D01*
X123358331Y-46064120D01*
X123190033Y-46145167D01*
X123190025Y-46145171D01*
X123007927Y-46277473D01*
X123007925Y-46277474D01*
X122852366Y-46440176D01*
X122728363Y-46628033D01*
X122639899Y-46835004D01*
X122639895Y-46835017D01*
X122589810Y-47054457D01*
X122589808Y-47054468D01*
X122584769Y-47166674D01*
X122579710Y-47279330D01*
X122609925Y-47502387D01*
X122609926Y-47502390D01*
X122679483Y-47716465D01*
X122786146Y-47914678D01*
X122786148Y-47914681D01*
X122926489Y-48090663D01*
X122926491Y-48090664D01*
X122926492Y-48090666D01*
X123096004Y-48238765D01*
X123289236Y-48354215D01*
X123348102Y-48376307D01*
X123403949Y-48418292D01*
X123428232Y-48483806D01*
X123413241Y-48552049D01*
X123363735Y-48601353D01*
X123358331Y-48604120D01*
X123190033Y-48685167D01*
X123190025Y-48685171D01*
X123007927Y-48817473D01*
X123007925Y-48817474D01*
X122852366Y-48980176D01*
X122728363Y-49168033D01*
X122639899Y-49375004D01*
X122639895Y-49375017D01*
X122589810Y-49594457D01*
X122589808Y-49594468D01*
X122580755Y-49796057D01*
X122579710Y-49819330D01*
X122609925Y-50042387D01*
X122609926Y-50042390D01*
X122679483Y-50256465D01*
X122786146Y-50454678D01*
X122786148Y-50454681D01*
X122926489Y-50630663D01*
X122926491Y-50630664D01*
X122926492Y-50630666D01*
X123096004Y-50778765D01*
X123289236Y-50894215D01*
X123348102Y-50916307D01*
X123403949Y-50958292D01*
X123428232Y-51023806D01*
X123413241Y-51092049D01*
X123363735Y-51141353D01*
X123358331Y-51144120D01*
X123190033Y-51225167D01*
X123190025Y-51225171D01*
X123007927Y-51357473D01*
X123007925Y-51357474D01*
X122852366Y-51520176D01*
X122728363Y-51708033D01*
X122639899Y-51915004D01*
X122639895Y-51915017D01*
X122589810Y-52134457D01*
X122589808Y-52134468D01*
X122584254Y-52258152D01*
X122579710Y-52359330D01*
X122609925Y-52582387D01*
X122609926Y-52582390D01*
X122679483Y-52796465D01*
X122786146Y-52994678D01*
X122786148Y-52994681D01*
X122926489Y-53170663D01*
X122926491Y-53170664D01*
X122926492Y-53170666D01*
X123096004Y-53318765D01*
X123289236Y-53434215D01*
X123348102Y-53456307D01*
X123403949Y-53498292D01*
X123428232Y-53563806D01*
X123413241Y-53632049D01*
X123363735Y-53681353D01*
X123358331Y-53684120D01*
X123190033Y-53765167D01*
X123190025Y-53765171D01*
X123007927Y-53897473D01*
X123007925Y-53897474D01*
X122852366Y-54060176D01*
X122728363Y-54248033D01*
X122639899Y-54455004D01*
X122639895Y-54455017D01*
X122589810Y-54674457D01*
X122589808Y-54674468D01*
X122584769Y-54786674D01*
X122579710Y-54899330D01*
X122609925Y-55122387D01*
X122609926Y-55122390D01*
X122679483Y-55336465D01*
X122786146Y-55534678D01*
X122786148Y-55534681D01*
X122926489Y-55710663D01*
X122926491Y-55710664D01*
X122926492Y-55710666D01*
X123096004Y-55858765D01*
X123289236Y-55974215D01*
X123348102Y-55996307D01*
X123403949Y-56038292D01*
X123428232Y-56103806D01*
X123413241Y-56172049D01*
X123363735Y-56221353D01*
X123358331Y-56224120D01*
X123190033Y-56305167D01*
X123190025Y-56305171D01*
X123007927Y-56437473D01*
X123007925Y-56437474D01*
X122852366Y-56600176D01*
X122728363Y-56788033D01*
X122639899Y-56995004D01*
X122639895Y-56995017D01*
X122589810Y-57214457D01*
X122589808Y-57214468D01*
X122580609Y-57419309D01*
X122579710Y-57439330D01*
X122609925Y-57662387D01*
X122609926Y-57662390D01*
X122679483Y-57876465D01*
X122786146Y-58074678D01*
X122786148Y-58074681D01*
X122926489Y-58250663D01*
X122926491Y-58250664D01*
X122926492Y-58250666D01*
X123096004Y-58398765D01*
X123289236Y-58514215D01*
X123499976Y-58593307D01*
X123721450Y-58633500D01*
X123721453Y-58633500D01*
X124890148Y-58633500D01*
X124890155Y-58633500D01*
X125058188Y-58618377D01*
X125058192Y-58618376D01*
X125275160Y-58558496D01*
X125275162Y-58558495D01*
X125275170Y-58558493D01*
X125477973Y-58460829D01*
X125660078Y-58328522D01*
X125815632Y-58165825D01*
X125871448Y-58081267D01*
X125896013Y-58044053D01*
X125949373Y-57998948D01*
X126018648Y-57989851D01*
X126081844Y-58019652D01*
X126118896Y-58078888D01*
X126123500Y-58112364D01*
X126123500Y-58439151D01*
X126138622Y-58607186D01*
X126138623Y-58607192D01*
X126198503Y-58824160D01*
X126198508Y-58824173D01*
X126296167Y-59026966D01*
X126296171Y-59026974D01*
X126428473Y-59209072D01*
X126428474Y-59209074D01*
X126428477Y-59209077D01*
X126428478Y-59209078D01*
X126506840Y-59284000D01*
X126591176Y-59364633D01*
X126779033Y-59488636D01*
X126986004Y-59577100D01*
X126986007Y-59577101D01*
X126986012Y-59577103D01*
X127205463Y-59627191D01*
X127430330Y-59637290D01*
X127653387Y-59607075D01*
X127867464Y-59537517D01*
X128065681Y-59430852D01*
X128241666Y-59290508D01*
X128389765Y-59120996D01*
X128505215Y-58927764D01*
X128527307Y-58868897D01*
X128569292Y-58813051D01*
X128634806Y-58788767D01*
X128703048Y-58803758D01*
X128752353Y-58853264D01*
X128755120Y-58858668D01*
X128836167Y-59026966D01*
X128836171Y-59026974D01*
X128968473Y-59209072D01*
X128968474Y-59209074D01*
X128968477Y-59209077D01*
X128968478Y-59209078D01*
X129046840Y-59284000D01*
X129131176Y-59364633D01*
X129319033Y-59488636D01*
X129526004Y-59577100D01*
X129526007Y-59577101D01*
X129526012Y-59577103D01*
X129745463Y-59627191D01*
X129970330Y-59637290D01*
X130193387Y-59607075D01*
X130407464Y-59537517D01*
X130605681Y-59430852D01*
X130781666Y-59290508D01*
X130929765Y-59120996D01*
X131045215Y-58927764D01*
X131067307Y-58868897D01*
X131109292Y-58813051D01*
X131174806Y-58788767D01*
X131243048Y-58803758D01*
X131292353Y-58853264D01*
X131295120Y-58858668D01*
X131376167Y-59026966D01*
X131376171Y-59026974D01*
X131508473Y-59209072D01*
X131508474Y-59209074D01*
X131508477Y-59209077D01*
X131508478Y-59209078D01*
X131586840Y-59284000D01*
X131671176Y-59364633D01*
X131859033Y-59488636D01*
X132066004Y-59577100D01*
X132066007Y-59577101D01*
X132066012Y-59577103D01*
X132285463Y-59627191D01*
X132510330Y-59637290D01*
X132733387Y-59607075D01*
X132947464Y-59537517D01*
X133145681Y-59430852D01*
X133321666Y-59290508D01*
X133469765Y-59120996D01*
X133585215Y-58927764D01*
X133607307Y-58868897D01*
X133649292Y-58813051D01*
X133714806Y-58788767D01*
X133783048Y-58803758D01*
X133832353Y-58853264D01*
X133835120Y-58858668D01*
X133916167Y-59026966D01*
X133916171Y-59026974D01*
X134048473Y-59209072D01*
X134048474Y-59209074D01*
X134048477Y-59209077D01*
X134048478Y-59209078D01*
X134126840Y-59284000D01*
X134211176Y-59364633D01*
X134399033Y-59488636D01*
X134606004Y-59577100D01*
X134606007Y-59577101D01*
X134606012Y-59577103D01*
X134825463Y-59627191D01*
X135050330Y-59637290D01*
X135273387Y-59607075D01*
X135487464Y-59537517D01*
X135685681Y-59430852D01*
X135861666Y-59290508D01*
X136009765Y-59120996D01*
X136125215Y-58927764D01*
X136147307Y-58868897D01*
X136189292Y-58813051D01*
X136254806Y-58788767D01*
X136323048Y-58803758D01*
X136372353Y-58853264D01*
X136375120Y-58858668D01*
X136456167Y-59026966D01*
X136456171Y-59026974D01*
X136588473Y-59209072D01*
X136588474Y-59209074D01*
X136588477Y-59209077D01*
X136588478Y-59209078D01*
X136666840Y-59284000D01*
X136751176Y-59364633D01*
X136939033Y-59488636D01*
X137146004Y-59577100D01*
X137146007Y-59577101D01*
X137146012Y-59577103D01*
X137365463Y-59627191D01*
X137590330Y-59637290D01*
X137813387Y-59607075D01*
X138027464Y-59537517D01*
X138225681Y-59430852D01*
X138401666Y-59290508D01*
X138549765Y-59120996D01*
X138665215Y-58927764D01*
X138744307Y-58717024D01*
X138766589Y-58594241D01*
X138784500Y-58495549D01*
X138784500Y-58117730D01*
X138804185Y-58050691D01*
X138856989Y-58004936D01*
X138926147Y-57994992D01*
X138989703Y-58024017D01*
X139017695Y-58058972D01*
X139026146Y-58074678D01*
X139026148Y-58074681D01*
X139166489Y-58250663D01*
X139166491Y-58250664D01*
X139166492Y-58250666D01*
X139336004Y-58398765D01*
X139529236Y-58514215D01*
X139739976Y-58593307D01*
X139961450Y-58633500D01*
X139961453Y-58633500D01*
X141130148Y-58633500D01*
X141130155Y-58633500D01*
X141298188Y-58618377D01*
X141298192Y-58618376D01*
X141515160Y-58558496D01*
X141515162Y-58558495D01*
X141515170Y-58558493D01*
X141717973Y-58460829D01*
X141900078Y-58328522D01*
X142055632Y-58165825D01*
X142122721Y-58064188D01*
X142176081Y-58019084D01*
X142226208Y-58008500D01*
X142811548Y-58008500D01*
X142878587Y-58028185D01*
X142899229Y-58044819D01*
X143222181Y-58367771D01*
X143255666Y-58429094D01*
X143258500Y-58455452D01*
X143258500Y-61898547D01*
X143238815Y-61965586D01*
X143222181Y-61986228D01*
X142645228Y-62563181D01*
X142583905Y-62596666D01*
X142557547Y-62599500D01*
X122350453Y-62599500D01*
X122283414Y-62579815D01*
X122262772Y-62563181D01*
X114920803Y-55221212D01*
X114910980Y-55208950D01*
X114910759Y-55209134D01*
X114905786Y-55203123D01*
X114864939Y-55164765D01*
X114855364Y-55155773D01*
X114844919Y-55145328D01*
X114834475Y-55134883D01*
X114828986Y-55130625D01*
X114824561Y-55126847D01*
X114790582Y-55094938D01*
X114790580Y-55094936D01*
X114790577Y-55094935D01*
X114773029Y-55085288D01*
X114756763Y-55074604D01*
X114740933Y-55062325D01*
X114698168Y-55043818D01*
X114692922Y-55041248D01*
X114652093Y-55018803D01*
X114652092Y-55018802D01*
X114632693Y-55013822D01*
X114614281Y-55007518D01*
X114595898Y-54999562D01*
X114595892Y-54999560D01*
X114549874Y-54992272D01*
X114544152Y-54991087D01*
X114499021Y-54979500D01*
X114499019Y-54979500D01*
X114478984Y-54979500D01*
X114459586Y-54977973D01*
X114452162Y-54976797D01*
X114439805Y-54974840D01*
X114439804Y-54974840D01*
X114393416Y-54979225D01*
X114387578Y-54979500D01*
X94410452Y-54979500D01*
X94343413Y-54959815D01*
X94322771Y-54943181D01*
X90951819Y-51572228D01*
X90918334Y-51510905D01*
X90915500Y-51484547D01*
X90915500Y-45520167D01*
X91851833Y-45520167D01*
X91881910Y-45819142D01*
X91881911Y-45819149D01*
X91951568Y-46111441D01*
X91951571Y-46111453D01*
X92059566Y-46391853D01*
X92059573Y-46391868D01*
X92203979Y-46655375D01*
X92203983Y-46655381D01*
X92295296Y-46779312D01*
X92382223Y-46897290D01*
X92591121Y-47113289D01*
X92826946Y-47299518D01*
X93085487Y-47452652D01*
X93362133Y-47569960D01*
X93362136Y-47569960D01*
X93362139Y-47569962D01*
X93507039Y-47609654D01*
X93651946Y-47649348D01*
X93949755Y-47689400D01*
X93949760Y-47689400D01*
X94175041Y-47689400D01*
X94338513Y-47678456D01*
X94399819Y-47674352D01*
X94694287Y-47614499D01*
X94978151Y-47515931D01*
X95246343Y-47380407D01*
X95494080Y-47210346D01*
X95716939Y-47008782D01*
X95910943Y-46779312D01*
X96072631Y-46526032D01*
X96199118Y-46253460D01*
X96288146Y-45966462D01*
X96338126Y-45670158D01*
X96348167Y-45369836D01*
X96318089Y-45070855D01*
X96248430Y-44778551D01*
X96140431Y-44498140D01*
X95996021Y-44234625D01*
X95980001Y-44212883D01*
X95912904Y-44121818D01*
X95817777Y-43992710D01*
X95608879Y-43776711D01*
X95608872Y-43776705D01*
X95373055Y-43590483D01*
X95373056Y-43590483D01*
X95373054Y-43590482D01*
X95114513Y-43437348D01*
X94837867Y-43320040D01*
X94837860Y-43320037D01*
X94548059Y-43240653D01*
X94548056Y-43240652D01*
X94548054Y-43240652D01*
X94250245Y-43200600D01*
X94024967Y-43200600D01*
X94024959Y-43200600D01*
X93800183Y-43215647D01*
X93800174Y-43215649D01*
X93505710Y-43275501D01*
X93221847Y-43374069D01*
X93221844Y-43374071D01*
X92953662Y-43509589D01*
X92705918Y-43679655D01*
X92483062Y-43881216D01*
X92289058Y-44110686D01*
X92289056Y-44110688D01*
X92127366Y-44363972D01*
X92000886Y-44636531D01*
X92000882Y-44636540D01*
X91993856Y-44659190D01*
X91911854Y-44923535D01*
X91861874Y-45219842D01*
X91851833Y-45520167D01*
X90915500Y-45520167D01*
X90915500Y-44507675D01*
X90935185Y-44440636D01*
X90987989Y-44394881D01*
X90992048Y-44393114D01*
X91018639Y-44382099D01*
X91038441Y-44373897D01*
X91259012Y-44238731D01*
X91455724Y-44070724D01*
X91623731Y-43874012D01*
X91758897Y-43653441D01*
X91857895Y-43414440D01*
X91918285Y-43162895D01*
X91938582Y-42905000D01*
X91918285Y-42647105D01*
X91857895Y-42395560D01*
X91838676Y-42349162D01*
X91831208Y-42279698D01*
X91862482Y-42217218D01*
X91865529Y-42214060D01*
X91943788Y-42135801D01*
X91956042Y-42125986D01*
X91955859Y-42125764D01*
X91961866Y-42120792D01*
X91961877Y-42120786D01*
X91996883Y-42083508D01*
X92009227Y-42070364D01*
X92019671Y-42059918D01*
X92030120Y-42049471D01*
X92034379Y-42043978D01*
X92038152Y-42039561D01*
X92070062Y-42005582D01*
X92079713Y-41988024D01*
X92090396Y-41971761D01*
X92102673Y-41955936D01*
X92102676Y-41955927D01*
X92106644Y-41949221D01*
X92108063Y-41950060D01*
X92146815Y-41903481D01*
X92168482Y-41891870D01*
X92308437Y-41833899D01*
X92308438Y-41833898D01*
X92308441Y-41833897D01*
X92529012Y-41698731D01*
X92725724Y-41530724D01*
X92893731Y-41334012D01*
X93028897Y-41113441D01*
X93127895Y-40874440D01*
X93188285Y-40622895D01*
X93208582Y-40365000D01*
X94991920Y-40365000D01*
X95012211Y-40622820D01*
X95072582Y-40874285D01*
X95171549Y-41113213D01*
X95306673Y-41333714D01*
X95306676Y-41333719D01*
X95311767Y-41339679D01*
X95963337Y-40688109D01*
X95986670Y-40742200D01*
X96091269Y-40882701D01*
X96225450Y-40995293D01*
X96317187Y-41041365D01*
X95665319Y-41693232D01*
X95671283Y-41698325D01*
X95891786Y-41833450D01*
X96130715Y-41932417D01*
X96356790Y-41986692D01*
X96417383Y-42021482D01*
X96449547Y-42083508D01*
X96443071Y-42153077D01*
X96442405Y-42154718D01*
X96342583Y-42395710D01*
X96342583Y-42395712D01*
X96282211Y-42647179D01*
X96261920Y-42905000D01*
X96282211Y-43162820D01*
X96342582Y-43414285D01*
X96441549Y-43653213D01*
X96576673Y-43873714D01*
X96576676Y-43873719D01*
X96581767Y-43879679D01*
X97233337Y-43228108D01*
X97256670Y-43282200D01*
X97361269Y-43422701D01*
X97495450Y-43535293D01*
X97587187Y-43581365D01*
X96935319Y-44233232D01*
X96941283Y-44238325D01*
X97161786Y-44373450D01*
X97400714Y-44472417D01*
X97652179Y-44532788D01*
X97910000Y-44553079D01*
X98167819Y-44532788D01*
X98228117Y-44518312D01*
X98297899Y-44521803D01*
X98354717Y-44562466D01*
X98380530Y-44627393D01*
X98367144Y-44695968D01*
X98350777Y-44720088D01*
X98278753Y-44803208D01*
X98278740Y-44803225D01*
X98173574Y-44985379D01*
X98104779Y-45184148D01*
X98104778Y-45184153D01*
X98104778Y-45184154D01*
X98074843Y-45392355D01*
X98084852Y-45602459D01*
X98134442Y-45806871D01*
X98151693Y-45844645D01*
X98221820Y-45998204D01*
X98221824Y-45998210D01*
X98343826Y-46169539D01*
X98343831Y-46169544D01*
X98496063Y-46314697D01*
X98673014Y-46428416D01*
X98868288Y-46506593D01*
X99018839Y-46535609D01*
X99074828Y-46546400D01*
X99074829Y-46546400D01*
X99232461Y-46546400D01*
X99232468Y-46546400D01*
X99389389Y-46531416D01*
X99591211Y-46472156D01*
X99778170Y-46375771D01*
X99943510Y-46245747D01*
X100081255Y-46086781D01*
X100186426Y-45904619D01*
X100255222Y-45705846D01*
X100285157Y-45497645D01*
X100275148Y-45287541D01*
X100225558Y-45083129D01*
X100138179Y-44891795D01*
X100109515Y-44851542D01*
X100016173Y-44720460D01*
X100016167Y-44720454D01*
X99863939Y-44575305D01*
X99863937Y-44575303D01*
X99686986Y-44461584D01*
X99686984Y-44461583D01*
X99491721Y-44383410D01*
X99491714Y-44383407D01*
X99491712Y-44383407D01*
X99491709Y-44383406D01*
X99491708Y-44383406D01*
X99285172Y-44343600D01*
X99285171Y-44343600D01*
X99127532Y-44343600D01*
X99020671Y-44353803D01*
X98952065Y-44340580D01*
X98901499Y-44292365D01*
X98887616Y-44236169D01*
X98235399Y-43583952D01*
X98248575Y-43579157D01*
X98394920Y-43482905D01*
X98515123Y-43355497D01*
X98587935Y-43229382D01*
X99238231Y-43879678D01*
X99238232Y-43879678D01*
X99243319Y-43873723D01*
X99243326Y-43873713D01*
X99378450Y-43653213D01*
X99477417Y-43414285D01*
X99537788Y-43162820D01*
X99558079Y-42905000D01*
X99537788Y-42647179D01*
X99477417Y-42395714D01*
X99378450Y-42156786D01*
X99243325Y-41936283D01*
X99238232Y-41930319D01*
X98586662Y-42581889D01*
X98563330Y-42527800D01*
X98458731Y-42387299D01*
X98324550Y-42274707D01*
X98232811Y-42228634D01*
X98884679Y-41576767D01*
X98884679Y-41576766D01*
X98878719Y-41571676D01*
X98878714Y-41571673D01*
X98658213Y-41436549D01*
X98419285Y-41337582D01*
X98193208Y-41283307D01*
X98132616Y-41248516D01*
X98100452Y-41186490D01*
X98106928Y-41116921D01*
X98107594Y-41115280D01*
X98207417Y-40874285D01*
X98267788Y-40622820D01*
X98288079Y-40365000D01*
X98267788Y-40107179D01*
X98207417Y-39855714D01*
X98108450Y-39616786D01*
X97973325Y-39396283D01*
X97968232Y-39390319D01*
X97316662Y-40041889D01*
X97293330Y-39987800D01*
X97188731Y-39847299D01*
X97054550Y-39734707D01*
X96962812Y-39688634D01*
X97488683Y-39162763D01*
X111295787Y-39162763D01*
X111325413Y-39432013D01*
X111325415Y-39432024D01*
X111393926Y-39694082D01*
X111393928Y-39694088D01*
X111499870Y-39943390D01*
X111610637Y-40124888D01*
X111640979Y-40174605D01*
X111640986Y-40174615D01*
X111814253Y-40382819D01*
X111814259Y-40382824D01*
X111843323Y-40408865D01*
X112015998Y-40563582D01*
X112241910Y-40713044D01*
X112487176Y-40828020D01*
X112487183Y-40828022D01*
X112487185Y-40828023D01*
X112746557Y-40906057D01*
X112746564Y-40906058D01*
X112746569Y-40906060D01*
X113014561Y-40945500D01*
X113014566Y-40945500D01*
X113217636Y-40945500D01*
X113269133Y-40941730D01*
X113420156Y-40930677D01*
X113532758Y-40905593D01*
X113684546Y-40871782D01*
X113684548Y-40871781D01*
X113684553Y-40871780D01*
X113937558Y-40775014D01*
X114173777Y-40642441D01*
X114388177Y-40476888D01*
X114576186Y-40281881D01*
X114733799Y-40061579D01*
X114836334Y-39862147D01*
X114857649Y-39820690D01*
X114857651Y-39820684D01*
X114857656Y-39820675D01*
X114945118Y-39564305D01*
X114994319Y-39297933D01*
X115004212Y-39027235D01*
X114974586Y-38757982D01*
X114906072Y-38495912D01*
X114800130Y-38246610D01*
X114659018Y-38015390D01*
X114653302Y-38008522D01*
X114485746Y-37807180D01*
X114485740Y-37807175D01*
X114284002Y-37626418D01*
X114058092Y-37476957D01*
X113981841Y-37441212D01*
X113812824Y-37361980D01*
X113812819Y-37361978D01*
X113812814Y-37361976D01*
X113553442Y-37283942D01*
X113553428Y-37283939D01*
X113423634Y-37264838D01*
X113285439Y-37244500D01*
X113082369Y-37244500D01*
X113082364Y-37244500D01*
X112879844Y-37259323D01*
X112879831Y-37259325D01*
X112615453Y-37318217D01*
X112615446Y-37318220D01*
X112362439Y-37414987D01*
X112126226Y-37547557D01*
X112126224Y-37547558D01*
X112126223Y-37547559D01*
X112063893Y-37595688D01*
X111911822Y-37713112D01*
X111723822Y-37908109D01*
X111723816Y-37908116D01*
X111566202Y-38128419D01*
X111566199Y-38128424D01*
X111442350Y-38369309D01*
X111442343Y-38369327D01*
X111354884Y-38625685D01*
X111354881Y-38625699D01*
X111341351Y-38698950D01*
X111318293Y-38823789D01*
X111305681Y-38892068D01*
X111305680Y-38892075D01*
X111295787Y-39162763D01*
X97488683Y-39162763D01*
X97614679Y-39036767D01*
X97614679Y-39036766D01*
X97608719Y-39031676D01*
X97608714Y-39031673D01*
X97388213Y-38896549D01*
X97149285Y-38797582D01*
X96897820Y-38737211D01*
X96640000Y-38716920D01*
X96382179Y-38737211D01*
X96130714Y-38797582D01*
X95891786Y-38896549D01*
X95671289Y-39031670D01*
X95671273Y-39031682D01*
X95665320Y-39036766D01*
X95665320Y-39036767D01*
X96314600Y-39686047D01*
X96301425Y-39690843D01*
X96155080Y-39787095D01*
X96034877Y-39914503D01*
X95962064Y-40040617D01*
X95311767Y-39390320D01*
X95311766Y-39390320D01*
X95306682Y-39396273D01*
X95306670Y-39396289D01*
X95171549Y-39616786D01*
X95072582Y-39855714D01*
X95012211Y-40107179D01*
X94991920Y-40365000D01*
X93208582Y-40365000D01*
X93188285Y-40107105D01*
X93127895Y-39855560D01*
X93052703Y-39674032D01*
X93028897Y-39616558D01*
X92930102Y-39455341D01*
X92893731Y-39395988D01*
X92893730Y-39395987D01*
X92893729Y-39395985D01*
X92832009Y-39323721D01*
X92725724Y-39199276D01*
X92612999Y-39103000D01*
X92529014Y-39031270D01*
X92529009Y-39031267D01*
X92308441Y-38896102D01*
X92104441Y-38811603D01*
X92069440Y-38797105D01*
X92069436Y-38797104D01*
X92069430Y-38797102D01*
X91817898Y-38736715D01*
X91560000Y-38716418D01*
X91302101Y-38736715D01*
X91050569Y-38797102D01*
X91050557Y-38797106D01*
X90811558Y-38896102D01*
X90590990Y-39031267D01*
X90590985Y-39031270D01*
X90394276Y-39199276D01*
X90226270Y-39395985D01*
X90226267Y-39395990D01*
X90091102Y-39616558D01*
X89992106Y-39855557D01*
X89992102Y-39855569D01*
X89931715Y-40107101D01*
X89911418Y-40365000D01*
X89931715Y-40622898D01*
X89992102Y-40874430D01*
X89992106Y-40874442D01*
X90091719Y-41114930D01*
X90099188Y-41184400D01*
X90067913Y-41246879D01*
X90007824Y-41282531D01*
X90006105Y-41282957D01*
X89780569Y-41337102D01*
X89780557Y-41337106D01*
X89541558Y-41436102D01*
X89320990Y-41571267D01*
X89320985Y-41571270D01*
X89124276Y-41739276D01*
X88956270Y-41935985D01*
X88956267Y-41935990D01*
X88821102Y-42156558D01*
X88722106Y-42395557D01*
X88722102Y-42395569D01*
X88661715Y-42647101D01*
X88641418Y-42905000D01*
X88661715Y-43162898D01*
X88722102Y-43414430D01*
X88722106Y-43414442D01*
X88821102Y-43653441D01*
X88956267Y-43874009D01*
X88956270Y-43874014D01*
X88962423Y-43881218D01*
X89124276Y-44070724D01*
X89148979Y-44091822D01*
X89188188Y-44125310D01*
X89226381Y-44183817D01*
X89226879Y-44253685D01*
X89189525Y-44312731D01*
X89126178Y-44342209D01*
X89107656Y-44343600D01*
X88967532Y-44343600D01*
X88810611Y-44358584D01*
X88810607Y-44358585D01*
X88608791Y-44417843D01*
X88421831Y-44514228D01*
X88256490Y-44644252D01*
X88256489Y-44644253D01*
X88118749Y-44803214D01*
X88118740Y-44803225D01*
X88013574Y-44985379D01*
X87944779Y-45184148D01*
X87944778Y-45184153D01*
X87944778Y-45184154D01*
X87914843Y-45392355D01*
X87924852Y-45602459D01*
X87974442Y-45806871D01*
X87991693Y-45844645D01*
X88061820Y-45998204D01*
X88061824Y-45998210D01*
X88183826Y-46169539D01*
X88183831Y-46169544D01*
X88336063Y-46314697D01*
X88513014Y-46428416D01*
X88708288Y-46506593D01*
X88858839Y-46535609D01*
X88914828Y-46546400D01*
X88914829Y-46546400D01*
X89072461Y-46546400D01*
X89072468Y-46546400D01*
X89229389Y-46531416D01*
X89431211Y-46472156D01*
X89483680Y-46445105D01*
X89552286Y-46431882D01*
X89617151Y-46457850D01*
X89657680Y-46514763D01*
X89664500Y-46555321D01*
X89664500Y-51712255D01*
X89662775Y-51727872D01*
X89663061Y-51727899D01*
X89662326Y-51735665D01*
X89664500Y-51804814D01*
X89664500Y-51834343D01*
X89664501Y-51834360D01*
X89665368Y-51841231D01*
X89665826Y-51847050D01*
X89667290Y-51893624D01*
X89667291Y-51893627D01*
X89672880Y-51912867D01*
X89676824Y-51931911D01*
X89679336Y-51951791D01*
X89696490Y-51995119D01*
X89698382Y-52000647D01*
X89711381Y-52045388D01*
X89721580Y-52062634D01*
X89730138Y-52080103D01*
X89737514Y-52098732D01*
X89764898Y-52136423D01*
X89768106Y-52141307D01*
X89791827Y-52181416D01*
X89791833Y-52181424D01*
X89805990Y-52195580D01*
X89818627Y-52210375D01*
X89830406Y-52226587D01*
X89854682Y-52246670D01*
X89866309Y-52256288D01*
X89870620Y-52260210D01*
X91740829Y-54130419D01*
X93599194Y-55988784D01*
X93609019Y-56001048D01*
X93609240Y-56000866D01*
X93614210Y-56006873D01*
X93644276Y-56035107D01*
X93679671Y-56095348D01*
X93676879Y-56165162D01*
X93636786Y-56222383D01*
X93572121Y-56248845D01*
X93559393Y-56249500D01*
X75360452Y-56249500D01*
X75293413Y-56229815D01*
X75272771Y-56213181D01*
X71901819Y-52842228D01*
X71868334Y-52780905D01*
X71865500Y-52754547D01*
X71865500Y-45520167D01*
X72801833Y-45520167D01*
X72831910Y-45819142D01*
X72831911Y-45819149D01*
X72901568Y-46111441D01*
X72901571Y-46111453D01*
X73009566Y-46391853D01*
X73009573Y-46391868D01*
X73153979Y-46655375D01*
X73153983Y-46655381D01*
X73245296Y-46779312D01*
X73332223Y-46897290D01*
X73541121Y-47113289D01*
X73776946Y-47299518D01*
X74035487Y-47452652D01*
X74312133Y-47569960D01*
X74312136Y-47569960D01*
X74312139Y-47569962D01*
X74457039Y-47609654D01*
X74601946Y-47649348D01*
X74899755Y-47689400D01*
X74899760Y-47689400D01*
X75125041Y-47689400D01*
X75288513Y-47678456D01*
X75349819Y-47674352D01*
X75644287Y-47614499D01*
X75928151Y-47515931D01*
X76196343Y-47380407D01*
X76444080Y-47210346D01*
X76666939Y-47008782D01*
X76860943Y-46779312D01*
X77022631Y-46526032D01*
X77149118Y-46253460D01*
X77238146Y-45966462D01*
X77288126Y-45670158D01*
X77298167Y-45369836D01*
X77268089Y-45070855D01*
X77198430Y-44778551D01*
X77090431Y-44498140D01*
X76946021Y-44234625D01*
X76930001Y-44212883D01*
X76862904Y-44121818D01*
X76767777Y-43992710D01*
X76558879Y-43776711D01*
X76558872Y-43776705D01*
X76323055Y-43590483D01*
X76323056Y-43590483D01*
X76323054Y-43590482D01*
X76064513Y-43437348D01*
X75787867Y-43320040D01*
X75787860Y-43320037D01*
X75498059Y-43240653D01*
X75498056Y-43240652D01*
X75498054Y-43240652D01*
X75200245Y-43200600D01*
X74974967Y-43200600D01*
X74974959Y-43200600D01*
X74750183Y-43215647D01*
X74750174Y-43215649D01*
X74455710Y-43275501D01*
X74171847Y-43374069D01*
X74171844Y-43374071D01*
X73903662Y-43509589D01*
X73655918Y-43679655D01*
X73433062Y-43881216D01*
X73239058Y-44110686D01*
X73239056Y-44110688D01*
X73077366Y-44363972D01*
X72950886Y-44636531D01*
X72950882Y-44636540D01*
X72943856Y-44659190D01*
X72861854Y-44923535D01*
X72811874Y-45219842D01*
X72801833Y-45520167D01*
X71865500Y-45520167D01*
X71865500Y-44507675D01*
X71885185Y-44440636D01*
X71937989Y-44394881D01*
X71942048Y-44393114D01*
X71968639Y-44382099D01*
X71988441Y-44373897D01*
X72209012Y-44238731D01*
X72405724Y-44070724D01*
X72573731Y-43874012D01*
X72708897Y-43653441D01*
X72807895Y-43414440D01*
X72868285Y-43162895D01*
X72888582Y-42905000D01*
X72868285Y-42647105D01*
X72807895Y-42395560D01*
X72788676Y-42349162D01*
X72781208Y-42279698D01*
X72812482Y-42217218D01*
X72815529Y-42214060D01*
X72893788Y-42135801D01*
X72906042Y-42125986D01*
X72905859Y-42125764D01*
X72911866Y-42120792D01*
X72911877Y-42120786D01*
X72946883Y-42083508D01*
X72959227Y-42070364D01*
X72969671Y-42059918D01*
X72980120Y-42049471D01*
X72984379Y-42043978D01*
X72988152Y-42039561D01*
X73020062Y-42005582D01*
X73029713Y-41988024D01*
X73040396Y-41971761D01*
X73052673Y-41955936D01*
X73052676Y-41955927D01*
X73056644Y-41949221D01*
X73058063Y-41950060D01*
X73096815Y-41903481D01*
X73118482Y-41891870D01*
X73258437Y-41833899D01*
X73258438Y-41833898D01*
X73258441Y-41833897D01*
X73479012Y-41698731D01*
X73675724Y-41530724D01*
X73843731Y-41334012D01*
X73978897Y-41113441D01*
X74077895Y-40874440D01*
X74138285Y-40622895D01*
X74158582Y-40365000D01*
X75941920Y-40365000D01*
X75962211Y-40622820D01*
X76022582Y-40874285D01*
X76121549Y-41113213D01*
X76256673Y-41333714D01*
X76256676Y-41333719D01*
X76261767Y-41339679D01*
X76913337Y-40688109D01*
X76936670Y-40742200D01*
X77041269Y-40882701D01*
X77175450Y-40995293D01*
X77267187Y-41041365D01*
X76615319Y-41693232D01*
X76621283Y-41698325D01*
X76841786Y-41833450D01*
X77080715Y-41932417D01*
X77306790Y-41986692D01*
X77367383Y-42021482D01*
X77399547Y-42083508D01*
X77393071Y-42153077D01*
X77392405Y-42154718D01*
X77292583Y-42395710D01*
X77292583Y-42395712D01*
X77232211Y-42647179D01*
X77211920Y-42905000D01*
X77232211Y-43162820D01*
X77292582Y-43414285D01*
X77391549Y-43653213D01*
X77526673Y-43873714D01*
X77526676Y-43873719D01*
X77531767Y-43879679D01*
X78183337Y-43228108D01*
X78206670Y-43282200D01*
X78311269Y-43422701D01*
X78445450Y-43535293D01*
X78537187Y-43581365D01*
X77885319Y-44233232D01*
X77891283Y-44238325D01*
X78111786Y-44373450D01*
X78350714Y-44472417D01*
X78602179Y-44532788D01*
X78860000Y-44553079D01*
X79117819Y-44532788D01*
X79178117Y-44518312D01*
X79247899Y-44521803D01*
X79304717Y-44562466D01*
X79330530Y-44627393D01*
X79317144Y-44695968D01*
X79300777Y-44720088D01*
X79228753Y-44803208D01*
X79228740Y-44803225D01*
X79123574Y-44985379D01*
X79054779Y-45184148D01*
X79054778Y-45184153D01*
X79054778Y-45184154D01*
X79024843Y-45392355D01*
X79034852Y-45602459D01*
X79084442Y-45806871D01*
X79101693Y-45844645D01*
X79171820Y-45998204D01*
X79171824Y-45998210D01*
X79293826Y-46169539D01*
X79293831Y-46169544D01*
X79446063Y-46314697D01*
X79623014Y-46428416D01*
X79818288Y-46506593D01*
X79968839Y-46535609D01*
X80024828Y-46546400D01*
X80024829Y-46546400D01*
X80182461Y-46546400D01*
X80182468Y-46546400D01*
X80339389Y-46531416D01*
X80541211Y-46472156D01*
X80728170Y-46375771D01*
X80893510Y-46245747D01*
X81031255Y-46086781D01*
X81136426Y-45904619D01*
X81205222Y-45705846D01*
X81235157Y-45497645D01*
X81225148Y-45287541D01*
X81175558Y-45083129D01*
X81088179Y-44891795D01*
X81059515Y-44851542D01*
X80966173Y-44720460D01*
X80966167Y-44720454D01*
X80813939Y-44575305D01*
X80813937Y-44575303D01*
X80636986Y-44461584D01*
X80636984Y-44461583D01*
X80441721Y-44383410D01*
X80441714Y-44383407D01*
X80441712Y-44383407D01*
X80441709Y-44383406D01*
X80441708Y-44383406D01*
X80235172Y-44343600D01*
X80235171Y-44343600D01*
X80077532Y-44343600D01*
X79970671Y-44353803D01*
X79902065Y-44340580D01*
X79851499Y-44292365D01*
X79837616Y-44236169D01*
X79185399Y-43583952D01*
X79198575Y-43579157D01*
X79344920Y-43482905D01*
X79465123Y-43355497D01*
X79537935Y-43229382D01*
X80188231Y-43879678D01*
X80188232Y-43879678D01*
X80193319Y-43873723D01*
X80193326Y-43873713D01*
X80328450Y-43653213D01*
X80427417Y-43414285D01*
X80487788Y-43162820D01*
X80508079Y-42905000D01*
X80487788Y-42647179D01*
X80427417Y-42395714D01*
X80328450Y-42156786D01*
X80193325Y-41936283D01*
X80188232Y-41930319D01*
X79536662Y-42581889D01*
X79513330Y-42527800D01*
X79408731Y-42387299D01*
X79274550Y-42274707D01*
X79182811Y-42228634D01*
X79834679Y-41576767D01*
X79834679Y-41576766D01*
X79828719Y-41571676D01*
X79828714Y-41571673D01*
X79608213Y-41436549D01*
X79369285Y-41337582D01*
X79143208Y-41283307D01*
X79082616Y-41248516D01*
X79050452Y-41186490D01*
X79056928Y-41116921D01*
X79057594Y-41115280D01*
X79157417Y-40874285D01*
X79217788Y-40622820D01*
X79238079Y-40365000D01*
X79217788Y-40107179D01*
X79157417Y-39855714D01*
X79058450Y-39616786D01*
X78923325Y-39396283D01*
X78918232Y-39390319D01*
X78266662Y-40041889D01*
X78243330Y-39987800D01*
X78138731Y-39847299D01*
X78004550Y-39734707D01*
X77912812Y-39688634D01*
X78564679Y-39036767D01*
X78564679Y-39036766D01*
X78558719Y-39031676D01*
X78558714Y-39031673D01*
X78338213Y-38896549D01*
X78099285Y-38797582D01*
X77847820Y-38737211D01*
X77590000Y-38716920D01*
X77332179Y-38737211D01*
X77080714Y-38797582D01*
X76841786Y-38896549D01*
X76621289Y-39031670D01*
X76621273Y-39031682D01*
X76615320Y-39036766D01*
X76615320Y-39036767D01*
X77264600Y-39686047D01*
X77251425Y-39690843D01*
X77105080Y-39787095D01*
X76984877Y-39914503D01*
X76912064Y-40040617D01*
X76261767Y-39390320D01*
X76261766Y-39390320D01*
X76256682Y-39396273D01*
X76256670Y-39396289D01*
X76121549Y-39616786D01*
X76022582Y-39855714D01*
X75962211Y-40107179D01*
X75941920Y-40365000D01*
X74158582Y-40365000D01*
X74138285Y-40107105D01*
X74077895Y-39855560D01*
X74002703Y-39674032D01*
X73978897Y-39616558D01*
X73880102Y-39455341D01*
X73843731Y-39395988D01*
X73843730Y-39395987D01*
X73843729Y-39395985D01*
X73782009Y-39323721D01*
X73675724Y-39199276D01*
X73562999Y-39103000D01*
X73479014Y-39031270D01*
X73479009Y-39031267D01*
X73258441Y-38896102D01*
X73054441Y-38811603D01*
X73019440Y-38797105D01*
X73019436Y-38797104D01*
X73019430Y-38797102D01*
X72767898Y-38736715D01*
X72510000Y-38716418D01*
X72252101Y-38736715D01*
X72000569Y-38797102D01*
X72000557Y-38797106D01*
X71761558Y-38896102D01*
X71540990Y-39031267D01*
X71540985Y-39031270D01*
X71344276Y-39199276D01*
X71176270Y-39395985D01*
X71176267Y-39395990D01*
X71041102Y-39616558D01*
X70942106Y-39855557D01*
X70942102Y-39855569D01*
X70881715Y-40107101D01*
X70861418Y-40365000D01*
X70881715Y-40622898D01*
X70942102Y-40874430D01*
X70942106Y-40874442D01*
X71041719Y-41114930D01*
X71049188Y-41184400D01*
X71017913Y-41246879D01*
X70957824Y-41282531D01*
X70956105Y-41282957D01*
X70730569Y-41337102D01*
X70730557Y-41337106D01*
X70491558Y-41436102D01*
X70270990Y-41571267D01*
X70270985Y-41571270D01*
X70074276Y-41739276D01*
X69906270Y-41935985D01*
X69906267Y-41935990D01*
X69771102Y-42156558D01*
X69672106Y-42395557D01*
X69672102Y-42395569D01*
X69611715Y-42647101D01*
X69591418Y-42905000D01*
X69611715Y-43162898D01*
X69672102Y-43414430D01*
X69672106Y-43414442D01*
X69771102Y-43653441D01*
X69906267Y-43874009D01*
X69906270Y-43874014D01*
X69912423Y-43881218D01*
X70074276Y-44070724D01*
X70098979Y-44091822D01*
X70138188Y-44125310D01*
X70176381Y-44183817D01*
X70176879Y-44253685D01*
X70139525Y-44312731D01*
X70076178Y-44342209D01*
X70057656Y-44343600D01*
X69917532Y-44343600D01*
X69760611Y-44358584D01*
X69760607Y-44358585D01*
X69558791Y-44417843D01*
X69371831Y-44514228D01*
X69206490Y-44644252D01*
X69206489Y-44644253D01*
X69068749Y-44803214D01*
X69068740Y-44803225D01*
X68963574Y-44985379D01*
X68894779Y-45184148D01*
X68894778Y-45184153D01*
X68894778Y-45184154D01*
X68864843Y-45392355D01*
X68874852Y-45602459D01*
X68924442Y-45806871D01*
X68941693Y-45844645D01*
X69011820Y-45998204D01*
X69011824Y-45998210D01*
X69133826Y-46169539D01*
X69133831Y-46169544D01*
X69286063Y-46314697D01*
X69463014Y-46428416D01*
X69658288Y-46506593D01*
X69808839Y-46535609D01*
X69864828Y-46546400D01*
X69864829Y-46546400D01*
X70022461Y-46546400D01*
X70022468Y-46546400D01*
X70179389Y-46531416D01*
X70381211Y-46472156D01*
X70433680Y-46445105D01*
X70502286Y-46431882D01*
X70567151Y-46457850D01*
X70607680Y-46514763D01*
X70614500Y-46555321D01*
X70614500Y-52982255D01*
X70612775Y-52997872D01*
X70613061Y-52997899D01*
X70612326Y-53005665D01*
X70614500Y-53074814D01*
X70614500Y-53104343D01*
X70614501Y-53104360D01*
X70615368Y-53111231D01*
X70615826Y-53117050D01*
X70617290Y-53163624D01*
X70617291Y-53163627D01*
X70622880Y-53182867D01*
X70626824Y-53201911D01*
X70629336Y-53221792D01*
X70644987Y-53261323D01*
X70646490Y-53265119D01*
X70648382Y-53270647D01*
X70652825Y-53285940D01*
X70661382Y-53315390D01*
X70671319Y-53332194D01*
X70671580Y-53332634D01*
X70680138Y-53350103D01*
X70687514Y-53368732D01*
X70714898Y-53406423D01*
X70718106Y-53411307D01*
X70741827Y-53451416D01*
X70741833Y-53451424D01*
X70755990Y-53465580D01*
X70768628Y-53480376D01*
X70780405Y-53496586D01*
X70780406Y-53496587D01*
X70816309Y-53526288D01*
X70820620Y-53530210D01*
X72724423Y-55434013D01*
X74549194Y-57258784D01*
X74559019Y-57271048D01*
X74559240Y-57270866D01*
X74564210Y-57276873D01*
X74564213Y-57276876D01*
X74564214Y-57276877D01*
X74585227Y-57296610D01*
X74594276Y-57305107D01*
X74629671Y-57365348D01*
X74626879Y-57435162D01*
X74586786Y-57492383D01*
X74522121Y-57518845D01*
X74509393Y-57519500D01*
X61390452Y-57519500D01*
X61323413Y-57499815D01*
X61302771Y-57483181D01*
X52851819Y-49032228D01*
X52818334Y-48970905D01*
X52815500Y-48944547D01*
X52815500Y-45520167D01*
X53751833Y-45520167D01*
X53781910Y-45819142D01*
X53781911Y-45819149D01*
X53851568Y-46111441D01*
X53851571Y-46111453D01*
X53959566Y-46391853D01*
X53959573Y-46391868D01*
X54103979Y-46655375D01*
X54103983Y-46655381D01*
X54195296Y-46779312D01*
X54282223Y-46897290D01*
X54491121Y-47113289D01*
X54726946Y-47299518D01*
X54985487Y-47452652D01*
X55262133Y-47569960D01*
X55262136Y-47569960D01*
X55262139Y-47569962D01*
X55407039Y-47609654D01*
X55551946Y-47649348D01*
X55849755Y-47689400D01*
X55849760Y-47689400D01*
X56075041Y-47689400D01*
X56238513Y-47678456D01*
X56299819Y-47674352D01*
X56594287Y-47614499D01*
X56878151Y-47515931D01*
X57146343Y-47380407D01*
X57394080Y-47210346D01*
X57616939Y-47008782D01*
X57810943Y-46779312D01*
X57972631Y-46526032D01*
X58099118Y-46253460D01*
X58188146Y-45966462D01*
X58238126Y-45670158D01*
X58248167Y-45369836D01*
X58218089Y-45070855D01*
X58148430Y-44778551D01*
X58040431Y-44498140D01*
X57896021Y-44234625D01*
X57880001Y-44212883D01*
X57812904Y-44121818D01*
X57717777Y-43992710D01*
X57508879Y-43776711D01*
X57508872Y-43776705D01*
X57273055Y-43590483D01*
X57273056Y-43590483D01*
X57273054Y-43590482D01*
X57014513Y-43437348D01*
X56737867Y-43320040D01*
X56737860Y-43320037D01*
X56448059Y-43240653D01*
X56448056Y-43240652D01*
X56448054Y-43240652D01*
X56150245Y-43200600D01*
X55924967Y-43200600D01*
X55924959Y-43200600D01*
X55700183Y-43215647D01*
X55700174Y-43215649D01*
X55405710Y-43275501D01*
X55121847Y-43374069D01*
X55121844Y-43374071D01*
X54853662Y-43509589D01*
X54605918Y-43679655D01*
X54383062Y-43881216D01*
X54189058Y-44110686D01*
X54189056Y-44110688D01*
X54027366Y-44363972D01*
X53900886Y-44636531D01*
X53900882Y-44636540D01*
X53893856Y-44659190D01*
X53811854Y-44923535D01*
X53761874Y-45219842D01*
X53751833Y-45520167D01*
X52815500Y-45520167D01*
X52815500Y-44507675D01*
X52835185Y-44440636D01*
X52887989Y-44394881D01*
X52892048Y-44393114D01*
X52918639Y-44382099D01*
X52938441Y-44373897D01*
X53159012Y-44238731D01*
X53355724Y-44070724D01*
X53523731Y-43874012D01*
X53658897Y-43653441D01*
X53757895Y-43414440D01*
X53818285Y-43162895D01*
X53838582Y-42905000D01*
X53818285Y-42647105D01*
X53757895Y-42395560D01*
X53738677Y-42349165D01*
X53731209Y-42279697D01*
X53762484Y-42217218D01*
X53765559Y-42214032D01*
X53820558Y-42159033D01*
X53820560Y-42159030D01*
X53843788Y-42135801D01*
X53856042Y-42125986D01*
X53855859Y-42125764D01*
X53861866Y-42120792D01*
X53861877Y-42120786D01*
X53896883Y-42083508D01*
X53909227Y-42070364D01*
X53919671Y-42059918D01*
X53930120Y-42049471D01*
X53934379Y-42043978D01*
X53938152Y-42039561D01*
X53970062Y-42005582D01*
X53979713Y-41988024D01*
X53990396Y-41971761D01*
X54002673Y-41955936D01*
X54002676Y-41955927D01*
X54006644Y-41949221D01*
X54008063Y-41950060D01*
X54046815Y-41903481D01*
X54068482Y-41891870D01*
X54208437Y-41833899D01*
X54208438Y-41833898D01*
X54208441Y-41833897D01*
X54429012Y-41698731D01*
X54625724Y-41530724D01*
X54793731Y-41334012D01*
X54928897Y-41113441D01*
X55027895Y-40874440D01*
X55088285Y-40622895D01*
X55108582Y-40365000D01*
X56891920Y-40365000D01*
X56912211Y-40622820D01*
X56972582Y-40874285D01*
X57071549Y-41113213D01*
X57206673Y-41333714D01*
X57206676Y-41333719D01*
X57211767Y-41339679D01*
X57863337Y-40688109D01*
X57886670Y-40742200D01*
X57991269Y-40882701D01*
X58125450Y-40995293D01*
X58217187Y-41041365D01*
X57565319Y-41693232D01*
X57571283Y-41698325D01*
X57791786Y-41833450D01*
X58030715Y-41932417D01*
X58256790Y-41986692D01*
X58317383Y-42021482D01*
X58349547Y-42083508D01*
X58343071Y-42153077D01*
X58342405Y-42154718D01*
X58242583Y-42395710D01*
X58242583Y-42395712D01*
X58182211Y-42647179D01*
X58161920Y-42905000D01*
X58182211Y-43162820D01*
X58242582Y-43414285D01*
X58341549Y-43653213D01*
X58476673Y-43873714D01*
X58476676Y-43873719D01*
X58481767Y-43879679D01*
X59133337Y-43228108D01*
X59156670Y-43282200D01*
X59261269Y-43422701D01*
X59395450Y-43535293D01*
X59487187Y-43581365D01*
X58835319Y-44233232D01*
X58841283Y-44238325D01*
X59061786Y-44373450D01*
X59300714Y-44472417D01*
X59552179Y-44532788D01*
X59810000Y-44553079D01*
X60067819Y-44532788D01*
X60128117Y-44518312D01*
X60197899Y-44521803D01*
X60254717Y-44562466D01*
X60280530Y-44627393D01*
X60267144Y-44695968D01*
X60250777Y-44720088D01*
X60178753Y-44803208D01*
X60178740Y-44803225D01*
X60073574Y-44985379D01*
X60004779Y-45184148D01*
X60004778Y-45184153D01*
X60004778Y-45184154D01*
X59974843Y-45392355D01*
X59984852Y-45602459D01*
X60034442Y-45806871D01*
X60051693Y-45844645D01*
X60121820Y-45998204D01*
X60121824Y-45998210D01*
X60243826Y-46169539D01*
X60243831Y-46169544D01*
X60396063Y-46314697D01*
X60573014Y-46428416D01*
X60768288Y-46506593D01*
X60918839Y-46535609D01*
X60974828Y-46546400D01*
X60974829Y-46546400D01*
X61132461Y-46546400D01*
X61132468Y-46546400D01*
X61289389Y-46531416D01*
X61491211Y-46472156D01*
X61678170Y-46375771D01*
X61843510Y-46245747D01*
X61981255Y-46086781D01*
X62086426Y-45904619D01*
X62155222Y-45705846D01*
X62185157Y-45497645D01*
X62175148Y-45287541D01*
X62125558Y-45083129D01*
X62038179Y-44891795D01*
X62009515Y-44851542D01*
X61916173Y-44720460D01*
X61916167Y-44720454D01*
X61763939Y-44575305D01*
X61763937Y-44575303D01*
X61586986Y-44461584D01*
X61586984Y-44461583D01*
X61391721Y-44383410D01*
X61391714Y-44383407D01*
X61391712Y-44383407D01*
X61391709Y-44383406D01*
X61391708Y-44383406D01*
X61185172Y-44343600D01*
X61185171Y-44343600D01*
X61027532Y-44343600D01*
X60920671Y-44353803D01*
X60852065Y-44340580D01*
X60801499Y-44292365D01*
X60787616Y-44236169D01*
X60135399Y-43583952D01*
X60148575Y-43579157D01*
X60294920Y-43482905D01*
X60415123Y-43355497D01*
X60487935Y-43229382D01*
X61138231Y-43879678D01*
X61138232Y-43879678D01*
X61143319Y-43873723D01*
X61143326Y-43873713D01*
X61278450Y-43653213D01*
X61377417Y-43414285D01*
X61437788Y-43162820D01*
X61458079Y-42905000D01*
X61437788Y-42647179D01*
X61377417Y-42395714D01*
X61278450Y-42156786D01*
X61143325Y-41936283D01*
X61138232Y-41930319D01*
X60486662Y-42581889D01*
X60463330Y-42527800D01*
X60358731Y-42387299D01*
X60224550Y-42274707D01*
X60132811Y-42228634D01*
X60784679Y-41576767D01*
X60784679Y-41576766D01*
X60778719Y-41571676D01*
X60778714Y-41571673D01*
X60558213Y-41436549D01*
X60319285Y-41337582D01*
X60093208Y-41283307D01*
X60032616Y-41248516D01*
X60000452Y-41186490D01*
X60006928Y-41116921D01*
X60007594Y-41115280D01*
X60107417Y-40874285D01*
X60167788Y-40622820D01*
X60188079Y-40365000D01*
X60167788Y-40107179D01*
X60107417Y-39855714D01*
X60008450Y-39616786D01*
X59873325Y-39396283D01*
X59868232Y-39390319D01*
X59216662Y-40041889D01*
X59193330Y-39987800D01*
X59088731Y-39847299D01*
X58954550Y-39734707D01*
X58862812Y-39688634D01*
X59514679Y-39036767D01*
X59514679Y-39036766D01*
X59508719Y-39031676D01*
X59508714Y-39031673D01*
X59288213Y-38896549D01*
X59049285Y-38797582D01*
X58797820Y-38737211D01*
X58540000Y-38716920D01*
X58282179Y-38737211D01*
X58030714Y-38797582D01*
X57791786Y-38896549D01*
X57571289Y-39031670D01*
X57571273Y-39031682D01*
X57565320Y-39036766D01*
X57565320Y-39036767D01*
X58214600Y-39686047D01*
X58201425Y-39690843D01*
X58055080Y-39787095D01*
X57934877Y-39914503D01*
X57862064Y-40040617D01*
X57211767Y-39390320D01*
X57211766Y-39390320D01*
X57206682Y-39396273D01*
X57206670Y-39396289D01*
X57071549Y-39616786D01*
X56972582Y-39855714D01*
X56912211Y-40107179D01*
X56891920Y-40365000D01*
X55108582Y-40365000D01*
X55088285Y-40107105D01*
X55027895Y-39855560D01*
X54952703Y-39674032D01*
X54928897Y-39616558D01*
X54830102Y-39455341D01*
X54793731Y-39395988D01*
X54793730Y-39395987D01*
X54793729Y-39395985D01*
X54732009Y-39323721D01*
X54625724Y-39199276D01*
X54512999Y-39103000D01*
X54429014Y-39031270D01*
X54429009Y-39031267D01*
X54208441Y-38896102D01*
X54004441Y-38811603D01*
X53969440Y-38797105D01*
X53969436Y-38797104D01*
X53969430Y-38797102D01*
X53717898Y-38736715D01*
X53460000Y-38716418D01*
X53202101Y-38736715D01*
X52950569Y-38797102D01*
X52950557Y-38797106D01*
X52711558Y-38896102D01*
X52490990Y-39031267D01*
X52490985Y-39031270D01*
X52294276Y-39199276D01*
X52126270Y-39395985D01*
X52126267Y-39395990D01*
X51991102Y-39616558D01*
X51892106Y-39855557D01*
X51892102Y-39855569D01*
X51831715Y-40107101D01*
X51811418Y-40365000D01*
X51831715Y-40622898D01*
X51892102Y-40874430D01*
X51892106Y-40874442D01*
X51991719Y-41114930D01*
X51999188Y-41184400D01*
X51967913Y-41246879D01*
X51907824Y-41282531D01*
X51906105Y-41282957D01*
X51680569Y-41337102D01*
X51680557Y-41337106D01*
X51441558Y-41436102D01*
X51220990Y-41571267D01*
X51220985Y-41571270D01*
X51024276Y-41739276D01*
X50856270Y-41935985D01*
X50856267Y-41935990D01*
X50721102Y-42156558D01*
X50622106Y-42395557D01*
X50622102Y-42395569D01*
X50561715Y-42647101D01*
X50541418Y-42905000D01*
X50561715Y-43162898D01*
X50622102Y-43414430D01*
X50622106Y-43414442D01*
X50721102Y-43653441D01*
X50856267Y-43874009D01*
X50856270Y-43874014D01*
X50862423Y-43881218D01*
X51024276Y-44070724D01*
X51048979Y-44091822D01*
X51088188Y-44125310D01*
X51126381Y-44183817D01*
X51126879Y-44253685D01*
X51089525Y-44312731D01*
X51026178Y-44342209D01*
X51007656Y-44343600D01*
X50867532Y-44343600D01*
X50710611Y-44358584D01*
X50710607Y-44358585D01*
X50508791Y-44417843D01*
X50321831Y-44514228D01*
X50156490Y-44644252D01*
X50156489Y-44644253D01*
X50018749Y-44803214D01*
X50018740Y-44803225D01*
X49913574Y-44985379D01*
X49844779Y-45184148D01*
X49844778Y-45184153D01*
X49844778Y-45184154D01*
X49814843Y-45392355D01*
X45840000Y-45392355D01*
X45840000Y-40416362D01*
X45859685Y-40349323D01*
X45876319Y-40328681D01*
X50883681Y-35321319D01*
X50945004Y-35287834D01*
X50971362Y-35285000D01*
X213428638Y-35285000D01*
X213495677Y-35304685D01*
G37*
%TD.AperFunction*%
%TD*%
M02*
