%TF.GenerationSoftware,KiCad,Pcbnew,7.0.9*%
%TF.CreationDate,2024-01-30T16:44:38+01:00*%
%TF.ProjectId,tm-gamepad,746d2d67-616d-4657-9061-642e6b696361,rev?*%
%TF.SameCoordinates,Original*%
%TF.FileFunction,Legend,Bot*%
%TF.FilePolarity,Positive*%
%FSLAX46Y46*%
G04 Gerber Fmt 4.6, Leading zero omitted, Abs format (unit mm)*
G04 Created by KiCad (PCBNEW 7.0.9) date 2024-01-30 16:44:38*
%MOMM*%
%LPD*%
G01*
G04 APERTURE LIST*
%ADD10C,0.150000*%
%ADD11C,0.120000*%
%ADD12C,0.100000*%
G04 APERTURE END LIST*
D10*
X190683332Y-56647200D02*
X190540475Y-56694819D01*
X190540475Y-56694819D02*
X190302380Y-56694819D01*
X190302380Y-56694819D02*
X190207142Y-56647200D01*
X190207142Y-56647200D02*
X190159523Y-56599580D01*
X190159523Y-56599580D02*
X190111904Y-56504342D01*
X190111904Y-56504342D02*
X190111904Y-56409104D01*
X190111904Y-56409104D02*
X190159523Y-56313866D01*
X190159523Y-56313866D02*
X190207142Y-56266247D01*
X190207142Y-56266247D02*
X190302380Y-56218628D01*
X190302380Y-56218628D02*
X190492856Y-56171009D01*
X190492856Y-56171009D02*
X190588094Y-56123390D01*
X190588094Y-56123390D02*
X190635713Y-56075771D01*
X190635713Y-56075771D02*
X190683332Y-55980533D01*
X190683332Y-55980533D02*
X190683332Y-55885295D01*
X190683332Y-55885295D02*
X190635713Y-55790057D01*
X190635713Y-55790057D02*
X190588094Y-55742438D01*
X190588094Y-55742438D02*
X190492856Y-55694819D01*
X190492856Y-55694819D02*
X190254761Y-55694819D01*
X190254761Y-55694819D02*
X190111904Y-55742438D01*
X189778570Y-55694819D02*
X189540475Y-56694819D01*
X189540475Y-56694819D02*
X189349999Y-55980533D01*
X189349999Y-55980533D02*
X189159523Y-56694819D01*
X189159523Y-56694819D02*
X188921428Y-55694819D01*
X188111904Y-56028152D02*
X188111904Y-56694819D01*
X188349999Y-55647200D02*
X188588094Y-56361485D01*
X188588094Y-56361485D02*
X187969047Y-56361485D01*
X95433332Y-37597200D02*
X95290475Y-37644819D01*
X95290475Y-37644819D02*
X95052380Y-37644819D01*
X95052380Y-37644819D02*
X94957142Y-37597200D01*
X94957142Y-37597200D02*
X94909523Y-37549580D01*
X94909523Y-37549580D02*
X94861904Y-37454342D01*
X94861904Y-37454342D02*
X94861904Y-37359104D01*
X94861904Y-37359104D02*
X94909523Y-37263866D01*
X94909523Y-37263866D02*
X94957142Y-37216247D01*
X94957142Y-37216247D02*
X95052380Y-37168628D01*
X95052380Y-37168628D02*
X95242856Y-37121009D01*
X95242856Y-37121009D02*
X95338094Y-37073390D01*
X95338094Y-37073390D02*
X95385713Y-37025771D01*
X95385713Y-37025771D02*
X95433332Y-36930533D01*
X95433332Y-36930533D02*
X95433332Y-36835295D01*
X95433332Y-36835295D02*
X95385713Y-36740057D01*
X95385713Y-36740057D02*
X95338094Y-36692438D01*
X95338094Y-36692438D02*
X95242856Y-36644819D01*
X95242856Y-36644819D02*
X95004761Y-36644819D01*
X95004761Y-36644819D02*
X94861904Y-36692438D01*
X94528570Y-36644819D02*
X94290475Y-37644819D01*
X94290475Y-37644819D02*
X94099999Y-36930533D01*
X94099999Y-36930533D02*
X93909523Y-37644819D01*
X93909523Y-37644819D02*
X93671428Y-36644819D01*
X93147618Y-37073390D02*
X93242856Y-37025771D01*
X93242856Y-37025771D02*
X93290475Y-36978152D01*
X93290475Y-36978152D02*
X93338094Y-36882914D01*
X93338094Y-36882914D02*
X93338094Y-36835295D01*
X93338094Y-36835295D02*
X93290475Y-36740057D01*
X93290475Y-36740057D02*
X93242856Y-36692438D01*
X93242856Y-36692438D02*
X93147618Y-36644819D01*
X93147618Y-36644819D02*
X92957142Y-36644819D01*
X92957142Y-36644819D02*
X92861904Y-36692438D01*
X92861904Y-36692438D02*
X92814285Y-36740057D01*
X92814285Y-36740057D02*
X92766666Y-36835295D01*
X92766666Y-36835295D02*
X92766666Y-36882914D01*
X92766666Y-36882914D02*
X92814285Y-36978152D01*
X92814285Y-36978152D02*
X92861904Y-37025771D01*
X92861904Y-37025771D02*
X92957142Y-37073390D01*
X92957142Y-37073390D02*
X93147618Y-37073390D01*
X93147618Y-37073390D02*
X93242856Y-37121009D01*
X93242856Y-37121009D02*
X93290475Y-37168628D01*
X93290475Y-37168628D02*
X93338094Y-37263866D01*
X93338094Y-37263866D02*
X93338094Y-37454342D01*
X93338094Y-37454342D02*
X93290475Y-37549580D01*
X93290475Y-37549580D02*
X93242856Y-37597200D01*
X93242856Y-37597200D02*
X93147618Y-37644819D01*
X93147618Y-37644819D02*
X92957142Y-37644819D01*
X92957142Y-37644819D02*
X92861904Y-37597200D01*
X92861904Y-37597200D02*
X92814285Y-37549580D01*
X92814285Y-37549580D02*
X92766666Y-37454342D01*
X92766666Y-37454342D02*
X92766666Y-37263866D01*
X92766666Y-37263866D02*
X92814285Y-37168628D01*
X92814285Y-37168628D02*
X92861904Y-37121009D01*
X92861904Y-37121009D02*
X92957142Y-37073390D01*
X76383332Y-37597200D02*
X76240475Y-37644819D01*
X76240475Y-37644819D02*
X76002380Y-37644819D01*
X76002380Y-37644819D02*
X75907142Y-37597200D01*
X75907142Y-37597200D02*
X75859523Y-37549580D01*
X75859523Y-37549580D02*
X75811904Y-37454342D01*
X75811904Y-37454342D02*
X75811904Y-37359104D01*
X75811904Y-37359104D02*
X75859523Y-37263866D01*
X75859523Y-37263866D02*
X75907142Y-37216247D01*
X75907142Y-37216247D02*
X76002380Y-37168628D01*
X76002380Y-37168628D02*
X76192856Y-37121009D01*
X76192856Y-37121009D02*
X76288094Y-37073390D01*
X76288094Y-37073390D02*
X76335713Y-37025771D01*
X76335713Y-37025771D02*
X76383332Y-36930533D01*
X76383332Y-36930533D02*
X76383332Y-36835295D01*
X76383332Y-36835295D02*
X76335713Y-36740057D01*
X76335713Y-36740057D02*
X76288094Y-36692438D01*
X76288094Y-36692438D02*
X76192856Y-36644819D01*
X76192856Y-36644819D02*
X75954761Y-36644819D01*
X75954761Y-36644819D02*
X75811904Y-36692438D01*
X75478570Y-36644819D02*
X75240475Y-37644819D01*
X75240475Y-37644819D02*
X75049999Y-36930533D01*
X75049999Y-36930533D02*
X74859523Y-37644819D01*
X74859523Y-37644819D02*
X74621428Y-36644819D01*
X74335713Y-36644819D02*
X73669047Y-36644819D01*
X73669047Y-36644819D02*
X74097618Y-37644819D01*
X57333332Y-37597200D02*
X57190475Y-37644819D01*
X57190475Y-37644819D02*
X56952380Y-37644819D01*
X56952380Y-37644819D02*
X56857142Y-37597200D01*
X56857142Y-37597200D02*
X56809523Y-37549580D01*
X56809523Y-37549580D02*
X56761904Y-37454342D01*
X56761904Y-37454342D02*
X56761904Y-37359104D01*
X56761904Y-37359104D02*
X56809523Y-37263866D01*
X56809523Y-37263866D02*
X56857142Y-37216247D01*
X56857142Y-37216247D02*
X56952380Y-37168628D01*
X56952380Y-37168628D02*
X57142856Y-37121009D01*
X57142856Y-37121009D02*
X57238094Y-37073390D01*
X57238094Y-37073390D02*
X57285713Y-37025771D01*
X57285713Y-37025771D02*
X57333332Y-36930533D01*
X57333332Y-36930533D02*
X57333332Y-36835295D01*
X57333332Y-36835295D02*
X57285713Y-36740057D01*
X57285713Y-36740057D02*
X57238094Y-36692438D01*
X57238094Y-36692438D02*
X57142856Y-36644819D01*
X57142856Y-36644819D02*
X56904761Y-36644819D01*
X56904761Y-36644819D02*
X56761904Y-36692438D01*
X56428570Y-36644819D02*
X56190475Y-37644819D01*
X56190475Y-37644819D02*
X55999999Y-36930533D01*
X55999999Y-36930533D02*
X55809523Y-37644819D01*
X55809523Y-37644819D02*
X55571428Y-36644819D01*
X54761904Y-36644819D02*
X54952380Y-36644819D01*
X54952380Y-36644819D02*
X55047618Y-36692438D01*
X55047618Y-36692438D02*
X55095237Y-36740057D01*
X55095237Y-36740057D02*
X55190475Y-36882914D01*
X55190475Y-36882914D02*
X55238094Y-37073390D01*
X55238094Y-37073390D02*
X55238094Y-37454342D01*
X55238094Y-37454342D02*
X55190475Y-37549580D01*
X55190475Y-37549580D02*
X55142856Y-37597200D01*
X55142856Y-37597200D02*
X55047618Y-37644819D01*
X55047618Y-37644819D02*
X54857142Y-37644819D01*
X54857142Y-37644819D02*
X54761904Y-37597200D01*
X54761904Y-37597200D02*
X54714285Y-37549580D01*
X54714285Y-37549580D02*
X54666666Y-37454342D01*
X54666666Y-37454342D02*
X54666666Y-37216247D01*
X54666666Y-37216247D02*
X54714285Y-37121009D01*
X54714285Y-37121009D02*
X54761904Y-37073390D01*
X54761904Y-37073390D02*
X54857142Y-37025771D01*
X54857142Y-37025771D02*
X55047618Y-37025771D01*
X55047618Y-37025771D02*
X55142856Y-37073390D01*
X55142856Y-37073390D02*
X55190475Y-37121009D01*
X55190475Y-37121009D02*
X55238094Y-37216247D01*
X171633332Y-56647200D02*
X171490475Y-56694819D01*
X171490475Y-56694819D02*
X171252380Y-56694819D01*
X171252380Y-56694819D02*
X171157142Y-56647200D01*
X171157142Y-56647200D02*
X171109523Y-56599580D01*
X171109523Y-56599580D02*
X171061904Y-56504342D01*
X171061904Y-56504342D02*
X171061904Y-56409104D01*
X171061904Y-56409104D02*
X171109523Y-56313866D01*
X171109523Y-56313866D02*
X171157142Y-56266247D01*
X171157142Y-56266247D02*
X171252380Y-56218628D01*
X171252380Y-56218628D02*
X171442856Y-56171009D01*
X171442856Y-56171009D02*
X171538094Y-56123390D01*
X171538094Y-56123390D02*
X171585713Y-56075771D01*
X171585713Y-56075771D02*
X171633332Y-55980533D01*
X171633332Y-55980533D02*
X171633332Y-55885295D01*
X171633332Y-55885295D02*
X171585713Y-55790057D01*
X171585713Y-55790057D02*
X171538094Y-55742438D01*
X171538094Y-55742438D02*
X171442856Y-55694819D01*
X171442856Y-55694819D02*
X171204761Y-55694819D01*
X171204761Y-55694819D02*
X171061904Y-55742438D01*
X170728570Y-55694819D02*
X170490475Y-56694819D01*
X170490475Y-56694819D02*
X170299999Y-55980533D01*
X170299999Y-55980533D02*
X170109523Y-56694819D01*
X170109523Y-56694819D02*
X169871428Y-55694819D01*
X169014285Y-55694819D02*
X169490475Y-55694819D01*
X169490475Y-55694819D02*
X169538094Y-56171009D01*
X169538094Y-56171009D02*
X169490475Y-56123390D01*
X169490475Y-56123390D02*
X169395237Y-56075771D01*
X169395237Y-56075771D02*
X169157142Y-56075771D01*
X169157142Y-56075771D02*
X169061904Y-56123390D01*
X169061904Y-56123390D02*
X169014285Y-56171009D01*
X169014285Y-56171009D02*
X168966666Y-56266247D01*
X168966666Y-56266247D02*
X168966666Y-56504342D01*
X168966666Y-56504342D02*
X169014285Y-56599580D01*
X169014285Y-56599580D02*
X169061904Y-56647200D01*
X169061904Y-56647200D02*
X169157142Y-56694819D01*
X169157142Y-56694819D02*
X169395237Y-56694819D01*
X169395237Y-56694819D02*
X169490475Y-56647200D01*
X169490475Y-56647200D02*
X169538094Y-56599580D01*
X209733332Y-56647200D02*
X209590475Y-56694819D01*
X209590475Y-56694819D02*
X209352380Y-56694819D01*
X209352380Y-56694819D02*
X209257142Y-56647200D01*
X209257142Y-56647200D02*
X209209523Y-56599580D01*
X209209523Y-56599580D02*
X209161904Y-56504342D01*
X209161904Y-56504342D02*
X209161904Y-56409104D01*
X209161904Y-56409104D02*
X209209523Y-56313866D01*
X209209523Y-56313866D02*
X209257142Y-56266247D01*
X209257142Y-56266247D02*
X209352380Y-56218628D01*
X209352380Y-56218628D02*
X209542856Y-56171009D01*
X209542856Y-56171009D02*
X209638094Y-56123390D01*
X209638094Y-56123390D02*
X209685713Y-56075771D01*
X209685713Y-56075771D02*
X209733332Y-55980533D01*
X209733332Y-55980533D02*
X209733332Y-55885295D01*
X209733332Y-55885295D02*
X209685713Y-55790057D01*
X209685713Y-55790057D02*
X209638094Y-55742438D01*
X209638094Y-55742438D02*
X209542856Y-55694819D01*
X209542856Y-55694819D02*
X209304761Y-55694819D01*
X209304761Y-55694819D02*
X209161904Y-55742438D01*
X208828570Y-55694819D02*
X208590475Y-56694819D01*
X208590475Y-56694819D02*
X208399999Y-55980533D01*
X208399999Y-55980533D02*
X208209523Y-56694819D01*
X208209523Y-56694819D02*
X207971428Y-55694819D01*
X207685713Y-55694819D02*
X207066666Y-55694819D01*
X207066666Y-55694819D02*
X207399999Y-56075771D01*
X207399999Y-56075771D02*
X207257142Y-56075771D01*
X207257142Y-56075771D02*
X207161904Y-56123390D01*
X207161904Y-56123390D02*
X207114285Y-56171009D01*
X207114285Y-56171009D02*
X207066666Y-56266247D01*
X207066666Y-56266247D02*
X207066666Y-56504342D01*
X207066666Y-56504342D02*
X207114285Y-56599580D01*
X207114285Y-56599580D02*
X207161904Y-56647200D01*
X207161904Y-56647200D02*
X207257142Y-56694819D01*
X207257142Y-56694819D02*
X207542856Y-56694819D01*
X207542856Y-56694819D02*
X207638094Y-56647200D01*
X207638094Y-56647200D02*
X207685713Y-56599580D01*
X171633332Y-37597200D02*
X171490475Y-37644819D01*
X171490475Y-37644819D02*
X171252380Y-37644819D01*
X171252380Y-37644819D02*
X171157142Y-37597200D01*
X171157142Y-37597200D02*
X171109523Y-37549580D01*
X171109523Y-37549580D02*
X171061904Y-37454342D01*
X171061904Y-37454342D02*
X171061904Y-37359104D01*
X171061904Y-37359104D02*
X171109523Y-37263866D01*
X171109523Y-37263866D02*
X171157142Y-37216247D01*
X171157142Y-37216247D02*
X171252380Y-37168628D01*
X171252380Y-37168628D02*
X171442856Y-37121009D01*
X171442856Y-37121009D02*
X171538094Y-37073390D01*
X171538094Y-37073390D02*
X171585713Y-37025771D01*
X171585713Y-37025771D02*
X171633332Y-36930533D01*
X171633332Y-36930533D02*
X171633332Y-36835295D01*
X171633332Y-36835295D02*
X171585713Y-36740057D01*
X171585713Y-36740057D02*
X171538094Y-36692438D01*
X171538094Y-36692438D02*
X171442856Y-36644819D01*
X171442856Y-36644819D02*
X171204761Y-36644819D01*
X171204761Y-36644819D02*
X171061904Y-36692438D01*
X170728570Y-36644819D02*
X170490475Y-37644819D01*
X170490475Y-37644819D02*
X170299999Y-36930533D01*
X170299999Y-36930533D02*
X170109523Y-37644819D01*
X170109523Y-37644819D02*
X169871428Y-36644819D01*
X169538094Y-36740057D02*
X169490475Y-36692438D01*
X169490475Y-36692438D02*
X169395237Y-36644819D01*
X169395237Y-36644819D02*
X169157142Y-36644819D01*
X169157142Y-36644819D02*
X169061904Y-36692438D01*
X169061904Y-36692438D02*
X169014285Y-36740057D01*
X169014285Y-36740057D02*
X168966666Y-36835295D01*
X168966666Y-36835295D02*
X168966666Y-36930533D01*
X168966666Y-36930533D02*
X169014285Y-37073390D01*
X169014285Y-37073390D02*
X169585713Y-37644819D01*
X169585713Y-37644819D02*
X168966666Y-37644819D01*
X190683332Y-37597200D02*
X190540475Y-37644819D01*
X190540475Y-37644819D02*
X190302380Y-37644819D01*
X190302380Y-37644819D02*
X190207142Y-37597200D01*
X190207142Y-37597200D02*
X190159523Y-37549580D01*
X190159523Y-37549580D02*
X190111904Y-37454342D01*
X190111904Y-37454342D02*
X190111904Y-37359104D01*
X190111904Y-37359104D02*
X190159523Y-37263866D01*
X190159523Y-37263866D02*
X190207142Y-37216247D01*
X190207142Y-37216247D02*
X190302380Y-37168628D01*
X190302380Y-37168628D02*
X190492856Y-37121009D01*
X190492856Y-37121009D02*
X190588094Y-37073390D01*
X190588094Y-37073390D02*
X190635713Y-37025771D01*
X190635713Y-37025771D02*
X190683332Y-36930533D01*
X190683332Y-36930533D02*
X190683332Y-36835295D01*
X190683332Y-36835295D02*
X190635713Y-36740057D01*
X190635713Y-36740057D02*
X190588094Y-36692438D01*
X190588094Y-36692438D02*
X190492856Y-36644819D01*
X190492856Y-36644819D02*
X190254761Y-36644819D01*
X190254761Y-36644819D02*
X190111904Y-36692438D01*
X189778570Y-36644819D02*
X189540475Y-37644819D01*
X189540475Y-37644819D02*
X189349999Y-36930533D01*
X189349999Y-36930533D02*
X189159523Y-37644819D01*
X189159523Y-37644819D02*
X188921428Y-36644819D01*
X188016666Y-37644819D02*
X188588094Y-37644819D01*
X188302380Y-37644819D02*
X188302380Y-36644819D01*
X188302380Y-36644819D02*
X188397618Y-36787676D01*
X188397618Y-36787676D02*
X188492856Y-36882914D01*
X188492856Y-36882914D02*
X188588094Y-36930533D01*
X209733332Y-37597200D02*
X209590475Y-37644819D01*
X209590475Y-37644819D02*
X209352380Y-37644819D01*
X209352380Y-37644819D02*
X209257142Y-37597200D01*
X209257142Y-37597200D02*
X209209523Y-37549580D01*
X209209523Y-37549580D02*
X209161904Y-37454342D01*
X209161904Y-37454342D02*
X209161904Y-37359104D01*
X209161904Y-37359104D02*
X209209523Y-37263866D01*
X209209523Y-37263866D02*
X209257142Y-37216247D01*
X209257142Y-37216247D02*
X209352380Y-37168628D01*
X209352380Y-37168628D02*
X209542856Y-37121009D01*
X209542856Y-37121009D02*
X209638094Y-37073390D01*
X209638094Y-37073390D02*
X209685713Y-37025771D01*
X209685713Y-37025771D02*
X209733332Y-36930533D01*
X209733332Y-36930533D02*
X209733332Y-36835295D01*
X209733332Y-36835295D02*
X209685713Y-36740057D01*
X209685713Y-36740057D02*
X209638094Y-36692438D01*
X209638094Y-36692438D02*
X209542856Y-36644819D01*
X209542856Y-36644819D02*
X209304761Y-36644819D01*
X209304761Y-36644819D02*
X209161904Y-36692438D01*
X208828570Y-36644819D02*
X208590475Y-37644819D01*
X208590475Y-37644819D02*
X208399999Y-36930533D01*
X208399999Y-36930533D02*
X208209523Y-37644819D01*
X208209523Y-37644819D02*
X207971428Y-36644819D01*
X207399999Y-36644819D02*
X207304761Y-36644819D01*
X207304761Y-36644819D02*
X207209523Y-36692438D01*
X207209523Y-36692438D02*
X207161904Y-36740057D01*
X207161904Y-36740057D02*
X207114285Y-36835295D01*
X207114285Y-36835295D02*
X207066666Y-37025771D01*
X207066666Y-37025771D02*
X207066666Y-37263866D01*
X207066666Y-37263866D02*
X207114285Y-37454342D01*
X207114285Y-37454342D02*
X207161904Y-37549580D01*
X207161904Y-37549580D02*
X207209523Y-37597200D01*
X207209523Y-37597200D02*
X207304761Y-37644819D01*
X207304761Y-37644819D02*
X207399999Y-37644819D01*
X207399999Y-37644819D02*
X207495237Y-37597200D01*
X207495237Y-37597200D02*
X207542856Y-37549580D01*
X207542856Y-37549580D02*
X207590475Y-37454342D01*
X207590475Y-37454342D02*
X207638094Y-37263866D01*
X207638094Y-37263866D02*
X207638094Y-37025771D01*
X207638094Y-37025771D02*
X207590475Y-36835295D01*
X207590475Y-36835295D02*
X207542856Y-36740057D01*
X207542856Y-36740057D02*
X207495237Y-36692438D01*
X207495237Y-36692438D02*
X207399999Y-36644819D01*
X201517857Y-81076009D02*
X201851190Y-81076009D01*
X201851190Y-81599819D02*
X201851190Y-80599819D01*
X201851190Y-80599819D02*
X201375000Y-80599819D01*
X200994047Y-81599819D02*
X200994047Y-80933152D01*
X200994047Y-81123628D02*
X200946428Y-81028390D01*
X200946428Y-81028390D02*
X200898809Y-80980771D01*
X200898809Y-80980771D02*
X200803571Y-80933152D01*
X200803571Y-80933152D02*
X200708333Y-80933152D01*
X200232142Y-81599819D02*
X200327380Y-81552200D01*
X200327380Y-81552200D02*
X200374999Y-81504580D01*
X200374999Y-81504580D02*
X200422618Y-81409342D01*
X200422618Y-81409342D02*
X200422618Y-81123628D01*
X200422618Y-81123628D02*
X200374999Y-81028390D01*
X200374999Y-81028390D02*
X200327380Y-80980771D01*
X200327380Y-80980771D02*
X200232142Y-80933152D01*
X200232142Y-80933152D02*
X200089285Y-80933152D01*
X200089285Y-80933152D02*
X199994047Y-80980771D01*
X199994047Y-80980771D02*
X199946428Y-81028390D01*
X199946428Y-81028390D02*
X199898809Y-81123628D01*
X199898809Y-81123628D02*
X199898809Y-81409342D01*
X199898809Y-81409342D02*
X199946428Y-81504580D01*
X199946428Y-81504580D02*
X199994047Y-81552200D01*
X199994047Y-81552200D02*
X200089285Y-81599819D01*
X200089285Y-81599819D02*
X200232142Y-81599819D01*
X199470237Y-80933152D02*
X199470237Y-81599819D01*
X199470237Y-81028390D02*
X199422618Y-80980771D01*
X199422618Y-80980771D02*
X199327380Y-80933152D01*
X199327380Y-80933152D02*
X199184523Y-80933152D01*
X199184523Y-80933152D02*
X199089285Y-80980771D01*
X199089285Y-80980771D02*
X199041666Y-81076009D01*
X199041666Y-81076009D02*
X199041666Y-81599819D01*
X198708332Y-80933152D02*
X198327380Y-80933152D01*
X198565475Y-80599819D02*
X198565475Y-81456961D01*
X198565475Y-81456961D02*
X198517856Y-81552200D01*
X198517856Y-81552200D02*
X198422618Y-81599819D01*
X198422618Y-81599819D02*
X198327380Y-81599819D01*
X198232142Y-81695057D02*
X197470237Y-81695057D01*
X197279760Y-81314104D02*
X196803570Y-81314104D01*
X197374998Y-81599819D02*
X197041665Y-80599819D01*
X197041665Y-80599819D02*
X196708332Y-81599819D01*
X196470236Y-80599819D02*
X195851189Y-80599819D01*
X195851189Y-80599819D02*
X196184522Y-80980771D01*
X196184522Y-80980771D02*
X196041665Y-80980771D01*
X196041665Y-80980771D02*
X195946427Y-81028390D01*
X195946427Y-81028390D02*
X195898808Y-81076009D01*
X195898808Y-81076009D02*
X195851189Y-81171247D01*
X195851189Y-81171247D02*
X195851189Y-81409342D01*
X195851189Y-81409342D02*
X195898808Y-81504580D01*
X195898808Y-81504580D02*
X195946427Y-81552200D01*
X195946427Y-81552200D02*
X196041665Y-81599819D01*
X196041665Y-81599819D02*
X196327379Y-81599819D01*
X196327379Y-81599819D02*
X196422617Y-81552200D01*
X196422617Y-81552200D02*
X196470236Y-81504580D01*
X77692857Y-62026009D02*
X78026190Y-62026009D01*
X78026190Y-62549819D02*
X78026190Y-61549819D01*
X78026190Y-61549819D02*
X77550000Y-61549819D01*
X77169047Y-62549819D02*
X77169047Y-61883152D01*
X77169047Y-62073628D02*
X77121428Y-61978390D01*
X77121428Y-61978390D02*
X77073809Y-61930771D01*
X77073809Y-61930771D02*
X76978571Y-61883152D01*
X76978571Y-61883152D02*
X76883333Y-61883152D01*
X76407142Y-62549819D02*
X76502380Y-62502200D01*
X76502380Y-62502200D02*
X76549999Y-62454580D01*
X76549999Y-62454580D02*
X76597618Y-62359342D01*
X76597618Y-62359342D02*
X76597618Y-62073628D01*
X76597618Y-62073628D02*
X76549999Y-61978390D01*
X76549999Y-61978390D02*
X76502380Y-61930771D01*
X76502380Y-61930771D02*
X76407142Y-61883152D01*
X76407142Y-61883152D02*
X76264285Y-61883152D01*
X76264285Y-61883152D02*
X76169047Y-61930771D01*
X76169047Y-61930771D02*
X76121428Y-61978390D01*
X76121428Y-61978390D02*
X76073809Y-62073628D01*
X76073809Y-62073628D02*
X76073809Y-62359342D01*
X76073809Y-62359342D02*
X76121428Y-62454580D01*
X76121428Y-62454580D02*
X76169047Y-62502200D01*
X76169047Y-62502200D02*
X76264285Y-62549819D01*
X76264285Y-62549819D02*
X76407142Y-62549819D01*
X75645237Y-61883152D02*
X75645237Y-62549819D01*
X75645237Y-61978390D02*
X75597618Y-61930771D01*
X75597618Y-61930771D02*
X75502380Y-61883152D01*
X75502380Y-61883152D02*
X75359523Y-61883152D01*
X75359523Y-61883152D02*
X75264285Y-61930771D01*
X75264285Y-61930771D02*
X75216666Y-62026009D01*
X75216666Y-62026009D02*
X75216666Y-62549819D01*
X74883332Y-61883152D02*
X74502380Y-61883152D01*
X74740475Y-61549819D02*
X74740475Y-62406961D01*
X74740475Y-62406961D02*
X74692856Y-62502200D01*
X74692856Y-62502200D02*
X74597618Y-62549819D01*
X74597618Y-62549819D02*
X74502380Y-62549819D01*
X74407142Y-62645057D02*
X73645237Y-62645057D01*
X73454760Y-62264104D02*
X72978570Y-62264104D01*
X73549998Y-62549819D02*
X73216665Y-61549819D01*
X73216665Y-61549819D02*
X72883332Y-62549819D01*
X72359522Y-61549819D02*
X72264284Y-61549819D01*
X72264284Y-61549819D02*
X72169046Y-61597438D01*
X72169046Y-61597438D02*
X72121427Y-61645057D01*
X72121427Y-61645057D02*
X72073808Y-61740295D01*
X72073808Y-61740295D02*
X72026189Y-61930771D01*
X72026189Y-61930771D02*
X72026189Y-62168866D01*
X72026189Y-62168866D02*
X72073808Y-62359342D01*
X72073808Y-62359342D02*
X72121427Y-62454580D01*
X72121427Y-62454580D02*
X72169046Y-62502200D01*
X72169046Y-62502200D02*
X72264284Y-62549819D01*
X72264284Y-62549819D02*
X72359522Y-62549819D01*
X72359522Y-62549819D02*
X72454760Y-62502200D01*
X72454760Y-62502200D02*
X72502379Y-62454580D01*
X72502379Y-62454580D02*
X72549998Y-62359342D01*
X72549998Y-62359342D02*
X72597617Y-62168866D01*
X72597617Y-62168866D02*
X72597617Y-61930771D01*
X72597617Y-61930771D02*
X72549998Y-61740295D01*
X72549998Y-61740295D02*
X72502379Y-61645057D01*
X72502379Y-61645057D02*
X72454760Y-61597438D01*
X72454760Y-61597438D02*
X72359522Y-61549819D01*
X96742857Y-81076009D02*
X97076190Y-81076009D01*
X97076190Y-81599819D02*
X97076190Y-80599819D01*
X97076190Y-80599819D02*
X96600000Y-80599819D01*
X96219047Y-81599819D02*
X96219047Y-80933152D01*
X96219047Y-81123628D02*
X96171428Y-81028390D01*
X96171428Y-81028390D02*
X96123809Y-80980771D01*
X96123809Y-80980771D02*
X96028571Y-80933152D01*
X96028571Y-80933152D02*
X95933333Y-80933152D01*
X95457142Y-81599819D02*
X95552380Y-81552200D01*
X95552380Y-81552200D02*
X95599999Y-81504580D01*
X95599999Y-81504580D02*
X95647618Y-81409342D01*
X95647618Y-81409342D02*
X95647618Y-81123628D01*
X95647618Y-81123628D02*
X95599999Y-81028390D01*
X95599999Y-81028390D02*
X95552380Y-80980771D01*
X95552380Y-80980771D02*
X95457142Y-80933152D01*
X95457142Y-80933152D02*
X95314285Y-80933152D01*
X95314285Y-80933152D02*
X95219047Y-80980771D01*
X95219047Y-80980771D02*
X95171428Y-81028390D01*
X95171428Y-81028390D02*
X95123809Y-81123628D01*
X95123809Y-81123628D02*
X95123809Y-81409342D01*
X95123809Y-81409342D02*
X95171428Y-81504580D01*
X95171428Y-81504580D02*
X95219047Y-81552200D01*
X95219047Y-81552200D02*
X95314285Y-81599819D01*
X95314285Y-81599819D02*
X95457142Y-81599819D01*
X94695237Y-80933152D02*
X94695237Y-81599819D01*
X94695237Y-81028390D02*
X94647618Y-80980771D01*
X94647618Y-80980771D02*
X94552380Y-80933152D01*
X94552380Y-80933152D02*
X94409523Y-80933152D01*
X94409523Y-80933152D02*
X94314285Y-80980771D01*
X94314285Y-80980771D02*
X94266666Y-81076009D01*
X94266666Y-81076009D02*
X94266666Y-81599819D01*
X93933332Y-80933152D02*
X93552380Y-80933152D01*
X93790475Y-80599819D02*
X93790475Y-81456961D01*
X93790475Y-81456961D02*
X93742856Y-81552200D01*
X93742856Y-81552200D02*
X93647618Y-81599819D01*
X93647618Y-81599819D02*
X93552380Y-81599819D01*
X93457142Y-81695057D02*
X92695237Y-81695057D01*
X92504760Y-81314104D02*
X92028570Y-81314104D01*
X92599998Y-81599819D02*
X92266665Y-80599819D01*
X92266665Y-80599819D02*
X91933332Y-81599819D01*
X91647617Y-80695057D02*
X91599998Y-80647438D01*
X91599998Y-80647438D02*
X91504760Y-80599819D01*
X91504760Y-80599819D02*
X91266665Y-80599819D01*
X91266665Y-80599819D02*
X91171427Y-80647438D01*
X91171427Y-80647438D02*
X91123808Y-80695057D01*
X91123808Y-80695057D02*
X91076189Y-80790295D01*
X91076189Y-80790295D02*
X91076189Y-80885533D01*
X91076189Y-80885533D02*
X91123808Y-81028390D01*
X91123808Y-81028390D02*
X91695236Y-81599819D01*
X91695236Y-81599819D02*
X91076189Y-81599819D01*
X58642857Y-81076009D02*
X58976190Y-81076009D01*
X58976190Y-81599819D02*
X58976190Y-80599819D01*
X58976190Y-80599819D02*
X58500000Y-80599819D01*
X58119047Y-81599819D02*
X58119047Y-80933152D01*
X58119047Y-81123628D02*
X58071428Y-81028390D01*
X58071428Y-81028390D02*
X58023809Y-80980771D01*
X58023809Y-80980771D02*
X57928571Y-80933152D01*
X57928571Y-80933152D02*
X57833333Y-80933152D01*
X57357142Y-81599819D02*
X57452380Y-81552200D01*
X57452380Y-81552200D02*
X57499999Y-81504580D01*
X57499999Y-81504580D02*
X57547618Y-81409342D01*
X57547618Y-81409342D02*
X57547618Y-81123628D01*
X57547618Y-81123628D02*
X57499999Y-81028390D01*
X57499999Y-81028390D02*
X57452380Y-80980771D01*
X57452380Y-80980771D02*
X57357142Y-80933152D01*
X57357142Y-80933152D02*
X57214285Y-80933152D01*
X57214285Y-80933152D02*
X57119047Y-80980771D01*
X57119047Y-80980771D02*
X57071428Y-81028390D01*
X57071428Y-81028390D02*
X57023809Y-81123628D01*
X57023809Y-81123628D02*
X57023809Y-81409342D01*
X57023809Y-81409342D02*
X57071428Y-81504580D01*
X57071428Y-81504580D02*
X57119047Y-81552200D01*
X57119047Y-81552200D02*
X57214285Y-81599819D01*
X57214285Y-81599819D02*
X57357142Y-81599819D01*
X56595237Y-80933152D02*
X56595237Y-81599819D01*
X56595237Y-81028390D02*
X56547618Y-80980771D01*
X56547618Y-80980771D02*
X56452380Y-80933152D01*
X56452380Y-80933152D02*
X56309523Y-80933152D01*
X56309523Y-80933152D02*
X56214285Y-80980771D01*
X56214285Y-80980771D02*
X56166666Y-81076009D01*
X56166666Y-81076009D02*
X56166666Y-81599819D01*
X55833332Y-80933152D02*
X55452380Y-80933152D01*
X55690475Y-80599819D02*
X55690475Y-81456961D01*
X55690475Y-81456961D02*
X55642856Y-81552200D01*
X55642856Y-81552200D02*
X55547618Y-81599819D01*
X55547618Y-81599819D02*
X55452380Y-81599819D01*
X55357142Y-81695057D02*
X54595237Y-81695057D01*
X54404760Y-81314104D02*
X53928570Y-81314104D01*
X54499998Y-81599819D02*
X54166665Y-80599819D01*
X54166665Y-80599819D02*
X53833332Y-81599819D01*
X52976189Y-81599819D02*
X53547617Y-81599819D01*
X53261903Y-81599819D02*
X53261903Y-80599819D01*
X53261903Y-80599819D02*
X53357141Y-80742676D01*
X53357141Y-80742676D02*
X53452379Y-80837914D01*
X53452379Y-80837914D02*
X53547617Y-80885533D01*
%TO.C,SW4*%
X182350000Y-58495000D02*
X182350000Y-57495000D01*
X182350000Y-71495000D02*
X182350000Y-70495000D01*
X183350000Y-71495000D02*
X182350000Y-71495000D01*
X196350000Y-70495000D02*
X196350000Y-71495000D01*
X196350000Y-71495000D02*
X195350000Y-71495000D01*
X196350000Y-57495000D02*
X196350000Y-58495000D01*
X195350000Y-57495000D02*
X196350000Y-57495000D01*
X182350000Y-57495000D02*
X183350000Y-57495000D01*
%TO.C,SW8*%
X87100000Y-38445000D02*
X88100000Y-38445000D01*
X100100000Y-38445000D02*
X101100000Y-38445000D01*
X101100000Y-38445000D02*
X101100000Y-39445000D01*
X101100000Y-52445000D02*
X100100000Y-52445000D01*
X101100000Y-51445000D02*
X101100000Y-52445000D01*
X88100000Y-52445000D02*
X87100000Y-52445000D01*
X87100000Y-52445000D02*
X87100000Y-51445000D01*
X87100000Y-39445000D02*
X87100000Y-38445000D01*
%TO.C,SW7*%
X68050000Y-38445000D02*
X69050000Y-38445000D01*
X81050000Y-38445000D02*
X82050000Y-38445000D01*
X82050000Y-38445000D02*
X82050000Y-39445000D01*
X82050000Y-52445000D02*
X81050000Y-52445000D01*
X82050000Y-51445000D02*
X82050000Y-52445000D01*
X69050000Y-52445000D02*
X68050000Y-52445000D01*
X68050000Y-52445000D02*
X68050000Y-51445000D01*
X68050000Y-39445000D02*
X68050000Y-38445000D01*
%TO.C,SW6*%
X49000000Y-38445000D02*
X50000000Y-38445000D01*
X62000000Y-38445000D02*
X63000000Y-38445000D01*
X63000000Y-38445000D02*
X63000000Y-39445000D01*
X63000000Y-52445000D02*
X62000000Y-52445000D01*
X63000000Y-51445000D02*
X63000000Y-52445000D01*
X50000000Y-52445000D02*
X49000000Y-52445000D01*
X49000000Y-52445000D02*
X49000000Y-51445000D01*
X49000000Y-39445000D02*
X49000000Y-38445000D01*
%TO.C,SW5*%
X163300000Y-58495000D02*
X163300000Y-57495000D01*
X163300000Y-71495000D02*
X163300000Y-70495000D01*
X164300000Y-71495000D02*
X163300000Y-71495000D01*
X177300000Y-70495000D02*
X177300000Y-71495000D01*
X177300000Y-71495000D02*
X176300000Y-71495000D01*
X177300000Y-57495000D02*
X177300000Y-58495000D01*
X176300000Y-57495000D02*
X177300000Y-57495000D01*
X163300000Y-57495000D02*
X164300000Y-57495000D01*
%TO.C,SW3*%
X201400000Y-58495000D02*
X201400000Y-57495000D01*
X201400000Y-71495000D02*
X201400000Y-70495000D01*
X202400000Y-71495000D02*
X201400000Y-71495000D01*
X215400000Y-70495000D02*
X215400000Y-71495000D01*
X215400000Y-71495000D02*
X214400000Y-71495000D01*
X215400000Y-57495000D02*
X215400000Y-58495000D01*
X214400000Y-57495000D02*
X215400000Y-57495000D01*
X201400000Y-57495000D02*
X202400000Y-57495000D01*
%TO.C,SW2*%
X163300000Y-39445000D02*
X163300000Y-38445000D01*
X163300000Y-52445000D02*
X163300000Y-51445000D01*
X164300000Y-52445000D02*
X163300000Y-52445000D01*
X177300000Y-51445000D02*
X177300000Y-52445000D01*
X177300000Y-52445000D02*
X176300000Y-52445000D01*
X177300000Y-38445000D02*
X177300000Y-39445000D01*
X176300000Y-38445000D02*
X177300000Y-38445000D01*
X163300000Y-38445000D02*
X164300000Y-38445000D01*
%TO.C,SW1*%
X182350000Y-38445000D02*
X183350000Y-38445000D01*
X195350000Y-38445000D02*
X196350000Y-38445000D01*
X196350000Y-38445000D02*
X196350000Y-39445000D01*
X196350000Y-52445000D02*
X195350000Y-52445000D01*
X196350000Y-51445000D02*
X196350000Y-52445000D01*
X183350000Y-52445000D02*
X182350000Y-52445000D01*
X182350000Y-52445000D02*
X182350000Y-51445000D01*
X182350000Y-39445000D02*
X182350000Y-38445000D01*
%TO.C,SW0*%
X201400000Y-39445000D02*
X201400000Y-38445000D01*
X201400000Y-52445000D02*
X201400000Y-51445000D01*
X202400000Y-52445000D02*
X201400000Y-52445000D01*
X215400000Y-51445000D02*
X215400000Y-52445000D01*
X215400000Y-52445000D02*
X214400000Y-52445000D01*
X215400000Y-38445000D02*
X215400000Y-39445000D01*
X214400000Y-38445000D02*
X215400000Y-38445000D01*
X201400000Y-38445000D02*
X202400000Y-38445000D01*
D11*
%TO.C,Front_A3*%
X198875000Y-85105000D02*
X199525000Y-85105000D01*
X198875000Y-85105000D02*
X198225000Y-85105000D01*
X198875000Y-81985000D02*
X200550000Y-81985000D01*
X198875000Y-81985000D02*
X198225000Y-81985000D01*
D12*
X217925000Y-74020000D02*
X179825000Y-74020000D01*
X179825000Y-74020000D02*
X179825000Y-93070000D01*
X179825000Y-93070000D02*
X217925000Y-93070000D01*
X217925000Y-93070000D02*
X217925000Y-74020000D01*
D11*
%TO.C,Front_A0*%
X75050000Y-66055000D02*
X75700000Y-66055000D01*
X75050000Y-66055000D02*
X74400000Y-66055000D01*
X75050000Y-62935000D02*
X76725000Y-62935000D01*
X75050000Y-62935000D02*
X74400000Y-62935000D01*
D12*
X84575000Y-54970000D02*
X65525000Y-54970000D01*
X65525000Y-54970000D02*
X65525000Y-74020000D01*
X65525000Y-74020000D02*
X84575000Y-74020000D01*
X84575000Y-74020000D02*
X84575000Y-54970000D01*
%TO.C,Front_A2*%
X103625000Y-74020000D02*
X84575000Y-74020000D01*
X84575000Y-74020000D02*
X84575000Y-93070000D01*
X84575000Y-93070000D02*
X103625000Y-93070000D01*
X103625000Y-93070000D02*
X103625000Y-74020000D01*
D11*
X94100000Y-81985000D02*
X93450000Y-81985000D01*
X94100000Y-81985000D02*
X95775000Y-81985000D01*
X94100000Y-85105000D02*
X93450000Y-85105000D01*
X94100000Y-85105000D02*
X94750000Y-85105000D01*
D12*
%TO.C,Front_A1*%
X65525000Y-74020000D02*
X46475000Y-74020000D01*
X46475000Y-74020000D02*
X46475000Y-93070000D01*
X46475000Y-93070000D02*
X65525000Y-93070000D01*
X65525000Y-93070000D02*
X65525000Y-74020000D01*
D11*
X56000000Y-81985000D02*
X55350000Y-81985000D01*
X56000000Y-81985000D02*
X57675000Y-81985000D01*
X56000000Y-85105000D02*
X55350000Y-85105000D01*
X56000000Y-85105000D02*
X56650000Y-85105000D01*
%TD*%
M02*
