%TF.GenerationSoftware,KiCad,Pcbnew,7.0.9*%
%TF.CreationDate,2024-01-30T16:44:38+01:00*%
%TF.ProjectId,tm-gamepad,746d2d67-616d-4657-9061-642e6b696361,rev?*%
%TF.SameCoordinates,Original*%
%TF.FileFunction,Soldermask,Bot*%
%TF.FilePolarity,Negative*%
%FSLAX46Y46*%
G04 Gerber Fmt 4.6, Leading zero omitted, Abs format (unit mm)*
G04 Created by KiCad (PCBNEW 7.0.9) date 2024-01-30 16:44:38*
%MOMM*%
%LPD*%
G01*
G04 APERTURE LIST*
G04 Aperture macros list*
%AMRoundRect*
0 Rectangle with rounded corners*
0 $1 Rounding radius*
0 $2 $3 $4 $5 $6 $7 $8 $9 X,Y pos of 4 corners*
0 Add a 4 corners polygon primitive as box body*
4,1,4,$2,$3,$4,$5,$6,$7,$8,$9,$2,$3,0*
0 Add four circle primitives for the rounded corners*
1,1,$1+$1,$2,$3*
1,1,$1+$1,$4,$5*
1,1,$1+$1,$6,$7*
1,1,$1+$1,$8,$9*
0 Add four rect primitives between the rounded corners*
20,1,$1+$1,$2,$3,$4,$5,0*
20,1,$1+$1,$4,$5,$6,$7,0*
20,1,$1+$1,$6,$7,$8,$9,0*
20,1,$1+$1,$8,$9,$2,$3,0*%
G04 Aperture macros list end*
%ADD10O,2.500000X1.500000*%
%ADD11O,1.500000X2.500000*%
%ADD12C,3.200000*%
%ADD13C,2.286000*%
%ADD14C,3.987800*%
%ADD15C,1.701800*%
%ADD16RoundRect,0.150000X0.587500X0.150000X-0.587500X0.150000X-0.587500X-0.150000X0.587500X-0.150000X0*%
G04 APERTURE END LIST*
D10*
%TO.C,U5*%
X124334000Y-37063000D03*
X124334000Y-39603000D03*
X124334000Y-42143000D03*
X124334000Y-44683000D03*
X124334000Y-47223000D03*
X124334000Y-49763000D03*
X124334000Y-52303000D03*
X124334000Y-54843000D03*
X124334000Y-57383000D03*
D11*
X127374000Y-57883000D03*
X129914000Y-57883000D03*
X132454000Y-57883000D03*
X134994000Y-57883000D03*
X137534000Y-57883000D03*
D10*
X140574000Y-57383000D03*
X140574000Y-54843000D03*
X140574000Y-52303000D03*
X140574000Y-49763000D03*
X140574000Y-47223000D03*
X140574000Y-44683000D03*
X140574000Y-42143000D03*
X140574000Y-39603000D03*
X140574000Y-37063000D03*
%TD*%
D12*
%TO.C,REF\u002A\u002A*%
X108832000Y-88625000D03*
%TD*%
%TO.C,REF\u002A\u002A*%
X157600000Y-88625000D03*
%TD*%
%TO.C,REF\u002A\u002A*%
X157600000Y-68305000D03*
%TD*%
%TO.C,REF\u002A\u002A*%
X157600000Y-47985000D03*
%TD*%
%TO.C,REF\u002A\u002A*%
X113150000Y-39095000D03*
%TD*%
%TO.C,REF\u002A\u002A*%
X75050000Y-89895000D03*
%TD*%
%TO.C,REF\u002A\u002A*%
X49650000Y-58145000D03*
%TD*%
%TO.C,REF\u002A\u002A*%
X215258000Y-55097000D03*
%TD*%
D13*
%TO.C,SW4*%
X193160000Y-61955000D03*
X186810000Y-59415000D03*
X191890000Y-59415000D03*
D14*
X189350000Y-64495000D03*
D13*
X185540000Y-61955000D03*
D15*
X194430000Y-64495000D03*
X184270000Y-64495000D03*
%TD*%
%TO.C,SW8*%
X89020000Y-45445000D03*
X99180000Y-45445000D03*
D13*
X90290000Y-42905000D03*
D14*
X94100000Y-45445000D03*
D13*
X96640000Y-40365000D03*
X91560000Y-40365000D03*
X97910000Y-42905000D03*
%TD*%
D15*
%TO.C,SW7*%
X69970000Y-45445000D03*
X80130000Y-45445000D03*
D13*
X71240000Y-42905000D03*
D14*
X75050000Y-45445000D03*
D13*
X77590000Y-40365000D03*
X72510000Y-40365000D03*
X78860000Y-42905000D03*
%TD*%
D15*
%TO.C,SW6*%
X50920000Y-45445000D03*
X61080000Y-45445000D03*
D13*
X52190000Y-42905000D03*
D14*
X56000000Y-45445000D03*
D13*
X58540000Y-40365000D03*
X53460000Y-40365000D03*
X59810000Y-42905000D03*
%TD*%
%TO.C,SW5*%
X174110000Y-61955000D03*
X167760000Y-59415000D03*
X172840000Y-59415000D03*
D14*
X170300000Y-64495000D03*
D13*
X166490000Y-61955000D03*
D15*
X175380000Y-64495000D03*
X165220000Y-64495000D03*
%TD*%
D13*
%TO.C,SW3*%
X212210000Y-61955000D03*
X205860000Y-59415000D03*
X210940000Y-59415000D03*
D14*
X208400000Y-64495000D03*
D13*
X204590000Y-61955000D03*
D15*
X213480000Y-64495000D03*
X203320000Y-64495000D03*
%TD*%
D13*
%TO.C,SW2*%
X174110000Y-42905000D03*
X167760000Y-40365000D03*
X172840000Y-40365000D03*
D14*
X170300000Y-45445000D03*
D13*
X166490000Y-42905000D03*
D15*
X175380000Y-45445000D03*
X165220000Y-45445000D03*
%TD*%
%TO.C,SW1*%
X184270000Y-45445000D03*
X194430000Y-45445000D03*
D13*
X185540000Y-42905000D03*
D14*
X189350000Y-45445000D03*
D13*
X191890000Y-40365000D03*
X186810000Y-40365000D03*
X193160000Y-42905000D03*
%TD*%
%TO.C,SW0*%
X212210000Y-42905000D03*
X205860000Y-40365000D03*
X210940000Y-40365000D03*
D14*
X208400000Y-45445000D03*
D13*
X204590000Y-42905000D03*
D15*
X213480000Y-45445000D03*
X203320000Y-45445000D03*
%TD*%
D16*
%TO.C,Front_A3*%
X199812500Y-82595000D03*
X199812500Y-84495000D03*
X197937500Y-83545000D03*
%TD*%
%TO.C,Front_A0*%
X75987500Y-63545000D03*
X75987500Y-65445000D03*
X74112500Y-64495000D03*
%TD*%
%TO.C,Front_A2*%
X93162500Y-83545000D03*
X95037500Y-84495000D03*
X95037500Y-82595000D03*
%TD*%
%TO.C,Front_A1*%
X55062500Y-83545000D03*
X56937500Y-84495000D03*
X56937500Y-82595000D03*
%TD*%
M02*
